<svg width="76" height="50" viewBox="0 0 76 50" fill="none" xmlns="http://www.w3.org/2000/svg"><path d="M72.605 33.534c-2.402-1.508-8.023-2.068-9.426-4.136-1.402-2.068-1.891-4.614-1.891-4.614l-10.742-1.477-1.12 1.324s-.391 2.69-1.794 4.757c-1.402 2.068-7.023 2.628-9.426 4.136" fill="#185972"/><path d="M72.605 33.534c-2.402-1.508-8.023-2.068-9.426-4.136-1.402-2.068-1.891-4.614-1.891-4.614l-10.742-1.477-1.12 1.324s-.391 2.69-1.794 4.757c-1.402 2.068-7.023 2.628-9.426 4.136" stroke="#fff" stroke-linecap="round" stroke-linejoin="round"/><path d="M35.803 47.306c0-.57.163-12.377 2.403-13.782 2.402-1.508 8.023-2.068 9.426-4.136 0 0 2.196 1.538 7.751 1.538 5.556 0 7.785-1.538 7.785-1.538 1.402 2.068 7.023 2.628 9.426 4.135 1.446.907 2.022 11.45 2.25 13.783" fill="#185972"/><path d="M35.803 47.306c0-.57.163-12.377 2.403-13.782 2.402-1.508 8.023-2.068 9.426-4.136 0 0 2.196 1.538 7.751 1.538 5.556 0 7.785-1.538 7.785-1.538 1.402 2.068 7.023 2.628 9.426 4.135 1.446.907 2.022 11.45 2.25 13.783" stroke="#fff" stroke-linecap="round" stroke-linejoin="round"/><path d="M65.722 14.495c-1.065-1.487-1.968-.448-1.968-.448l-.206-3.84c-.903-1.62-6.22-2.16-8.09-1.936-1.87-.224-7.186.316-8.088 1.935v4.096s-.837-1.732-2.174.193c-.87 1.253-.36 3.963.652 4.88 1.011.906 1.522.387 1.522.387s.511 4.553 3.544 5.918c3.001 1.345 3.534 1.365 4.523 1.365h.044c.989 0 1.522-.02 4.522-1.365a4.418 4.418 0 001.022-.642c2.131-1.782 2.523-5.266 2.523-5.266s.51.52 1.522-.387c1.011-.907 1.576-3.586.652-4.88v-.01z" fill="#185972" stroke="#fff" stroke-linecap="round" stroke-linejoin="round"/><path d="M47.599 15.463s-.011-5.522 1.761-5.705c1.772-.183 4.142 1.569 6.904 1.385 2.75-.183 3.675-1.63 5.87-1.212 1.512.286 1.306 5.664 1.306 5.664s.14-.774.543-1.243c.5-.59 1.098-.468 1.098-.468s.272-5.39-.848-7.212c-.772-1.264-2.076-1.824-3.849-2.944-1.772-1.131-1.826-2.007-1.826-2.007s-1.446 1.09-2.033.906c-.587-.183-.533-1.405-.533-1.405s-3.849 1.884-5.295 2.373c-1.185.408-3.38 1.07-4.24 3.107-1.174 2.791-.717 7.09-.717 7.09s.402-.143 1.12.245c.543.295.728 1.436.728 1.436l.01-.01z" fill="#185972" stroke="#fff" stroke-linecap="round" stroke-linejoin="round"/><path d="M52.122 16.98c.289 0 .522-.392.522-.875 0-.484-.233-.877-.522-.877-.288 0-.521.393-.521.877 0 .483.233.876.521.876zm6.251 0c.289 0 .522-.392.522-.875 0-.484-.233-.877-.522-.877-.288 0-.521.393-.521.877 0 .483.233.876.521.876z" fill="#fff"/><path d="M57.46 20.983c-.185.601-1.034 1.12-2.306 1.12s-2.12-.519-2.304-1.12" fill="#185972"/><path d="M57.46 20.983c-.185.601-1.034 1.12-2.306 1.12s-2.12-.519-2.304-1.12m-9.752 21.749l-.326 4.574m23.701-4.574l.315 4.574" stroke="#fff" stroke-linecap="round" stroke-linejoin="round"/><path d="M45.849 15.34c.717.744 1.141 2.232 1.217 3.627l-1.217-3.626z" fill="#185972"/><path d="M45.849 15.34c.717.744 1.141 2.232 1.217 3.627" stroke="#fff" stroke-linecap="round" stroke-linejoin="round"/><path d="M65.08 15.34c-.718.744-1.142 2.232-1.218 3.627l1.218-3.626z" fill="#185972"/><path d="M65.08 15.34c-.718.744-1.142 2.232-1.218 3.627" stroke="#fff" stroke-linecap="round" stroke-linejoin="round"/><path d="M10.208 12.813l-3.62 22.95s9.013.867 8.882.683c-.13-.183 0-15.3 0-15.3l-5.262-8.333zm19.092-.049l3.62 22.95s-9.013.866-8.883.683c.131-.184 0-15.3 0-15.3l5.263-8.333z" fill="#185972" stroke="#fff" stroke-linecap="round" stroke-linejoin="round"/><path d="M35.432 42.192c-2.284-1.426-8.057-6.836-9.394-8.801-1.337-1.966-2.457-6.917-2.457-6.917l-8.578-1.162.076 1.162s-.902 5.582-2.24 7.548c-1.337 1.966-6.664 5.908-8.947 7.334" fill="#185972"/><path d="M35.432 42.192c-2.284-1.426-8.057-6.836-9.394-8.801-1.337-1.966-2.457-6.917-2.457-6.917l-8.578-1.162.076 1.162s-.902 5.582-2.24 7.548c-1.337 1.966-6.664 5.908-8.947 7.334" stroke="#fff" stroke-linecap="round" stroke-linejoin="round"/><path d="M1 48.11c0-.539.152-10.074 2.283-11.408 2.283-1.426 8.23-1.548 9.557-3.514 0 0 1.207 2.516 6.49 2.516 5.284 0 6.709-2.303 6.709-2.303 1.337 1.966 7.632 1.875 9.915 3.3 1.37.857 1.924 9.2 2.142 11.41" fill="#185972"/><path d="M1 48.11c0-.539.152-10.074 2.283-11.408 2.283-1.426 8.23-1.548 9.557-3.514 0 0 1.207 2.516 6.49 2.516 5.284 0 6.709-2.303 6.709-2.303 1.337 1.966 7.632 1.875 9.915 3.3 1.37.857 1.924 9.2 2.142 11.41" stroke="#fff" stroke-linecap="round" stroke-linejoin="round"/><path d="M29.42 17.612c-.685-.683-2.066.102-2.066.102v-4.788c-.859-1.59-5.903-2.109-7.686-1.895-1.783-.214-6.828.306-7.687 1.895v4.788s-1.152-1.274-2.066.193c-1.174 1.875-.348 3.881.62 4.778.968.886 1.446.377 1.446.377s.478 3.687 3.37 5.022c2.849 1.324 3.36 1.334 4.295 1.334h.043c.935 0 1.446-.02 4.295-1.334.359-.163.685-.387.978-.632 2.023-1.752 2.392-4.39 2.392-4.39s.37.387 1.446-.377c1.696-1.213 1.316-4.37.62-5.063v-.01z" fill="#185972" stroke="#fff" stroke-linecap="round" stroke-linejoin="round"/><path d="M16.525 20.29c.264 0 .479-.373.479-.835 0-.46-.215-.835-.479-.835s-.478.374-.478.835c0 .462.214.836.478.836zm5.719 0c.264 0 .478-.373.478-.835 0-.46-.214-.835-.478-.835s-.478.374-.478.835c0 .462.214.836.478.836z" fill="#fff"/><path d="M20.766 24.488c-.446.428-1.794.733-2.468-.01l2.468.01z" fill="#185972"/><path d="M20.766 24.488c-.446.428-1.794.733-2.468-.01" stroke="#fff" stroke-linecap="round" stroke-linejoin="round"/><path d="M29.91 18.366c-.413-.876-.805-1.09-1.642-.988-.685.081-.99.478-.99.478-1.837-.173-6.294-5.888-7.262-7.029-1.076 1.141-6.12 7.09-7.947 7.264 0 0-.196-.734-.87-.856-1.044-.204-1.316.784-1.685.917 0 0-1.316-11.022 7.436-12.183 1.36-.184 4.12-.194 5.48 0 8.35 1.191 7.502 12.397 7.502 12.397h-.022z" fill="#185972" stroke="#fff" stroke-linecap="round" stroke-linejoin="round"/><path d="M8.936 43.445l-.315 4.34m22.516-4.34l.304 4.34" stroke="#fff" stroke-linecap="round" stroke-linejoin="round"/><path d="M10.621 18.57c.674.702 1.087 2.118 1.152 3.442l-1.152-3.443z" fill="#185972"/><path d="M10.621 18.57c.674.702 1.087 2.118 1.152 3.442" stroke="#fff" stroke-linecap="round" stroke-linejoin="round"/><path d="M28.778 18.57c-.674.702-1.087 2.118-1.152 3.442l1.152-3.443z" fill="#185972"/><path d="M28.778 18.57c-.674.702-1.087 2.118-1.152 3.442" stroke="#fff" stroke-linecap="round" stroke-linejoin="round"/><path d="M26.213 39.208c1.75-1.09 5.827-1.497 6.85-3.005 1.021-1.497 1.37-3.351 1.37-3.351l7.805-1.07.816.968s.282 1.956 1.304 3.453c1.022 1.498 5.1 1.915 6.85 3.005" fill="#185972"/><path d="M26.213 39.208c1.75-1.09 5.827-1.497 6.85-3.005 1.021-1.497 1.37-3.351 1.37-3.351l7.805-1.07.816.968s.282 1.956 1.304 3.453c1.022 1.498 5.1 1.915 6.85 3.005" stroke="#fff" stroke-linecap="round" stroke-linejoin="round"/><path d="M52.958 49.22c0-.417-.12-8.994-1.75-10.013-1.75-1.09-5.828-1.497-6.85-3.005 0 0-1.598 1.12-5.631 1.12-4.034 0-5.665-1.12-5.665-1.12-1.022 1.498-5.099 1.915-6.849 3.005-1.055.652-1.468 8.323-1.642 10.014" fill="#185972"/><path d="M52.958 49.22c0-.417-.12-8.994-1.75-10.013-1.75-1.09-5.828-1.497-6.85-3.005 0 0-1.598 1.12-5.631 1.12-4.034 0-5.665-1.12-5.665-1.12-1.022 1.498-5.099 1.915-6.849 3.005-1.055.652-1.468 8.323-1.642 10.014" stroke="#fff" stroke-linecap="round" stroke-linejoin="round"/><path d="M31.214 25.375c.772-1.08 1.424-.326 1.424-.326l.153-2.791c.652-1.182 4.522-1.57 5.881-1.406 1.36-.163 5.23.234 5.882 1.406v2.974s.61-1.253 1.577.143c.63.906.26 2.883-.479 3.545-.739.662-1.109.285-1.109.285s-.37 3.31-2.576 4.299c-2.186.978-2.566.988-3.284.988h-.022c-.717 0-1.108-.01-3.283-.988a3.495 3.495 0 01-.75-.469c-1.555-1.294-1.837-3.83-1.837-3.83s-.37.377-1.11-.285c-.739-.663-1.14-2.608-.478-3.545h.011z" fill="#185972" stroke="#fff" stroke-linecap="round" stroke-linejoin="round"/><path d="M44.38 26.078s0-4.014-1.272-4.146c-1.283-.133-3.012 1.14-5.012.998-2-.143-2.664-1.182-4.273-.886-1.098.203-.946 4.115-.946 4.115s-.109-.56-.391-.907c-.36-.427-.805-.346-.805-.346s-.196-3.912.609-5.236c.565-.917 1.511-1.324 2.794-2.14 1.283-.814 1.326-1.456 1.326-1.456s4.676 1.009 5.72 1.365c.869.296 2.456.774 3.076 2.262.848 2.027.522 5.154.522 5.154s-.294-.102-.816.173c-.39.214-.521 1.05-.521 1.05h-.011z" fill="#185972" stroke="#fff" stroke-linecap="round" stroke-linejoin="round"/><path d="M41.096 27.178c.21 0 .38-.287.38-.642 0-.354-.17-.642-.38-.642s-.38.288-.38.642c0 .355.17.642.38.642zm-4.544 0c.21 0 .38-.287.38-.642 0-.354-.17-.642-.38-.642s-.38.288-.38.642c0 .355.17.642.38.642z" fill="#fff"/><path d="M37.215 30.09c.13.439.75.816 1.674.816.924 0 1.544-.377 1.674-.815" fill="#185972"/><path d="M37.215 30.09c.13.439.75.816 1.674.816.924 0 1.544-.377 1.674-.815m7.09 15.809l.24 3.321M30.659 45.9l-.228 3.321" stroke="#fff" stroke-linecap="round" stroke-linejoin="round"/><path d="M45.652 25.986c-.522.54-.826 1.62-.88 2.639l.88-2.639z" fill="#185972"/><path d="M45.652 25.986c-.522.54-.826 1.62-.88 2.639" stroke="#fff" stroke-linecap="round" stroke-linejoin="round"/><path d="M31.67 25.986c.522.54.826 1.62.88 2.639l-.88-2.639z" fill="#185972"/><path d="M31.67 25.986c.522.54.826 1.62.88 2.639" stroke="#fff" stroke-linecap="round" stroke-linejoin="round"/></svg>