<svg width="76" height="54" viewBox="0 0 76 54" fill="none" xmlns="http://www.w3.org/2000/svg"><g clip-path="url(#clip0_4001_40336)"><path d="M73.278 35.374c-2.447-1.624-8.16-2.234-9.588-4.467a15.764 15.764 0 01-1.925-4.988l-10.93-1.589-1.134 1.443a14.63 14.63 0 01-1.804 5.155c-1.428 2.234-7.141 2.844-9.592 4.467" fill="#fff"/><path d="M73.278 35.374c-2.447-1.624-8.16-2.234-9.588-4.467a15.764 15.764 0 01-1.925-4.988l-10.93-1.589-1.134 1.443a14.63 14.63 0 01-1.804 5.155c-1.428 2.234-7.141 2.844-9.592 4.467" stroke="#000" stroke-width="2" stroke-linecap="round" stroke-linejoin="round"/><path d="M35.836 50.259c0-.614.16-13.372 2.447-14.893 2.45-1.615 8.163-2.225 9.613-4.437 0 0 2.236 1.662 7.888 1.662 5.653 0 7.905-1.662 7.905-1.662 1.429 2.233 7.142 2.843 9.588 4.467 1.472.975 2.058 12.376 2.291 14.893" fill="#fff"/><path d="M35.836 50.259c0-.614.16-13.372 2.447-14.893 2.45-1.615 8.163-2.225 9.613-4.437 0 0 2.236 1.662 7.888 1.662 5.653 0 7.905-1.662 7.905-1.662 1.429 2.233 7.142 2.843 9.588 4.467 1.472.975 2.058 12.376 2.291 14.893" stroke="#000" stroke-width="2" stroke-linecap="round" stroke-linejoin="round"/><path d="M66.274 14.803c-1.083-1.603-2.002-.49-2.002-.49l-.207-4.15c-.92-1.752-6.326-2.332-8.233-2.092-1.908-.24-7.314.34-8.233 2.092v4.442s-.863-1.869-2.21.21c-.863 1.354-.366 4.296.665 5.271 1.031.975 1.545.43 1.545.43s.517 4.918 3.611 6.396c3.094 1.478 3.59 1.439 4.604 1.439h.035c1.01 0 1.549-.022 4.604-1.478.378-.172.73-.398 1.044-.67 2.158-1.929 2.568-5.696 2.568-5.696s.513.563 1.544-.43c1.032-.992 1.606-3.883.665-5.274z" fill="#fff" stroke="#000" stroke-width="2" stroke-linecap="round" stroke-linejoin="round"/><path d="M47.837 15.847s0-5.967 1.79-6.169c1.791-.202 4.22 1.697 7.02 1.49 2.801-.205 3.738-1.76 5.977-1.31 1.536.306 1.33 6.122 1.33 6.122a3.51 3.51 0 01.551-1.35 1.216 1.216 0 011.122-.51s.276-5.816-.863-7.788c-.785-1.362-2.11-1.968-3.913-3.187C59.047 1.925 58.999.97 58.999.97s-1.47 1.177-2.07.98c-.6-.198-.544-1.521-.544-1.521s-3.923 2.04-5.386 2.577c-1.208.43-3.452 1.156-4.315 3.363-1.19 3.007-.729 7.668-.729 7.668s.432-.159 1.14.262c.56.305.742 1.547.742 1.547z" fill="#fff" stroke="#000" stroke-width="2" stroke-linecap="round" stroke-linejoin="round"/><path d="M52.445 17.483c.293 0 .53-.423.53-.945s-.237-.945-.53-.945c-.293 0-.53.423-.53.945s.237.945.53.945zm6.355 0c.293 0 .531-.423.531-.945s-.238-.945-.53-.945c-.294 0-.532.423-.532.945s.238.945.531.945z" fill="#000"/><path d="M57.872 21.817c-.19.653-1.052 1.216-2.347 1.216-1.294 0-2.157-.563-2.347-1.216" fill="#fff"/><path d="M57.872 21.817c-.19.653-1.052 1.216-2.347 1.216-1.294 0-2.157-.563-2.347-1.216m-9.92 23.51l-.323 4.94m24.112-4.94l.32 4.94" stroke="#000" stroke-width="2" stroke-linecap="round" stroke-linejoin="round"/><path d="M9.795 12.113L6.11 36.942s9.174.932 9.062.73c-.112-.202 0-16.538 0-16.538l-5.377-9.02zm19.427-.05l3.685 24.81s-9.174.929-9.04.735c.133-.193 0-16.542 0-16.542l5.355-9.003z" fill="#fff" stroke="#000" stroke-width="2" stroke-linecap="round" stroke-linejoin="round"/><path d="M35.465 43.875c-2.326-1.546-8.203-7.392-9.575-9.51-1.372-2.118-2.503-7.475-2.503-7.475l-8.716-1.258.078 1.254s-.92 6.014-2.274 8.162c-1.355 2.148-6.766 6.374-9.092 7.908" fill="#fff"/><path d="M35.465 43.875c-2.326-1.546-8.203-7.392-9.575-9.51-1.372-2.118-2.503-7.475-2.503-7.475l-8.716-1.258.078 1.254s-.92 6.014-2.274 8.162c-1.355 2.148-6.766 6.374-9.092 7.908" stroke="#000" stroke-width="2" stroke-linecap="round" stroke-linejoin="round"/><path d="M.432 50.258c0-.584.15-10.893 2.325-12.332 2.326-1.547 8.367-1.676 9.726-3.802 0 0 1.23 2.72 6.598 2.72s6.81-2.48 6.81-2.48c1.354 2.123 7.766 2.028 10.092 3.575 1.394.923 1.95 9.94 2.157 12.332" fill="#fff"/><path d="M.432 50.258c0-.584.15-10.893 2.325-12.332 2.326-1.547 8.367-1.676 9.726-3.802 0 0 1.23 2.72 6.598 2.72s6.81-2.48 6.81-2.48c1.354 2.123 7.766 2.028 10.092 3.575 1.394.923 1.95 9.94 2.157 12.332" stroke="#000" stroke-width="2" stroke-linecap="round" stroke-linejoin="round"/><path d="M29.342 17.298c-.703-.743-2.101.108-2.101.108V12.25c-.863-1.718-6.007-2.28-7.82-2.049-1.811-.232-6.946.335-7.818 2.05v5.154s-1.165-1.38-2.11.206a4.327 4.327 0 00.63 5.155c.98.966 1.472.43 1.472.43s.487 3.968 3.438 5.416c2.952 1.448 3.418 1.456 4.385 1.456h.034c.958 0 1.471 0 4.371-1.443a4.23 4.23 0 00.984-.705c2.063-1.89 2.438-4.725 2.438-4.725s.375.43 1.471-.43c1.722-1.288 1.334-4.724.626-5.468z" fill="#fff" stroke="#000" stroke-width="2" stroke-linecap="round" stroke-linejoin="round"/><path d="M16.228 20.19c.267 0 .484-.403.484-.899 0-.495-.217-.897-.484-.897s-.483.402-.483.897c0 .496.216.898.483.898zm5.812 0c.268 0 .484-.403.484-.899 0-.495-.216-.897-.483-.897s-.483.402-.483.897c0 .496.216.898.483.898z" fill="#000"/><path d="M20.54 24.734c-.432.469-1.821.79-2.512 0z" fill="#fff"/><path d="M20.54 24.734c-.432.469-1.821.79-2.512 0" stroke="#000" stroke-width="2" stroke-linecap="round" stroke-linejoin="round"/><path d="M29.842 18.11c-.431-.945-.82-1.172-1.67-1.07a1.53 1.53 0 00-1.014.52c-1.864-.188-6.399-6.366-7.391-7.603-1.092 1.237-6.223 7.655-8.09 7.853a1.308 1.308 0 00-.864-.928c-1.061-.215-1.338.859-1.726.992 0 0-1.338-11.92 7.56-13.166a25.734 25.734 0 015.575 0c8.487 1.306 7.62 13.402 7.62 13.402z" fill="#fff" stroke="#000" stroke-width="2" stroke-linecap="round" stroke-linejoin="round"/><path d="M8.501 45.225l-.31 5.043m22.903-5.043l.306 5.043" stroke="#000" stroke-width="2" stroke-linecap="round" stroke-linejoin="round"/><path d="M24.596 44.799c1.985-1.319 6.619-1.813 7.767-3.621a12.743 12.743 0 001.562-4.043l8.858-1.288.924 1.164c.228 1.47.73 2.884 1.48 4.17 1.156 1.81 5.79 2.303 7.767 3.622" fill="#fff"/><path d="M24.596 44.799c1.985-1.319 6.619-1.813 7.767-3.621a12.743 12.743 0 001.562-4.043l8.858-1.288.924 1.164c.228 1.47.73 2.884 1.48 4.17 1.156 1.81 5.79 2.303 7.767 3.622" stroke="#000" stroke-width="2" stroke-linecap="round" stroke-linejoin="round"/><path d="M54.96 53.57c0-.498-.13-7.538-1.985-8.771-1.985-1.319-6.619-1.813-7.767-3.621 0 0-1.812 1.344-6.399 1.344s-6.446-1.344-6.446-1.344c-1.157 1.808-5.791 2.302-7.767 3.62-1.191.791-1.666 6.732-1.856 8.773" fill="#fff"/><path d="M54.96 53.57c0-.498-.13-7.538-1.985-8.771-1.985-1.319-6.619-1.813-7.767-3.621 0 0-1.812 1.344-6.399 1.344s-6.446-1.344-6.446-1.344c-1.157 1.808-5.791 2.302-7.767 3.62-1.191.791-1.666 6.732-1.856 8.773" stroke="#000" stroke-width="2" stroke-linecap="round" stroke-linejoin="round"/><path d="M30.282 28.12c.863-1.29 1.619-.396 1.619-.396l.172-3.368c.742-1.422 5.127-1.89 6.676-1.718 1.544-.193 5.928.275 6.67 1.718v3.591s.695-1.516 1.796.172c.711 1.096.297 3.475-.54 4.296-.837.82-1.255.34-1.255.34s-.432 3.99-2.926 5.188c-2.494 1.199-2.917 1.195-3.733 1.195h-.03c-.815 0-1.255 0-3.732-1.195a3.59 3.59 0 01-.863-.567c-1.76-1.568-2.08-4.622-2.08-4.622s-.431.456-1.256-.34c-.824-.794-1.281-3.17-.518-4.295z" fill="#fff" stroke="#000" stroke-width="2" stroke-linecap="round" stroke-linejoin="round"/><path d="M45.23 28.966s0-4.837-1.45-5.005c-1.45-.167-3.422 1.384-5.696 1.212-2.274-.172-3.02-1.43-4.846-1.066-1.242.25-1.078 4.966-1.078 4.966a2.771 2.771 0 00-.432-1.09.974.974 0 00-.906-.43s-.224-4.726.695-6.315c.638-1.104 1.726-1.598 3.171-2.577 1.446-.98 1.506-1.762 1.506-1.762s5.303 1.216 6.473 1.646c.983.352 2.787.932 3.495 2.723.966 2.444.591 6.22.591 6.22a1.161 1.161 0 00-.923.21c-.453.263-.6 1.268-.6 1.268z" fill="#fff" stroke="#000" stroke-width="2" stroke-linecap="round" stroke-linejoin="round"/><path d="M41.493 30.297c.238 0 .431-.345.431-.77 0-.424-.193-.768-.431-.768s-.431.344-.431.769c0 .424.193.769.431.769zm-5.153 0c.239 0 .432-.345.432-.77 0-.424-.193-.768-.431-.768-.239 0-.432.344-.432.769 0 .424.193.769.432.769z" fill="#000"/><path d="M37.11 33.807c.15.528.862.983 1.902.983s1.752-.455 1.903-.983" fill="#fff"/><path d="M37.11 33.807c.15.528.862.983 1.902.983s1.752-.455 1.903-.983m8.025 17.96l.268 1.804m-19.556-1.804l-.258 1.804" stroke="#000" stroke-width="2" stroke-linecap="round" stroke-linejoin="round"/></g><defs><clipPath id="clip0_4001_40336"><path fill="#fff" d="M0 0h76v54H0z"/></clipPath></defs></svg>