<svg width="48" height="54" viewBox="0 0 48 54" fill="none" xmlns="http://www.w3.org/2000/svg"><path d="M23.444 52.609l22.435-28.56-8.568-10.314H9.587L1.02 24.05l22.424 28.56zM1.52 24.05h43.86" stroke="#fff" stroke-linecap="round" stroke-linejoin="round"/><path d="M32.471 24.05l-9.027-10.315L14.55 24.05l8.894 28.56 9.027-28.56zM9.832 13.735L14.55 24.05m22.638-10.315L32.471 24.05m8.935-21.959l.868-1.483.868 1.483a3.98 3.98 0 001.654 1.55l1.583.814-1.45.736a3.976 3.976 0 00-1.787 1.8l-.878 1.798-.879-1.799A4.027 4.027 0 0039.6 5.191l-1.45-.736 1.582-.814a3.976 3.976 0 001.654-1.55h.02zM6.441 42.62l.358-.613.357.612c.153.268.398.488.684.641l.654.335-.592.306a1.65 1.65 0 00-.736.737l-.357.737-.357-.737a1.607 1.607 0 00-.736-.737l-.592-.306.654-.335c.285-.143.52-.373.684-.64h-.02zm36.701-3.732l.643-1.11.644 1.11c.285.488.714.89 1.235 1.158l1.185.603-1.072.555a2.994 2.994 0 00-1.328 1.339l-.654 1.34-.653-1.34a2.948 2.948 0 00-1.328-1.34l-1.072-.554 1.185-.603c.52-.268.95-.67 1.235-1.158h-.02z" stroke="#fff" stroke-linecap="round" stroke-linejoin="round"/></svg>