<svg width="235" height="120" viewBox="0 0 235 120" fill="none" xmlns="http://www.w3.org/2000/svg">
<path d="M0.35495 0.703125H233.709V119.027H0.35495V0.703125Z" fill="#191919" stroke="white" stroke-width="0.715956" stroke-miterlimit="10"/>
<path d="M233.709 11.4102H0.354943" stroke="white" stroke-width="0.715956" stroke-miterlimit="10"/>
<path d="M227.806 8.38974C226.517 8.38974 225.473 7.34498 225.473 6.0562C225.473 4.76742 226.517 3.72266 227.806 3.72266C229.095 3.72266 230.14 4.76742 230.14 6.0562C230.14 7.34498 229.095 8.38974 227.806 8.38974Z" stroke="white" stroke-width="0.715956" stroke-miterlimit="10"/>
<path d="M221.196 8.38974C219.907 8.38974 218.862 7.34498 218.862 6.0562C218.862 4.76742 219.907 3.72266 221.196 3.72266C222.485 3.72266 223.529 4.76742 223.529 6.0562C223.529 7.34498 222.485 8.38974 221.196 8.38974Z" stroke="white" stroke-width="0.715956" stroke-miterlimit="10"/>
<path d="M214.584 8.38974C213.296 8.38974 212.251 7.34498 212.251 6.0562C212.251 4.76742 213.296 3.72266 214.584 3.72266C215.873 3.72266 216.918 4.76742 216.918 6.0562C216.918 7.34498 215.873 8.38974 214.584 8.38974Z" stroke="white" stroke-width="0.715956" stroke-miterlimit="10"/>
<path d="M38.6415 84.949L57.0774 49.5764H64.2593L45.7787 84.949H38.6415ZM84.1495 82.1523V73.6951L84.4403 73.0463V57.9888H84.2166L72.8508 69.4441H86.4316L87.7069 69.0638H97.1262V75.6416H64.1251V69.735L84.5746 49.5764H92.025V82.1523H84.1495ZM99.3635 65.7972V65.5735C99.3635 60.2933 100.788 56.2139 103.637 53.3351C106.486 50.4415 110.55 48.9946 115.831 48.9946C121.155 48.9946 125.242 50.4191 128.091 53.268C130.955 56.1169 132.387 60.2187 132.387 65.5735V65.8196C132.387 71.3235 130.925 75.5223 128.002 78.4159C125.078 81.2947 121.021 82.7341 115.831 82.7341C110.506 82.7341 106.426 81.2649 103.592 78.3265C100.773 75.3881 99.3635 71.2116 99.3635 65.7972ZM107.776 66.3118C107.776 69.7275 108.425 72.308 109.723 74.0531C111.035 75.7982 113.079 76.6708 115.853 76.6708C118.627 76.6708 120.678 75.7982 122.006 74.0531C123.348 72.308 124.019 69.735 124.019 66.3342V65.1484C124.019 61.8818 123.341 59.4133 121.983 57.7427C120.626 56.0572 118.582 55.2145 115.853 55.2145C113.123 55.2145 111.095 56.0572 109.767 57.7427C108.44 59.4133 107.776 61.8744 107.776 65.126V66.3118ZM154.85 82.1523V73.6951L155.141 73.0463V57.9888H154.917L143.551 69.4441H157.132L158.407 69.0638H167.827V75.6416H134.826V69.735L155.275 49.5764H162.726V82.1523H154.85Z" fill="#B4B4B4"/>
</svg>
