<svg width="47" height="47" viewBox="0 0 47 47" fill="none" xmlns="http://www.w3.org/2000/svg">
<path d="M23.33 45.953C35.6625 45.953 45.66 35.9555 45.66 23.623C45.66 11.2905 35.6625 1.29297 23.33 1.29297C10.9975 1.29297 1 11.2905 1 23.623C1 35.9555 10.9975 45.953 23.33 45.953Z" fill="black" stroke="black" stroke-miterlimit="10"/>
<path d="M16.86 34.723C19.384 34.723 21.43 32.6769 21.43 30.153C21.43 27.6291 19.384 25.583 16.86 25.583C14.3361 25.583 12.29 27.6291 12.29 30.153C12.29 32.6769 14.3361 34.723 16.86 34.723Z" stroke="white" stroke-miterlimit="10"/>
<path d="M30.1901 34.723C32.7141 34.723 34.7601 32.6769 34.7601 30.153C34.7601 27.6291 32.7141 25.583 30.1901 25.583C27.6662 25.583 25.6201 27.6291 25.6201 30.153C25.6201 32.6769 27.6662 34.723 30.1901 34.723Z" stroke="white" stroke-miterlimit="10"/>
<path d="M21.4302 30.1531C21.4302 30.1531 23.7202 28.6331 25.6202 30.1531" stroke="white" stroke-miterlimit="10"/>
<path d="M36.67 21.7734H10V23.6734H36.67V21.7734Z" fill="white"/>
<path d="M15.3301 20.2533H32.0901L28.8301 11.7833C28.5201 10.9733 27.6401 10.5533 26.8201 10.8033L23.8601 11.7133C23.5201 11.8233 23.1501 11.8133 22.8201 11.6833L20.6601 10.8933C19.8201 10.5833 18.8901 11.0133 18.5701 11.8433L15.3401 20.2433L15.3301 20.2533Z" fill="white"/>
</svg>
