<svg width="321" height="273" viewBox="0 0 321 273" fill="none" xmlns="http://www.w3.org/2000/svg">
<path d="M319.863 2.09001C320.41 2.01368 320.792 1.50838 320.715 0.961399C320.639 0.414415 320.134 0.0328751 319.587 0.109206L319.863 2.09001ZM225.447 77.7793L224.463 77.5972L225.447 77.7793ZM298.804 112.16L299.731 112.535L298.804 112.16ZM88.4294 104.177L87.7936 103.405L87.7936 103.405L88.4294 104.177ZM319.587 0.109206C310.543 1.37127 289.739 4.83125 269.714 15.9124C249.663 27.0087 230.357 45.7722 224.463 77.5972L226.43 77.9614C232.188 46.8666 251.013 28.5474 270.683 17.6624C290.38 6.76227 310.889 3.34232 319.863 2.09001L319.587 0.109206ZM224.463 77.5972C221.712 92.4541 224.186 104.115 229.747 112.732C235.302 121.338 243.872 126.808 253.137 129.414C262.396 132.019 272.402 131.781 280.906 128.921C289.41 126.061 296.495 120.545 299.731 112.535L297.876 111.786C294.915 119.116 288.377 124.298 280.269 127.025C272.161 129.752 262.567 129.989 253.679 127.489C244.798 124.991 236.674 119.775 231.428 111.647C226.189 103.53 223.755 92.4065 226.43 77.9614L224.463 77.5972ZM299.731 112.535C302.937 104.597 303.373 97.3154 301.431 90.812C299.49 84.316 295.207 78.6965 289.147 74.0202C277.055 64.6885 257.761 59.0045 235.145 57.4824C189.891 54.4366 130.762 68.0189 87.7936 103.405L89.0651 104.949C131.575 69.9402 190.176 56.4603 235.011 59.4779C257.441 60.9875 276.28 66.6165 287.925 75.6035C293.734 80.0864 297.72 85.3777 299.514 91.3844C301.306 97.3836 300.942 104.196 297.876 111.786L299.731 112.535ZM87.7936 103.405C19.1322 159.949 1.11606 239.703 0.694418 272.607L2.69425 272.632C3.11025 240.17 20.9609 161.034 89.0651 104.949L87.7936 103.405Z" fill="white"/>
</svg>
