<svg width="403" height="160" viewBox="0 0 403 160" fill="none" xmlns="http://www.w3.org/2000/svg">
<path d="M173.94 11.4894L173.661 10.5291L173.94 11.4894ZM401.436 33.2191C401.965 33.0617 402.267 32.505 402.109 31.9756L399.545 23.3486C399.388 22.8192 398.831 22.5176 398.302 22.675C397.772 22.8323 397.471 23.389 397.628 23.9184L399.907 31.5869L392.239 33.8662C391.71 34.0235 391.408 34.5802 391.565 35.1096C391.723 35.639 392.279 35.9406 392.809 35.7833L401.436 33.2191ZM2.15672 159.363C19 124.409 70.2548 42.6333 174.218 12.4498L173.661 10.5291C68.9139 40.94 17.3115 123.306 0.354997 158.495L2.15672 159.363ZM174.218 12.4498C213.63 1.00752 259.515 0.357249 300.954 5.49532C342.403 10.6346 379.28 21.5493 400.675 33.1398L401.627 31.3812C379.938 19.6311 342.794 8.66783 301.2 3.51052C259.596 -1.64802 213.418 -1.01354 173.661 10.5291L174.218 12.4498Z" fill="white"/>
</svg>
