<svg xmlns="http://www.w3.org/2000/svg" xmlns:xlink="http://www.w3.org/1999/xlink" viewBox="0 0 1795.98 244.47"><defs><style>.cls-1,.cls-10,.cls-11,.cls-2,.cls-3,.cls-4{fill:none;}.cls-2,.cls-3{stroke:#1d1d1b;stroke-width:0.3px;}.cls-2{stroke-linecap:square;stroke-linejoin:bevel;}.cls-10,.cls-11,.cls-13,.cls-15,.cls-16,.cls-17,.cls-4,.cls-5,.cls-6,.cls-7,.cls-8,.cls-9{stroke:#000;}.cls-10,.cls-13,.cls-14,.cls-15,.cls-16,.cls-17,.cls-4,.cls-8,.cls-9{stroke-miterlimit:10;}.cls-13,.cls-18,.cls-5{fill:#fff;}.cls-11,.cls-5,.cls-6,.cls-7{stroke-linecap:round;stroke-linejoin:round;}.cls-10,.cls-11,.cls-5,.cls-6,.cls-7,.cls-8,.cls-9{stroke-width:1.25px;}.cls-6{fill:#999;}.cls-9{fill:#4d4d4d;}.cls-12{clip-path:url(#clip-path);}.cls-14{stroke:#fff;}.cls-15{fill:url(#Diamond);}.cls-16{fill:url(#Hatching_Double);}</style><clipPath id="clip-path" transform="translate(0 27.79)"><path class="cls-1" d="M1514.89,71.89c-7.84.22-20.52.57-26.46.46-36.67-.69-139.12-8-146.44-8.53-52.74-3.76-83.46-3.6-114.6-10-19.63-4.55-24.87-9-30.74-14.13,0,0,8.38-3.33,12.71-4.79,88.34-29.91,172.56-22.66,227-6.52,26.48,7.85,77,39.49,79.81,43.47Z"/></clipPath><pattern id="Diamond" data-name="Diamond" width="72" height="72" patternTransform="translate(-719.68 137.71) rotate(25.08) scale(0.52)" patternUnits="userSpaceOnUse" viewBox="0 0 72 72"><rect class="cls-1" width="72" height="72"/><line class="cls-2" x1="72" y1="72" x2="144" y2="144"/><line class="cls-2" x1="144" y1="72" x2="72" y2="144"/><line class="cls-2" x1="138" y1="72" x2="69" y2="141"/><line class="cls-2" x1="132" y1="72" x2="68.99" y2="135.01"/><line class="cls-2" x1="126" y1="72" x2="68.99" y2="129.01"/><line class="cls-2" x1="120" y1="72" x2="68.99" y2="123.01"/><line class="cls-2" x1="114" y1="72" x2="68.98" y2="117.02"/><line class="cls-2" x1="108" y1="72" x2="68.98" y2="111.02"/><line class="cls-2" x1="102" y1="72" x2="68.98" y2="105.03"/><line class="cls-2" x1="96" y1="72" x2="68.97" y2="99.03"/><line class="cls-2" x1="90" y1="72" x2="68.97" y2="93.03"/><line class="cls-2" x1="84" y1="72" x2="68.96" y2="87.04"/><line class="cls-2" x1="78" y1="72" x2="68.96" y2="81.04"/><line class="cls-2" x1="72" y1="72" x2="68.96" y2="75.04"/><line class="cls-2" y1="72" x2="72" y2="144"/><line class="cls-2" x1="6" y1="72" x2="75" y2="141"/><line class="cls-2" x1="12" y1="72" x2="75" y2="135.01"/><line class="cls-2" x1="18" y1="72" x2="75.01" y2="129.01"/><line class="cls-2" x1="24" y1="72" x2="75.01" y2="123.01"/><line class="cls-2" x1="30" y1="72" x2="75.02" y2="117.02"/><line class="cls-2" x1="36" y1="72" x2="75.02" y2="111.02"/><line class="cls-2" x1="42" y1="72" x2="75.02" y2="105.03"/><line class="cls-2" x1="48" y1="72" x2="75.03" y2="99.03"/><line class="cls-2" x1="54" y1="72" x2="75.03" y2="93.03"/><line class="cls-2" x1="60" y1="72" x2="75.03" y2="87.04"/><line class="cls-2" x1="66" y1="72" x2="75.04" y2="81.04"/><line class="cls-2" x1="72" y1="72" x2="75.04" y2="75.04"/><line class="cls-2" x1="72" y1="72" y2="144"/><line class="cls-2" x1="66" y1="72" x2="-3" y2="141"/><line class="cls-2" x1="60" y1="72" x2="-3.01" y2="135.01"/><line class="cls-2" x1="54" y1="72" x2="-3.01" y2="129.01"/><line class="cls-2" x1="48" y1="72" x2="-3.01" y2="123.01"/><line class="cls-2" x1="42" y1="72" x2="-3.02" y2="117.02"/><line class="cls-2" x1="36" y1="72" x2="-3.02" y2="111.02"/><line class="cls-2" x1="30" y1="72" x2="-3.02" y2="105.03"/><line class="cls-2" x1="24" y1="72" x2="-3.03" y2="99.03"/><line class="cls-2" x1="18" y1="72" x2="-3.03" y2="93.03"/><line class="cls-2" x1="12" y1="72" x2="-3.04" y2="87.04"/><line class="cls-2" x1="6" y1="72" x2="-3.04" y2="81.04"/><line class="cls-2" y1="72" x2="-3.04" y2="75.04"/><line class="cls-2" x1="-72" y1="72" y2="144"/><line class="cls-2" x1="-66" y1="72" x2="3" y2="141"/><line class="cls-2" x1="-60" y1="72" x2="3" y2="135.01"/><line class="cls-2" x1="-54" y1="72" x2="3.01" y2="129.01"/><line class="cls-2" x1="-48" y1="72" x2="3.01" y2="123.01"/><line class="cls-2" x1="-42" y1="72" x2="3.02" y2="117.02"/><line class="cls-2" x1="-36" y1="72" x2="3.02" y2="111.02"/><line class="cls-2" x1="-30" y1="72" x2="3.02" y2="105.03"/><line class="cls-2" x1="-24" y1="72" x2="3.03" y2="99.03"/><line class="cls-2" x1="-18" y1="72" x2="3.03" y2="93.03"/><line class="cls-2" x1="-12" y1="72" x2="3.03" y2="87.04"/><line class="cls-2" x1="-6" y1="72" x2="3.04" y2="81.04"/><line class="cls-2" y1="72" x2="3.04" y2="75.04"/><line class="cls-2" y1="72" x2="-72" y2="144"/><line class="cls-2" x1="72" x2="144" y2="72"/><line class="cls-2" x1="69" y1="3" x2="138" y2="72"/><line class="cls-2" x1="68.99" y1="9" x2="132" y2="72"/><line class="cls-2" x1="68.99" y1="14.99" x2="126" y2="72"/><line class="cls-2" x1="68.99" y1="20.99" x2="120" y2="72"/><line class="cls-2" x1="68.98" y1="26.98" x2="114" y2="72"/><line class="cls-2" x1="68.98" y1="32.98" x2="108" y2="72"/><line class="cls-2" x1="68.98" y1="38.98" x2="102" y2="72"/><line class="cls-2" x1="68.97" y1="44.97" x2="96" y2="72"/><line class="cls-2" x1="68.97" y1="50.97" x2="90" y2="72"/><line class="cls-2" x1="68.96" y1="56.96" x2="84" y2="72"/><line class="cls-2" x1="68.96" y1="62.96" x2="78" y2="72"/><line class="cls-2" x1="68.96" y1="68.96" x2="72" y2="72"/><line class="cls-2" x1="144" x2="72" y2="72"/><line class="cls-2" x1="138" x2="69" y2="69"/><line class="cls-2" x1="132" x2="68.99" y2="63.01"/><line class="cls-2" x1="126" x2="68.99" y2="57.01"/><line class="cls-2" x1="120" x2="68.99" y2="51.01"/><line class="cls-2" x1="114" x2="68.98" y2="45.02"/><line class="cls-2" x1="108" x2="68.98" y2="39.02"/><line class="cls-2" x1="102" x2="68.98" y2="33.03"/><line class="cls-2" x1="96" x2="68.97" y2="27.03"/><line class="cls-2" x1="90" x2="68.97" y2="21.03"/><line class="cls-2" x1="84" x2="68.96" y2="15.04"/><line class="cls-2" x1="78" x2="68.96" y2="9.04"/><line class="cls-2" x1="72" x2="68.96" y2="3.04"/><line class="cls-2" x2="72" y2="72"/><line class="cls-2" x1="-3" y1="3" x2="66" y2="72"/><line class="cls-2" x1="-3.01" y1="9" x2="60" y2="72"/><line class="cls-2" x1="-3.01" y1="14.99" x2="54" y2="72"/><line class="cls-2" x1="-3.01" y1="20.99" x2="48" y2="72"/><line class="cls-2" x1="-3.02" y1="26.98" x2="42" y2="72"/><line class="cls-2" x1="-3.02" y1="32.98" x2="36" y2="72"/><line class="cls-2" x1="-3.02" y1="38.98" x2="30" y2="72"/><line class="cls-2" x1="-3.03" y1="44.97" x2="24" y2="72"/><line class="cls-2" x1="-3.03" y1="50.97" x2="18" y2="72"/><line class="cls-2" x1="-3.04" y1="56.96" x2="12" y2="72"/><line class="cls-2" x1="-3.04" y1="62.96" x2="6" y2="72"/><line class="cls-2" x1="-3.04" y1="68.96" y2="72"/><line class="cls-2" x1="6" x2="75" y2="69"/><line class="cls-2" x1="12" x2="75" y2="63.01"/><line class="cls-2" x1="18" x2="75.01" y2="57.01"/><line class="cls-2" x1="24" x2="75.01" y2="51.01"/><line class="cls-2" x1="30" x2="75.02" y2="45.02"/><line class="cls-2" x1="36" x2="75.02" y2="39.02"/><line class="cls-2" x1="42" x2="75.02" y2="33.03"/><line class="cls-2" x1="48" x2="75.03" y2="27.03"/><line class="cls-2" x1="54" x2="75.03" y2="21.03"/><line class="cls-2" x1="60" x2="75.03" y2="15.04"/><line class="cls-2" x1="66" x2="75.04" y2="9.04"/><line class="cls-2" x1="72" x2="75.04" y2="3.04"/><line class="cls-2" x1="72" y2="72"/><line class="cls-2" x1="66" x2="-3" y2="69"/><line class="cls-2" x1="60" x2="-3.01" y2="63.01"/><line class="cls-2" x1="54" x2="-3.01" y2="57.01"/><line class="cls-2" x1="48" x2="-3.01" y2="51.01"/><line class="cls-2" x1="42" x2="-3.02" y2="45.02"/><line class="cls-2" x1="36" x2="-3.02" y2="39.02"/><line class="cls-2" x1="30" x2="-3.02" y2="33.03"/><line class="cls-2" x1="24" x2="-3.03" y2="27.03"/><line class="cls-2" x1="18" x2="-3.03" y2="21.03"/><line class="cls-2" x1="12" x2="-3.04" y2="15.04"/><line class="cls-2" x1="6" x2="-3.04" y2="9.04"/><line class="cls-2" x2="-3.04" y2="3.04"/><line class="cls-2" x1="75" y1="3" x2="6" y2="72"/><line class="cls-2" x1="75" y1="9" x2="12" y2="72"/><line class="cls-2" x1="75.01" y1="14.99" x2="18" y2="72"/><line class="cls-2" x1="75.01" y1="20.99" x2="24" y2="72"/><line class="cls-2" x1="75.02" y1="26.98" x2="30" y2="72"/><line class="cls-2" x1="75.02" y1="32.98" x2="36" y2="72"/><line class="cls-2" x1="75.02" y1="38.98" x2="42" y2="72"/><line class="cls-2" x1="75.03" y1="44.97" x2="48" y2="72"/><line class="cls-2" x1="75.03" y1="50.97" x2="54" y2="72"/><line class="cls-2" x1="75.03" y1="56.96" x2="60" y2="72"/><line class="cls-2" x1="75.04" y1="62.96" x2="66" y2="72"/><line class="cls-2" x1="75.04" y1="68.96" x2="72" y2="72"/><line class="cls-2" x1="-72" y2="72"/><line class="cls-2" x1="-66" x2="3" y2="69"/><line class="cls-2" x1="-60" x2="3" y2="63.01"/><line class="cls-2" x1="-54" x2="3.01" y2="57.01"/><line class="cls-2" x1="-48" x2="3.01" y2="51.01"/><line class="cls-2" x1="-42" x2="3.02" y2="45.02"/><line class="cls-2" x1="-36" x2="3.02" y2="39.02"/><line class="cls-2" x1="-30" x2="3.02" y2="33.03"/><line class="cls-2" x1="-24" x2="3.03" y2="27.03"/><line class="cls-2" x1="-18" x2="3.03" y2="21.03"/><line class="cls-2" x1="-12" x2="3.03" y2="15.04"/><line class="cls-2" x1="-6" x2="3.04" y2="9.04"/><line class="cls-2" x2="3.04" y2="3.04"/><line class="cls-2" x2="-72" y2="72"/><line class="cls-2" x1="3" y1="3" x2="-66" y2="72"/><line class="cls-2" x1="3" y1="9" x2="-60" y2="72"/><line class="cls-2" x1="3.01" y1="14.99" x2="-54" y2="72"/><line class="cls-2" x1="3.01" y1="20.99" x2="-48" y2="72"/><line class="cls-2" x1="3.02" y1="26.98" x2="-42" y2="72"/><line class="cls-2" x1="3.02" y1="32.98" x2="-36" y2="72"/><line class="cls-2" x1="3.02" y1="38.98" x2="-30" y2="72"/><line class="cls-2" x1="3.03" y1="44.97" x2="-24" y2="72"/><line class="cls-2" x1="3.03" y1="50.97" x2="-18" y2="72"/><line class="cls-2" x1="3.03" y1="56.96" x2="-12" y2="72"/><line class="cls-2" x1="3.04" y1="62.96" x2="-6" y2="72"/><line class="cls-2" x1="3.04" y1="68.96" y2="72"/><line class="cls-2" x1="72" y1="-72" x2="144"/><line class="cls-2" x1="69" y1="-69" x2="138"/><line class="cls-2" x1="68.99" y1="-63" x2="132"/><line class="cls-2" x1="68.99" y1="-57.01" x2="126"/><line class="cls-2" x1="68.99" y1="-51.01" x2="120"/><line class="cls-2" x1="68.98" y1="-45.02" x2="114"/><line class="cls-2" x1="68.98" y1="-39.02" x2="108"/><line class="cls-2" x1="68.98" y1="-33.02" x2="102"/><line class="cls-2" x1="68.97" y1="-27.03" x2="96"/><line class="cls-2" x1="68.97" y1="-21.03" x2="90"/><line class="cls-2" x1="68.96" y1="-15.04" x2="84"/><line class="cls-2" x1="68.96" y1="-9.04" x2="78"/><line class="cls-2" x1="68.96" y1="-3.04" x2="72"/><line class="cls-2" x1="144" y1="-72" x2="72"/><line class="cls-2" y1="-72" x2="72"/><line class="cls-2" x1="-3" y1="-69" x2="66"/><line class="cls-2" x1="-3.01" y1="-63" x2="60"/><line class="cls-2" x1="-3.01" y1="-57.01" x2="54"/><line class="cls-2" x1="-3.01" y1="-51.01" x2="48"/><line class="cls-2" x1="-3.02" y1="-45.02" x2="42"/><line class="cls-2" x1="-3.02" y1="-39.02" x2="36"/><line class="cls-2" x1="-3.02" y1="-33.02" x2="30"/><line class="cls-2" x1="-3.03" y1="-27.03" x2="24"/><line class="cls-2" x1="-3.03" y1="-21.03" x2="18"/><line class="cls-2" x1="-3.04" y1="-15.04" x2="12"/><line class="cls-2" x1="-3.04" y1="-9.04" x2="6"/><line class="cls-2" x1="-3.04" y1="-3.04"/><line class="cls-2" x1="72" y1="-72"/><line class="cls-2" x1="75" y1="-69" x2="6"/><line class="cls-2" x1="75" y1="-63" x2="12"/><line class="cls-2" x1="75.01" y1="-57.01" x2="18"/><line class="cls-2" x1="75.01" y1="-51.01" x2="24"/><line class="cls-2" x1="75.02" y1="-45.02" x2="30"/><line class="cls-2" x1="75.02" y1="-39.02" x2="36"/><line class="cls-2" x1="75.02" y1="-33.02" x2="42"/><line class="cls-2" x1="75.03" y1="-27.03" x2="48"/><line class="cls-2" x1="75.03" y1="-21.03" x2="54"/><line class="cls-2" x1="75.03" y1="-15.04" x2="60"/><line class="cls-2" x1="75.04" y1="-9.04" x2="66"/><line class="cls-2" x1="75.04" y1="-3.04" x2="72"/><line class="cls-2" x1="-72" y1="-72"/><line class="cls-2" y1="-72" x2="-72"/><line class="cls-2" x1="3" y1="-69" x2="-66"/><line class="cls-2" x1="3" y1="-63" x2="-60"/><line class="cls-2" x1="3.01" y1="-57.01" x2="-54"/><line class="cls-2" x1="3.01" y1="-51.01" x2="-48"/><line class="cls-2" x1="3.02" y1="-45.02" x2="-42"/><line class="cls-2" x1="3.02" y1="-39.02" x2="-36"/><line class="cls-2" x1="3.02" y1="-33.02" x2="-30"/><line class="cls-2" x1="3.03" y1="-27.03" x2="-24"/><line class="cls-2" x1="3.03" y1="-21.03" x2="-18"/><line class="cls-2" x1="3.03" y1="-15.04" x2="-12"/><line class="cls-2" x1="3.04" y1="-9.04" x2="-6"/><line class="cls-2" x1="3.04" y1="-3.04"/></pattern><pattern id="Hatching_Double" data-name="Hatching Double" width="72" height="72" patternTransform="translate(-889.08 98.57) rotate(25.08) scale(0.52)" patternUnits="userSpaceOnUse" viewBox="0 0 72 72"><rect class="cls-1" width="72" height="72"/><line class="cls-3" x1="63.7" y1="76.7" x2="67.18" y2="70.62"/><line class="cls-3" x1="65.44" y1="69.63" x2="61.96" y2="75.7"/><line class="cls-3" x1="49" y1="77.5" x2="46.62" y2="70.92"/><line class="cls-3" x1="44.74" y1="71.6" x2="47.12" y2="78.18"/><line class="cls-3" x1="36.43" y1="75.84" x2="38.15" y2="69.05"/><line class="cls-3" x1="36.21" y1="68.56" x2="34.49" y2="75.35"/><line class="cls-3" x1="14.87" y1="75.31" x2="16.78" y2="68.58"/><line class="cls-3" x1="14.85" y1="68.03" x2="12.95" y2="74.77"/><line class="cls-3" x1="8.79" y1="74.93" x2="6.77" y2="68.22"/><line class="cls-3" x1="4.85" y1="68.8" x2="6.87" y2="75.5"/><line class="cls-3" x1="51.02" y1="69.29" x2="55.45" y2="74.71"/><line class="cls-3" x1="57" y1="73.44" x2="52.57" y2="68.03"/><line class="cls-3" x1="71.73" y1="26.3" x2="78.25" y2="23.75"/><line class="cls-3" x1="-0.27" y1="26.3" x2="6.25" y2="23.75"/><line class="cls-3" x1="4.19" y1="40.15" x2="1.63" y2="46.66"/><line class="cls-3" x1="3.49" y1="47.39" x2="6.05" y2="40.88"/><line class="cls-3" x1="69.21" y1="5.66" x2="75.38" y2="8.98"/><line class="cls-3" x1="76.32" y1="7.22" x2="70.16" y2="3.9"/><line class="cls-3" x1="69.26" y1="20.09" x2="74.56" y2="15.52"/><line class="cls-3" x1="73.25" y1="14" x2="67.95" y2="18.58"/><line class="cls-3" x1="71.73" y1="26.3" x2="78.25" y2="23.75"/><line class="cls-3" x1="77.52" y1="21.89" x2="71" y2="24.44"/><line class="cls-3" x1="68.93" y1="34.91" x2="75.75" y2="36.45"/><line class="cls-3" x1="76.2" y1="34.5" x2="69.37" y2="32.96"/><line class="cls-3" x1="68.96" y1="56.28" x2="75.75" y2="58"/><line class="cls-3" x1="76.24" y1="56.06" x2="69.46" y2="54.34"/><line class="cls-3" x1="70" y1="66.25" x2="76.65" y2="64.06"/><line class="cls-3" x1="76.02" y1="62.16" x2="69.37" y2="64.35"/><line class="cls-3" x1="63.7" y1="4.7" x2="67.18" y2="-1.38"/><line class="cls-3" x1="65.44" y1="-2.37" x2="61.96" y2="3.7"/><line class="cls-3" x1="49" y1="5.5" x2="46.62" y2="-1.08"/><line class="cls-3" x1="44.74" y1="-0.4" x2="47.12" y2="6.18"/><line class="cls-3" x1="36.43" y1="3.84" x2="38.15" y2="-2.95"/><line class="cls-3" x1="36.21" y1="-3.44" x2="34.49" y2="3.35"/><line class="cls-3" x1="30.79" y1="3.68" x2="24.34" y2="0.95"/><line class="cls-3" x1="23.56" y1="2.79" x2="30" y2="5.53"/><line class="cls-3" x1="14.87" y1="3.31" x2="16.78" y2="-3.42"/><line class="cls-3" x1="14.85" y1="-3.97" x2="12.95" y2="2.77"/><line class="cls-3" x1="8.79" y1="2.93" x2="6.77" y2="-3.78"/><line class="cls-3" x1="4.85" y1="-3.2" x2="6.87" y2="3.5"/><line class="cls-3" x1="65.44" y1="69.63" x2="61.96" y2="75.7"/><line class="cls-3" x1="63.7" y1="76.7" x2="67.18" y2="70.62"/><line class="cls-3" x1="51.02" y1="69.29" x2="55.45" y2="74.71"/><line class="cls-3" x1="57" y1="73.44" x2="52.57" y2="68.03"/><line class="cls-3" x1="44.74" y1="71.6" x2="47.12" y2="78.18"/><line class="cls-3" x1="49" y1="77.5" x2="46.62" y2="70.92"/><line class="cls-3" x1="36.21" y1="68.56" x2="34.49" y2="75.35"/><line class="cls-3" x1="36.43" y1="75.84" x2="38.15" y2="69.05"/><line class="cls-3" x1="14.85" y1="68.03" x2="12.95" y2="74.77"/><line class="cls-3" x1="14.87" y1="75.31" x2="16.78" y2="68.58"/><line class="cls-3" x1="4.85" y1="68.8" x2="6.87" y2="75.5"/><line class="cls-3" x1="8.79" y1="74.93" x2="6.77" y2="68.22"/><line class="cls-3" x1="18.44" y1="47.13" x2="14.96" y2="53.2"/><line class="cls-3" x1="16.7" y1="54.2" x2="20.18" y2="48.12"/><line class="cls-3" x1="48.5" y1="14.94" x2="44.07" y2="9.53"/><line class="cls-3" x1="42.52" y1="10.79" x2="46.95" y2="16.21"/><line class="cls-3" x1="36.24" y1="13.1" x2="38.62" y2="19.68"/><line class="cls-3" x1="40.5" y1="19" x2="38.12" y2="12.42"/><line class="cls-3" x1="62.79" y1="61.18" x2="56.34" y2="58.45"/><line class="cls-3" x1="55.56" y1="60.29" x2="62" y2="63.03"/><line class="cls-3" x1="62.98" y1="43.22" x2="61.08" y2="49.96"/><line class="cls-3" x1="63" y1="50.5" x2="64.9" y2="43.77"/><line class="cls-3" x1="52.57" y1="37.87" x2="54.58" y2="44.58"/><line class="cls-3" x1="56.5" y1="44" x2="54.48" y2="37.3"/><line class="cls-3" x1="33.02" y1="32.58" x2="36.5" y2="26.5"/><line class="cls-3" x1="34.76" y1="25.51" x2="31.29" y2="31.58"/><line class="cls-3" x1="18.52" y1="25.79" x2="22.95" y2="31.21"/><line class="cls-3" x1="24.5" y1="29.94" x2="20.07" y2="24.53"/><line class="cls-3" x1="10.74" y1="27.6" x2="13.12" y2="34.18"/><line class="cls-3" x1="15" y1="33.5" x2="12.62" y2="26.92"/><line class="cls-3" x1="62.71" y1="25.56" x2="60.99" y2="32.35"/><line class="cls-3" x1="62.93" y1="32.84" x2="64.65" y2="26.05"/><line class="cls-3" x1="46.89" y1="29.19" x2="53.34" y2="31.93"/><line class="cls-3" x1="54.12" y1="30.09" x2="47.67" y2="27.35"/><line class="cls-3" x1="30.07" y1="59.37" x2="32.08" y2="66.08"/><line class="cls-3" x1="34" y1="65.5" x2="31.98" y2="58.8"/><line class="cls-3" x1="48.97" y1="60.45" x2="42.04" y2="61.42"/><line class="cls-3" x1="42.32" y1="63.4" x2="49.25" y2="62.43"/><line class="cls-3" x1="49.11" y1="48.23" x2="47.55" y2="55.05"/><line class="cls-3" x1="49.5" y1="55.5" x2="51.06" y2="48.68"/><line class="cls-3" x1="30.22" y1="45.3" x2="26.48" y2="51.22"/><line class="cls-3" x1="28.17" y1="52.29" x2="31.91" y2="46.37"/><line class="cls-3" x1="31.89" y1="36.7" x2="25.47" y2="39.5"/><line class="cls-3" x1="26.28" y1="41.34" x2="32.69" y2="38.54"/><line class="cls-3" x1="18.37" y1="42.31" x2="20.28" y2="35.58"/><line class="cls-3" x1="18.35" y1="35.03" x2="16.45" y2="41.77"/><line class="cls-3" x1="43.92" y1="38.92" x2="41.9" y2="32.22"/><line class="cls-3" x1="39.98" y1="32.8" x2="42" y2="39.5"/><line class="cls-3" x1="30.2" y1="15.76" x2="24.61" y2="19.97"/><line class="cls-3" x1="25.82" y1="21.57" x2="31.41" y2="17.36"/><line class="cls-3" x1="20.94" y1="15.94" x2="18.99" y2="9.22"/><line class="cls-3" x1="17.07" y1="9.77" x2="19.02" y2="16.5"/><line class="cls-3" x1="10.4" y1="9.42" x2="9.99" y2="16.41"/><line class="cls-3" x1="11.99" y1="16.53" x2="12.39" y2="9.54"/><line class="cls-3" x1="23.25" y1="57.28" x2="19" y2="62.84"/><line class="cls-3" x1="20.58" y1="64.05" x2="24.84" y2="58.49"/><line class="cls-3" x1="15.46" y1="61.69" x2="10.61" y2="56.64"/><line class="cls-3" x1="9.17" y1="58.03" x2="14.01" y2="63.08"/><line class="cls-3" x1="55.5" y1="24.5" x2="59.9" y2="19.06"/><line class="cls-3" x1="58.35" y1="17.8" x2="53.95" y2="23.24"/><line class="cls-3" x1="58.53" y1="14.33" x2="59.31" y2="7.38"/><line class="cls-3" x1="57.33" y1="7.15" x2="56.54" y2="14.11"/><line class="cls-3" x1="35.56" y1="49.29" x2="42" y2="52.03"/><line class="cls-3" x1="42.79" y1="50.18" x2="36.34" y2="47.45"/><line class="cls-3" x1="51.02" y1="-2.71" x2="55.45" y2="2.71"/><line class="cls-3" x1="57" y1="1.44" x2="52.57" y2="-3.97"/><line class="cls-3" x1="-2.79" y1="5.66" x2="3.38" y2="8.98"/><line class="cls-3" x1="4.32" y1="7.22" x2="-1.84" y2="3.9"/><line class="cls-3" x1="-2.74" y1="20.09" x2="2.56" y2="15.52"/><line class="cls-3" x1="1.25" y1="14" x2="-4.05" y2="18.58"/><line class="cls-3" x1="-0.27" y1="26.3" x2="6.25" y2="23.75"/><line class="cls-3" x1="5.52" y1="21.89" x2="-1" y2="24.44"/><line class="cls-3" x1="-3.07" y1="34.91" x2="3.75" y2="36.45"/><line class="cls-3" x1="4.2" y1="34.5" x2="-2.63" y2="32.96"/><line class="cls-3" x1="-3.04" y1="56.28" x2="3.75" y2="58"/><line class="cls-3" x1="4.24" y1="56.06" x2="-2.54" y2="54.34"/><line class="cls-3" x1="-2" y1="66.25" x2="4.65" y2="64.06"/><line class="cls-3" x1="4.02" y1="62.16" x2="-2.63" y2="64.35"/><line class="cls-3" x1="65.44" y1="-2.37" x2="61.96" y2="3.7"/><line class="cls-3" x1="63.7" y1="4.7" x2="67.18" y2="-1.38"/><line class="cls-3" x1="51.02" y1="-2.71" x2="55.45" y2="2.71"/><line class="cls-3" x1="57" y1="1.44" x2="52.57" y2="-3.97"/><line class="cls-3" x1="44.74" y1="-0.4" x2="47.12" y2="6.18"/><line class="cls-3" x1="49" y1="5.5" x2="46.62" y2="-1.08"/><line class="cls-3" x1="36.21" y1="-3.44" x2="34.49" y2="3.35"/><line class="cls-3" x1="36.43" y1="3.84" x2="38.15" y2="-2.95"/><line class="cls-3" x1="14.85" y1="-3.97" x2="12.95" y2="2.77"/><line class="cls-3" x1="14.87" y1="3.31" x2="16.78" y2="-3.42"/><line class="cls-3" x1="4.85" y1="-3.2" x2="6.87" y2="3.5"/><line class="cls-3" x1="8.79" y1="2.93" x2="6.77" y2="-3.78"/></pattern></defs><g id="Layer_2" data-name="Layer 2"><g id="Слой_1" data-name="Слой 1"><path class="cls-4" d="M0,137.27c28.06,0,28.06,12,56.12,12s28.06-12,56.12-12,28.07,12,56.13,12,28.06-12,56.12-12,28.06,12,56.13,12,28.06-12,56.12-12,28.06,12,56.12,12,28.06-12,56.12-12,28.06,12,56.13,12,28.06-12,56.12-12,28.06,12,56.12,12,28.06-12,56.12-12,28.07,12,56.13,12,28.06-12,56.12-12,28.06,12,56.13,12,28.06-12,56.12-12,28.06,12,56.12,12,28.06-12,56.12-12,28.07,12,56.13,12,28.06-12,56.12-12,28.06,12,56.12,12,28.06-12,56.12-12,28.07,12,56.13,12,28.06-12,56.13-12,28.06,12,56.12,12,28.06-12,56.13-12,28.06,12,56.12,12,28.06-12,56.13-12,28.06,12,56.13,12,28.06-12,56.12-12,28.07,12,56.13,12,28.07-12,56.14-12" transform="translate(0 27.79)"/><path class="cls-4" d="M0,121.27c28.06,0,28.06,12,56.12,12s28.06-12,56.12-12,28.07,12,56.13,12,28.06-12,56.12-12,28.06,12,56.13,12,28.06-12,56.12-12,28.06,12,56.12,12,28.06-12,56.12-12,28.06,12,56.13,12,28.06-12,56.12-12,28.06,12,56.12,12,28.06-12,56.12-12,28.07,12,56.13,12,28.06-12,56.12-12,28.06,12,56.13,12,28.06-12,56.12-12,28.06,12,56.12,12,28.06-12,56.12-12,28.07,12,56.13,12,28.06-12,56.12-12,28.06,12,56.12,12,28.06-12,56.12-12,28.07,12,56.13,12,28.06-12,56.13-12,28.06,12,56.12,12,28.06-12,56.13-12,28.06,12,56.12,12,28.06-12,56.13-12,28.06,12,56.13,12,28.06-12,56.12-12,28.07,12,56.13,12,28.07-12,56.14-12" transform="translate(0 27.79)"/><path class="cls-4" d="M0,105.27c28.06,0,28.06,12,56.12,12s28.06-12,56.12-12,28.07,12,56.13,12,28.06-12,56.12-12,28.06,12,56.13,12,28.06-12,56.12-12,28.06,12,56.12,12,28.06-12,56.12-12,28.06,12,56.13,12,28.06-12,56.12-12,28.06,12,56.12,12,28.06-12,56.12-12,28.07,12,56.13,12,28.06-12,56.12-12,28.06,12,56.13,12,28.06-12,56.12-12,28.06,12,56.12,12,28.06-12,56.12-12,28.07,12,56.13,12,28.06-12,56.12-12,28.06,12,56.12,12,28.06-12,56.12-12,28.07,12,56.13,12,28.06-12,56.13-12,28.06,12,56.12,12,28.06-12,56.13-12,28.06,12,56.12,12,28.06-12,56.13-12,28.06,12,56.13,12,28.06-12,56.12-12,28.07,12,56.13,12,28.07-12,56.14-12" transform="translate(0 27.79)"/><path class="cls-5" d="M1660.73,187.68a88.08,88.08,0,0,0,15.77-.11s12.7-26.49,0-48.72-27.87-28.06-43.57-37.19-64.29,8-71.48,21.62-14.37,52.57-14.1,55-.8,6.59,3.26,7.95h20.23Z" transform="translate(0 27.79)"/><path class="cls-5" d="M1257.9,181c3.83.12,8.43-2.23,16.14-2.13,0,0,6-24.88-6.66-47.11s-27.87-28.06-43.57-37.19-64.28,8-71.47,21.62-12,48.23-12.39,50.62c-.11.75-.27,3.57,2.07,4.32C1159.68,176.79,1245.92,180.62,1257.9,181Z" transform="translate(0 27.79)"/><rect class="cls-6" x="1683.38" y="137.87" width="15.74" height="13.43" transform="translate(3382.5 316.96) rotate(-180)"/><path class="cls-5" d="M1699.43,140.75l0,5.25s.15-.22,1.11.78a3.42,3.42,0,0,1,.37,4.09,39.08,39.08,0,0,1-2.33,4.15,5.05,5.05,0,0,0,.26,5.83,18.4,18.4,0,0,1,3.23,5.6,7.72,7.72,0,0,1-.76,6.56c-3.69,6.3-11.41,12.59-24.25,14.47-2.08.31-2.25.21-2-1.9.56-5.92,1.15-11.83.49-17.82a97.75,97.75,0,0,0-2.3-13.51,68.33,68.33,0,0,0-10.9-23.26,58.51,58.51,0,0,0-22.72-19.11,54.09,54.09,0,0,0-19.69-5.12,54.86,54.86,0,0,0-24,3.63c-15.15,5.94-26.21,16.5-34.15,30.55-8.38,17.05-7.58,39.43-8.8,43.6a2.31,2.31,0,0,1-2.29,1.64c-8.38-.16-18-.17-26.24-.45-5.69-.19-11.38-.09-17.08-.29-8.25-.29-242.87-4.09-248.93-4.4-2.11-.1-2.24-.27-1.9-2.26.83-4.79,2.07-63.53-52-71-14.73-2-29.1,2.77-41.13,11.38-26.81,19.16-21.42,52-21.42,52-20.22-3.76-29.44-15.31-32.37-23.63l-1.5-4.32a5.9,5.9,0,0,1-.08-3.58c.45-1.75-.47-3.52-.9-5.22a66.18,66.18,0,0,1-2-14.46c-.08-2.64.48-5.08,2.75-7,3.26-2.73,4-6.72,4.73-10.65a114.54,114.54,0,0,0,1.63-16.51c.06-1.48-.11-3-.14-4.5a46.05,46.05,0,0,1,.8-7.87c.34-2.26,2-3.94,3.38-5.6a31.86,31.86,0,0,0,3.27-4.95,4.89,4.89,0,0,0,.67-3.73,8.44,8.44,0,0,1,0-3.17,2.65,2.65,0,0,1,2-2.53A82,82,0,0,1,1135,51a81,81,0,0,0,10.69-2.87c72.39-30.81,91.41-40.56,177.08-46,3.77-.24,24-1.62,30.4-1.43,6.08.18,12.14.57,18.21,1,7,.57,14,1.37,21,2.35,67.4,9.31,118.56,42.32,130.38,48.3.93.47,2.11,1.17,3.35,1.94A32.49,32.49,0,0,0,1538,58.7c38.87,6.25,73.73,14.91,82,17.53,8.67,2.75,41.3,12.84,47.62,15.55a87,87,0,0,1,28.89,19.51,11.56,11.56,0,0,1,3,7.51c.35,4.44.28,8.88.38,13.32a55.24,55.24,0,0,1-.28,8,2.32,2.32,0,0,1-1,1.56c-3.22,2.07-6.46,4.08-10.2,5.09.24,1.69.47,3.26.69,4.81,3.1.09,6.28-1,10.42-5.63" transform="translate(0 27.79)"/><path class="cls-5" d="M1227.19,53.78a21.49,21.49,0,0,1-4.82,6.84c-2.91,2.75-6.38,4.84-9.42,7.66,1.35,3.42,3.3,6.64,5,10a300.53,300.53,0,0,0,19.34,32.62A212,212,0,0,0,1255,134c5.37,6,10.55,12.19,16.37,17.77a48.63,48.63,0,0,0,14.45,10.11,25.62,25.62,0,0,0,9,1.93c8.32.34,16.63.67,25,1,3.94.18,7.88.3,11.82.47,8.07.35,139.52,5.83,143,6l79.6,3.07" transform="translate(0 27.79)"/><path class="cls-7" d="M1514.89,71.89c-7.84.22-20.52.57-26.46.46-36.67-.69-139.12-8-146.44-8.53-52.74-3.76-83.46-3.6-114.6-10-19.63-4.55-24.87-9-30.74-14.13,0,0,8.38-3.33,12.71-4.79,88.34-29.91,172.56-22.66,227-6.52,26.48,7.85,77,39.49,79.81,43.47Z" transform="translate(0 27.79)"/><path class="cls-5" d="M1530.08,173.2a174.25,174.25,0,0,0,2.4-19.32c1.08-19.35,1.66-49.17.77-55.49-.51-11.48-2.74-16.88-3.7-18-2.3-2.7-7.39-8.4-7.39-8.4s0-.26-1.13-.25-2,0-4.87.12" transform="translate(0 27.79)"/><path class="cls-5" d="M1360.68,65.13c0,3.59,8.34,51.31,5.64,101.69" transform="translate(0 27.79)"/><path class="cls-6" d="M1685.24,106.79a15.33,15.33,0,0,1,4.31,4.69c1.15,2.24.47,3.52-2.07,3.56a20.75,20.75,0,0,1-11.08-3.16c-10.54-6.33-36.66-22.1-35.76-23.4C1641.86,86.73,1673.78,97.2,1685.24,106.79Z" transform="translate(0 27.79)"/><path class="cls-5" d="M1353.56,14.83s3.56,11.85,5.63,18.05c3.07,9.17,11.41,32.92,11.41,32.92" transform="translate(0 27.79)"/><path class="cls-5" d="M1339.88,14.38c1.78,8.06,3.21,15.15,5,23.21,1.67,7.62,5.62,26.83,5.62,26.83" transform="translate(0 27.79)"/><path class="cls-6" d="M1120.53,65.72a39,39,0,0,0,6.57.32c6.12.22,12.26.18,18.38.24.71,0,1.46-.18,2.1.63-2.31,1.86-4.63,4-7.18,5.72-5.1,3.52-10.07,7.24-15.56,10.14-3.15,1.67-6.41,3.11-10.12,2.83" transform="translate(0 27.79)"/><circle class="cls-8" cx="1198.49" cy="194.61" r="49.24"/><circle class="cls-9" cx="1198.49" cy="194.61" r="36.39"/><circle class="cls-8" cx="1198.49" cy="194.61" r="4.32"/><polygon class="cls-8" points="1194.43 185.78 1202.54 185.78 1204.57 161.69 1192.4 161.69 1194.43 185.78"/><polygon class="cls-8" points="1205.63 188.02 1208.13 195.74 1231.67 190.23 1227.9 178.65 1205.63 188.02"/><polygon class="cls-8" points="1206.96 199.36 1200.39 204.13 1212.9 224.81 1222.76 217.65 1206.96 199.36"/><polygon class="cls-8" points="1196.58 204.13 1190.01 199.36 1174.21 217.65 1184.07 224.81 1196.58 204.13"/><polygon class="cls-8" points="1188.84 195.74 1191.35 188.02 1169.07 178.65 1165.3 190.23 1188.84 195.74"/><circle class="cls-10" cx="1198.49" cy="194.61" r="38.6"/><path class="cls-6" d="M1565.43,102.09l-7.09,7.38s-19.81-9.53-19.66-9.53S1565.43,102.09,1565.43,102.09Z" transform="translate(0 27.79)"/><line class="cls-5" x1="1554.3" y1="129.23" x2="1558.34" y2="137.26"/><path class="cls-11" d="M1526.43,76.8s-93.21-3.16-141.32-7.15-107.41-7.39-118.39-8.19-42.34-4.34-53.2-7.68C1191.73,47.09,1188,38.7,1188,38.7" transform="translate(0 27.79)"/><path class="cls-11" d="M1522.16,72s-24.66-19.21-66.28-39.88c-34.13-16.94-83.15-24.49-127.74-22.22s-89.17,8.38-129.49,24S1152,53.37,1144,56.92s-19.52,9.1-19.52,9.1" transform="translate(0 27.79)"/><path class="cls-5" d="M1404.32,85.78a1.51,1.51,0,0,0-.9-.35c-2.74-.15-17.51-.93-18.15-1.14s-2.49-1.77-2.82-1.77-6.82-.6-6.86-.3,1.7,3.83,4,4.06,25.62,1.6,25.78,1.33S1405.17,86.47,1404.32,85.78Z" transform="translate(0 27.79)"/><path class="cls-5" d="M1263.54,80.44a1.57,1.57,0,0,0-.9-.35c-2.73-.15-17.51-.93-18.14-1.14s-2.5-1.77-2.83-1.77-6.82-.6-6.86-.3,1.7,3.83,4,4.06,25.62,1.6,25.79,1.33S1264.39,81.13,1263.54,80.44Z" transform="translate(0 27.79)"/><path class="cls-5" d="M1504.64,71.39c-.15-.38-2.62-8.43-6.46-11.85-5.88-5.23-16.85-3.79-19.09-1.27s-5.26,12.63-4.51,13.25,30,.68,30.06.4S1504.76,71.69,1504.64,71.39Z" transform="translate(0 27.79)"/><circle class="cls-8" cx="1616.12" cy="194.61" r="49.24"/><circle class="cls-9" cx="1616.12" cy="194.61" r="36.39"/><circle class="cls-8" cx="1616.12" cy="194.61" r="4.32"/><polygon class="cls-8" points="1612.06 185.78 1620.18 185.78 1622.21 161.69 1610.03 161.69 1612.06 185.78"/><polygon class="cls-8" points="1623.26 188.02 1625.77 195.74 1649.3 190.23 1645.54 178.65 1623.26 188.02"/><polygon class="cls-8" points="1624.59 199.36 1618.02 204.13 1630.54 224.81 1640.39 217.65 1624.59 199.36"/><polygon class="cls-8" points="1614.21 204.13 1607.65 199.36 1591.85 217.65 1601.7 224.81 1614.21 204.13"/><polygon class="cls-8" points="1606.47 195.74 1608.98 188.02 1586.7 178.65 1582.94 190.23 1606.47 195.74"/><circle class="cls-10" cx="1616.12" cy="194.61" r="38.6"/><g class="cls-12"><path class="cls-13" d="M1297.74,94.19s43-21.25,47.91-18.23,5,3.61,4.77,6,2.37,15,3.5,19.16,2.17,16.5,4.06,19,8.07,10.24,10,11.88a19.07,19.07,0,0,0,4.22,3c2,1.12,2.19,2.66,1.69,3.33a2.28,2.28,0,0,1-3.58-.06,5.77,5.77,0,0,0-3.42-2c-1.11-.33-8.81-3.57-12-4.52s-9.67-3.26-8.18-4.91,2.41-7.42,1-9.73-6.79-6.08-9-13.48a17.6,17.6,0,0,1,.8-11.3s-3.54,4.61-5.86,8-13.81,12.1-18,13-14.88,2.07-15.88,0S1297.74,94.19,1297.74,94.19Z" transform="translate(0 27.79)"/><path class="cls-13" d="M1304.83,105.15s16,2.61,25.16,5.33,13.9,3.53,14.93,3.59,5.79,2.27,7,4.88,11.93,14.36,15.23,17.6,13.4,13.41,15.75,15,15.67,7,17.59,7.92a37.92,37.92,0,0,0,6.35,2.37c1.86.44,4.32,1.33,2.38,3.56s-6-.44-7,.75-1.9,1.05-7.87-.77-6.57-.89-8.66.4-6,1.34-7.45-.29.59-8.21-5.38-11.79-22.18-9.78-26.78-12.82-9.66-10.31-9.2-15c0,0-10.12,5.38-25.38,4.91-11.7-.36-12.2-1.59-12.2-1.59S1300.1,106.45,1304.83,105.15Z" transform="translate(0 27.79)"/><path class="cls-13" d="M1281.24,22.74s3,3.33,2.68,4.27-1.29,1.94,0,3.22,3,2.62,2.32,3.52-1.71,1.64-1.42,2.18.1,1.11.18,1.82a20.68,20.68,0,0,1,0,2.15,8.84,8.84,0,0,0,0,1.07c0,.57,0,3.75-1.08,4.29-2.14,1.08-6.44-1.07-6.44-1.07s-.61-.24-1.6,3.1c-.49,1.67,2.1,1.92,6.67,4.32s5.36.57,8.83,3.54c3.84,3.29,6.88,3.21,11.23,7.35,5.44,5.17,8.35,9.92,10.93,9.91s26.07-2.44,29-1.36c0,0,8.06-3.48,8.72-1.68a15.37,15.37,0,0,0,2.38,3.22s3.83,3.31,6.52,3.35,5.78,0,6,1.3-10.26,2.08-13.47,0a12,12,0,0,0-8.82-2c-2,.16-13.58,7.32-24.19,8.86s-9,1-10.7.28a109.29,109.29,0,0,1-19-11.31s.62,6-.63,8.39.94,3.74,1.6,5.54c1,2.78,6,7.25,6.31,9.55s-.84,9.18-3.3,15.89-.53,14.06-.53,14.06-9.42-1-14.8-4.23c-17.43-10.44-14-17.91-17.77-25.39s-7.45-11.58-10.79-19.21c-3-6.78-5.22-6.52-7.94-7.66s-.09-20.46,12.88-19.33c2.82.25,1.28-.74,4.3,0,0,0,1.39-3,2.65-5.4s1.47-3.35.16-5.18-2.81-8.51-.64-9.39a4.25,4.25,0,0,1,4,.5,4.76,4.76,0,0,0,.69-2.92,3,3,0,0,1,1.63-2.9c.59-.4.53-2.87,2.37-3.91S1280.63,20.56,1281.24,22.74Z" transform="translate(0 27.79)"/><path class="cls-14" d="M1260.3,45.26s3-1,3.63-1.76,2.64-2.16,1.22-4c0,0-1,1.45-1.8.65s-2.83-5.53-1.33-6.72,5.09,1.06,5.06,2,.16-3.9,1.68-5.51c1.82-1.91,4.32-3.33,4.43-5,.07-1.22,7.81.57,10.73-3.22,1.06-1.36,2-7.81-3.73-7.66-1.92,0-3.76,1-11.33,1-3.17,0-10.43.52-12.85,4.54-2.3,3.8-1.52,10,.32,13.25S1261,39.49,1260,41C1258,44,1260.3,45.26,1260.3,45.26Z" transform="translate(0 27.79)"/><path class="cls-4" d="M1271,41s3.22,3.22,6.44,3.22" transform="translate(0 27.79)"/><path class="cls-13" d="M1271.43,56.48a8.42,8.42,0,0,0-2.27-3.49c-1.56-1.27-7.74-1.33-9.12-2.11" transform="translate(0 27.79)"/><path class="cls-13" d="M1276.61,55.44s-.6-2.17,1-1.94,2.77-.71,3.59-1" transform="translate(0 27.79)"/><path class="cls-13" d="M1261,77a1.47,1.47,0,0,0,1.35,1.44" transform="translate(0 27.79)"/><path class="cls-13" d="M1275,63.94s4.22,11.45,2.43,14" transform="translate(0 27.79)"/><path class="cls-13" d="M1285.84,77s-.79,1.39-1.12,1.23" transform="translate(0 27.79)"/><path class="cls-13" d="M1283.84,96.79s1.56,1.27,1.81.45" transform="translate(0 27.79)"/><path class="cls-13" d="M1258.88,86.19s3.3,3.3,7.25,3.8" transform="translate(0 27.79)"/><path class="cls-13" d="M1258.69,89.47s4.62,3.38,6.8,3.32" transform="translate(0 27.79)"/><path class="cls-13" d="M1277.94,99s2.77-.73,3.35-1.4" transform="translate(0 27.79)"/><path class="cls-13" d="M1286,95.1s3.11-2.32,3.52-3.21" transform="translate(0 27.79)"/><path class="cls-13" d="M1281.21,104s2.66-1.07,3.15-1.81" transform="translate(0 27.79)"/><path class="cls-13" d="M1288.7,99.12s2.8-2.69,3.1-3.62" transform="translate(0 27.79)"/><path class="cls-13" d="M1276.69,94s2.64-.42,3.25-1" transform="translate(0 27.79)"/><path class="cls-13" d="M1284.53,91.12s3.11-1.87,3.58-2.65" transform="translate(0 27.79)"/><path class="cls-13" d="M1317,122.37s16.15-.59,19.6-2.39,2.83-3.23,2.83-3.23" transform="translate(0 27.79)"/><path class="cls-13" d="M1350.74,121s-2.49,3.36-5.53,2.44" transform="translate(0 27.79)"/><path class="cls-13" d="M1354.07,131.81s8.09,12.16,1,11.73" transform="translate(0 27.79)"/><path class="cls-13" d="M1359,141.9s11.76,3.78,14.14,8.77" transform="translate(0 27.79)"/><path class="cls-13" d="M1381.16,156a1.66,1.66,0,0,0-.2,2.54,2.87,2.87,0,0,0,2.84,1.11" transform="translate(0 27.79)"/><path class="cls-13" d="M1346.47,102.38s.67,7.19-2.1,7.65" transform="translate(0 27.79)"/><path class="cls-13" d="M1319.57,101.38s12.16-7,14.66-15.78" transform="translate(0 27.79)"/><path class="cls-13" d="M1339.66,92.12s4.54-1.7,4.73-5" transform="translate(0 27.79)"/><path class="cls-13" d="M1313.33,73.53s3.66,2,2.17,3.71-5,2-5,2" transform="translate(0 27.79)"/><path class="cls-13" d="M1290.08,67.9s6.18,6.4,10.19,7.6a14.6,14.6,0,0,0,7.44.25" transform="translate(0 27.79)"/><path class="cls-13" d="M1320.24,78.92s9.74-5.82,19.36-5.36" transform="translate(0 27.79)"/><path class="cls-13" d="M1281.66,87.43s-5.79,1.49-5.84,4.16a38.66,38.66,0,0,0,.37,5" transform="translate(0 27.79)"/><path class="cls-13" d="M1284.05,86.16s2.87-1.65,4-.23a17.29,17.29,0,0,1,2,3.95" transform="translate(0 27.79)"/><path class="cls-13" d="M1325.86,80.7s9.84,10.06,11.5,16.33c0,0-12,16.09-17.08,18.81s-20.5-2.45-20.5-2.45l-1.85-21.55s4,1.66,9.81-2.6S1325.86,80.7,1325.86,80.7Z" transform="translate(0 27.79)"/><path class="cls-15" d="M1325.86,80.7s9.84,10.06,11.5,16.33c0,0-12,16.09-17.08,18.81s-20.5-2.45-20.5-2.45l-1.85-21.55s4,1.66,9.81-2.6S1325.86,80.7,1325.86,80.7Z" transform="translate(0 27.79)"/><path class="cls-13" d="M1337.13,111a22.59,22.59,0,0,1,0,9.76,49.6,49.6,0,0,1-3.22,10.55s-17.53,1.33-25.8,0-19.91-2.64-28.08-7.41c-3.13-1.83-8.09-7.23-8.09-7.23s15.27-21,15.61-25.67,10.36.85,10.36.85,21.07,13.94,26.27,15.61S1337.13,111,1337.13,111Z" transform="translate(0 27.79)"/><path class="cls-15" d="M1337.13,111a22.59,22.59,0,0,1,0,9.76,49.6,49.6,0,0,1-3.22,10.55s-17.53,1.33-25.8,0-19.91-2.64-28.08-7.41c-3.13-1.83-8.09-7.23-8.09-7.23s15.27-21,15.61-25.67,10.36.85,10.36.85,21.07,13.94,26.27,15.61S1337.13,111,1337.13,111Z" transform="translate(0 27.79)"/><path class="cls-13" d="M1261.37,56c1,2.91,3.47,13.83-3.22,10.74,0,0-14.49-5-13.17,2.7s8.27,24.7,15.79,36.82,13.29,15.49,13.29,15.49,18.22-10.49,17.64-32.56l-2.43-7.78a20.32,20.32,0,0,0,.4-15.45c-3.2-8.47-5.57-14.38-5.57-14.38l-5.5-1.79a13.28,13.28,0,0,1-5.41,1.92c-9.35,1-15-2.15-15-2.15s-5.72.6-4.29,1.07C1257.08,51.71,1260.3,52.78,1261.37,56Z" transform="translate(0 27.79)"/><path class="cls-16" d="M1093.11-27.28s.24,19.53-6.44,16.44c0,0,3.45-.41,4.77,7.27s8.27,24.7,15.79,36.82,13.29,15.49,13.29,15.49,18.22-10.5,17.64-32.56l-2.43-7.78a20.34,20.34,0,0,0,.4-15.46c-3.2-8.47-6.82-16.39-6.82-16.39l-6.44-1.08a5.75,5.75,0,0,1-4.3,3.22c-9.35,1-12.4-4.45-12.4-4.45a16.81,16.81,0,0,0-4.68-1C1098.23-27.18,1093.11-27.28,1093.11-27.28Z" transform="translate(0 27.79)"/><path class="cls-13" d="M1288.23,150.33l-6.07,8-2.22-1.34s-7.28,13.84-8.87,13.82-6.7-3.86-7.44-7.54,4.17-11.08,7.94-12.64S1288.91,149.49,1288.23,150.33Z" transform="translate(0 27.79)"/><path class="cls-13" d="M1291,87.31s12.11,2.6,15.23,7.13,9.34,9.47,8.88,29c-.45,19-15.39,44.66-16.54,45.57s-6-9.83-10.42-13.57c-4.11-3.51-9.93-4.11-8-1s4.52,5-1.59,3.41-13.29,1.17-10.8,4,8.13,14-3.88,8.86c-2.92-1.24-27.32-9.17-31.19-11.7s1.46-5.82,4.49-4.59,3.62-1.55,7.33.18,15.88,5.45,18.19,1.65S1287.66,120.36,1290,113,1294.05,95.07,1291,87.31Z" transform="translate(0 27.79)"/><path class="cls-13" d="M1279.72,152.43s21.42-29.07,22.23-36.37-2.24-18.42-2.24-18.42" transform="translate(0 27.79)"/><path class="cls-13" d="M1271,156.88s20.84-29,24-36.53" transform="translate(0 27.79)"/><path class="cls-13" d="M1237.23,154.38s23.18,11.46,26.4,8.91" transform="translate(0 27.79)"/><polygon class="cls-17" points="1364.99 92.47 1371.8 98.4 1353.41 103.41 1347.38 97.87 1364.99 92.47"/><path class="cls-18" d="M1248.85,85.46c.84,1.52,2.84-.15,7.76-1.7s4.17-3.41,8.72-3.78c5.05-.42,7.13-2.63,13.13-2.81,7.5-.23,12.92,1,14.73-.8s16.61-20.24,19.4-21.53c0,0,3.2-8.18,4.94-7.37a15.67,15.67,0,0,0,4,.56s5-.39,7-2.27,4.06-4.12,5.14-3.34-5.74,8.76-9.49,9.56a12,12,0,0,0-7.65,4.84c-1.27,1.52-4.36,14.81-10.73,23.43s-5.6,7.12-7.33,7.8A109.05,109.05,0,0,1,1277,93.6s4.7,3.78,5.52,6.36,3.32,2,5.06,2.76" transform="translate(0 27.79)"/><path class="cls-13" d="M1293.84,77.31s4-1.21,4.16,1.07-2.09,4.93-2.09,4.93" transform="translate(0 27.79)"/><path class="cls-13" d="M1273.48,89.87s8.89.11,12.58-1.89a14.63,14.63,0,0,0,5.4-5.11" transform="translate(0 27.79)"/><path class="cls-13" d="M1302.53,76.19s2.71-11,9.81-17.53" transform="translate(0 27.79)"/><polygon class="cls-13" points="1323.9 62.16 1332.91 61.5 1323.53 78.08 1315.35 78.48 1323.9 62.16"/></g></g></g></svg>