<svg width="286" height="175" viewBox="0 0 286 175" fill="none" xmlns="http://www.w3.org/2000/svg">
<path d="M175.981 127.719C176.511 129.679 175.441 131.309 174.951 133.019C174.191 135.649 173.241 138.229 172.391 140.839C172.251 141.269 172.141 141.729 172.091 142.179C171.941 143.459 171.941 144.709 173.281 145.499C171.691 146.419 169.081 144.859 169.021 143.009C168.971 141.689 169.181 140.359 169.281 139.029C169.311 138.659 169.381 138.299 169.211 137.789C169.001 137.999 168.741 138.179 168.581 138.429C165.671 142.879 163.571 147.699 162.571 152.919C162.161 155.079 162.091 157.349 163.261 159.409C163.891 160.529 164.861 161.159 166.161 161.109C167.521 161.059 168.501 160.259 169.301 159.239C169.411 159.099 169.371 158.709 169.261 158.529C168.641 157.549 169.191 156.959 169.921 156.429C170.651 155.899 171.371 155.339 172.131 154.859C172.411 154.679 172.831 154.599 173.161 154.649C174.751 154.889 175.541 154.259 175.641 152.719C175.981 147.409 177.021 142.219 178.521 137.129C178.831 136.069 179.191 135.019 179.591 133.989C180.101 132.699 180.721 132.399 181.861 132.769C183.021 133.149 183.761 134.209 183.511 135.289C183.001 137.439 182.431 139.579 181.901 141.719C181.651 142.709 181.431 143.699 181.201 144.689C181.301 144.739 181.401 144.789 181.491 144.849C182.011 144.159 182.561 143.479 183.051 142.769C185.961 138.499 189.221 134.529 192.871 130.859C193.511 130.209 194.081 129.709 195.011 130.399C195.981 131.119 196.381 132.109 195.781 133.049C194.671 134.819 193.521 136.579 192.241 138.229C188.961 142.439 185.581 146.589 182.261 150.769C181.961 151.149 181.741 151.589 181.301 152.309C182.931 152.059 184.241 151.819 185.571 151.659C187.011 151.499 188.451 151.319 189.891 151.319C191.581 151.319 192.721 152.319 192.701 153.569C192.701 153.839 192.601 154.249 192.411 154.339C192.211 154.439 191.791 154.339 191.601 154.169C190.831 153.499 190.001 153.559 189.131 153.839C186.021 154.859 182.911 155.869 179.791 156.889C178.891 157.189 178.461 157.759 178.461 158.769C178.461 159.909 178.281 161.049 178.241 162.189C178.201 163.389 178.241 164.589 178.241 165.869C176.961 166.399 175.861 165.869 175.681 164.349C175.511 162.919 175.501 161.459 175.441 160.019C175.381 158.739 175.121 158.519 174.021 159.089C173.311 159.459 172.551 159.929 172.081 160.549C168.881 164.749 160.511 164.499 158.471 158.659C158.131 157.679 157.381 157.539 156.131 157.989C155.051 158.379 155.351 159.049 155.701 159.709C156.221 160.679 156.801 161.609 157.521 162.839C156.681 162.779 155.911 162.909 155.361 162.629C154.471 162.169 153.531 161.569 152.981 160.769C152.291 159.779 151.761 159.539 150.711 160.169C149.301 161.009 147.821 161.729 146.371 162.479C145.391 162.979 142.791 162.649 142.081 161.859C141.821 161.569 141.701 161.019 141.731 160.599C141.871 158.629 142.001 156.649 142.291 154.689C143.311 147.849 145.331 141.249 147.291 134.639C147.761 133.069 148.221 132.639 149.301 132.779C151.211 133.039 152.291 133.959 152.381 135.379C152.681 140.099 152.951 144.819 153.301 149.529C153.411 151.039 153.771 152.539 153.991 154.049C154.111 154.869 154.461 155.309 155.361 155.429C156.121 155.529 156.851 155.909 157.721 156.219C157.741 155.919 157.781 155.569 157.781 155.219C157.701 148.869 159.331 142.989 162.791 137.669C163.611 136.409 164.711 135.299 165.831 134.279C166.881 133.329 168.161 132.869 169.651 133.459C169.941 133.569 170.631 133.359 170.741 133.119C171.461 131.499 172.071 129.829 172.741 128.129C171.731 128.019 170.711 127.959 169.711 127.779C166.391 127.179 164.461 125.079 164.241 121.699C164.081 119.189 164.051 116.669 164.021 114.149C163.991 111.319 164.061 108.489 164.011 105.669C163.991 104.659 164.221 104.249 165.331 104.289C167.551 104.369 167.551 104.309 167.551 106.559C167.551 110.569 167.541 114.579 167.561 118.599C167.561 119.549 167.621 120.509 167.771 121.449C168.011 122.919 168.771 124.129 170.321 124.319C171.851 124.509 173.441 124.519 174.961 124.309C176.551 124.089 177.481 122.769 177.521 120.979C177.611 116.549 177.631 112.119 177.671 107.689C177.671 106.849 177.601 105.999 177.701 105.169C177.741 104.859 178.171 104.389 178.461 104.359C181.241 104.049 181.261 104.069 181.261 106.889C181.261 110.829 181.301 114.759 181.241 118.699C181.221 120.139 181.051 121.599 180.771 123.009C180.351 125.149 179.001 126.589 176.971 127.389C176.791 127.459 176.611 127.499 176.431 127.569C176.291 127.619 176.161 127.689 176.031 127.759L175.981 127.719ZM146.841 158.119C148.041 157.609 148.991 157.139 149.981 156.799C150.651 156.569 150.771 156.209 150.611 155.599C150.211 154.099 149.851 152.589 149.451 151.089C149.301 150.499 149.101 149.919 148.921 149.329C148.861 149.329 148.801 149.349 148.741 149.359C148.131 152.179 147.521 154.999 146.841 158.119Z" fill="#191919"/>
<path d="M229.541 149.468C228.361 150.138 227.441 150.658 226.511 151.188C225.981 151.488 225.471 151.958 224.911 152.048C223.381 152.278 223.441 153.288 223.531 154.408C223.601 155.278 223.601 156.158 223.671 157.038C223.731 157.778 223.741 158.508 224.481 159.068C224.781 159.298 224.821 160.078 224.701 160.528C224.631 160.778 223.991 161.008 223.591 161.018C221.671 161.088 220.441 160.038 220.151 157.938C219.831 155.718 219.551 153.468 219.461 151.228C219.281 146.758 219.371 142.298 220.121 137.868C220.551 135.348 221.051 132.848 221.521 130.348C221.671 129.528 222.151 129.198 222.991 129.298C224.481 129.468 225.481 130.508 225.481 132.048C225.481 136.328 225.121 140.578 224.231 144.778C224.161 145.108 224.171 145.468 224.061 145.788C223.541 147.268 224.021 147.748 225.671 146.978C226.701 146.498 227.801 146.148 228.891 145.808C229.601 145.588 229.921 145.248 229.991 144.448C230.751 136.578 231.871 128.788 234.591 121.308C235.101 119.898 235.461 119.638 236.741 119.888C237.971 120.118 238.851 121.128 238.721 122.288C238.611 123.228 238.401 124.168 238.191 125.098C236.511 132.298 235.051 139.538 234.371 146.918C233.811 153.048 233.481 159.178 233.991 165.318C234.161 167.388 234.701 169.418 235.051 171.478C235.091 171.718 235.021 172.118 234.871 172.218C234.141 172.688 232.201 172.168 231.831 171.358C231.491 170.608 231.191 169.798 231.081 168.978C230.661 165.808 230.271 162.638 229.971 159.448C229.751 157.098 229.661 154.728 229.541 152.368C229.501 151.488 229.541 150.608 229.541 149.478V149.468Z" fill="#191919"/>
<path d="M128.601 156.508C130.091 155.988 131.261 155.458 132.501 155.168C134.151 154.778 134.761 153.908 134.891 152.178C135.431 145.518 136.501 138.948 138.531 132.558C138.781 131.758 139.141 130.988 139.361 130.188C139.641 129.138 140.181 128.598 141.331 128.808C142.551 129.028 143.551 129.928 143.431 130.978C143.261 132.408 142.921 133.818 142.621 135.228C141.121 142.228 139.681 149.238 139.041 156.398C138.791 159.208 138.331 162.008 138.301 164.808C138.271 167.228 138.681 169.658 138.971 172.078C139.031 172.608 139.441 173.088 139.691 173.588C138.421 174.568 136.431 174.048 136.021 172.478C135.431 170.238 134.961 167.958 134.671 165.658C134.411 163.628 134.461 161.558 134.371 159.508C134.361 159.248 134.291 158.988 134.211 158.508C133.531 158.858 132.951 159.168 132.361 159.458C131.151 160.068 129.911 160.638 128.731 161.308C128.451 161.468 128.201 161.978 128.211 162.318C128.261 163.918 128.381 165.518 128.551 167.108C128.581 167.388 128.981 167.618 129.101 167.918C129.291 168.408 129.601 169.008 129.461 169.408C129.351 169.728 128.621 169.998 128.171 169.998C126.481 169.998 125.321 169.108 125.011 167.418C124.611 165.248 124.241 163.048 124.141 160.848C123.901 155.198 124.091 149.558 125.431 144.018C125.621 143.248 125.861 142.488 126.051 141.708C126.251 140.848 126.801 140.638 127.591 140.798C129.141 141.108 129.851 141.998 129.911 143.598C130.041 146.998 129.691 150.348 128.951 153.668C128.761 154.498 128.751 155.368 128.621 156.518L128.601 156.508Z" fill="#191919"/>
<path d="M261.631 133.758C261.501 135.078 261.311 136.068 261.311 137.068C261.311 141.878 261.341 146.688 261.401 151.498C261.401 152.138 261.211 152.308 260.641 152.308C259.501 152.308 258.411 151.418 258.181 149.988C257.861 148.038 257.621 146.058 257.531 144.088C257.311 139.098 257.171 134.098 257.071 129.098C257.031 127.348 257.771 126.398 259.121 126.558C260.081 126.668 261.171 127.088 261.871 127.728C263.181 128.928 264.311 130.348 265.391 131.758C266.471 133.168 267.401 134.688 268.601 136.458C268.701 134.278 268.771 132.438 268.881 130.598C269.031 128.278 269.191 125.958 269.391 123.648C269.431 123.128 269.631 122.608 269.781 122.098C270.021 121.268 270.271 120.378 271.421 120.618C272.691 120.878 273.691 121.498 273.641 122.768C273.391 128.948 273.151 135.128 273.041 141.308C272.951 146.578 273.041 151.848 273.011 157.118C273.011 157.518 272.881 158.178 272.631 158.268C272.241 158.418 271.511 158.378 271.271 158.108C270.741 157.518 270.171 156.778 270.061 156.028C269.731 153.808 269.421 151.548 269.461 149.318C269.501 146.898 268.741 144.858 267.481 142.888C265.781 140.218 264.141 137.508 262.471 134.818C262.301 134.538 262.061 134.298 261.611 133.758H261.631Z" fill="#191919"/>
<path d="M161.021 86.0786C160.581 87.7086 160.141 89.3386 159.701 90.9686C158.941 93.7986 158.201 96.6386 157.381 99.4586C157.281 99.7986 156.761 100.199 156.401 100.229C155.341 100.329 154.261 100.319 153.201 100.229C152.871 100.199 152.351 99.8086 152.291 99.5186C151.321 94.8186 150.421 90.0986 149.501 85.3886C148.981 82.7386 148.451 80.0886 147.881 77.1786C149.011 77.1786 150.051 77.1186 151.071 77.2286C151.311 77.2586 151.611 77.8186 151.681 78.1786C152.471 82.0586 153.221 85.9586 153.971 89.8486C154.281 91.4586 154.581 93.0686 154.901 94.6786C154.931 94.8386 155.051 94.9886 155.281 95.4186C155.701 93.9186 156.061 92.6986 156.391 91.4686C157.281 88.1586 158.181 84.8486 159.031 81.5186C159.191 80.8886 159.421 80.6586 160.101 80.6486C163.281 80.5986 163.231 80.5886 164.031 83.8486C164.921 87.4686 165.901 91.0686 166.851 94.6786C166.901 94.8486 167.021 94.9986 167.271 95.4786C167.441 94.6186 167.551 94.0586 167.661 93.4986C168.661 88.3386 169.641 83.1686 170.691 78.0186C170.761 77.6686 171.301 77.4086 171.641 77.1386C171.711 77.0786 171.861 77.1186 171.981 77.1086C173.615 77.0086 174.281 77.7386 173.981 79.2986C172.721 85.8486 171.461 92.3886 170.221 98.9486C170.041 99.9086 169.701 100.469 168.601 100.299C168.001 100.209 167.381 100.279 166.771 100.279C165.061 100.279 165.081 100.279 164.651 98.6286C163.641 94.7186 162.621 90.8086 161.601 86.8986C161.531 86.6286 161.391 86.3686 161.281 86.1086C161.201 86.1086 161.121 86.1086 161.041 86.0986L161.021 86.0786Z" fill="#191919"/>
<path d="M212.401 128.858C211.421 129.008 210.671 129.088 209.941 129.248C208.541 129.558 206.831 128.338 207.141 126.988C207.311 126.278 208.251 125.648 208.971 125.208C209.741 124.748 210.651 124.458 211.541 124.278C212.861 124.008 213.281 123.208 213.481 121.978C213.711 120.558 214.161 119.178 214.571 117.788C214.861 116.818 215.471 116.488 216.501 116.828C218.021 117.328 218.821 118.318 218.821 119.938C218.821 120.538 218.821 121.128 218.821 121.888C220.851 121.398 222.691 120.948 224.531 120.528C225.461 120.318 226.401 120.138 227.341 120.048C228.971 119.898 230.401 120.928 230.881 122.518C231.171 123.478 230.941 123.658 229.961 123.658C229.021 123.658 228.071 123.828 227.151 124.038C224.521 124.658 221.901 125.318 219.281 125.988C218.431 126.208 217.861 126.578 217.751 127.648C217.241 132.728 216.511 137.778 216.081 142.868C215.701 147.268 215.541 151.698 215.441 156.118C215.411 157.658 215.721 159.238 216.151 160.728C216.421 161.658 217.191 162.438 217.771 163.348C216.731 163.738 215.981 163.228 215.251 162.678C212.951 160.938 212.131 158.508 211.821 155.728C211.081 149.118 211.681 142.538 211.991 135.958C212.101 133.678 212.231 131.398 212.371 128.838L212.401 128.858Z" fill="#191919"/>
<path d="M142.131 83.0184C141.181 85.2484 140.231 87.4884 139.291 89.7284C138.581 91.4184 137.881 93.0984 137.211 94.8084C136.971 95.4284 136.631 95.6684 135.941 95.6684C133.601 95.6684 133.571 95.7184 132.651 93.5684C131.371 90.5884 130.151 87.5884 128.891 84.6084C128.671 84.0984 128.421 83.5984 127.911 83.1184C127.891 83.4984 127.841 83.8884 127.841 84.2684C127.841 89.1984 127.811 94.1184 127.861 99.0484C127.861 99.9884 127.591 100.318 126.631 100.278C124.161 100.188 124.441 100.588 124.441 98.0684C124.431 91.5784 124.461 85.0884 124.411 78.5984C124.411 77.4384 124.751 77.0784 125.901 77.0984C129.281 77.1384 129.251 77.0984 130.521 80.1884C131.921 83.6084 133.371 87.0084 134.811 90.4184C134.881 90.5784 135.001 90.7284 135.201 91.0484C135.431 90.6484 135.621 90.3884 135.741 90.0984C137.431 86.0984 139.121 82.0984 140.761 78.0784C141.031 77.4184 141.351 77.0884 142.091 77.1284C143.001 77.1784 143.921 77.1784 144.841 77.1284C145.701 77.0884 145.951 77.4384 145.951 78.2784C145.921 82.2884 145.951 86.2984 145.951 90.3084C145.951 93.2884 145.921 96.2684 145.951 99.2384C145.951 100.028 145.721 100.318 144.911 100.298C142.181 100.228 142.531 100.628 142.521 97.9284C142.501 93.3884 142.521 88.8384 142.521 84.2984C142.521 83.8984 142.471 83.4884 142.441 83.0884C142.341 83.0684 142.231 83.0584 142.131 83.0384V83.0184Z" fill="#191919"/>
<path d="M210.521 152.708C207.221 153.198 207.281 153.328 208.931 156.188C209.191 156.638 209.541 157.048 210.101 157.808C209.141 157.758 208.401 157.898 207.831 157.658C207.051 157.328 206.271 156.818 205.701 156.188C204.321 154.658 204.371 154.598 202.551 155.538C201.231 156.218 199.931 156.948 198.611 157.628C197.141 158.378 195.881 157.508 194.661 156.928C194.311 156.758 194.121 155.848 194.171 155.308C194.441 152.658 194.601 149.968 195.211 147.388C196.661 141.278 198.341 135.238 199.921 129.158C200.171 128.188 200.731 127.798 201.751 127.868C203.671 127.998 204.731 128.968 204.851 130.768C205.141 135.408 205.411 140.048 205.781 144.688C205.901 146.278 206.231 147.858 206.591 149.418C206.681 149.788 207.221 150.238 207.631 150.328C209.391 150.708 210.421 151.498 210.531 152.718L210.521 152.708ZM201.451 144.388C201.371 144.388 201.291 144.378 201.201 144.368C200.601 147.238 200.001 150.098 199.361 153.158C200.661 152.608 201.761 152.188 202.811 151.678C203.011 151.578 203.211 151.108 203.151 150.868C202.621 148.698 202.031 146.548 201.461 144.388H201.451Z" fill="#191919"/>
<path d="M103.701 88.6483C103.701 85.2183 103.721 81.7783 103.691 78.3483C103.681 77.4983 103.871 77.0783 104.821 77.0983C108.411 77.1583 111.991 77.0883 115.581 77.2083C119.941 77.3583 122.351 81.2883 120.401 85.2283C119.451 87.1483 118.881 88.3783 120.621 90.4483C122.871 93.1283 121.691 99.4383 116.251 99.9583C112.351 100.328 108.411 100.168 104.481 100.258C103.651 100.278 103.701 99.7283 103.701 99.1783C103.701 95.6683 103.701 92.1583 103.701 88.6483ZM111.271 96.9283C111.271 96.9283 111.271 96.9083 111.271 96.8983C112.381 96.8983 113.481 96.8983 114.591 96.8983C114.851 96.8983 115.111 96.8083 115.381 96.7483C117.131 96.3783 117.911 95.3683 117.881 93.4783C117.861 91.7083 117.031 90.5283 115.331 90.3883C112.901 90.1883 110.461 90.2083 108.021 90.2283C107.761 90.2283 107.281 90.7683 107.271 91.0683C107.191 92.7083 107.241 94.3483 107.231 95.9883C107.231 96.6583 107.491 96.9583 108.181 96.9383C109.211 96.9083 110.241 96.9383 111.271 96.9383V96.9283ZM111.581 86.8583C112.231 86.8583 112.881 86.8583 113.531 86.8583C115.941 86.8583 116.321 86.5983 117.131 84.3183C117.181 84.1783 117.211 84.0283 117.251 83.8783C117.781 82.0683 116.941 80.6583 115.091 80.5483C112.771 80.4083 110.441 80.4583 108.111 80.4183C107.501 80.4183 107.211 80.6883 107.221 81.3183C107.241 82.8483 107.251 84.3683 107.221 85.8983C107.211 86.6583 107.541 86.8983 108.261 86.8683C109.361 86.8283 110.471 86.8583 111.581 86.8683V86.8583Z" fill="#191919"/>
<path d="M141.461 127.468C140.031 127.468 138.851 127.538 137.691 127.428C137.351 127.398 136.981 126.898 136.761 126.528C135.491 124.398 134.221 122.268 133.021 120.098C132.541 119.238 131.991 118.778 130.951 118.868C129.931 118.958 128.891 118.918 127.861 118.878C127.001 118.848 126.641 119.128 126.661 120.058C126.721 122.198 126.661 124.338 126.691 126.478C126.701 127.208 126.481 127.508 125.721 127.498C122.581 127.438 123.141 127.858 123.131 125.018C123.101 118.558 123.151 112.108 123.101 105.648C123.101 104.528 123.431 104.228 124.521 104.258C128.031 104.378 131.541 104.288 135.051 104.488C139.231 104.728 140.921 108.758 140.341 112.098C139.951 114.388 138.421 115.978 136.961 117.558C136.241 118.338 136.371 118.848 136.851 119.618C138.381 122.118 139.841 124.668 141.481 127.458L141.461 127.468ZM126.681 111.628C126.681 112.618 126.711 113.608 126.681 114.598C126.651 115.288 126.921 115.538 127.611 115.528C129.591 115.498 131.571 115.528 133.551 115.498C133.861 115.498 134.281 115.378 134.461 115.158C135.171 114.278 135.991 113.408 136.441 112.388C137.321 110.408 136.721 107.908 133.841 107.798C131.791 107.718 129.731 107.698 127.681 107.628C126.951 107.608 126.651 107.898 126.681 108.648C126.721 109.638 126.691 110.628 126.691 111.618L126.681 111.628Z" fill="#191919"/>
<path d="M161.601 115.898C161.271 117.948 161.111 120.018 160.571 121.978C159.711 125.118 157.691 127.188 154.341 127.768C152.041 128.158 149.771 128.098 147.551 127.428C144.971 126.648 143.551 124.698 142.881 122.208C141.801 118.158 141.801 114.048 142.761 109.978C143.601 106.398 146.061 104.198 149.721 103.868C151.371 103.718 153.081 103.808 154.721 104.078C157.891 104.588 159.761 106.718 160.561 109.678C161.101 111.678 161.261 113.788 161.601 115.898ZM157.841 116.168C157.711 114.638 157.661 113.378 157.491 112.138C157.081 109.128 155.711 107.568 152.791 107.238C148.891 106.798 146.441 108.068 146.071 111.758C145.801 114.468 145.791 117.248 146.111 119.948C146.521 123.378 148.361 124.688 151.831 124.608C155.071 124.528 156.761 123.178 157.391 119.998C157.661 118.658 157.721 117.278 157.841 116.178V116.168Z" fill="#191919"/>
<path d="M244.341 146.539C241.091 146.709 236.821 142.949 237.021 139.219C237.251 134.859 238.851 131.019 240.791 127.239C241.021 126.799 241.231 126.209 241.121 125.769C240.921 124.979 241.241 124.709 241.891 124.559C242.521 124.409 243.141 124.209 243.781 124.159C244.201 124.129 244.681 124.229 245.071 124.409C246.231 124.939 247.311 125.639 248.501 126.079C250.731 126.899 252.711 127.979 254.121 129.979C256.451 133.289 255.881 137.299 253.751 140.469C252.121 142.899 249.891 144.669 247.171 145.759C246.271 146.119 245.281 146.279 244.341 146.539ZM240.861 140.979C240.821 142.219 241.031 142.299 242.241 142.029C244.451 141.539 246.231 140.339 247.831 138.849C249.911 136.929 251.541 134.709 251.801 131.739C251.871 130.929 251.651 130.269 250.901 129.929C249.521 129.299 248.131 128.679 246.701 128.199C246.371 128.089 245.691 128.449 245.431 128.789C244.871 129.549 244.461 130.419 244.031 131.269C242.471 134.339 241.111 137.469 240.851 140.969L240.861 140.979Z" fill="#191919"/>
<path d="M119.351 108.349C117.751 108.039 116.311 107.669 114.841 107.499C113.531 107.339 112.181 107.289 110.871 107.389C108.871 107.549 107.681 108.849 107.221 110.679C106.351 114.129 106.351 117.639 107.121 121.109C107.641 123.469 109.231 124.519 112.201 124.619C113.411 124.659 114.631 124.489 115.851 124.409C116.661 124.359 116.691 123.799 116.691 123.189C116.691 120.859 116.721 118.529 116.671 116.199C116.651 115.289 116.961 115.009 117.851 115.049C120.361 115.149 120.121 114.659 120.131 117.289C120.141 120.189 120.111 123.089 120.151 125.989C120.161 126.849 119.981 127.309 119.001 127.399C115.821 127.689 112.661 128.349 109.441 127.739C106.521 127.189 104.631 125.459 103.831 122.659C102.551 118.199 102.581 113.689 103.861 109.229C104.821 105.919 107.541 103.759 110.971 103.829C113.501 103.879 116.021 104.379 118.541 104.749C118.841 104.799 119.251 105.299 119.301 105.639C119.411 106.459 119.341 107.309 119.341 108.329L119.351 108.349Z" fill="#191919"/>
<path d="M184.111 115.868C184.111 112.358 184.111 108.838 184.111 105.328C184.111 104.858 183.971 104.278 184.781 104.288C188.251 104.338 191.741 104.218 195.191 104.488C198.161 104.718 199.951 106.588 200.391 109.568C200.751 112.008 200.711 114.458 199.131 116.588C197.621 118.628 195.371 118.908 193.101 119.018C191.651 119.088 190.201 119.078 188.751 119.038C187.921 119.008 187.601 119.278 187.621 120.138C187.671 122.238 187.611 124.338 187.651 126.438C187.671 127.238 187.401 127.518 186.601 127.498C183.691 127.418 184.101 127.878 184.111 125.038C184.111 121.978 184.111 118.928 184.111 115.868ZM191.071 107.588C191.071 107.588 191.071 107.618 191.071 107.638C190.271 107.638 189.471 107.658 188.671 107.638C187.981 107.618 187.621 107.818 187.631 108.608C187.671 110.668 187.661 112.728 187.631 114.788C187.631 115.488 187.911 115.748 188.581 115.718C190.291 115.648 192.011 115.618 193.721 115.518C195.351 115.428 196.341 114.718 196.711 113.328C197.161 111.618 197.241 109.898 195.891 108.518C195.501 108.128 194.841 107.898 194.271 107.808C193.221 107.648 192.141 107.658 191.081 107.598L191.071 107.588Z" fill="#191919"/>
<path d="M257.131 150.988C256.091 151.128 255.011 151.158 254.011 151.448C250.651 152.418 247.321 153.478 243.981 154.528C242.961 154.848 241.991 155.278 240.971 155.598C239.551 156.028 237.101 153.938 237.331 152.468C237.381 152.138 237.761 151.718 238.091 151.598C240.101 150.818 242.091 149.838 244.181 149.428C247.301 148.808 250.501 148.508 253.681 148.248C255.641 148.088 256.891 149.218 257.131 150.998V150.988Z" fill="#191919"/>
<path d="M208.311 160.039C206.311 160.909 204.541 161.639 202.801 162.449C201.041 163.259 199.331 164.179 197.561 164.979C196.141 165.619 194.521 164.909 193.881 163.489C193.581 162.829 193.791 162.369 194.411 162.089C196.311 161.229 198.201 160.329 200.141 159.549C201.481 159.019 202.881 158.629 204.271 158.249C205.381 157.949 206.501 158.059 207.411 158.809C207.841 159.169 208.101 159.739 208.321 160.029L208.311 160.039Z" fill="#191919"/>
<path d="M155.671 164.878C152.581 166.358 149.591 167.808 146.591 169.238C145.971 169.528 145.351 169.908 144.701 170.008C144.081 170.108 143.261 170.108 142.791 169.778C142.151 169.338 141.551 168.598 141.371 167.878C141.291 167.558 142.201 166.768 142.791 166.538C145.901 165.318 149.031 164.138 152.201 163.098C153.791 162.578 155.541 163.748 155.681 164.878H155.671Z" fill="#191919"/>
<path d="M280.981 119.398C280.991 121.138 279.841 122.248 278.001 122.258C276.481 122.258 275.561 121.218 275.541 119.448C275.511 117.728 276.721 116.728 278.781 116.738C280.101 116.738 280.971 117.788 280.981 119.398Z" fill="#191919"/>
<path d="M285.981 128.768C286.001 130.108 285.371 130.998 284.391 130.998C283.391 130.998 282.691 130.308 282.651 129.278C282.611 128.138 283.581 127.158 284.781 127.238C285.661 127.298 285.971 127.938 285.971 128.758L285.981 128.768Z" fill="#191919"/>
<path d="M146.841 158.118C147.521 154.998 148.131 152.178 148.741 149.358C148.801 149.358 148.861 149.338 148.921 149.328C149.101 149.908 149.291 150.488 149.451 151.088C149.841 152.588 150.211 154.098 150.611 155.598C150.771 156.208 150.651 156.568 149.981 156.798C148.991 157.138 148.051 157.598 146.841 158.118Z" fill="white"/>
<path d="M201.441 144.388C202.011 146.548 202.601 148.698 203.131 150.868C203.191 151.108 203.001 151.578 202.791 151.678C201.741 152.188 200.651 152.608 199.341 153.158C199.981 150.098 200.581 147.238 201.181 144.368C201.261 144.368 201.341 144.378 201.431 144.388H201.441Z" fill="white"/>
<path d="M111.271 96.9279C110.241 96.9279 109.211 96.9079 108.181 96.9279C107.491 96.9479 107.221 96.6479 107.231 95.9779C107.251 94.3379 107.201 92.6979 107.271 91.0579C107.281 90.7579 107.761 90.2179 108.021 90.2179C110.461 90.2079 112.901 90.1879 115.331 90.3779C117.031 90.5179 117.861 91.6979 117.881 93.4679C117.901 95.3479 117.131 96.3579 115.381 96.7379C115.121 96.7979 114.861 96.8779 114.591 96.8879C113.481 96.9079 112.381 96.8879 111.271 96.8879C111.271 96.8979 111.271 96.9079 111.271 96.9179V96.9279Z" fill="white"/>
<path d="M111.581 86.8585C110.471 86.8585 109.371 86.8285 108.261 86.8585C107.541 86.8885 107.211 86.6485 107.221 85.8885C107.251 84.3585 107.241 82.8385 107.221 81.3085C107.221 80.6785 107.501 80.3985 108.111 80.4085C110.441 80.4485 112.771 80.4085 115.091 80.5385C116.941 80.6485 117.781 82.0585 117.251 83.8685C117.211 84.0185 117.181 84.1685 117.131 84.3085C116.311 86.5885 115.941 86.8485 113.531 86.8485C112.881 86.8485 112.231 86.8485 111.581 86.8485V86.8585Z" fill="white"/>
<path d="M126.671 111.618C126.671 110.628 126.701 109.638 126.661 108.648C126.631 107.898 126.931 107.608 127.661 107.628C129.711 107.698 131.771 107.718 133.821 107.798C136.701 107.908 137.301 110.408 136.421 112.388C135.971 113.408 135.151 114.268 134.441 115.158C134.261 115.378 133.841 115.498 133.531 115.498C131.551 115.528 129.571 115.498 127.591 115.528C126.901 115.538 126.631 115.288 126.661 114.598C126.701 113.608 126.661 112.618 126.661 111.628L126.671 111.618Z" fill="white"/>
<path d="M157.841 116.168C157.711 117.268 157.651 118.648 157.391 119.988C156.761 123.168 155.071 124.528 151.831 124.598C148.361 124.678 146.511 123.378 146.111 119.938C145.791 117.238 145.801 114.458 146.071 111.748C146.441 108.058 148.891 106.788 152.791 107.228C155.711 107.558 157.081 109.118 157.491 112.128C157.661 113.368 157.711 114.628 157.841 116.158V116.168Z" fill="white"/>
<path d="M240.861 140.979C241.121 137.479 242.481 134.349 244.041 131.279C244.471 130.429 244.881 129.559 245.441 128.799C245.691 128.459 246.371 128.099 246.711 128.209C248.141 128.689 249.531 129.309 250.911 129.939C251.661 130.279 251.881 130.939 251.811 131.749C251.551 134.719 249.921 136.929 247.841 138.859C246.241 140.339 244.451 141.549 242.251 142.039C241.031 142.309 240.831 142.219 240.871 140.989L240.861 140.979ZM245.261 138.649C245.981 137.279 246.651 136.029 247.301 134.759C247.571 134.229 247.891 133.679 248.011 133.109C248.201 132.129 247.561 131.529 246.761 131.169C245.941 130.799 245.251 131.279 244.981 131.959C244.441 133.359 243.941 134.809 243.681 136.279C243.461 137.559 244.131 138.299 245.261 138.649Z" fill="white"/>
<path d="M191.071 107.588C192.141 107.648 193.211 107.648 194.261 107.798C194.831 107.888 195.501 108.108 195.881 108.508C197.231 109.888 197.151 111.608 196.701 113.318C196.341 114.708 195.341 115.418 193.711 115.508C192.001 115.608 190.281 115.628 188.571 115.708C187.901 115.738 187.611 115.478 187.621 114.778C187.651 112.718 187.661 110.658 187.621 108.598C187.601 107.808 187.971 107.608 188.661 107.628C189.461 107.648 190.261 107.628 191.061 107.628C191.061 107.608 191.061 107.598 191.061 107.578L191.071 107.588Z" fill="white"/>
<path d="M245.261 138.648C244.131 138.298 243.451 137.558 243.681 136.278C243.941 134.808 244.441 133.358 244.981 131.958C245.251 131.268 245.941 130.798 246.761 131.168C247.561 131.528 248.201 132.128 248.011 133.108C247.901 133.688 247.581 134.228 247.301 134.758C246.651 136.028 245.981 137.288 245.261 138.648Z" fill="#191919"/>
<path d="M54.8822 6.95312C62.1122 12.8831 65.4622 23.1931 62.5722 33.2831C59.8722 42.7331 50.0522 50.9831 40.7522 51.7031L40.2822 53.6931C54.3822 50.6431 61.5622 39.6331 63.2222 33.8031C66.1922 23.4131 62.5522 12.7931 54.8722 6.95312H54.8822Z" fill="#B4B4B4"/>
<path d="M54.102 50.4634C51.352 50.2034 48.582 52.0634 48.582 52.0634C48.582 52.0634 50.962 54.3934 53.712 54.6534C57.732 55.0234 58.552 52.9934 58.552 52.9934C58.552 52.9934 58.122 50.8434 54.102 50.4734V50.4634Z" fill="#B4B4B4"/>
<path d="M45.9124 44.2438C45.2024 46.8538 46.5224 49.8338 46.5224 49.8338C46.5224 49.8338 49.1624 47.9338 49.8724 45.3238C50.9024 41.5138 49.0824 40.3838 49.0824 40.3838C49.0824 40.3838 46.9424 40.4438 45.9024 44.2438H45.9124Z" fill="#B4B4B4"/>
<path d="M58.8421 46.3138C56.1821 46.3338 53.7021 48.3638 53.7021 48.3638C53.7021 48.3638 56.2021 50.3738 58.8621 50.3538C62.7521 50.3338 63.3421 48.3038 63.3421 48.3038C63.3421 48.3038 62.7221 46.2838 58.8321 46.3138H58.8421Z" fill="#B4B4B4"/>
<path d="M50.9822 41.0735C50.8722 43.6235 52.7022 46.0935 52.7022 46.0935C52.7022 46.0935 54.7422 43.7935 54.8522 41.2435C55.0122 37.5235 53.1022 36.8535 53.1022 36.8535C53.1022 36.8535 51.1422 37.3535 50.9722 41.0735H50.9822Z" fill="#B4B4B4"/>
<path d="M62.762 41.5934C60.072 41.9334 57.832 44.3034 57.832 44.3034C57.832 44.3034 60.602 46.0234 63.292 45.6734C67.212 45.1734 67.562 43.0534 67.562 43.0534C67.562 43.0534 66.692 41.0934 62.772 41.5934H62.762Z" fill="#B4B4B4"/>
<path d="M54.9121 37.0832C55.2421 39.3632 57.2721 41.2432 57.2721 41.2432C57.2721 41.2432 58.6921 38.8632 58.3621 36.5832C57.8821 33.2632 56.0821 32.9932 56.0821 32.9932C56.0821 32.9932 54.4321 33.7632 54.9021 37.0832H54.9121Z" fill="#B4B4B4"/>
<path d="M64.6623 36.413C62.3623 37.553 61.0723 40.373 61.0723 40.373C61.0723 40.373 64.0923 41.053 66.3923 39.913C69.7523 38.243 69.4123 36.233 69.4123 36.233C69.4123 36.233 68.0223 34.743 64.6623 36.413Z" fill="#B4B4B4"/>
<path d="M57.812 32.8333C58.522 34.9133 60.772 36.3033 60.772 36.3033C60.772 36.3033 61.682 33.8233 60.972 31.7433C59.932 28.7133 58.192 28.7833 58.192 28.7833C58.192 28.7833 56.782 29.7933 57.822 32.8233L57.812 32.8333Z" fill="#B4B4B4"/>
<path d="M66.4121 30.3932C64.4621 32.0732 63.9121 35.1132 63.9121 35.1132C63.9121 35.1132 67.0021 35.0332 68.9621 33.3532C71.8121 30.9132 70.9821 29.0432 70.9821 29.0432C70.9821 29.0432 69.2621 27.9432 66.4221 30.3832L66.4121 30.3932Z" fill="#B4B4B4"/>
<path d="M58.5922 27.3734C59.8722 29.2134 62.4622 29.9634 62.4622 29.9634C62.4622 29.9634 62.6722 27.2734 61.3922 25.4334C59.5322 22.7434 57.8422 23.2934 57.8422 23.2934C57.8422 23.2934 56.7322 24.6834 58.6022 27.3734H58.5922Z" fill="#B4B4B4"/>
<path d="M66.0022 24.5535C64.7022 26.6035 65.0522 29.5135 65.0522 29.5135C65.0522 29.5135 67.8222 28.5835 69.1222 26.5235C71.0122 23.5235 69.7522 22.0735 69.7522 22.0735C69.7522 22.0735 67.9022 21.5535 66.0122 24.5535H66.0022Z" fill="#B4B4B4"/>
<path d="M58.532 22.2337C60.222 23.3137 62.612 23.0437 62.612 23.0437C62.612 23.0437 61.862 20.7537 60.172 19.6737C57.712 18.0937 56.512 19.1337 56.512 19.1337C56.512 19.1337 56.072 20.6637 58.532 22.2337Z" fill="#B4B4B4"/>
<path d="M65.2522 18.3131C64.2722 20.4731 64.9922 23.2431 64.9922 23.2431C64.9922 23.2431 67.5522 21.9731 68.5322 19.8031C69.9722 16.6431 68.5522 15.4031 68.5522 15.4031C68.5522 15.4031 66.6822 15.1531 65.2522 18.3031V18.3131Z" fill="#B4B4B4"/>
<path d="M62.6321 13.5033C62.2621 15.8033 63.6621 18.2233 63.6621 18.2233C63.6621 18.2233 65.7521 16.3533 66.1221 14.0633C66.6621 10.7133 65.0021 9.90332 65.0021 9.90332C65.0021 9.90332 63.1721 10.1433 62.6321 13.5033Z" fill="#B4B4B4"/>
<path d="M57.3721 17.5132C59.1621 18.5332 61.6121 18.1332 61.6121 18.1332C61.6121 18.1332 60.7121 15.8232 58.9321 14.8032C56.3221 13.3132 55.1421 14.4332 55.1421 14.4332C55.1421 14.4332 54.7721 16.0232 57.3821 17.5132H57.3721Z" fill="#B4B4B4"/>
<path d="M59.3723 8.75352C59.3423 10.9335 60.9723 12.9835 60.9723 12.9835C60.9723 12.9835 62.6523 10.9735 62.6723 8.79352C62.7123 5.62352 61.0623 5.10352 61.0623 5.10352C61.0623 5.10352 59.4023 5.58352 59.3623 8.75352H59.3723Z" fill="#B4B4B4"/>
<path d="M54.7024 12.9836C56.7024 13.6536 59.0724 12.7736 59.0724 12.7736C59.0724 12.7736 57.7224 10.6236 55.7224 9.95361C52.8124 8.97361 51.8424 10.3336 51.8424 10.3336C51.8424 10.3336 51.7824 12.0036 54.6924 12.9836H54.7024Z" fill="#B4B4B4"/>
<path d="M55.5923 5.24359C55.9023 7.21359 57.6823 8.82359 57.6823 8.82359C57.6823 8.82359 58.8923 6.75359 58.5923 4.77359C58.1423 1.89359 56.5823 1.68359 56.5823 1.68359C56.5823 1.68359 55.1523 2.36359 55.6023 5.24359H55.5923Z" fill="#B4B4B4"/>
<path d="M51.3621 3.46342C52.0721 5.18342 54.0421 6.25342 54.0421 6.25342C54.0421 6.25342 54.6821 4.10342 53.9721 2.38342C52.9421 -0.136584 51.4721 0.0134164 51.4721 0.0134164C51.4721 0.0134164 50.3321 0.943416 51.3621 3.45342V3.46342Z" fill="#B4B4B4"/>
<path d="M50.6922 9.06377C52.5422 9.28377 54.4422 8.09377 54.4422 8.09377C54.4422 8.09377 52.8822 6.48377 51.0322 6.25377C48.3322 5.92377 47.7422 7.28377 47.7422 7.28377C47.7422 7.28377 47.9922 8.74377 50.6922 9.06377Z" fill="#B4B4B4"/>
<path d="M46.702 4.72317C48.542 5.60317 50.922 5.02317 50.922 5.02317C50.922 5.02317 49.872 2.80317 48.032 1.93317C45.352 0.65317 44.262 1.85317 44.262 1.85317C44.262 1.85317 44.012 3.45317 46.702 4.72317Z" fill="#B4B4B4"/>
<path d="M16.2124 6.95312C8.98243 12.8831 5.63243 23.1931 8.52243 33.2831C11.2224 42.7331 21.0424 50.9831 30.3424 51.7031L30.8124 53.6931C16.7124 50.6431 9.53243 39.6331 7.87243 33.8031C4.90243 23.4131 8.54243 12.7931 16.2224 6.95312H16.2124Z" fill="#B4B4B4"/>
<path d="M16.9925 50.4634C19.7425 50.2034 22.5125 52.0634 22.5125 52.0634C22.5125 52.0634 20.1325 54.3934 17.3825 54.6534C13.3625 55.0234 12.5425 52.9934 12.5425 52.9934C12.5425 52.9934 12.9725 50.8434 16.9925 50.4734V50.4634Z" fill="#B4B4B4"/>
<path d="M25.1824 44.2438C25.8924 46.8538 24.5724 49.8338 24.5724 49.8338C24.5724 49.8338 21.9324 47.9338 21.2224 45.3238C20.1924 41.5138 22.0124 40.3838 22.0124 40.3838C22.0124 40.3838 24.1524 40.4438 25.1924 44.2438H25.1824Z" fill="#B4B4B4"/>
<path d="M12.2524 46.3138C14.9124 46.3338 17.3924 48.3638 17.3924 48.3638C17.3924 48.3638 14.8924 50.3738 12.2324 50.3538C8.34244 50.3338 7.75244 48.3038 7.75244 48.3038C7.75244 48.3038 8.37244 46.2838 12.2624 46.3138H12.2524Z" fill="#B4B4B4"/>
<path d="M20.1124 41.0735C20.2224 43.6235 18.3924 46.0935 18.3924 46.0935C18.3924 46.0935 16.3524 43.7935 16.2424 41.2435C16.0824 37.5235 17.9924 36.8535 17.9924 36.8535C17.9924 36.8535 19.9524 37.3535 20.1224 41.0735H20.1124Z" fill="#B4B4B4"/>
<path d="M8.33223 41.5934C11.0222 41.9334 13.2622 44.3034 13.2622 44.3034C13.2622 44.3034 10.4922 46.0234 7.80223 45.6734C3.88223 45.1734 3.53223 43.0534 3.53223 43.0534C3.53223 43.0534 4.40223 41.0934 8.32223 41.5934H8.33223Z" fill="#B4B4B4"/>
<path d="M16.1824 37.0832C15.8524 39.3632 13.8224 41.2432 13.8224 41.2432C13.8224 41.2432 12.4024 38.8632 12.7324 36.5832C13.2124 33.2632 15.0124 32.9932 15.0124 32.9932C15.0124 32.9932 16.6624 33.7632 16.1924 37.0832H16.1824Z" fill="#B4B4B4"/>
<path d="M6.43248 36.413C8.73248 37.553 10.0225 40.373 10.0225 40.373C10.0225 40.373 7.00248 41.053 4.70248 39.913C1.34248 38.243 1.68248 36.233 1.68248 36.233C1.68248 36.233 3.07248 34.743 6.43248 36.413Z" fill="#B4B4B4"/>
<path d="M13.2825 32.8333C12.5725 34.9133 10.3225 36.3033 10.3225 36.3033C10.3225 36.3033 9.41248 33.8233 10.1225 31.7433C11.1625 28.7133 12.9025 28.7833 12.9025 28.7833C12.9025 28.7833 14.3125 29.7933 13.2725 32.8233L13.2825 32.8333Z" fill="#B4B4B4"/>
<path d="M4.68245 30.393C6.63245 32.073 7.18245 35.1129 7.18245 35.1129C7.18245 35.1129 4.09245 35.033 2.13245 33.353C-0.717555 30.913 0.112445 29.053 0.112445 29.053C0.112445 29.053 1.83245 27.953 4.67245 30.393H4.68245Z" fill="#B4B4B4"/>
<path d="M12.5024 27.3734C11.2224 29.2134 8.63245 29.9634 8.63245 29.9634C8.63245 29.9634 8.42245 27.2734 9.70245 25.4334C11.5624 22.7434 13.2524 23.2934 13.2524 23.2934C13.2524 23.2934 14.3624 24.6834 12.4924 27.3734H12.5024Z" fill="#B4B4B4"/>
<path d="M5.09258 24.5535C6.39258 26.6035 6.04258 29.5135 6.04258 29.5135C6.04258 29.5135 3.27258 28.5835 1.97258 26.5235C0.0825809 23.5235 1.34258 22.0735 1.34258 22.0735C1.34258 22.0735 3.19258 21.5535 5.08258 24.5535H5.09258Z" fill="#B4B4B4"/>
<path d="M12.5624 22.2337C10.8724 23.3137 8.48242 23.0437 8.48242 23.0437C8.48242 23.0437 9.23242 20.7537 10.9224 19.6737C13.3824 18.0937 14.5824 19.1337 14.5824 19.1337C14.5824 19.1337 15.0224 20.6637 12.5624 22.2337Z" fill="#B4B4B4"/>
<path d="M5.84222 18.3131C6.82222 20.4731 6.10222 23.2431 6.10222 23.2431C6.10222 23.2431 3.54222 21.9731 2.56222 19.8031C1.12222 16.6431 2.54222 15.4031 2.54222 15.4031C2.54222 15.4031 4.41222 15.1531 5.84222 18.3031V18.3131Z" fill="#B4B4B4"/>
<path d="M8.46229 13.5033C8.83229 15.8033 7.43229 18.2233 7.43229 18.2233C7.43229 18.2233 5.34229 16.3533 4.97229 14.0633C4.43229 10.7133 6.09229 9.90332 6.09229 9.90332C6.09229 9.90332 7.92229 10.1433 8.46229 13.5033Z" fill="#B4B4B4"/>
<path d="M13.7224 17.5132C11.9324 18.5332 9.48242 18.1332 9.48242 18.1332C9.48242 18.1332 10.3824 15.8232 12.1624 14.8032C14.7724 13.3132 15.9524 14.4332 15.9524 14.4332C15.9524 14.4332 16.3224 16.0232 13.7124 17.5132H13.7224Z" fill="#B4B4B4"/>
<path d="M11.7226 8.75352C11.7526 10.9335 10.1226 12.9835 10.1226 12.9835C10.1226 12.9835 8.44259 10.9735 8.42259 8.79352C8.38259 5.62352 10.0326 5.10352 10.0326 5.10352C10.0326 5.10352 11.6926 5.58352 11.7326 8.75352H11.7226Z" fill="#B4B4B4"/>
<path d="M16.3925 12.9836C14.3925 13.6536 12.0225 12.7736 12.0225 12.7736C12.0225 12.7736 13.3725 10.6236 15.3725 9.95361C18.2825 8.97361 19.2525 10.3336 19.2525 10.3336C19.2525 10.3336 19.3125 12.0036 16.4025 12.9836H16.3925Z" fill="#B4B4B4"/>
<path d="M15.5024 5.24359C15.1924 7.21359 13.4124 8.82359 13.4124 8.82359C13.4124 8.82359 12.2024 6.75359 12.5024 4.77359C12.9524 1.89359 14.5124 1.68359 14.5124 1.68359C14.5124 1.68359 15.9424 2.36359 15.4924 5.24359H15.5024Z" fill="#B4B4B4"/>
<path d="M19.7324 3.46342C19.0224 5.18342 17.0524 6.25342 17.0524 6.25342C17.0524 6.25342 16.4124 4.10342 17.1224 2.38342C18.1524 -0.136584 19.6224 0.0134164 19.6224 0.0134164C19.6224 0.0134164 20.7624 0.943416 19.7324 3.45342V3.46342Z" fill="#B4B4B4"/>
<path d="M20.4023 9.06377C18.5523 9.28377 16.6523 8.09377 16.6523 8.09377C16.6523 8.09377 18.2123 6.48377 20.0623 6.25377C22.7623 5.92377 23.3523 7.28377 23.3523 7.28377C23.3523 7.28377 23.1023 8.74377 20.4023 9.06377Z" fill="#B4B4B4"/>
<path d="M24.3924 4.72317C22.5524 5.60317 20.1724 5.02317 20.1724 5.02317C20.1724 5.02317 21.2224 2.80317 23.0624 1.93317C25.7424 0.65317 26.8324 1.85317 26.8324 1.85317C26.8324 1.85317 27.0824 3.45317 24.3924 4.72317Z" fill="#B4B4B4"/>
<g style="mix-blend-mode:multiply">
<path opacity="0.02" d="M45.9821 29.7542C45.6021 38.1442 47.9721 43.8842 48.9621 44.7142C49.9621 45.5542 52.2721 44.8542 53.5821 45.8642C54.8921 46.8741 56.2221 52.0742 55.5521 53.0442C54.5421 54.4841 29.7221 54.1942 29.6821 53.9142C29.5121 52.7542 30.6721 11.5242 32.0121 10.5442C33.3521 9.57415 51.3121 8.31415 52.3321 10.0642C53.5521 12.1642 46.5421 17.4842 45.9721 29.7442L45.9821 29.7542Z" fill="#FDFCFC"/>
<path opacity="0.04" d="M45.9421 29.7437C45.5621 38.0137 47.9021 43.9337 48.8721 44.7537C49.8821 45.5937 52.2021 44.8937 53.4921 45.9037C54.7921 46.9037 56.0921 52.0637 55.4121 53.0237C54.3921 54.4637 29.8021 54.1737 29.7621 53.8837C29.5821 52.7337 30.7121 11.5137 32.0421 10.5537C33.3721 9.60366 51.1421 8.35366 52.1621 10.1137C53.3621 12.1837 46.4821 17.6037 45.9321 29.7437H45.9421Z" fill="#FBFAF9"/>
<path opacity="0.06" d="M45.8922 29.7336C45.5222 37.8836 47.8122 43.9836 48.7822 44.7936C49.7922 45.6436 52.1222 44.9436 53.4022 45.9336C54.6822 46.9336 55.9622 52.0436 55.2822 52.9936C54.2622 54.4336 29.8922 54.1436 29.8522 53.8436C29.6622 52.6936 30.7522 11.4936 32.0822 10.5536C33.4122 9.62356 50.9822 8.39356 52.0022 10.1436C53.1822 12.1836 46.4322 17.7036 45.8922 29.7236V29.7336Z" fill="#F8F7F6"/>
<path opacity="0.08" d="M45.8423 29.7244C45.4823 37.7444 47.7323 44.0344 48.6823 44.8344C49.6923 45.6844 52.0423 44.9844 53.3023 45.9744C54.5623 46.9744 55.8123 52.0244 55.1423 52.9744C54.1123 54.4044 29.9723 54.1144 29.9223 53.8144C29.7223 52.6744 30.7823 11.4844 32.1023 10.5644C33.4323 9.64443 50.8023 8.43443 51.8223 10.1844C52.9923 12.1944 46.3623 17.8144 45.8323 29.7144L45.8423 29.7244Z" fill="#F6F5F3"/>
<path opacity="0.1" d="M45.7924 29.704C45.4324 37.604 47.6424 44.074 48.5924 44.864C49.6124 45.714 51.9724 45.014 53.2124 46.004C54.4624 46.994 55.6824 52.004 55.0024 52.954C53.9724 54.384 30.0524 54.094 30.0024 53.774C29.8024 52.644 30.8124 11.464 32.1424 10.564C33.4624 9.66397 50.6424 8.47397 51.6624 10.224C52.8124 12.204 46.3124 17.924 45.7924 29.704Z" fill="#F4F2EF"/>
<path opacity="0.12" d="M45.7521 29.6943C45.4021 37.4743 47.5621 44.1243 48.5021 44.9143C49.5221 45.7643 51.8921 45.0643 53.1221 46.0443C54.3521 47.0343 55.5521 51.9943 54.8721 52.9343C53.8321 54.3543 30.1521 54.0743 30.0821 53.7443C29.8721 52.6243 30.8521 11.4543 32.1721 10.5743C33.4921 9.69434 50.4721 8.51434 51.4921 10.2643C52.6221 12.2043 46.2521 18.0443 45.7521 29.6943Z" fill="#F2F0EC"/>
<path opacity="0.14" d="M45.7024 29.6843C45.3624 37.3443 47.4724 44.1743 48.4024 44.9543C49.4324 45.8043 51.8124 45.1043 53.0224 46.0843C54.2324 47.0743 55.4124 51.9843 54.7324 52.9143C53.6924 54.3343 30.2324 54.0543 30.1624 53.7143C29.9424 52.5943 30.8824 11.4443 32.2024 10.5843C33.5224 9.72428 50.3024 8.56428 51.3224 10.3043C52.4324 12.2143 46.2024 18.1543 45.7024 29.6843Z" fill="#F0EDE9"/>
<path opacity="0.16" d="M45.6521 29.6739C45.3221 37.2139 47.3921 44.2239 48.3121 44.9939C49.3421 45.8539 51.7421 45.1439 52.9321 46.1239C54.1321 47.1039 55.2821 51.9639 54.5921 52.8939C53.5421 54.3139 30.3121 54.0339 30.2421 53.6839C30.0221 52.5739 30.9221 11.4339 32.2321 10.5939C33.5421 9.75388 50.1321 8.61388 51.1421 10.3539C52.2321 12.2339 46.1321 18.2739 45.6421 29.6839L45.6521 29.6739Z" fill="#EDEAE6"/>
<path opacity="0.18" d="M45.6023 29.6539C45.2723 37.0739 47.3022 44.2639 48.2122 45.0239C49.2423 45.8839 51.6523 45.1739 52.8323 46.1539C54.0123 47.1339 55.1423 51.9439 54.4523 52.8639C53.4023 54.2839 30.3923 54.0039 30.3123 53.6339C30.0823 52.5339 30.9522 11.4039 32.2622 10.5839C33.5722 9.76394 49.9623 8.63394 50.9723 10.3739C52.0523 12.2239 46.0723 18.3639 45.5923 29.6539H45.6023Z" fill="#EBE8E3"/>
<path opacity="0.2" d="M45.5621 29.6443C45.2421 36.9443 47.2221 44.3143 48.1321 45.0643C49.1721 45.9243 51.5921 45.2143 52.7521 46.1843C53.9221 47.1543 55.0121 51.9243 54.3321 52.8343C53.2721 54.2443 30.4921 53.9743 30.4121 53.5943C30.1821 52.4943 31.0021 11.3843 32.3121 10.5843C33.6221 9.78434 49.8021 8.67434 50.8221 10.4043C51.8821 12.2243 46.0321 18.4643 45.5621 29.6343V29.6443Z" fill="#E9E5E0"/>
<path opacity="0.22" d="M45.512 29.6335C45.202 36.8135 47.142 44.3635 48.032 45.1035C49.072 45.9635 51.502 45.2535 52.652 46.2235C53.802 47.1935 54.872 51.9135 54.182 52.8235C53.122 54.2335 30.562 53.9635 30.472 53.5735C30.232 52.4835 31.022 11.3835 32.322 10.6035C33.622 9.8235 49.612 8.7235 50.632 10.4635C51.672 12.2435 45.952 18.5935 45.502 29.6435L45.512 29.6335Z" fill="#E7E3DD"/>
<path opacity="0.24" d="M45.4622 29.6238C45.1622 36.6838 47.0522 44.4238 47.9322 45.1438C48.9822 46.0038 51.4222 45.2938 52.5522 46.2638C53.6822 47.2338 54.7322 51.8938 54.0422 52.8038C52.9722 54.2038 30.6422 53.9438 30.5522 53.5438C30.3122 52.4638 31.0522 11.3738 32.3522 10.6138C33.6522 9.85383 49.4422 8.77383 50.4622 10.5038C51.4822 12.2538 45.8922 18.7038 45.4522 29.6238H45.4622Z" fill="#E5E0DA"/>
<path opacity="0.25" d="M45.4222 29.6044C45.1222 36.5444 46.9822 44.4644 47.8522 45.1744C48.9022 46.0444 51.3622 45.3244 52.4722 46.2844C53.5922 47.2444 54.6122 51.8644 53.9222 52.7644C52.8522 54.1644 30.7422 53.9044 30.6522 53.4844C30.4022 52.4044 31.1122 11.3344 32.4122 10.5944C33.7122 9.85439 49.3022 8.78439 50.3222 10.5144C51.3222 12.2344 45.8622 18.7844 45.4322 29.5844L45.4222 29.6044Z" fill="#E2DED6"/>
<path opacity="0.27" d="M45.3724 29.5935C45.0824 36.4135 46.8924 44.5135 47.7524 45.2235C48.8124 46.0935 51.2724 45.3735 52.3724 46.3335C53.4724 47.2935 54.4724 51.8635 53.7724 52.7535C52.6924 54.1535 30.8124 53.8935 30.7124 53.4635C30.4624 52.3935 31.1324 11.3335 32.4224 10.6135C33.7124 9.89346 49.1124 8.84346 50.1324 10.5735C51.1124 12.2635 45.7924 18.9135 45.3624 29.5935H45.3724Z" fill="#E0DBD3"/>
<path opacity="0.29" d="M45.322 29.5841C45.042 36.2741 46.802 44.5641 47.662 45.2641C48.722 46.1341 51.202 45.4141 52.282 46.3741C53.362 47.3341 54.332 51.8441 53.642 52.7341C52.562 54.1241 30.902 53.8641 30.802 53.4341C30.552 52.3741 31.172 11.3241 32.462 10.6241C33.752 9.92405 48.952 8.89405 49.962 10.6141C50.932 12.2741 45.732 19.0241 45.312 29.5841H45.322Z" fill="#DED8D0"/>
<path opacity="0.31" d="M45.272 29.5739C45.002 36.1439 46.722 44.6139 47.562 45.3039C48.622 46.1739 51.122 45.4539 52.182 46.4139C53.252 47.3639 54.192 51.8339 53.502 52.7239C52.412 54.1139 30.982 53.8539 30.882 53.4139C30.622 52.3639 31.212 11.3239 32.492 10.6439C33.782 9.96391 48.782 8.94391 49.792 10.6639C50.742 12.2939 45.672 19.1439 45.272 29.5839V29.5739Z" fill="#DCD6CD"/>
<path opacity="0.33" d="M45.2323 29.5543C44.9623 36.0043 46.6423 44.6543 47.4723 45.3343C48.5423 46.2043 51.0423 45.4843 52.0923 46.4343C53.1423 47.3843 54.0623 51.8043 53.3623 52.6843C52.2623 54.0743 31.0723 53.8143 30.9523 53.3543C30.6923 52.3043 31.2323 11.2843 32.5223 10.6243C33.8023 9.9643 48.6123 8.9643 49.6223 10.6843C50.5523 12.2743 45.6123 19.2443 45.2223 29.5543H45.2323Z" fill="#DAD3CA"/>
<path opacity="0.35" d="M45.1822 29.5436C44.9222 35.8736 46.5522 44.7036 47.3822 45.3736C48.4522 46.2536 50.9722 45.5236 52.0022 46.4736C53.0422 47.4236 53.9322 51.7936 53.2322 52.6636C52.1322 54.0436 31.1622 53.7936 31.0422 53.3236C30.7822 52.2836 31.2822 11.2736 32.5622 10.6336C33.8422 9.99359 48.4522 9.00359 49.4622 10.7236C50.3822 12.2836 45.5622 19.3536 45.1822 29.5436Z" fill="#D7D1C7"/>
<path opacity="0.37" d="M45.1321 29.5336C44.8821 35.7436 46.4721 44.7536 47.2821 45.4136C48.3621 46.2936 50.8921 45.5636 51.9021 46.5136C52.9221 47.4536 53.7921 51.7736 53.0921 52.6436C51.9821 54.0236 31.2421 53.7736 31.1121 53.2936C30.8421 52.2636 31.3121 11.2636 32.5821 10.6436C33.8621 10.0236 48.2721 9.05359 49.2821 10.7636C50.1821 12.2936 45.4921 19.4636 45.1221 29.5336H45.1321Z" fill="#D5CEC4"/>
<path opacity="0.39" d="M45.0823 29.5243C44.8423 35.6143 46.3823 44.8043 47.1923 45.4543C48.2723 46.3343 50.8123 45.6043 51.8123 46.5443C52.8123 47.4843 53.6523 51.7543 52.9523 52.6143C51.8423 53.9843 31.3223 53.7443 31.1923 53.2543C30.9223 52.2243 31.3423 11.2443 32.6123 10.6443C33.8823 10.0443 48.1023 9.08426 49.1123 10.8043C49.9923 12.3043 45.4423 19.5743 45.0823 29.5243Z" fill="#D3CCC1"/>
<path opacity="0.41" d="M45.0423 29.5037C44.8023 35.4737 46.3023 44.8437 47.1023 45.4837C48.1923 46.3637 50.7423 45.6337 51.7223 46.5737C52.7123 47.5137 53.5223 51.7337 52.8223 52.5937C51.7023 53.9637 31.4123 53.7237 31.2823 53.2137C31.0123 52.1937 31.3923 11.2237 32.6623 10.6437C33.9323 10.0637 47.9523 9.12374 48.9623 10.8337C49.8223 12.3037 45.4023 19.6737 45.0523 29.5037H45.0423Z" fill="#D1C9BE"/>
<path opacity="0.43" d="M44.9923 29.4941C44.7723 35.3441 46.2223 44.8941 47.0023 45.5341C48.0923 46.4141 50.6523 45.6841 51.6223 46.6241C52.5923 47.5541 53.3823 51.7241 52.6823 52.5841C51.5623 53.9541 31.4923 53.7141 31.3523 53.1941C31.0723 52.1841 31.4123 11.2241 32.6823 10.6641C33.9523 10.1041 47.7723 9.17414 48.7723 10.8841C49.6123 12.3141 45.3423 19.7941 44.9823 29.5041L44.9923 29.4941Z" fill="#CFC6BA"/>
<path opacity="0.45" d="M44.942 29.4838C44.732 35.2138 46.132 44.9438 46.912 45.5738C48.002 46.4638 50.582 45.7238 51.532 46.6538C52.482 47.5838 53.252 51.7038 52.542 52.5538C51.412 53.9138 31.572 53.6838 31.432 53.1538C31.152 52.1438 31.452 11.2038 32.712 10.6638C33.972 10.1238 47.602 9.21383 48.602 10.9138C49.432 12.3138 45.282 19.8938 44.932 29.4838H44.942Z" fill="#CCC4B7"/>
<path opacity="0.47" d="M44.8923 29.4738C44.6923 35.0838 46.0523 44.9938 46.8123 45.6138C47.9123 46.5038 50.5023 45.7638 51.4323 46.6938C52.3723 47.6238 53.1023 51.6938 52.4023 52.5338C51.2723 53.8938 31.6623 53.6538 31.5023 53.1238C31.2223 52.1238 31.4723 11.1938 32.7323 10.6738C33.9923 10.1538 47.4223 9.25382 48.4223 10.9638C49.2323 12.3338 45.2123 20.0138 44.8723 29.4738H44.8923Z" fill="#CAC1B4"/>
<path opacity="0.49" d="M44.8523 29.454C44.6623 34.944 45.9723 45.034 46.7223 45.644C47.8223 46.534 50.4223 45.794 51.3423 46.724C52.2623 47.644 52.9723 51.674 52.2723 52.504C51.1323 53.864 31.7523 53.624 31.5923 53.074C31.3123 52.084 31.5223 11.164 32.7823 10.664C34.0423 10.164 47.2723 9.28401 48.2723 10.984C49.0623 12.324 45.1823 20.104 44.8523 29.444V29.454Z" fill="#C8BFB1"/>
<path opacity="0.51" d="M44.8021 29.4439C44.6121 34.8039 45.8821 45.0839 46.6321 45.6839C47.7421 46.5739 50.3521 45.8339 51.2521 46.7639C52.1521 47.6839 52.8421 51.6539 52.1321 52.4839C50.9821 53.8339 31.8321 53.6039 31.6721 53.0439C31.3821 52.0539 31.5621 11.1539 32.8121 10.6739C34.0621 10.1939 47.1021 9.33387 48.1021 11.0239C48.8721 12.3339 45.1221 20.2239 44.8021 29.4339V29.4439Z" fill="#C6BCAE"/>
<path opacity="0.53" d="M44.7522 29.4343C44.5722 34.6743 45.8022 45.1343 46.5322 45.7243C47.6422 46.6143 50.2722 45.8843 51.1522 46.7943C52.0422 47.7143 52.7022 51.6343 51.9922 52.4643C50.8422 53.8143 31.9122 53.5843 31.7422 53.0143C31.4522 52.0343 31.5822 11.1443 32.8322 10.6843C34.0822 10.2243 46.9222 9.37433 47.9222 11.0743C48.6722 12.3443 45.0522 20.3443 44.7422 29.4343H44.7522Z" fill="#C4BAAB"/>
<path opacity="0.55" d="M44.702 29.4235C44.532 34.5435 45.712 45.1835 46.442 45.7635C47.562 46.6635 50.192 45.9235 51.062 46.8335C51.932 47.7435 52.572 51.6235 51.862 52.4435C50.702 53.7835 32.002 53.5635 31.832 52.9835C31.542 52.0035 31.632 11.1335 32.872 10.6935C34.122 10.2535 46.762 9.42351 47.762 11.1135C48.492 12.3535 45.002 20.4535 44.702 29.4235Z" fill="#C2B7A8"/>
<path opacity="0.57" d="M44.6623 29.4044C44.5023 34.4044 45.6322 45.2244 46.3523 45.7944C47.4722 46.6944 50.1223 45.9544 50.9723 46.8644C51.8323 47.7744 52.4323 51.5944 51.7223 52.4144C50.5623 53.7544 32.0923 53.5344 31.9023 52.9344C31.6123 51.9644 31.6523 11.1044 32.9023 10.6844C34.1423 10.2644 46.5823 9.44441 47.5823 11.1344C48.3023 12.3444 44.9323 20.5444 44.6423 29.3944L44.6623 29.4044Z" fill="#BFB5A5"/>
<path opacity="0.59" d="M44.612 29.3939C44.452 34.2739 45.552 45.2739 46.252 45.8439C47.382 46.7439 50.032 46.0039 50.872 46.9039C51.712 47.8139 52.292 51.5839 51.582 52.3939C50.412 53.7339 32.172 53.5139 31.982 52.9039C31.682 51.9439 31.692 11.1039 32.932 10.6939C34.172 10.2839 46.412 9.49386 47.412 11.1839C48.112 12.3639 44.882 20.6639 44.602 29.3939H44.612Z" fill="#BDB2A1"/>
<path opacity="0.61" d="M44.5619 29.3836C44.4119 34.1436 45.4619 45.3236 46.1619 45.8836C47.2919 46.7836 49.9619 46.0436 50.7819 46.9436C51.6019 47.8436 52.1619 51.5736 51.4519 52.3736C50.2819 53.7036 32.2619 53.4936 32.0719 52.8736C31.7719 51.9136 31.7419 11.0936 32.9719 10.7036C34.2119 10.3136 46.2519 9.53363 47.2519 11.2236C47.9319 12.3736 44.8319 20.7736 44.5619 29.3836Z" fill="#BBAF9E"/>
<path opacity="0.63" d="M44.5222 29.3742C44.3822 34.0142 45.3822 45.3742 46.0722 45.9242C47.2122 46.8242 49.8922 46.0842 50.6922 46.9842C51.5022 47.8842 52.0322 51.5642 51.3122 52.3642C50.1322 53.6942 32.3422 53.4842 32.1422 52.8542C31.8422 51.9042 31.7622 11.0942 32.9922 10.7242C34.2222 10.3542 46.0722 9.59424 47.0722 11.2742C47.7322 12.3942 44.7622 20.8942 44.5022 29.3842L44.5222 29.3742Z" fill="#B9AD9B"/>
<path opacity="0.65" d="M44.4721 29.3543C44.3421 33.8743 45.3021 45.4143 45.9821 45.9543C47.1221 46.8543 49.8121 46.1143 50.6021 47.0143C51.3921 47.9143 51.8921 51.5343 51.1821 52.3343C49.9921 53.6543 32.4321 53.4443 32.2321 52.8043C31.9321 51.8643 31.8121 11.0643 33.0421 10.7143C34.2721 10.3643 45.9221 9.62434 46.9221 11.3043C47.5621 12.3843 44.7221 20.9943 44.4721 29.3643V29.3543Z" fill="#B7AA98"/>
<path opacity="0.67" d="M44.4221 29.3438C44.2921 33.7438 45.2121 45.4638 45.8821 45.9938C47.0221 46.9038 49.7321 46.1538 50.5021 47.0438C51.2721 47.9338 51.7521 51.5138 51.0421 52.3038C49.8521 53.6238 32.5221 53.4138 32.3121 52.7638C32.0121 51.8238 31.8421 11.0438 33.0721 10.7138C34.3021 10.3838 45.7521 9.65384 46.7521 11.3338C47.3721 12.3838 44.6621 21.0938 44.4321 29.3438H44.4221Z" fill="#B4A895"/>
<path opacity="0.69" d="M44.3721 29.3343C44.2521 33.6143 45.1321 45.5143 45.7821 46.0343C46.9321 46.9443 49.6521 46.1943 50.4021 47.0843C51.1621 47.9743 51.6121 51.5043 50.9021 52.2843C49.7021 53.6043 32.6021 53.3943 32.3821 52.7343C32.0821 51.8043 31.8721 11.0343 33.0921 10.7243C34.3121 10.4143 45.5721 9.70431 46.5721 11.3743C47.1821 12.3943 44.6021 21.2043 44.3721 29.3343Z" fill="#B2A592"/>
<path opacity="0.71" d="M44.3321 29.3138C44.2221 33.4738 45.0521 45.5538 45.7021 46.0638C46.8521 46.9738 49.5821 46.2238 50.3221 47.1138C51.0621 48.0038 51.4921 51.4738 50.7721 52.2538C49.5721 53.5638 32.6921 53.3638 32.4721 52.6938C32.1621 51.7638 31.9221 11.0138 33.1321 10.7238C34.3521 10.4338 45.4121 9.73383 46.4121 11.4138C47.0021 12.4038 44.5521 21.3138 44.3321 29.3138Z" fill="#B0A38F"/>
<path opacity="0.73" d="M44.2822 29.304C44.1722 33.334 44.9622 45.604 45.6022 46.104C46.7622 47.014 49.5022 46.264 50.2222 47.144C50.9422 48.024 51.3422 51.454 50.6322 52.234C49.4222 53.544 32.7722 53.344 32.5422 52.654C32.2322 51.734 31.9422 10.994 33.1622 10.724C34.3822 10.454 45.2422 9.77402 46.2322 11.444C46.8022 12.404 44.4822 21.424 44.2722 29.294L44.2822 29.304Z" fill="#AEA08C"/>
<path opacity="0.75" d="M44.2319 29.2938C44.1319 33.2038 44.8819 45.6538 45.5119 46.1538C46.6719 47.0638 49.4319 46.3138 50.1319 47.1938C50.8419 48.0738 51.2119 51.4538 50.5019 52.2238C49.2819 53.5238 32.8719 53.3338 32.6319 52.6338C32.3219 51.7238 31.9919 10.9938 33.2019 10.7438C34.4119 10.4938 45.0819 9.82375 46.0719 11.4938C46.6219 12.4238 44.4319 21.5438 44.2319 29.2938Z" fill="#AC9D89"/>
<path opacity="0.76" d="M44.1823 29.284C44.0923 33.074 44.7923 45.704 45.4123 46.194C46.5823 47.104 49.3423 46.354 50.0323 47.234C50.7223 48.114 51.0723 51.434 50.3523 52.204C49.1323 53.504 32.9423 53.314 32.7023 52.604C32.3923 51.694 32.0123 10.984 33.2223 10.754C34.4323 10.524 44.9023 9.87403 45.8923 11.544C46.4223 12.434 44.3623 21.664 44.1823 29.294V29.284Z" fill="#A99B85"/>
<path opacity="0.78" d="M44.1421 29.2643C44.0621 32.9343 44.7221 45.7443 45.3221 46.2243C46.4921 47.1443 49.2721 46.3843 49.9421 47.2543C50.6221 48.1243 50.9421 51.4043 50.2221 52.1643C48.9921 53.4643 33.0321 53.2643 32.7821 52.5543C32.4721 51.6543 32.0521 10.9543 33.2521 10.7443C34.4621 10.5343 44.7321 9.90428 45.7221 11.5643C46.2321 12.4243 44.3021 21.7543 44.1321 29.2643H44.1421Z" fill="#A79882"/>
<path opacity="0.8" d="M44.0922 29.2542C44.0122 32.8042 44.6322 45.7942 45.2322 46.2642C46.4122 47.1842 49.1922 46.4242 49.8522 47.2942C50.5122 48.1642 50.8122 51.3942 50.0922 52.1442C48.8622 53.4342 33.1222 53.2442 32.8722 52.5142C32.5622 51.6142 32.0922 10.9342 33.3022 10.7442C34.5022 10.5542 44.5822 9.93417 45.5722 11.5942C46.0722 12.4242 44.2622 21.8542 44.1022 29.2442L44.0922 29.2542Z" fill="#A5967F"/>
<path opacity="0.82" d="M44.0421 29.2436C43.9721 32.6736 44.5421 45.8436 45.1321 46.3036C46.3121 47.2236 49.1121 46.4636 49.7521 47.3336C50.3921 48.2036 50.6621 51.3736 49.9421 52.1236C48.7021 53.4136 33.2021 53.2236 32.9321 52.4836C32.6121 51.5936 32.1121 10.9236 33.3121 10.7536C34.5121 10.5836 44.3821 9.98355 45.3821 11.6436C45.8621 12.4436 44.1821 21.9736 44.0321 29.2436H44.0421Z" fill="#A3937C"/>
<path opacity="0.84" d="M43.9923 29.2335C43.9323 32.5435 44.4623 45.8935 45.0323 46.3435C46.2223 47.2635 49.0323 46.5035 49.6523 47.3735C50.2823 48.2335 50.5223 51.3635 49.8023 52.1135C48.5523 53.3935 33.2823 53.2135 33.0123 52.4635C32.6923 51.5835 32.1523 10.9235 33.3423 10.7735C34.5423 10.6235 44.2123 10.0335 45.2123 11.6935C45.6723 12.4635 44.1223 22.0935 43.9923 29.2435V29.2335Z" fill="#A19179"/>
<path opacity="0.86" d="M43.9521 29.214C43.8921 32.404 44.3821 45.934 44.9521 46.374C46.1421 47.294 48.9621 46.534 49.5721 47.394C50.1821 48.254 50.4021 51.334 49.6821 52.074C48.4321 53.354 33.3821 53.174 33.1121 52.414C32.7921 51.534 32.2021 10.894 33.3921 10.764C34.5821 10.634 44.0621 10.064 45.0521 11.714C45.4921 12.454 44.0721 22.184 43.9521 29.214Z" fill="#9E8E76"/>
<path opacity="0.88" d="M43.902 29.2037C43.852 32.2737 44.292 45.9837 44.852 46.4237C46.052 47.3437 48.882 46.5837 49.472 47.4437C50.062 48.3037 50.252 51.3237 49.532 52.0637C48.272 53.3337 33.462 53.1637 33.172 52.3837C32.852 51.5137 32.222 10.8837 33.412 10.7737C34.602 10.6637 43.882 10.1137 44.872 11.7637C45.292 12.4637 44.002 22.3037 43.892 29.2137L43.902 29.2037Z" fill="#9C8B73"/>
<path opacity="0.9" d="M43.852 29.1939C43.812 32.1439 44.212 46.0339 44.762 46.4639C45.962 47.3839 48.812 46.6239 49.382 47.4839C49.962 48.3339 50.122 51.3139 49.402 52.0439C48.132 53.3139 33.552 53.1339 33.262 52.3539C32.942 51.4839 32.262 10.8739 33.452 10.7839C34.632 10.6939 43.722 10.1539 44.712 11.8039C45.112 12.4739 43.952 22.4139 43.852 29.2039V29.1939Z" fill="#9A8970"/>
<path opacity="0.92" d="M43.8024 29.1835C43.7624 32.0135 44.1224 46.0835 44.6624 46.5035C45.8724 47.4335 48.7224 46.6635 49.2824 47.5135C49.8424 48.3635 49.9824 51.2935 49.2624 52.0135C47.9924 53.2835 33.6324 53.1035 33.3424 52.3135C33.0224 51.4535 32.3024 10.8535 33.4824 10.7835C34.6624 10.7135 43.5524 10.1935 44.5424 11.8335C44.9324 12.4735 43.8824 22.5135 43.8024 29.1835Z" fill="#98866C"/>
<path opacity="0.94" d="M43.7623 29.1644C43.7223 31.8644 44.0523 46.1244 44.5723 46.5344C45.7823 47.4544 48.6523 46.6944 49.1923 47.5444C49.7323 48.3944 49.8523 51.2744 49.1223 51.9944C47.8423 53.2544 33.7223 53.0844 33.4123 52.2844C33.0923 51.4344 32.3323 10.8444 33.5023 10.7944C34.6823 10.7444 43.3623 10.2344 44.3623 11.8744C44.7323 12.4844 43.8123 22.6344 43.7523 29.1644H43.7623Z" fill="#968469"/>
<path opacity="0.96" d="M43.712 29.1535C43.682 31.7335 43.962 46.1735 44.482 46.5735C45.702 47.5035 48.5819 46.7335 49.1019 47.5835C49.632 48.4235 49.722 51.2535 48.992 51.9735C47.712 53.2335 33.812 53.0635 33.502 52.2435C33.192 51.4235 32.372 10.8235 33.552 10.7935C34.722 10.7635 43.212 10.2735 44.212 11.9135C44.562 12.4935 43.772 22.7435 43.722 29.1535H43.712Z" fill="#938166"/>
<path opacity="0.98" d="M43.6621 29.1437C43.6421 31.6037 43.8721 46.2237 44.3821 46.6137C45.6021 47.5437 48.4921 46.7738 49.0021 47.6237C49.5121 48.4637 49.5721 51.2437 48.8521 51.9537C47.5621 53.2037 33.9021 53.0438 33.5721 52.2137C33.2421 51.3837 32.4021 10.8137 33.5721 10.8037C34.7421 10.7937 43.0321 10.3237 44.0321 11.9537C44.3621 12.5037 43.7121 22.8537 43.6621 29.1437Z" fill="#917F63"/>
<path d="M43.6222 29.134C43.6122 31.474 43.8022 46.274 44.3022 46.654C45.5322 47.584 48.4322 46.824 48.9222 47.654C49.4222 48.494 49.4522 51.224 48.7222 51.924C47.4322 53.174 33.9922 53.004 33.6622 52.174C33.3322 51.334 32.4422 10.794 33.6122 10.804C34.7822 10.804 42.8722 10.354 43.8622 11.984C44.1722 12.494 43.6522 22.954 43.6122 29.124L43.6222 29.134Z" fill="#8F7C60"/>
</g>
<path d="M23.7823 54.6936C23.6023 54.6936 23.5023 54.6136 23.4423 54.5536C23.3723 54.4636 23.3423 54.3436 23.3623 54.2236C23.3823 54.1136 23.3423 52.6236 23.3123 50.9136C23.2823 49.2036 23.2523 47.7336 23.2623 47.6236C23.3023 47.3236 23.5123 47.1836 23.6923 47.1836C23.8523 47.1836 27.5323 47.1536 27.9623 47.1436C27.9423 46.3836 27.6823 35.9636 27.6423 34.5736C27.6023 33.2436 27.5323 24.1236 27.5323 23.4136C26.9323 23.4336 21.3423 23.6236 21.2123 23.6236C20.9923 23.6236 20.8423 23.4736 20.8423 23.2536C20.8423 23.1936 20.7623 17.1736 20.7723 17.0336C20.7923 16.7936 20.9223 16.6336 21.1523 16.5536L21.1923 16.5336C22.9623 15.9236 24.7323 15.0236 26.1723 14.0036C28.5423 12.3236 30.2523 10.1236 30.6623 9.49359C30.8623 9.19359 31.0023 9.19359 31.1823 9.18359C31.2423 9.18359 31.3024 9.18359 31.3723 9.17359C31.6723 9.12359 42.9423 8.93359 43.7623 8.93359C43.7823 8.93359 43.7923 8.93359 43.8023 8.93359C44.0823 8.93359 44.2623 9.00359 44.2623 9.30359C44.2623 9.42359 44.2124 12.4236 44.1524 16.2236C44.0824 20.5736 44.0023 25.9836 43.9623 28.6436C43.9023 33.0136 44.1224 46.0736 44.1324 46.9136C44.5024 46.9136 47.1924 46.8936 48.2924 46.9036C48.5724 46.9036 48.7323 46.9036 48.7724 46.9036C48.9624 46.9236 49.0624 47.0436 49.0624 47.2336C49.0624 47.3136 49.1323 48.8136 49.2123 50.3936C49.3023 52.1836 49.3823 54.0436 49.3923 54.1536C49.3923 54.4136 49.3024 54.5736 49.1124 54.6136C48.9524 54.6536 42.5123 54.3536 35.6823 54.4736H35.5824C30.1624 54.5736 24.0223 54.6336 23.8423 54.6636C23.8123 54.6636 23.7723 54.6636 23.7423 54.6636L23.7823 54.6936Z" fill="white" stroke="#191919" stroke-miterlimit="10"/>
<path d="M21.2124 16.6438C21.5824 16.5138 23.9324 15.7338 26.2424 14.0938C28.8124 12.2738 30.5024 9.9438 30.7524 9.5638C30.9924 9.1838 31.1424 9.3038 31.4324 9.2638C31.7224 9.2138 43.3824 9.0138 43.8624 9.0238C44.1524 9.0238 44.2824 9.1038 44.2824 9.3538C44.2824 9.6038 44.0524 23.7738 43.9924 28.6938C43.9324 33.2438 44.1624 47.0038 44.1624 47.0038C44.1624 47.0038 48.6224 46.9738 48.8324 47.0038C49.0024 47.0238 49.0824 47.1238 49.0824 47.2938C49.0824 47.4638 49.4024 54.0038 49.4124 54.2138C49.4124 54.4238 49.3524 54.5938 49.1724 54.6338C49.0124 54.6738 42.5124 54.6138 35.6624 54.6638C29.7624 54.7038 24.1024 54.6638 23.9224 54.6838C23.5524 54.7338 23.4224 54.4838 23.4624 54.2738C23.5024 54.0638 23.3324 47.8938 23.3624 47.6738C23.4024 47.4038 23.5824 47.2738 23.7524 47.2738C23.9224 47.2738 28.0724 47.2338 28.0724 47.2338C28.0724 47.2338 27.7924 36.0738 27.7524 34.6238C27.7124 33.2238 27.6424 23.4238 27.6424 23.4238C27.6424 23.4238 21.4124 23.6338 21.2824 23.6338C21.0924 23.6338 20.9424 23.5138 20.9424 23.3038C20.9424 23.1338 20.8624 17.2238 20.8724 17.0938C20.8924 16.9038 20.9724 16.7338 21.2224 16.6538L21.2124 16.6438Z" stroke="#191919" stroke-miterlimit="10"/>
</svg>
