<?xml version="1.0" encoding="UTF-8"?>
<svg id="OBJECTS" xmlns="http://www.w3.org/2000/svg" viewBox="0 0 1030.31 921.1">
  <defs>
    <style>
      .cls-1 {
        fill: #d8d8d8;
      }

      .cls-1, .cls-2, .cls-3, .cls-4 {
        stroke: #1d1d1b;
      }

      .cls-1, .cls-3, .cls-4 {
        stroke-miterlimit: 10;
      }

      .cls-5, .cls-6 {
        stroke-width: 0px;
      }

      .cls-7 {
        stroke: #000;
      }

      .cls-7, .cls-2 {
        stroke-linecap: round;
        stroke-linejoin: round;
      }

      .cls-7, .cls-2, .cls-4 {
        fill: #fff;
      }

      .cls-3 {
        fill: none;
      }

      .cls-6 {
        fill: #1d1d1b;
      }
    </style>
  </defs>
  <circle class="cls-4" cx="383.69" cy="191.02" r="27.93"/>
  <circle class="cls-5" cx="383.23" cy="190.57" r="9.01"/>
  <circle class="cls-4" cx="494.94" cy="191.47" r="27.93"/>
  <circle class="cls-5" cx="492.23" cy="190.57" r="9.01"/>
  <path class="cls-4" d="m798.41,566.21c-5.05-8.77-24.2-13.51-25.9-9.28-7.68,19.09,35.52,54.98,53.9,58.28,42.36,7.61-28-49-28-49Z"/>
  <path class="cls-7" d="m409.86,443.36l.58-1.07.58,1.07c.26.47.64.86,1.11,1.11l1.07.58-.97.53c-.53.29-.95.74-1.2,1.29l-.59,1.29-.59-1.29c-.25-.55-.67-1-1.2-1.29l-.97-.53,1.07-.58c.47-.26.86-.64,1.11-1.11Z"/>
  <path class="cls-3" d="m416.09,319.1s30.32,19.69,52.41,0"/>
  <path class="cls-3" d="m439.39,185.08s19.37,45.55,26.9,62.03c7.52,16.48-26.9,26.14-26.9,26.14"/>
  <path class="cls-3" d="m307.81,200.6s-28.96-20.29-24,0c4.96,20.29,4.92,34.9,13.62,36.25,2.77.43,10.46-4.1,10.46-4.1"/>
  <path class="cls-3" d="m547.57,203.66s21.85-17.64,18.24,2.93c-3.61,20.57-10.56,35.54-19.16,37.47-2.74.61-2.84-1.47-2.84-1.47"/>
  <path class="cls-6" d="m821.31,662.1s5,11,11-5-44-57-58-65-18-21-23-14-31,55-4,71,74,13,74,13Z"/>
  <g>
    <path class="cls-4" d="m891.74,496.98s41.94-24.63,52.12-29.31c10.18-4.68,24.64-6.85,24.95-1.06.51,9.51-7.21,6.64-23,13-32.48,13.08-48.18,30.12-52.91,37.64-4.73,7.52-18.07,16.51-35.9,25.34-17.84,8.83-43.7,71.5-45.19,89.02-1.49,17.52-30.14-31.41-29.73-47.76,0,0,14.42-26.72,8.63-39.91-5.79-13.19,1.12-22.37-5.33-39.48-6.45-17.11-23.85-31.27-27.87-35.41s24.02-11.23,33.2-.95c9.17,10.28,8.25,23.44,13.2,30.33,4.95,6.89,9.32,8.02,31.83,5.21s36.4-6.04,47.31-15.33c7.59-6.45,26.19-19.31,40.17-23.89,6.14-2.01,13.82-1.2,17.37-1.09"/>
    <path class="cls-4" d="m889.41,494.21s25.19-19.6,34-24c6-3,12.04-7.25,25.72-7.43,0,0,9.28.43,7.28,3.43s-40,20-40,20l-11.48,9.39"/>
    <path class="cls-4" d="m891.74,496.98s41.94-24.63,52.12-29.31c10.18-4.68,24.64-6.85,24.95-1.06.51,9.51-7.21,6.64-23,13-32.48,13.08-48.18,30.12-52.91,37.64"/>
    <path class="cls-4" d="m830.55,522.53s10.63-6.38,25.52-9.19,28.32-.32,28.74-8.75c.42-8.43,5.5-23.96,11-30,6.15-6.75,10-10,14.39-11.28,3-.87,14.83.64,8.74,7.47-6.08,6.83-13.54,15.05-16.55,22.91-3,7.86-5.71,31.73-15.58,38.5-9.87,6.77-34.18,9.08-43.93,26.67-9.76,17.58-31.07,66.73-31.07,66.73l-24.4-16.39v-10.95"/>
  </g>
  <g>
    <path class="cls-1" d="m1023.88,439.6c-1.71,0-1.71-2-3.43-2s-1.71,2-3.42,2-1.71-2-3.42-2-1.71,2-3.42,2-1.71-2-3.42-2-1.71,2-3.42,2-1.71-2-3.42-2-1.71,2-3.42,2-1.71-2-3.42-2-1.71,2-3.42,2-1.71-2-3.42-2-1.71,2-3.42,2-1.71-2-3.42-2-1.71,2-3.42,2-1.71-2-3.42-2-1.71,2-3.42,2-1.71-2-3.42-2-1.71,2-3.42,2-1.71-2-3.42-2-1.71,2-3.42,2-1.71-2-3.42-2-1.71,2-3.42,2-1.71-2-3.42-2-1.71,2-3.42,2-1.71-2-3.42-2-1.71,2-3.42,2-1.71-2-3.42-2-1.71,2-3.42,2-1.71-2-3.42-2-1.71,2-3.42,2-1.71-2-3.42-2-1.71,2-3.42,2-1.71-2-3.42-2-1.71,2-3.42,2-1.71-2-3.42-2-1.71,2-3.41,2-1.71-2-3.41-2-1.71,2-3.42,2-1.71-2-3.42-2-1.71,2-3.42,2-1.71-2-3.42-2-1.71,2-3.41,2-1.71-2-3.41-2-1.71,2-3.41,2-1.71-2-3.41-2-1.71,2-3.42,2-1.71-2-3.42-2-1.71,2-3.42,2-1.71-2-3.41-2-1.71,2-3.41,2-1.71-2-3.41-2-1.71,2-3.41,2-1.71-2-3.41-2-1.71,2-3.41,2-1.71-2-3.41-2-1.71,2-3.42,2-1.71-2-3.42-2-1.71,2-3.42,2-1.71-2-3.42-2-1.71,2-3.42,2-1.71-2-3.42-2-1.71,2-3.42,2-1.71-2-3.42-2-1.71,2-3.42,2-1.71-2-3.42-2-1.71,2-3.42,2-1.71-2-3.42-2-1.71,2-3.42,2-1.71-2-3.42-2-1.71,2-3.42,2-1.71-2-3.42-2-1.71,2-3.42,2-1.71-2-3.41-2-1.71,2-3.41,2-1.71-2-3.41-2-1.71,2-3.42,2-1.71-2-3.42-2-1.71,2-3.42,2-1.71-2-3.42-2-1.71,2-3.42,2-1.71-2-3.41-2-1.71,2-3.41,2-1.71-2-3.41-2-1.71,2-3.41,2-1.71-2-3.41-2-1.71,2-3.42,2-1.71-2-3.42-2-1.71,2-3.42,2-1.71-2-3.42-2-1.71,2-3.41,2-1.71-2-3.41-2-1.71,2-3.41,2-1.71-2-3.41-2-1.71,2-3.41,2v3h321.16v-3Z"/>
    <path class="cls-1" d="m964.78,463.1h-204.94c-9.48,0-18.88-2.3-27.8-6.81l-17.23-8.69h295l-17.23,8.69c-8.92,4.5-18.33,6.81-27.8,6.81Z"/>
    <rect class="cls-1" x="694.81" y="441.6" width="335" height="8" rx="4" ry="4"/>
  </g>
  <path class="cls-2" d="m838.81,614.6l-35.85,58.94s-60.87-54.13-61.06-58.47c-.19-4.34,6.17-15.99,6.17-15.99l24.74-42.48s-1.4,3.61,3.6,12.61c8.86,15.95,40.98,45.07,62.4,45.39Z"/>
  <path class="cls-6" d="m777.31,632.1c-32-22-26-48-26-48-6,7-67,111-67,111,0,0-12-42-18-55s-27-123-30.72-138.1-6.28-12.9-18.28-24.9-62.04-36.97-62.04-36.97l-57.9-33.71s-31.06,35.68-110.06,23.68c-51.72-7.86-59-32-59-32l-108,23c-17.97,3.76-49,38-68,80L1.31,720.1c-15.38,37.71,109.71,135.68,126,173l-6,28,421-2,43-131s46,90,91,85c50.7-5.63,70.66-61.22,86-87,25-42,70-123,70-123,0,0-23-9-55-31Z"/>
  <path class="cls-4" d="m388.85,70.18c23.31-3.74,78.66-8.53,100.25-40,3.27-4.63,6.12-9.9,9.24-14.89,6.49-10.27,15.56-23.6,18.75-6.77,3.92,18.28-4.54,37.93-15.69,51.75-4.59,6.09-8.15,9.16-8.99,11,0,.09.07.14.21.13.58-.01,2.51-.93,5.5-2.48,9.95-5.18,21.3-11.99,29.97-19.74.87-.78,1.73-1.58,2.55-2.39,7.74-7.24,11.43-15.41,15.99-17.28,4.34-.31,3.84,11.09,3.66,14.4-.5,8.2-3.44,17.35-7.12,24.57-3.09,6.76-7.01,11.64-7.29,18.49.26,7.12,8.73,4.68,13.1,3.26,1.25-.25,4.05-1.6,4.03-.08-.27,1.83-4.69,7.19-12.77,12.7-.95.66-1.94,1.31-2.96,1.96-17.47,11.44-37.92,15.75-58.56,15.16-40.74-1.04-83.61-17.12-106.67-30.53-14.48-8.74,9.42-17.72,16.68-19.24l.11-.03Z"/>
</svg>