<svg xmlns="http://www.w3.org/2000/svg" viewBox="0 0 1345.61 550.8"><g id="Layer_2" data-name="Layer 2"><polygon points="498.12 550.8 0 550.8 0 228.3 246.33 0 498.12 228.3 498.12 550.8"/><circle cx="587.28" cy="346.46" r="51.04"/><circle fill="white" cx="379.2" cy="346.46" r="51.04"/><path d="M827.21,336.27c0,27.19-20.4,44.1-53,44.1H749.64V414H721.41V292h52.81C806.81,292,827.21,308.9,827.21,336.27Zm-28.59,0c0-13.42-8.71-21.27-26-21.27h-23v42.36h23C789.91,357.36,798.62,349.51,798.62,336.27Z"/><path d="M842,292c0-8.54,6.8-15.16,16.91-15.16s16.9,6.27,16.9,14.64c0,9.07-6.79,15.69-16.9,15.69S842,300.54,842,292Zm3.31,28.24h27.19V414H845.34Z"/><path d="M993.68,360.32V414h-27.2V364.5c0-15.16-7-22.13-19-22.13-13.07,0-22.48,8-22.48,25.27V414H897.81V320.23h26v11c7.32-8,18.3-12.37,31-12.37C976.94,318.84,993.68,331.73,993.68,360.32Z"/><path d="M1012.5,353c0-36.26,28.24-63.1,66.76-63.1,38.35,0,66.76,26.67,66.76,63.1s-28.41,63.1-66.76,63.1C1040.74,416.1,1012.5,389.26,1012.5,353Zm104.93,0c0-23.18-16.38-39-38.17-39s-38.17,15.86-38.17,39,16.38,39,38.17,39S1117.43,376.18,1117.43,353Z"/><path d="M1259.85,320.23V414h-25.8V402.85c-7.15,8.19-17.6,12.55-29.11,12.55-23.53,0-40.09-13.25-40.09-42.18v-53H1192v49c0,15.69,7,22.66,19,22.66,12.55,0,21.62-8,21.62-25.28V320.23Z"/><path d="M1345.61,409.47c-5.58,4-13.77,5.93-22.14,5.93-22.13,0-35-11.33-35-33.64V343.24H1274V322.32h14.47V299.49h27.19v22.83H1339v20.92h-23.36v38.17c0,8,4.36,12.38,11.68,12.38a18.29,18.29,0,0,0,11-3.49Z"/></g></svg>