<svg width="24" height="24" viewBox="0 0 24 24" fill="none" xmlns="http://www.w3.org/2000/svg">
<path d="M11.6221 0.344727C17.9494 0.344727 23.0782 5.47358 23.0782 11.8008C23.0782 18.1281 17.9494 23.2569 11.6221 23.2569C5.29487 23.2569 0.166016 18.1281 0.166016 11.8008C0.166016 5.47358 5.29487 0.344727 11.6221 0.344727ZM15.574 16.4704C15.7847 15.8239 16.7719 9.38061 16.8939 8.11097C16.9308 7.72644 16.8093 7.47092 16.5712 7.35686C16.2833 7.21839 15.8569 7.28763 15.3623 7.46594C14.6839 7.71051 6.01112 11.3929 5.51004 11.6061C5.03486 11.8078 4.58558 12.028 4.58558 12.3467C4.58558 12.5709 4.71857 12.6969 5.08517 12.8279C5.46671 12.9639 6.42753 13.2553 6.99485 13.4117C7.54126 13.5626 8.16338 13.4316 8.51204 13.2149C8.88162 12.9853 13.1468 10.1312 13.4531 9.88119C13.7589 9.63115 14.003 9.95142 13.753 10.202C13.5029 10.452 10.5751 13.2936 10.1891 13.6871C9.72041 14.1648 10.0531 14.6599 10.3674 14.8581C10.7266 15.0843 13.3092 16.8166 13.6982 17.0946C14.0872 17.3725 14.4817 17.4985 14.8428 17.4985C15.2039 17.4985 15.3942 17.0228 15.574 16.4704Z" fill="white"/>
</svg>
