<svg width="24" height="24" viewBox="0 0 24 24" fill="none" xmlns="http://www.w3.org/2000/svg">
<path d="M11.71 0.771484C5.38338 0.771484 0.253906 5.90096 0.253906 12.2276C0.253906 14.3768 0.857587 16.3805 1.8873 18.0992L0.356459 23.6837L6.06027 22.1864C7.7284 23.1348 9.65411 23.6837 11.71 23.6837C18.0366 23.6837 23.1661 18.5542 23.1661 12.2276C23.1661 5.90096 18.0366 0.771484 11.71 0.771484ZM7.78876 6.88365C7.97492 6.88365 8.1662 6.88251 8.33136 6.8911C8.53566 6.89588 8.75802 6.91084 8.97092 7.38149C9.2239 7.94093 9.77477 9.34438 9.84541 9.48663C9.91606 9.62888 9.96612 9.79645 9.86779 9.98261C9.77423 10.1735 9.72557 10.2891 9.5881 10.4581C9.44585 10.6223 9.28999 10.8262 9.1611 10.9503C9.01886 11.0926 8.87197 11.2486 9.03618 11.5321C9.20038 11.8156 9.77065 12.7451 10.6136 13.4955C11.6972 14.4636 12.6114 14.761 12.8959 14.9033C13.1804 15.0455 13.3451 15.0234 13.5094 14.8324C13.6783 14.6463 14.219 14.0075 14.41 13.723C14.5961 13.4385 14.7862 13.4877 15.0439 13.5813C15.3055 13.6749 16.7005 14.362 16.985 14.5043C17.2695 14.6465 17.456 14.7169 17.5276 14.8324C17.6011 14.9518 17.6012 15.5199 17.3653 16.1824C17.1295 16.844 15.9716 17.4838 15.4523 17.5287C14.9282 17.5773 14.439 17.7642 12.0456 16.822C9.1587 15.6849 7.33806 12.7281 7.19582 12.5371C7.05357 12.351 6.03976 10.9998 6.03976 9.60596C6.03976 8.20736 6.77306 7.52241 7.02987 7.23792C7.29145 6.95343 7.59782 6.88365 7.78876 6.88365Z" fill="white"/>
</svg>
