<svg width="452" height="195" viewBox="0 0 452 195" fill="none" xmlns="http://www.w3.org/2000/svg">
<path d="M1.22412 26.7949L4.09912 17.6074L14.4429 21.5137L13.7241 11.3574H23.0679L22.3804 21.5137L32.7241 17.5762L35.5991 26.7949L24.8491 29.1074L32.2866 36.9824L24.7554 42.4824L18.4116 33.8574L12.0991 42.4824L4.53662 36.9824L11.9741 29.1074L1.22412 26.7949Z" fill="#4285F4"/>
<path d="M146.359 121.968C151.468 121.968 155.609 117.826 155.609 112.718C155.609 107.609 151.468 103.468 146.359 103.468C141.25 103.468 137.109 107.609 137.109 112.718C137.109 117.826 141.25 121.968 146.359 121.968Z" fill="white"/>
<path d="M146.359 122.468C140.979 122.468 136.609 118.098 136.609 112.718C136.609 107.338 140.979 102.968 146.359 102.968C151.739 102.968 156.109 107.338 156.109 112.718C156.109 118.098 151.739 122.468 146.359 122.468ZM146.359 103.968C141.529 103.968 137.609 107.898 137.609 112.718C137.609 117.538 141.529 121.468 146.359 121.468C151.189 121.468 155.109 117.538 155.109 112.718C155.109 107.898 151.179 103.968 146.359 103.968Z" fill="#191919"/>
<path d="M146.359 119.907C150.33 119.907 153.549 116.688 153.549 112.717C153.549 108.746 150.33 105.527 146.359 105.527C142.388 105.527 139.169 108.746 139.169 112.717C139.169 116.688 142.388 119.907 146.359 119.907Z" fill="white"/>
<path d="M146.359 120.407C142.119 120.407 138.669 116.957 138.669 112.717C138.669 108.477 142.119 105.027 146.359 105.027C150.599 105.027 154.059 108.477 154.059 112.717C154.059 116.957 150.609 120.407 146.359 120.407ZM146.359 106.017C142.669 106.017 139.669 109.017 139.669 112.707C139.669 116.397 142.669 119.397 146.359 119.397C150.049 119.397 153.059 116.397 153.059 112.707C153.059 109.017 150.059 106.017 146.359 106.017Z" fill="#191919"/>
<mask id="mask0_2029_32057" style="mask-type:luminance" maskUnits="userSpaceOnUse" x="136" y="124" width="21" height="5">
<path d="M156.219 128.998V124.248H136.179V128.998H156.219Z" fill="white"/>
</mask>
<g mask="url(#mask0_2029_32057)">
<mask id="mask1_2029_32057" style="mask-type:luminance" maskUnits="userSpaceOnUse" x="150" y="119" width="16" height="12">
<path d="M165.739 119.688H150.219V130.388H165.739V119.688Z" fill="white"/>
</mask>
<g mask="url(#mask1_2029_32057)">
<path d="M151.509 119.648V130.418" stroke="#191919" stroke-width="0.21"/>
<path d="M154.099 119.648V130.418" stroke="#191919" stroke-width="0.21"/>
</g>
<mask id="mask2_2029_32057" style="mask-type:luminance" maskUnits="userSpaceOnUse" x="134" y="119" width="17" height="12">
<path d="M150.219 119.688H134.699V130.388H150.219V119.688Z" fill="white"/>
</mask>
<g mask="url(#mask2_2029_32057)">
<path d="M141.169 119.648V130.418" stroke="#191919" stroke-width="0.21"/>
<path d="M146.339 119.648V130.418" stroke="#191919" stroke-width="0.21"/>
<path d="M138.579 119.648V130.418" stroke="#191919" stroke-width="0.21"/>
<path d="M143.749 119.648V130.418" stroke="#191919" stroke-width="0.21"/>
<path d="M148.929 119.648V130.418" stroke="#191919" stroke-width="0.21"/>
</g>
</g>
<path d="M156.219 129.498H136.179C135.899 129.498 135.679 129.278 135.679 128.998V124.248C135.679 123.968 135.899 123.748 136.179 123.748H156.219C156.499 123.748 156.719 123.968 156.719 124.248V128.998C156.719 129.278 156.499 129.498 156.219 129.498ZM136.679 128.498H155.719V124.748H136.679V128.498Z" fill="#191919"/>
<mask id="mask3_2029_32057" style="mask-type:luminance" maskUnits="userSpaceOnUse" x="136" y="131" width="21" height="6">
<path d="M156.219 136.128V131.378H136.179V136.128H156.219Z" fill="white"/>
</mask>
<g mask="url(#mask3_2029_32057)">
<mask id="mask4_2029_32057" style="mask-type:luminance" maskUnits="userSpaceOnUse" x="150" y="126" width="16" height="12">
<path d="M165.739 126.818H150.219V137.518H165.739V126.818Z" fill="white"/>
</mask>
<g mask="url(#mask4_2029_32057)">
<path d="M151.509 126.778V137.548" stroke="#191919" stroke-width="0.21"/>
<path d="M154.099 126.778V137.548" stroke="#191919" stroke-width="0.21"/>
</g>
<mask id="mask5_2029_32057" style="mask-type:luminance" maskUnits="userSpaceOnUse" x="134" y="126" width="17" height="12">
<path d="M150.219 126.818H134.699V137.518H150.219V126.818Z" fill="white"/>
</mask>
<g mask="url(#mask5_2029_32057)">
<path d="M141.169 126.778V137.548" stroke="#191919" stroke-width="0.21"/>
<path d="M146.339 126.778V137.548" stroke="#191919" stroke-width="0.21"/>
<path d="M138.579 126.778V137.548" stroke="#191919" stroke-width="0.21"/>
<path d="M143.749 126.778V137.548" stroke="#191919" stroke-width="0.21"/>
<path d="M148.929 126.778V137.548" stroke="#191919" stroke-width="0.21"/>
</g>
</g>
<path d="M156.219 136.628H136.179C135.899 136.628 135.679 136.408 135.679 136.128V131.378C135.679 131.098 135.899 130.878 136.179 130.878H156.219C156.499 130.878 156.719 131.098 156.719 131.378V136.128C156.719 136.408 156.499 136.628 156.219 136.628ZM136.679 135.628H155.719V131.878H136.679V135.628Z" fill="#191919"/>
<mask id="mask6_2029_32057" style="mask-type:luminance" maskUnits="userSpaceOnUse" x="136" y="138" width="21" height="6">
<path d="M156.219 143.258V138.508H136.179V143.258H156.219Z" fill="white"/>
</mask>
<g mask="url(#mask6_2029_32057)">
<mask id="mask7_2029_32057" style="mask-type:luminance" maskUnits="userSpaceOnUse" x="150" y="133" width="16" height="12">
<path d="M165.739 133.948H150.219V144.648H165.739V133.948Z" fill="white"/>
</mask>
<g mask="url(#mask7_2029_32057)">
<path d="M151.509 133.908V144.678" stroke="#191919" stroke-width="0.21"/>
<path d="M154.099 133.908V144.678" stroke="#191919" stroke-width="0.21"/>
</g>
<mask id="mask8_2029_32057" style="mask-type:luminance" maskUnits="userSpaceOnUse" x="134" y="133" width="17" height="12">
<path d="M150.219 133.948H134.699V144.648H150.219V133.948Z" fill="white"/>
</mask>
<g mask="url(#mask8_2029_32057)">
<path d="M141.169 133.908V144.678" stroke="#191919" stroke-width="0.21"/>
<path d="M146.339 133.908V144.678" stroke="#191919" stroke-width="0.21"/>
<path d="M138.579 133.908V144.678" stroke="#191919" stroke-width="0.21"/>
<path d="M143.749 133.908V144.678" stroke="#191919" stroke-width="0.21"/>
<path d="M148.929 133.908V144.678" stroke="#191919" stroke-width="0.21"/>
</g>
</g>
<path d="M156.219 143.768H136.179C135.899 143.768 135.679 143.548 135.679 143.268V138.518C135.679 138.238 135.899 138.018 136.179 138.018H156.219C156.499 138.018 156.719 138.238 156.719 138.518V143.268C156.719 143.548 156.499 143.768 156.219 143.768ZM136.679 142.768H155.719V139.018H136.679V142.768Z" fill="#191919"/>
<path d="M146.839 108.258V117.168H145.919V109.078H143.819V108.268H146.839V108.258Z" fill="#191919"/>
<mask id="mask9_2029_32057" style="mask-type:luminance" maskUnits="userSpaceOnUse" x="32" y="128" width="21" height="5">
<path d="M52.189 132.997V128.247H32.149V132.997H52.189Z" fill="white"/>
</mask>
<g mask="url(#mask9_2029_32057)">
<mask id="mask10_2029_32057" style="mask-type:luminance" maskUnits="userSpaceOnUse" x="46" y="123" width="16" height="12">
<path d="M61.709 123.688H46.189V134.387H61.709V123.688Z" fill="white"/>
</mask>
<g mask="url(#mask10_2029_32057)">
<path d="M47.479 123.647V134.417" stroke="#191919" stroke-width="0.21"/>
<path d="M50.0688 123.647V134.417" stroke="#191919" stroke-width="0.21"/>
</g>
<mask id="mask11_2029_32057" style="mask-type:luminance" maskUnits="userSpaceOnUse" x="30" y="123" width="17" height="12">
<path d="M46.1889 123.688H30.6689V134.387H46.1889V123.688Z" fill="white"/>
</mask>
<g mask="url(#mask11_2029_32057)">
<path d="M37.1387 123.647V134.417" stroke="#191919" stroke-width="0.21"/>
<path d="M42.3086 123.647V134.417" stroke="#191919" stroke-width="0.21"/>
<path d="M34.5488 123.647V134.417" stroke="#191919" stroke-width="0.21"/>
<path d="M39.7285 123.647V134.417" stroke="#191919" stroke-width="0.21"/>
<path d="M44.8989 123.647V134.417" stroke="#191919" stroke-width="0.21"/>
</g>
</g>
<path d="M52.1889 133.497H32.1489C31.8689 133.497 31.6489 133.277 31.6489 132.997V128.247C31.6489 127.967 31.8689 127.747 32.1489 127.747H52.1889C52.4689 127.747 52.6889 127.967 52.6889 128.247V132.997C52.6889 133.277 52.4689 133.497 52.1889 133.497ZM32.6489 132.497H51.6889V128.747H32.6489V132.497Z" fill="#191919"/>
<mask id="mask12_2029_32057" style="mask-type:luminance" maskUnits="userSpaceOnUse" x="32" y="135" width="21" height="6">
<path d="M52.189 140.127V135.377H32.149V140.127H52.189Z" fill="white"/>
</mask>
<g mask="url(#mask12_2029_32057)">
<mask id="mask13_2029_32057" style="mask-type:luminance" maskUnits="userSpaceOnUse" x="46" y="130" width="16" height="12">
<path d="M61.709 130.817H46.189V141.517H61.709V130.817Z" fill="white"/>
</mask>
<g mask="url(#mask13_2029_32057)">
<path d="M47.479 130.777V141.547" stroke="#191919" stroke-width="0.21"/>
<path d="M50.0688 130.777V141.547" stroke="#191919" stroke-width="0.21"/>
</g>
<mask id="mask14_2029_32057" style="mask-type:luminance" maskUnits="userSpaceOnUse" x="30" y="130" width="17" height="12">
<path d="M46.1889 130.817H30.6689V141.517H46.1889V130.817Z" fill="white"/>
</mask>
<g mask="url(#mask14_2029_32057)">
<path d="M37.1387 130.777V141.547" stroke="#191919" stroke-width="0.21"/>
<path d="M42.3086 130.777V141.547" stroke="#191919" stroke-width="0.21"/>
<path d="M34.5488 130.777V141.547" stroke="#191919" stroke-width="0.21"/>
<path d="M39.7285 130.777V141.547" stroke="#191919" stroke-width="0.21"/>
<path d="M44.8989 130.777V141.547" stroke="#191919" stroke-width="0.21"/>
</g>
</g>
<path d="M52.1889 140.627H32.1489C31.8689 140.627 31.6489 140.407 31.6489 140.127V135.377C31.6489 135.097 31.8689 134.877 32.1489 134.877H52.1889C52.4689 134.877 52.6889 135.097 52.6889 135.377V140.127C52.6889 140.407 52.4689 140.627 52.1889 140.627ZM32.6489 139.627H51.6889V135.877H32.6489V139.627Z" fill="#191919"/>
<mask id="mask15_2029_32057" style="mask-type:luminance" maskUnits="userSpaceOnUse" x="32" y="142" width="21" height="6">
<path d="M52.189 147.257V142.507H32.149V147.257H52.189Z" fill="white"/>
</mask>
<g mask="url(#mask15_2029_32057)">
<mask id="mask16_2029_32057" style="mask-type:luminance" maskUnits="userSpaceOnUse" x="46" y="137" width="16" height="12">
<path d="M61.709 137.947H46.189V148.647H61.709V137.947Z" fill="white"/>
</mask>
<g mask="url(#mask16_2029_32057)">
<path d="M47.479 137.907V148.677" stroke="#191919" stroke-width="0.21"/>
<path d="M50.0688 137.907V148.677" stroke="#191919" stroke-width="0.21"/>
</g>
<mask id="mask17_2029_32057" style="mask-type:luminance" maskUnits="userSpaceOnUse" x="30" y="137" width="17" height="12">
<path d="M46.1889 137.947H30.6689V148.647H46.1889V137.947Z" fill="white"/>
</mask>
<g mask="url(#mask17_2029_32057)">
<path d="M37.1387 137.907V148.677" stroke="#191919" stroke-width="0.21"/>
<path d="M42.3086 137.907V148.677" stroke="#191919" stroke-width="0.21"/>
<path d="M34.5488 137.907V148.677" stroke="#191919" stroke-width="0.21"/>
<path d="M39.7285 137.907V148.677" stroke="#191919" stroke-width="0.21"/>
<path d="M44.8989 137.907V148.677" stroke="#191919" stroke-width="0.21"/>
</g>
</g>
<path d="M52.1889 147.767H32.1489C31.8689 147.767 31.6489 147.547 31.6489 147.267V142.517C31.6489 142.237 31.8689 142.017 32.1489 142.017H52.1889C52.4689 142.017 52.6889 142.237 52.6889 142.517V147.267C52.6889 147.547 52.4689 147.767 52.1889 147.767ZM32.6489 146.767H51.6889V143.017H32.6489V146.767Z" fill="#191919"/>
<mask id="mask18_2029_32057" style="mask-type:luminance" maskUnits="userSpaceOnUse" x="32" y="106" width="21" height="6">
<path d="M52.1987 111.487V106.737H32.1587V111.487H52.1987Z" fill="white"/>
</mask>
<g mask="url(#mask18_2029_32057)">
<mask id="mask19_2029_32057" style="mask-type:luminance" maskUnits="userSpaceOnUse" x="46" y="102" width="16" height="11">
<path d="M61.7085 102.178H46.1885V112.878H61.7085V102.178Z" fill="white"/>
</mask>
<g mask="url(#mask19_2029_32057)">
<path d="M47.4785 102.138V112.908" stroke="#191919" stroke-width="0.21"/>
<path d="M50.0684 102.138V112.908" stroke="#191919" stroke-width="0.21"/>
</g>
<mask id="mask20_2029_32057" style="mask-type:luminance" maskUnits="userSpaceOnUse" x="30" y="102" width="17" height="11">
<path d="M46.1885 102.178H30.6685V112.878H46.1885V102.178Z" fill="white"/>
</mask>
<g mask="url(#mask20_2029_32057)">
<path d="M37.1382 102.138V112.908" stroke="#191919" stroke-width="0.21"/>
<path d="M42.3081 102.138V112.908" stroke="#191919" stroke-width="0.21"/>
<path d="M34.5483 102.138V112.908" stroke="#191919" stroke-width="0.21"/>
<path d="M39.728 102.138V112.908" stroke="#191919" stroke-width="0.21"/>
<path d="M44.8984 102.138V112.908" stroke="#191919" stroke-width="0.21"/>
</g>
</g>
<path d="M52.1889 111.987H32.1489C31.8689 111.987 31.6489 111.767 31.6489 111.487V106.737C31.6489 106.457 31.8689 106.237 32.1489 106.237H52.1889C52.4689 106.237 52.6889 106.457 52.6889 106.737V111.487C52.6889 111.767 52.4689 111.987 52.1889 111.987ZM32.6489 110.987H51.6889V107.237H32.6489V110.987Z" fill="#191919"/>
<mask id="mask21_2029_32057" style="mask-type:luminance" maskUnits="userSpaceOnUse" x="32" y="113" width="21" height="6">
<path d="M52.189 118.617V113.867H32.149V118.617H52.189Z" fill="white"/>
</mask>
<g mask="url(#mask21_2029_32057)">
<mask id="mask22_2029_32057" style="mask-type:luminance" maskUnits="userSpaceOnUse" x="46" y="109" width="16" height="12">
<path d="M61.709 109.308H46.189V120.008H61.709V109.308Z" fill="white"/>
</mask>
<g mask="url(#mask22_2029_32057)">
<path d="M47.479 109.268V120.038" stroke="#191919" stroke-width="0.21"/>
<path d="M50.0688 109.268V120.038" stroke="#191919" stroke-width="0.21"/>
</g>
<mask id="mask23_2029_32057" style="mask-type:luminance" maskUnits="userSpaceOnUse" x="30" y="109" width="17" height="12">
<path d="M46.1889 109.308H30.6689V120.008H46.1889V109.308Z" fill="white"/>
</mask>
<g mask="url(#mask23_2029_32057)">
<path d="M37.1387 109.268V120.038" stroke="#191919" stroke-width="0.21"/>
<path d="M42.3086 109.268V120.038" stroke="#191919" stroke-width="0.21"/>
<path d="M34.5488 109.268V120.038" stroke="#191919" stroke-width="0.21"/>
<path d="M39.7285 109.268V120.038" stroke="#191919" stroke-width="0.21"/>
<path d="M44.8989 109.268V120.038" stroke="#191919" stroke-width="0.21"/>
</g>
</g>
<path d="M52.1889 119.117H32.1489C31.8689 119.117 31.6489 118.897 31.6489 118.617V113.867C31.6489 113.587 31.8689 113.367 32.1489 113.367H52.1889C52.4689 113.367 52.6889 113.587 52.6889 113.867V118.617C52.6889 118.897 52.4689 119.117 52.1889 119.117ZM32.6489 118.117H51.6889V114.367H32.6489V118.117Z" fill="#191919"/>
<mask id="mask24_2029_32057" style="mask-type:luminance" maskUnits="userSpaceOnUse" x="32" y="120" width="21" height="6">
<path d="M52.189 125.747V120.997H32.149V125.747H52.189Z" fill="white"/>
</mask>
<g mask="url(#mask24_2029_32057)">
<mask id="mask25_2029_32057" style="mask-type:luminance" maskUnits="userSpaceOnUse" x="46" y="116" width="16" height="12">
<path d="M61.709 116.438H46.189V127.137H61.709V116.438Z" fill="white"/>
</mask>
<g mask="url(#mask25_2029_32057)">
<path d="M47.479 116.397V127.167" stroke="#191919" stroke-width="0.21"/>
<path d="M50.0688 116.397V127.167" stroke="#191919" stroke-width="0.21"/>
</g>
<mask id="mask26_2029_32057" style="mask-type:luminance" maskUnits="userSpaceOnUse" x="30" y="116" width="17" height="12">
<path d="M46.1889 116.438H30.6689V127.137H46.1889V116.438Z" fill="white"/>
</mask>
<g mask="url(#mask26_2029_32057)">
<path d="M37.1387 116.397V127.167" stroke="#191919" stroke-width="0.21"/>
<path d="M42.3086 116.397V127.167" stroke="#191919" stroke-width="0.21"/>
<path d="M34.5488 116.397V127.167" stroke="#191919" stroke-width="0.21"/>
<path d="M39.7285 116.397V127.167" stroke="#191919" stroke-width="0.21"/>
<path d="M44.8989 116.397V127.167" stroke="#191919" stroke-width="0.21"/>
</g>
</g>
<path d="M52.1889 126.247H32.1489C31.8689 126.247 31.6489 126.027 31.6489 125.747V120.997C31.6489 120.717 31.8689 120.497 32.1489 120.497H52.1889C52.4689 120.497 52.6889 120.717 52.6889 120.997V125.747C52.6889 126.027 52.4689 126.247 52.1889 126.247ZM32.6489 125.247H51.6889V121.497H32.6489V125.247Z" fill="#191919"/>
<path d="M54.369 85.1882L54.949 84.1182L55.529 85.1882C55.789 85.6582 56.169 86.0482 56.639 86.2982L57.709 86.8782L56.739 87.4082C56.209 87.6982 55.789 88.1482 55.539 88.6982L54.949 89.9882L54.359 88.6982C54.109 88.1482 53.689 87.6982 53.159 87.4082L52.189 86.8782L53.259 86.2982C53.729 86.0382 54.119 85.6582 54.369 85.1882Z" fill="white"/>
<path d="M54.9587 90.4877C54.7587 90.4877 54.5887 90.3777 54.5087 90.1977L53.9187 88.9077C53.7087 88.4577 53.3587 88.0877 52.9287 87.8477L51.9587 87.3177C51.7987 87.2277 51.6987 87.0577 51.6987 86.8777C51.6987 86.6977 51.7987 86.5277 51.9587 86.4377L53.0287 85.8577C53.4187 85.6477 53.7287 85.3277 53.9487 84.9477L54.5287 83.8777C54.7087 83.5577 55.2287 83.5577 55.4087 83.8777L55.9887 84.9477C56.1987 85.3377 56.5187 85.6477 56.9087 85.8677L57.9787 86.4477C58.1387 86.5377 58.2387 86.7077 58.2387 86.8877C58.2387 87.0677 58.1387 87.2377 57.9787 87.3277L57.0087 87.8577C56.5787 88.0977 56.2287 88.4677 56.0187 88.9177L55.4287 90.2077C55.3487 90.3877 55.1687 90.4977 54.9787 90.4977L54.9587 90.4877ZM53.2387 86.8777L53.4087 86.9677C54.0287 87.3077 54.5287 87.8477 54.8287 88.4877L54.9587 88.7777L55.0987 88.4877C55.3887 87.8477 55.8987 87.3077 56.5187 86.9677L56.6887 86.8777L56.4287 86.7377C55.8787 86.4377 55.4187 85.9777 55.1187 85.4277L54.9787 85.1677L54.8387 85.4277C54.5387 85.9777 54.0787 86.4377 53.5287 86.7377L53.2687 86.8777H53.2387Z" fill="#191919"/>
<path d="M140.879 88.028L141.459 86.958L142.039 88.028C142.299 88.498 142.679 88.888 143.149 89.138L144.219 89.718L143.249 90.248C142.719 90.538 142.299 90.988 142.049 91.538L141.459 92.828L140.869 91.538C140.619 90.988 140.199 90.538 139.669 90.248L138.699 89.718L139.769 89.138C140.239 88.878 140.629 88.498 140.879 88.028Z" fill="white"/>
<path d="M141.469 93.3275C141.269 93.3275 141.099 93.2175 141.019 93.0375L140.429 91.7475C140.219 91.2975 139.879 90.9275 139.439 90.6875L138.469 90.1575C138.309 90.0675 138.209 89.8975 138.209 89.7175C138.209 89.5375 138.309 89.3675 138.469 89.2775L139.539 88.6975C139.929 88.4875 140.239 88.1675 140.449 87.7875L141.029 86.7175C141.209 86.3975 141.729 86.3975 141.909 86.7175L142.489 87.7875C142.699 88.1775 143.019 88.4875 143.409 88.7075L144.479 89.2875C144.639 89.3775 144.739 89.5475 144.739 89.7275C144.739 89.9075 144.639 90.0775 144.479 90.1675L143.509 90.6975C143.079 90.9375 142.729 91.3075 142.519 91.7575L141.929 93.0475C141.849 93.2275 141.669 93.3375 141.479 93.3375L141.469 93.3275ZM139.749 89.7175L139.919 89.8075C140.539 90.1475 141.039 90.6875 141.339 91.3275L141.469 91.6175L141.609 91.3275C141.899 90.6875 142.409 90.1475 143.029 89.8075L143.199 89.7175L142.939 89.5775C142.389 89.2775 141.929 88.8175 141.629 88.2675L141.489 88.0075L141.349 88.2675C141.049 88.8275 140.589 89.2775 140.039 89.5775L139.779 89.7175H139.749Z" fill="#191919"/>
<path d="M137.289 162.368L137.869 161.298L138.449 162.368C138.709 162.838 139.089 163.228 139.559 163.478L140.629 164.058L139.659 164.588C139.129 164.878 138.709 165.328 138.459 165.878L137.869 167.168L137.279 165.878C137.029 165.328 136.609 164.878 136.079 164.588L135.109 164.058L136.179 163.478C136.649 163.218 137.039 162.838 137.289 162.368Z" fill="white"/>
<path d="M137.869 167.678C137.669 167.678 137.499 167.568 137.419 167.388L136.829 166.098C136.619 165.648 136.269 165.278 135.839 165.038L134.869 164.508C134.709 164.418 134.609 164.248 134.609 164.068C134.609 163.888 134.709 163.718 134.869 163.628L135.939 163.048C136.329 162.838 136.639 162.518 136.859 162.138L137.439 161.068C137.529 160.908 137.699 160.808 137.879 160.808C138.059 160.808 138.229 160.908 138.319 161.068L138.899 162.138C139.109 162.528 139.429 162.838 139.819 163.048L140.889 163.628C141.049 163.718 141.149 163.888 141.149 164.068C141.149 164.248 141.049 164.418 140.889 164.508L139.919 165.038C139.489 165.278 139.139 165.648 138.929 166.098L138.339 167.388C138.259 167.568 138.079 167.678 137.879 167.678H137.869ZM136.149 164.068L136.319 164.158C136.939 164.498 137.439 165.038 137.739 165.678L137.869 165.968L137.999 165.678C138.289 165.038 138.799 164.498 139.419 164.158L139.589 164.068L139.329 163.928C138.779 163.628 138.319 163.168 138.019 162.618L137.879 162.358L137.739 162.618C137.439 163.168 136.979 163.628 136.429 163.928L136.169 164.068H136.149Z" fill="#191919"/>
<path d="M128.149 135.708H60.4189V158.418H128.149V135.708Z" fill="white"/>
<path d="M128.149 158.918H60.4189C60.1389 158.918 59.9189 158.698 59.9189 158.418V135.708C59.9189 135.428 60.1389 135.208 60.4189 135.208H128.149C128.429 135.208 128.649 135.428 128.649 135.708V158.418C128.649 158.698 128.429 158.918 128.149 158.918ZM60.9189 157.918H127.649V136.208H60.9189V157.918Z" fill="#191919"/>
<path d="M127.339 132.468H61.229V135.708H127.339V132.468Z" fill="white"/>
<path d="M127.339 136.208H61.229C60.949 136.208 60.729 135.988 60.729 135.708V132.468C60.729 132.188 60.949 131.968 61.229 131.968H127.339C127.619 131.968 127.839 132.188 127.839 132.468V135.708C127.839 135.988 127.619 136.208 127.339 136.208ZM61.729 135.208H126.839V132.968H61.729V135.208Z" fill="#191919"/>
<path d="M128.219 133.278H60.3491L67.1091 120.298H121.469L128.219 133.278Z" fill="white"/>
<path d="M128.219 133.778H60.349C60.179 133.778 60.009 133.688 59.919 133.538C59.829 133.388 59.819 133.208 59.899 133.048L66.649 120.068C66.739 119.898 66.909 119.798 67.089 119.798H121.449C121.639 119.798 121.809 119.898 121.889 120.068L128.639 133.048C128.719 133.208 128.719 133.388 128.619 133.538C128.519 133.688 128.369 133.778 128.189 133.778H128.219ZM61.179 132.778H127.399L121.169 120.798H67.419L61.189 132.778H61.179Z" fill="#191919"/>
<path d="M117.609 112.188H70.9688V158.427H117.609V112.188Z" fill="white"/>
<path d="M117.609 158.918H70.9688C70.6887 158.918 70.4688 158.698 70.4688 158.418V112.178C70.4688 111.898 70.6887 111.678 70.9688 111.678H117.609C117.889 111.678 118.109 111.898 118.109 112.178V158.418C118.109 158.698 117.889 158.918 117.609 158.918ZM71.4688 157.918H117.109V112.678H71.4688V157.918Z" fill="#191919"/>
<path d="M98.9487 145.438H89.6187V158.417H98.9487V145.438Z" fill="white"/>
<path d="M98.9487 158.917H89.6187C89.3387 158.917 89.1187 158.697 89.1187 158.417V145.438C89.1187 145.157 89.3387 144.938 89.6187 144.938H98.9487C99.2287 144.938 99.4487 145.157 99.4487 145.438V158.417C99.4487 158.697 99.2287 158.917 98.9487 158.917ZM90.1187 157.917H98.4487V145.938H90.1187V157.917Z" fill="#191919"/>
<path d="M98.9487 131.218H89.6187V140.948H98.9487V131.218Z" fill="white"/>
<path d="M98.9487 141.448H89.6187C89.3387 141.448 89.1187 141.228 89.1187 140.948V131.218C89.1187 130.938 89.3387 130.718 89.6187 130.718H98.9487C99.2287 130.718 99.4487 130.938 99.4487 131.218V140.948C99.4487 141.228 99.2287 141.448 98.9487 141.448ZM90.1187 140.448H98.4487V131.718H90.1187V140.448Z" fill="#191919"/>
<path d="M86.8186 155.178H79.5186V158.418H86.8186V155.178Z" fill="white"/>
<path d="M86.8186 158.918H79.5186C79.2386 158.918 79.0186 158.698 79.0186 158.418V155.178C79.0186 154.898 79.2386 154.678 79.5186 154.678H86.8186C87.0986 154.678 87.3186 154.898 87.3186 155.178V158.418C87.3186 158.698 87.0986 158.918 86.8186 158.918ZM80.0186 157.918H86.3186V155.678H80.0186V157.918Z" fill="#191919"/>
<path d="M84.389 131.648H81.959V155.168H84.389V131.648Z" fill="white"/>
<path d="M84.389 155.678H81.959C81.679 155.678 81.459 155.458 81.459 155.178V131.658C81.459 131.378 81.679 131.158 81.959 131.158H84.389C84.669 131.158 84.889 131.378 84.889 131.658V155.178C84.889 155.458 84.669 155.678 84.389 155.678ZM82.459 154.678H83.889V132.158H82.459V154.678Z" fill="#191919"/>
<path d="M109.539 155.178H102.239V158.418H109.539V155.178Z" fill="white"/>
<path d="M109.539 158.918H102.239C101.959 158.918 101.739 158.698 101.739 158.418V155.178C101.739 154.898 101.959 154.678 102.239 154.678H109.539C109.819 154.678 110.039 154.898 110.039 155.178V158.418C110.039 158.698 109.819 158.918 109.539 158.918ZM102.739 157.918H109.039V155.678H102.739V157.918Z" fill="#191919"/>
<path d="M125.919 141.388H120.239V151.938H125.919V141.388Z" fill="white"/>
<path d="M125.919 152.428H120.239C119.959 152.428 119.739 152.208 119.739 151.928V141.388C119.739 141.108 119.959 140.888 120.239 140.888H125.919C126.199 140.888 126.419 141.108 126.419 141.388V151.928C126.419 152.208 126.199 152.428 125.919 152.428ZM120.739 151.428H125.419V141.888H120.739V151.428Z" fill="#191919"/>
<path d="M68.3289 141.388H62.6489V151.938H68.3289V141.388Z" fill="white"/>
<path d="M68.3289 152.428H62.6489C62.3689 152.428 62.1489 152.208 62.1489 151.928V141.388C62.1489 141.108 62.3689 140.888 62.6489 140.888H68.3289C68.6089 140.888 68.8289 141.108 68.8289 141.388V151.928C68.8289 152.208 68.6089 152.428 68.3289 152.428ZM63.1489 151.428H67.8289V141.888H63.1489V151.428Z" fill="#191919"/>
<path d="M114.969 138.138H109.289V148.688H114.969V138.138Z" fill="white"/>
<path d="M114.969 149.187H109.289C109.009 149.187 108.789 148.967 108.789 148.687V138.147C108.789 137.867 109.009 137.647 109.289 137.647H114.969C115.249 137.647 115.469 137.867 115.469 138.147V148.687C115.469 148.967 115.249 149.187 114.969 149.187ZM109.789 148.187H114.469V138.647H109.789V148.187Z" fill="#191919"/>
<path d="M79.2786 138.138H73.5986V148.688H79.2786V138.138Z" fill="white"/>
<path d="M79.2786 149.187H73.5986C73.3186 149.187 73.0986 148.967 73.0986 148.687V138.147C73.0986 137.867 73.3186 137.647 73.5986 137.647H79.2786C79.5586 137.647 79.7786 137.867 79.7786 138.147V148.687C79.7786 148.967 79.5586 149.187 79.2786 149.187ZM74.0986 148.187H78.7786V138.647H74.0986V148.187Z" fill="#191919"/>
<path d="M114.969 117.858H109.289V128.408H114.969V117.858Z" fill="white"/>
<path d="M114.969 128.908H109.289C109.009 128.908 108.789 128.688 108.789 128.408V117.868C108.789 117.588 109.009 117.368 109.289 117.368H114.969C115.249 117.368 115.469 117.588 115.469 117.868V128.408C115.469 128.688 115.249 128.908 114.969 128.908ZM109.789 127.908H114.469V118.368H109.789V127.908Z" fill="#191919"/>
<path d="M79.2786 117.858H73.5986V128.408H79.2786V117.858Z" fill="white"/>
<path d="M79.2786 128.908H73.5986C73.3186 128.908 73.0986 128.688 73.0986 128.408V117.868C73.0986 117.588 73.3186 117.368 73.5986 117.368H79.2786C79.5586 117.368 79.7786 117.588 79.7786 117.868V128.408C79.7786 128.688 79.5586 128.908 79.2786 128.908ZM74.0986 127.908H78.7786V118.368H74.0986V127.908Z" fill="#191919"/>
<path d="M107.099 131.648H104.669V155.168H107.099V131.648Z" fill="white"/>
<path d="M107.099 155.678H104.669C104.389 155.678 104.169 155.458 104.169 155.178V131.658C104.169 131.378 104.389 131.158 104.669 131.158H107.099C107.379 131.158 107.599 131.378 107.599 131.658V155.178C107.599 155.458 107.379 155.678 107.099 155.678ZM105.169 154.678H106.599V132.158H105.169V154.678Z" fill="#191919"/>
<path d="M130.589 158.018H57.9888V164.908H130.589V158.018Z" fill="white"/>
<path d="M130.589 165.408H57.9888C57.7088 165.408 57.4888 165.188 57.4888 164.908V158.018C57.4888 157.738 57.7088 157.518 57.9888 157.518H130.589C130.869 157.518 131.089 157.738 131.089 158.018V164.908C131.089 165.188 130.869 165.408 130.589 165.408ZM58.4888 164.408H130.089V158.518H58.4888V164.408Z" fill="#191919"/>
<path d="M105.239 158.418H83.3389V164.498H105.239V158.418Z" fill="white"/>
<path d="M105.239 165.008H83.3389C83.0589 165.008 82.8389 164.788 82.8389 164.508V158.428C82.8389 158.148 83.0589 157.928 83.3389 157.928H105.239C105.519 157.928 105.739 158.148 105.739 158.428V164.508C105.739 164.788 105.519 165.008 105.239 165.008ZM83.8389 164.008H104.739V158.928H83.8389V164.008Z" fill="#191919"/>
<path d="M120.449 112.587H68.1289L76.2389 99.6074H112.339L120.449 112.587Z" fill="white"/>
<path d="M120.449 113.087H68.1287C67.9487 113.087 67.7787 112.987 67.6887 112.827C67.5987 112.667 67.6087 112.477 67.6987 112.317L75.8087 99.3374C75.8987 99.1874 76.0587 99.1074 76.2287 99.1074H112.329C112.499 99.1074 112.659 99.1974 112.749 99.3374L120.859 112.317C120.959 112.467 120.959 112.667 120.869 112.827C120.779 112.987 120.609 113.087 120.429 113.087H120.449ZM69.0287 112.087H119.539L112.049 100.107H76.5087L69.0187 112.087H69.0287Z" fill="#191919"/>
<path d="M120.449 112.188H68.1289V115.027H120.449V112.188Z" fill="white"/>
<path d="M120.449 115.527H68.1289C67.8489 115.527 67.6289 115.307 67.6289 115.027V112.188C67.6289 111.907 67.8489 111.688 68.1289 111.688H120.449C120.729 111.688 120.949 111.907 120.949 112.188V115.027C120.949 115.307 120.729 115.527 120.449 115.527ZM68.6289 114.527H119.949V112.688H68.6289V114.527Z" fill="#191919"/>
<path d="M96.3487 105.288H92.2188V111.778H96.3487V105.288Z" fill="white"/>
<path d="M96.3487 112.278H92.2188C91.9387 112.278 91.7188 112.058 91.7188 111.778V105.288C91.7188 105.008 91.9387 104.788 92.2188 104.788H96.3487C96.6287 104.788 96.8487 105.008 96.8487 105.288V111.778C96.8487 112.058 96.6287 112.278 96.3487 112.278ZM92.7188 111.278H95.8487V105.788H92.7188V111.278Z" fill="#191919"/>
<path d="M84.1486 105.288H80.0186V111.778H84.1486V105.288Z" fill="white"/>
<path d="M84.1486 112.278H80.0186C79.7386 112.278 79.5186 112.058 79.5186 111.778V105.288C79.5186 105.008 79.7386 104.788 80.0186 104.788H84.1486C84.4286 104.788 84.6486 105.008 84.6486 105.288V111.778C84.6486 112.058 84.4286 112.278 84.1486 112.278ZM80.5186 111.278H83.6486V105.788H80.5186V111.278Z" fill="#191919"/>
<path d="M108.559 105.288H104.429V111.778H108.559V105.288Z" fill="white"/>
<path d="M108.559 112.278H104.429C104.149 112.278 103.929 112.058 103.929 111.778V105.288C103.929 105.008 104.149 104.788 104.429 104.788H108.559C108.839 104.788 109.059 105.008 109.059 105.288V111.778C109.059 112.058 108.839 112.278 108.559 112.278ZM104.929 111.278H108.059V105.788H104.929V111.278Z" fill="#191919"/>
<path d="M76.2788 99.7078C75.9988 99.7078 75.7788 99.4878 75.7788 99.2078V95.9678C75.7788 95.6878 75.9988 95.4678 76.2788 95.4678C76.5588 95.4678 76.7788 95.6878 76.7788 95.9678V99.2078C76.7788 99.4878 76.5588 99.7078 76.2788 99.7078Z" fill="#191919"/>
<path d="M111.969 99.7078C111.689 99.7078 111.469 99.4878 111.469 99.2078V95.9678C111.469 95.6878 111.689 95.4678 111.969 95.4678C112.249 95.4678 112.469 95.6878 112.469 95.9678V99.2078C112.469 99.4878 112.249 99.7078 111.969 99.7078Z" fill="#191919"/>
<path d="M121.699 120.798C121.419 120.798 121.199 120.578 121.199 120.298V117.058C121.199 116.778 121.419 116.558 121.699 116.558C121.979 116.558 122.199 116.778 122.199 117.058V120.298C122.199 120.578 121.979 120.798 121.699 120.798Z" fill="#191919"/>
<path d="M67.3589 120.798C67.0789 120.798 66.8589 120.578 66.8589 120.298V117.058C66.8589 116.778 67.0789 116.558 67.3589 116.558C67.6389 116.558 67.8589 116.778 67.8589 117.058V120.298C67.8589 120.578 67.6389 120.798 67.3589 120.798Z" fill="#191919"/>
<path d="M80.4985 132.547V126.997L94.2885 120.107L108.079 126.997V132.547H103.829V128.707L94.2885 123.937L84.7385 128.707V132.547H80.4985Z" fill="white"/>
<path d="M108.079 133.048H103.839C103.559 133.048 103.339 132.828 103.339 132.548V129.018L94.2885 124.498L85.2385 129.018V132.548C85.2385 132.828 85.0185 133.048 84.7385 133.048H80.4985C80.2185 133.048 79.9985 132.828 79.9985 132.548V127.008C79.9985 126.818 80.1085 126.648 80.2785 126.558L94.0685 119.668C94.2085 119.598 94.3785 119.598 94.5185 119.668L108.309 126.558C108.479 126.638 108.589 126.818 108.589 127.008V132.548C108.589 132.828 108.369 133.048 108.089 133.048H108.079ZM104.339 132.048H107.579V127.318L94.2885 120.678L80.9985 127.318V132.048H84.2385V128.708C84.2385 128.518 84.3485 128.348 84.5185 128.258L94.0685 123.488C94.2085 123.418 94.3785 123.418 94.5185 123.488L104.069 128.258C104.239 128.338 104.349 128.518 104.349 128.708V132.048H104.339Z" fill="#191919"/>
<path d="M86.8186 132.468H79.5186V135.708H86.8186V132.468Z" fill="white"/>
<path d="M86.8186 136.208H79.5186C79.2386 136.208 79.0186 135.988 79.0186 135.708V132.468C79.0186 132.188 79.2386 131.968 79.5186 131.968H86.8186C87.0986 131.968 87.3186 132.188 87.3186 132.468V135.708C87.3186 135.988 87.0986 136.208 86.8186 136.208ZM80.0186 135.208H86.3186V132.968H80.0186V135.208Z" fill="#191919"/>
<path d="M109.539 132.468H102.239V135.708H109.539V132.468Z" fill="white"/>
<path d="M109.539 136.208H102.239C101.959 136.208 101.739 135.988 101.739 135.708V132.468C101.739 132.188 101.959 131.968 102.239 131.968H109.539C109.819 131.968 110.039 132.188 110.039 132.468V135.708C110.039 135.988 109.819 136.208 109.539 136.208ZM102.739 135.208H109.039V132.968H102.739V135.208Z" fill="#191919"/>
<path d="M94.2886 158.918C94.0086 158.918 93.7886 158.698 93.7886 158.418V147.058C93.7886 146.778 94.0086 146.558 94.2886 146.558C94.5686 146.558 94.7886 146.778 94.7886 147.058V158.418C94.7886 158.698 94.5686 158.918 94.2886 158.918Z" fill="#191919"/>
<path d="M93.1388 87.648L106.469 69.548L101.379 62.998H84.9088L79.8188 69.548L93.1388 87.648Z" fill="white"/>
<path d="M93.1388 88.1476C92.9788 88.1476 92.8288 88.0676 92.7388 87.9476L79.4188 69.8476C79.2888 69.6676 79.2888 69.4176 79.4188 69.2476L84.5088 62.7076C84.5988 62.5876 84.7488 62.5176 84.8988 62.5176H101.369C101.519 62.5176 101.669 62.5876 101.759 62.7076L106.849 69.2476C106.989 69.4276 106.989 69.6676 106.849 69.8476L93.5288 87.9476C93.4388 88.0776 93.2888 88.1476 93.1288 88.1476H93.1388ZM80.4388 69.5476L93.1388 86.7976L105.839 69.5476L101.129 63.4976H85.1488L80.4388 69.5476Z" fill="#191919"/>
<path d="M106.169 70.0469H80.1089C79.8289 70.0469 79.6089 69.8269 79.6089 69.5469C79.6089 69.2669 79.8289 69.0469 80.1089 69.0469H106.169C106.449 69.0469 106.669 69.2669 106.669 69.5469C106.669 69.8269 106.449 70.0469 106.169 70.0469Z" fill="#191919"/>
<path d="M98.4989 69.5471L93.1389 62.9971L87.8589 69.5471L93.1389 87.6471L98.4989 69.5471Z" fill="white"/>
<path d="M93.1387 88.1468C92.9187 88.1468 92.7187 87.9968 92.6587 87.7868L87.3687 69.6868C87.3187 69.5268 87.3587 69.3568 87.4587 69.2368L92.7487 62.6968C92.8487 62.5768 93.0087 62.5168 93.1387 62.5068C93.2887 62.5068 93.4287 62.5768 93.5287 62.6868L98.8887 69.2268C98.9987 69.3568 99.0287 69.5268 98.9787 69.6868L93.6187 87.7868C93.5587 87.9968 93.3587 88.1468 93.1387 88.1468ZM88.3987 69.6568L93.1387 85.8768L97.9387 69.6568L93.1387 63.7968L88.3987 69.6568Z" fill="#191919"/>
<path d="M87.8586 70.0473C87.6686 70.0473 87.4786 69.9373 87.3986 69.7473L84.5986 63.2073C84.4886 62.9573 84.5986 62.6573 84.8586 62.5473C85.1186 62.4373 85.4086 62.5473 85.5186 62.8073L88.3186 69.3473C88.4286 69.5973 88.3186 69.8973 88.0586 70.0073C87.9986 70.0373 87.9286 70.0473 87.8586 70.0473Z" fill="#191919"/>
<path d="M98.499 70.0473C98.429 70.0473 98.369 70.0373 98.299 70.0073C98.049 69.8973 97.929 69.6073 98.039 69.3473L100.839 62.8073C100.949 62.5473 101.239 62.4373 101.499 62.5473C101.749 62.6573 101.869 62.9473 101.759 63.2073L98.959 69.7473C98.879 69.9373 98.689 70.0473 98.499 70.0473Z" fill="#191919"/>
<path d="M103.809 58.0474L104.329 57.1074L104.849 58.0474C105.079 58.4674 105.419 58.8074 105.829 59.0274L106.769 59.5474L105.909 60.0174C105.439 60.2774 105.069 60.6774 104.849 61.1574L104.329 62.2974L103.809 61.1574C103.589 60.6674 103.209 60.2674 102.749 60.0174L101.889 59.5474L102.829 59.0274C103.249 58.7974 103.589 58.4574 103.809 58.0474Z" fill="white"/>
<path d="M104.329 62.7972C104.129 62.7972 103.959 62.6872 103.879 62.5072L103.359 61.3672C103.179 60.9872 102.879 60.6572 102.509 60.4572L101.649 59.9872C101.489 59.8972 101.389 59.7272 101.389 59.5472C101.389 59.3672 101.489 59.1972 101.649 59.1072L102.589 58.5872C102.919 58.4072 103.189 58.1372 103.379 57.7972L103.899 56.8572C104.079 56.5372 104.599 56.5372 104.779 56.8572L105.299 57.7972C105.479 58.1272 105.749 58.3972 106.089 58.5872L107.029 59.1072C107.189 59.1972 107.289 59.3672 107.289 59.5472C107.289 59.7272 107.189 59.8972 107.029 59.9872L106.169 60.4572C105.799 60.6572 105.499 60.9872 105.319 61.3672L104.799 62.5072C104.719 62.6872 104.539 62.7972 104.349 62.7972H104.329ZM102.929 59.5472L102.989 59.5772C103.549 59.8872 103.999 60.3672 104.269 60.9472L104.339 61.0972L104.409 60.9472C104.669 60.3672 105.129 59.8772 105.689 59.5772L105.749 59.5472L105.609 59.4672C105.109 59.1972 104.699 58.7872 104.429 58.2872L104.349 58.1472L104.269 58.2872C103.999 58.7872 103.589 59.1972 103.089 59.4672L102.949 59.5472H102.929Z" fill="#191919"/>
<path d="M82.3386 86.9574L82.5486 86.5674L82.7586 86.9574C82.8486 87.1274 82.9886 87.2674 83.1686 87.3674L83.5586 87.5774L83.2086 87.7674C83.0186 87.8774 82.8586 88.0374 82.7686 88.2374L82.5586 88.7074L82.3486 88.2374C82.2586 88.0374 82.0986 87.8774 81.9086 87.7674L81.5586 87.5774L81.9486 87.3674C82.1186 87.2774 82.2586 87.1374 82.3586 86.9574H82.3386Z" fill="white"/>
<path d="M82.5486 89.2074C82.3486 89.2074 82.1786 89.0974 82.0986 88.9174L81.8886 88.4474C81.8386 88.3474 81.7686 88.2574 81.6686 88.2074L81.3186 88.0174C81.1586 87.9274 81.0586 87.7574 81.0586 87.5774C81.0586 87.3974 81.1586 87.2274 81.3186 87.1374L81.7086 86.9274C81.7986 86.8774 81.8686 86.8074 81.9186 86.7174L82.1286 86.3274C82.2186 86.1674 82.3886 86.0674 82.5686 86.0674C82.7486 86.0674 82.9186 86.1674 83.0086 86.3274L83.2186 86.7174C83.2686 86.8074 83.3386 86.8774 83.4286 86.9274L83.8186 87.1374C83.9786 87.2274 84.0786 87.3974 84.0786 87.5774C84.0786 87.7574 83.9786 87.9274 83.8186 88.0174L83.4686 88.2074C83.3686 88.2574 83.2886 88.3474 83.2486 88.4474L83.0386 88.9174C82.9586 89.0974 82.7786 89.2074 82.5786 89.2074H82.5486ZM82.4786 87.5874C82.4786 87.5874 82.5286 87.6374 82.5486 87.6674C82.5686 87.6374 82.5986 87.6174 82.6186 87.5874C82.5886 87.5674 82.5686 87.5374 82.5486 87.5174C82.5286 87.5374 82.4986 87.5674 82.4786 87.5874Z" fill="#191919"/>
<path d="M102.589 81.3177L102.799 80.9277L103.009 81.3177C103.099 81.4877 103.239 81.6277 103.419 81.7277L103.809 81.9377L103.459 82.1277C103.269 82.2377 103.109 82.3977 103.019 82.5977L102.809 83.0677L102.599 82.5977C102.509 82.3977 102.349 82.2377 102.159 82.1277L101.809 81.9377L102.199 81.7277C102.369 81.6377 102.509 81.4977 102.609 81.3177H102.589Z" fill="white"/>
<path d="M102.799 83.5673C102.599 83.5673 102.429 83.4573 102.349 83.2773L102.139 82.8073C102.089 82.7073 102.009 82.6173 101.919 82.5673L101.569 82.3773C101.409 82.2873 101.309 82.1173 101.309 81.9373C101.309 81.7573 101.409 81.5873 101.569 81.4973L101.959 81.2873C102.049 81.2373 102.119 81.1673 102.169 81.0773L102.379 80.6873C102.549 80.3673 103.079 80.3673 103.259 80.6873L103.469 81.0773C103.519 81.1673 103.589 81.2373 103.679 81.2873L104.069 81.4973C104.229 81.5873 104.329 81.7573 104.329 81.9373C104.329 82.1173 104.229 82.2873 104.069 82.3773L103.719 82.5673C103.619 82.6173 103.539 82.7073 103.499 82.8073L103.289 83.2773C103.209 83.4573 103.029 83.5673 102.839 83.5673H102.799ZM102.729 81.9473C102.729 81.9473 102.779 81.9973 102.799 82.0273C102.819 81.9973 102.849 81.9773 102.869 81.9473C102.839 81.9273 102.819 81.8973 102.799 81.8773C102.779 81.8973 102.749 81.9273 102.729 81.9473Z" fill="#191919"/>
<path d="M94.2388 194.607C53.9888 194.607 21.2388 161.857 21.2388 121.607C21.2388 81.3574 53.9888 48.6074 94.2388 48.6074C134.489 48.6074 167.239 81.3574 167.239 121.607C167.239 161.857 134.489 194.607 94.2388 194.607ZM94.2388 49.6074C54.5388 49.6074 22.2388 81.9074 22.2388 121.607C22.2388 161.307 54.5388 193.607 94.2388 193.607C133.939 193.607 166.239 161.307 166.239 121.607C166.239 81.9074 133.939 49.6074 94.2388 49.6074Z" fill="#191919"/>
<path d="M43.2486 173.097C43.1186 173.097 42.9886 173.047 42.8886 172.947C42.6986 172.747 42.6986 172.437 42.8886 172.237L145.889 70.247C146.089 70.057 146.399 70.057 146.599 70.247C146.789 70.447 146.789 70.757 146.599 70.957L43.5986 172.947C43.4986 173.047 43.3786 173.087 43.2486 173.087V173.097Z" fill="#191919"/>
<path d="M245.96 116.569L240.564 126.647H255.971V133.76H236.796L232.47 141.921H225.156L229.482 133.76H223.239V126.647H233.317L238.646 116.569H223.239V109.456H242.481L246.807 101.295H254.054L249.728 109.456H255.971V116.569H245.96Z" fill="#191919"/>
<path d="M407.451 94.4424H338.271V98.3033H407.451V94.4424Z" fill="white"/>
<path d="M407.451 98.9644H338.271C337.901 98.9644 337.61 98.6735 337.61 98.3033V94.4424C337.61 94.0721 337.901 93.7812 338.271 93.7812H407.451C407.821 93.7812 408.112 94.0721 408.112 94.4424V98.3033C408.112 98.6735 407.821 98.9644 407.451 98.9644ZM338.933 97.6422H406.79V95.1035H338.933V97.6422Z" fill="#191919"/>
<path d="M381.217 97.7461H339.739V146.418H381.217V97.7461Z" fill="white"/>
<path d="M381.217 147.079H339.739C339.369 147.079 339.078 146.788 339.078 146.418V97.7461C339.078 97.3759 339.369 97.085 339.739 97.085H381.217C381.588 97.085 381.878 97.3759 381.878 97.7461V146.418C381.878 146.788 381.588 147.079 381.217 147.079ZM340.4 145.757H380.556V98.4072H340.4V145.757Z" fill="#191919"/>
<path d="M367.995 116.259H318.583V147.741H367.995V116.259Z" fill="white"/>
<path d="M367.995 148.402H318.583C318.213 148.402 317.922 148.111 317.922 147.741V116.259C317.922 115.889 318.213 115.598 318.583 115.598H367.995C368.365 115.598 368.656 115.889 368.656 116.259V147.741C368.656 148.111 368.365 148.402 367.995 148.402ZM319.244 147.08H367.334V116.92H319.244V147.08Z" fill="#191919"/>
<path d="M359.572 126.836H327.838V147.992H359.572V126.836Z" fill="white"/>
<path d="M359.572 148.653H327.838C327.468 148.653 327.177 148.362 327.177 147.992V126.836C327.177 126.466 327.468 126.175 327.838 126.175H359.572C359.942 126.175 360.233 126.466 360.233 126.836V147.992C360.233 148.362 359.942 148.653 359.572 148.653ZM328.499 147.331H358.911V127.497H328.499V147.331Z" fill="#191919"/>
<path d="M367.783 113.06H312.633V119.565H367.783V113.06Z" fill="white"/>
<path d="M367.783 120.226H312.633C312.263 120.226 311.972 119.935 311.972 119.565V113.06C311.972 112.689 312.263 112.398 312.633 112.398H367.783C368.154 112.398 368.444 112.689 368.444 113.06V119.565C368.444 119.935 368.154 120.226 367.783 120.226ZM313.294 118.904H367.122V113.721H313.294V118.904Z" fill="#191919"/>
<path d="M428.818 87.1699H367.148V147.742H428.818V87.1699Z" fill="white"/>
<path d="M428.818 148.403H367.149C366.779 148.403 366.488 148.112 366.488 147.742V87.1699C366.488 86.7997 366.779 86.5088 367.149 86.5088H428.818C429.188 86.5088 429.479 86.7997 429.479 87.1699V147.742C429.479 148.112 429.188 148.403 428.818 148.403ZM367.81 147.081H428.157V87.831H367.81V147.081Z" fill="#191919"/>
<path d="M386.017 130.578H372.795V147.741H386.017V130.578Z" fill="white"/>
<path d="M386.017 148.402H372.795C372.425 148.402 372.134 148.111 372.134 147.741V130.578C372.134 130.208 372.425 129.917 372.795 129.917H386.017C386.388 129.917 386.678 130.208 386.678 130.578V147.741C386.678 148.111 386.388 148.402 386.017 148.402ZM373.456 147.08H385.356V131.239H373.456V147.08Z" fill="#191919"/>
<path d="M428.329 95.1025H367.506V116.919H428.329V95.1025Z" fill="white"/>
<path d="M428.328 117.581H367.505C367.135 117.581 366.844 117.29 366.844 116.919V95.1025C366.844 94.7323 367.135 94.4414 367.505 94.4414H428.328C428.699 94.4414 428.989 94.7323 428.989 95.1025V116.919C428.989 117.29 428.699 117.581 428.328 117.581ZM368.166 116.258H427.667V95.7636H368.166V116.258Z" fill="#191919"/>
<path d="M428.329 125.515H389.984V147.993H428.329V125.515Z" fill="white"/>
<path d="M428.329 148.654H389.984C389.614 148.654 389.323 148.363 389.323 147.993V125.515C389.323 125.144 389.614 124.854 389.984 124.854H428.329C428.699 124.854 428.99 125.144 428.99 125.515V147.993C428.99 148.363 428.699 148.654 428.329 148.654ZM390.645 147.332H427.668V126.176H390.645V147.332Z" fill="#191919"/>
<path d="M432.574 83.9697H363.394V90.3694H432.574V83.9697Z" fill="white"/>
<path d="M432.574 91.0305H363.394C363.024 91.0305 362.733 90.7396 362.733 90.3693V83.9697C362.733 83.5995 363.024 83.3086 363.394 83.3086H432.574C432.944 83.3086 433.235 83.5995 433.235 83.9697V90.3693C433.235 90.7396 432.944 91.0305 432.574 91.0305ZM364.055 89.7082H431.912V84.6308H364.055V89.7082Z" fill="#191919"/>
<path d="M376.761 117.581C376.391 117.581 376.1 117.29 376.1 116.919V95.1025C376.1 94.7323 376.391 94.4414 376.761 94.4414C377.131 94.4414 377.422 94.7323 377.422 95.1025V116.919C377.422 117.29 377.131 117.581 376.761 117.581Z" fill="#191919"/>
<path d="M389.984 117.581C389.614 117.581 389.323 117.29 389.323 116.919V95.1025C389.323 94.7323 389.614 94.4414 389.984 94.4414C390.354 94.4414 390.645 94.7323 390.645 95.1025V116.919C390.645 117.29 390.354 117.581 389.984 117.581Z" fill="#191919"/>
<path d="M403.206 117.581C402.836 117.581 402.545 117.29 402.545 116.919V95.1025C402.545 94.7323 402.836 94.4414 403.206 94.4414C403.576 94.4414 403.867 94.7323 403.867 95.1025V116.919C403.867 117.29 403.576 117.581 403.206 117.581Z" fill="#191919"/>
<path d="M416.429 117.581C416.058 117.581 415.768 117.29 415.768 116.919V95.1025C415.768 94.7323 416.058 94.4414 416.429 94.4414C416.799 94.4414 417.09 94.7323 417.09 95.1025V116.919C417.09 117.29 416.799 117.581 416.429 117.581Z" fill="#191919"/>
<path d="M403.206 147.332C402.836 147.332 402.545 147.041 402.545 146.67V126.176C402.545 125.806 402.836 125.515 403.206 125.515C403.576 125.515 403.867 125.806 403.867 126.176V146.67C403.867 147.041 403.576 147.332 403.206 147.332Z" fill="#191919"/>
<path d="M416.429 147.332C416.058 147.332 415.768 147.041 415.768 146.67V126.176C415.768 125.806 416.058 125.515 416.429 125.515C416.799 125.515 417.09 125.806 417.09 126.176V146.67C417.09 147.041 416.799 147.332 416.429 147.332Z" fill="#191919"/>
<path d="M359.573 130.143H327.839C327.469 130.143 327.178 129.852 327.178 129.481C327.178 129.111 327.469 128.82 327.839 128.82H359.573C359.943 128.82 360.234 129.111 360.234 129.481C360.234 129.852 359.943 130.143 359.573 130.143Z" fill="#191919"/>
<path d="M359.573 134.109H327.839C327.469 134.109 327.178 133.818 327.178 133.448C327.178 133.078 327.469 132.787 327.839 132.787H359.573C359.943 132.787 360.234 133.078 360.234 133.448C360.234 133.818 359.943 134.109 359.573 134.109Z" fill="#191919"/>
<path d="M359.573 138.075H327.839C327.469 138.075 327.178 137.784 327.178 137.414C327.178 137.044 327.469 136.753 327.839 136.753H359.573C359.943 136.753 360.234 137.044 360.234 137.414C360.234 137.784 359.943 138.075 359.573 138.075Z" fill="#191919"/>
<path d="M359.573 142.042H327.839C327.469 142.042 327.178 141.751 327.178 141.381C327.178 141.011 327.469 140.72 327.839 140.72H359.573C359.943 140.72 360.234 141.011 360.234 141.381C360.234 141.751 359.943 142.042 359.573 142.042Z" fill="#191919"/>
<path d="M359.573 146.009H327.839C327.469 146.009 327.178 145.718 327.178 145.348C327.178 144.977 327.469 144.687 327.839 144.687H359.573C359.943 144.687 360.234 144.977 360.234 145.348C360.234 145.718 359.943 146.009 359.573 146.009Z" fill="#191919"/>
<path d="M351.639 110.308H343.706C343.335 110.308 343.044 110.017 343.044 109.647V100.392C343.044 100.021 343.335 99.7305 343.706 99.7305H351.639C352.009 99.7305 352.3 100.021 352.3 100.392V109.647C352.3 110.017 352.009 110.308 351.639 110.308ZM344.367 108.986H350.978V101.053H344.367V108.986Z" fill="#191919"/>
<path d="M363.539 110.308H355.605C355.235 110.308 354.944 110.017 354.944 109.647V100.392C354.944 100.021 355.235 99.7305 355.605 99.7305H363.539C363.909 99.7305 364.2 100.021 364.2 100.392V109.647C364.2 110.017 363.909 110.308 363.539 110.308ZM356.267 108.986H362.878V101.053H356.267V108.986Z" fill="#191919"/>
<path d="M415.53 139.121C414.922 139.121 414.433 139.61 414.433 140.219V156.323C414.433 156.932 414.922 157.421 415.53 157.421H422.141V139.121H415.53Z" fill="#191919"/>
<path d="M451.468 145.176C451.468 143.788 450.715 142.558 449.604 141.897C450.027 141.275 450.278 140.535 450.278 139.728C450.278 137.626 448.559 135.907 446.457 135.907H438.391C438.643 134.783 438.973 133.104 439.211 131.345C439.819 126.771 439.409 124.219 437.889 123.346C436.95 122.804 435.932 122.685 435.033 123.029C434.332 123.293 433.393 123.954 432.851 125.554L430.736 131.107C429.665 133.765 426.372 136.555 424.323 138.089V157.909C428.104 159.231 432.058 159.906 436.091 159.906H444.884C446.986 159.906 448.705 158.187 448.705 156.085C448.705 155.344 448.493 154.657 448.136 154.075C449.406 153.453 450.292 152.144 450.292 150.637C450.292 149.83 450.04 149.077 449.617 148.468C450.728 147.794 451.482 146.578 451.482 145.189L451.468 145.176Z" fill="#191919"/>
</svg>
