<svg xmlns="http://www.w3.org/2000/svg" viewBox="0 0 43.63 72.6"><defs><style>.cls-1{fill:#fff;}</style></defs><g id="Layer_2" data-name="Layer 2"><g id="BACKGROUND"><path class="cls-1" d="M43,27A21.82,21.82,0,1,0,.62,27,32.33,32.33,0,0,0,3,35.46C5.14,40,14.16,54.83,18.31,61.6c-5.6.71-8.2,3.12-8.2,5.39,0,2.7,3.66,5.61,11.71,5.61s11.7-2.91,11.7-5.61c0-2.27-2.6-4.68-8.2-5.39C29.47,54.83,38.49,40,40.63,35.46A32.33,32.33,0,0,0,43,27ZM30.15,67c-.23.64-3,2.24-8.33,2.24S13.64,67.59,13.48,67c.15-.56,2.45-1.93,6.79-2.21l.11.18a1.69,1.69,0,0,0,2.87,0l.11-.18C27.65,65.07,29.94,66.42,30.15,67ZM6,34a30.28,30.28,0,0,1-2.11-7.65.69.69,0,0,0,0-.13,18.23,18.23,0,0,1-.54-4.41,18.45,18.45,0,1,1,36.89,0,18.23,18.23,0,0,1-.54,4.41c0,.05,0,.09,0,.13A30.28,30.28,0,0,1,37.59,34c-2.16,4.55-12,20.77-15.77,26.87C18.08,54.78,8.21,38.56,6,34Z"/><path class="cls-1" d="M21.82,9.48a11.71,11.71,0,1,0,11.7,11.71A11.72,11.72,0,0,0,21.82,9.48ZM13.48,21.19a8.34,8.34,0,1,1,8.34,8.34A8.35,8.35,0,0,1,13.48,21.19Z"/></g></g></svg>