<svg xmlns="http://www.w3.org/2000/svg" width="80.336" height="90.036" viewBox="0 0 80.336 90.036">
  <g transform="translate(-903.649 -209.468)">
    <g >
      <path d="M932.5,229.512a3.584,3.584,0,0,0,3.58-3.579V213.047a3.58,3.58,0,0,0-7.16,0v12.886A3.584,3.584,0,0,0,932.5,229.512Zm-1.431-16.465a1.431,1.431,0,1,1,2.863,0v12.886a1.431,1.431,0,1,1-2.863,0Z" fill="#fff"/>
      <path d="M928.921,263.592a3.58,3.58,0,1,0,7.16,0V250.707a3.58,3.58,0,1,0-7.16,0Zm2.149-12.885a1.431,1.431,0,1,1,2.863,0v12.885a1.431,1.431,0,1,1-2.863,0Z" fill="#fff"/>
      <path d="M950.372,216.87a3.562,3.562,0,0,0-2.532,1.048l-9.111,9.113a3.579,3.579,0,1,0,5.062,5.061l9.112-9.113a3.579,3.579,0,0,0-2.531-6.109Zm-10.124,13.7a1.429,1.429,0,0,1,0-2.024l9.112-9.113a1.432,1.432,0,0,1,2.025,2.025l-9.112,9.112A1.464,1.464,0,0,1,940.248,230.573Z" fill="#fff"/>
      <path d="M927.322,247.079a3.58,3.58,0,0,0-6.111-2.531l-9.112,9.111a3.579,3.579,0,0,0,5.061,5.062l9.113-9.11A3.558,3.558,0,0,0,927.322,247.079Zm-2.567,1.013-9.112,9.111a1.464,1.464,0,0,1-2.025,0,1.429,1.429,0,0,1,0-2.025l9.111-9.111a1.432,1.432,0,0,1,2.025,2.025Z" fill="#fff"/>
      <path d="M941.309,238.32a3.584,3.584,0,0,0,3.579,3.579h12.885a3.579,3.579,0,1,0,0-7.158H944.888A3.584,3.584,0,0,0,941.309,238.32Zm17.9,0a1.435,1.435,0,0,1-1.434,1.432H944.888a1.431,1.431,0,0,1,0-2.863h12.885A1.434,1.434,0,0,1,959.207,238.32Z" fill="#fff"/>
      <path d="M907.229,241.9h12.885a3.579,3.579,0,1,0,0-7.158H907.229a3.579,3.579,0,1,0,0,7.158Zm0-5.01h12.885a1.431,1.431,0,0,1,0,2.863H907.229a1.431,1.431,0,0,1,0-2.863Z" fill="#fff"/>
      <path d="M921.211,232.092a3.579,3.579,0,1,0,5.062-5.061l-9.111-9.113a3.579,3.579,0,0,0-6.111,2.532,3.549,3.549,0,0,0,1.048,2.529Zm-7.592-12.656a1.434,1.434,0,0,1,2.024,0l9.112,9.113a1.434,1.434,0,0,1,0,2.024,1.464,1.464,0,0,1-2.025,0l-9.112-9.112a1.429,1.429,0,0,1,0-2.025Z" fill="#fff"/>
      <path d="M983.761,263.691a1.431,1.431,0,0,0-.852-1.147l-41.926-18.135a1.433,1.433,0,0,0-1.99,1.5l5.747,45.318a1.432,1.432,0,0,0,2.279.964l10.5-7.886,10.993,14.633a1.436,1.436,0,0,0,2.006.285l12.9-9.691a1.429,1.429,0,0,0,.284-2L972.7,272.89,983.2,265A1.427,1.427,0,0,0,983.761,263.691Zm-13.923,7.771a1.435,1.435,0,0,0-.285,2l11,14.633-10.609,7.969-10.993-14.633a1.432,1.432,0,0,0-2.006-.284l-9.672,7.266-5.119-40.383,37.36,16.16Z" fill="#fff"/>
    </g>
  </g>
</svg>
