<svg xmlns="http://www.w3.org/2000/svg" width="129.776" height="48.757" viewBox="0 0 129.776 48.757">
  <g transform="translate(-123.267 -984.213)">
    <g>
      <circle cx="5.725" cy="5.725" r="5.725" transform="translate(123.267 984.213)" fill="#fff"/>
      <circle cx="5.725" cy="5.725" r="5.725" transform="translate(162.708 984.213)" fill="#fff"/>
      <circle cx="5.725" cy="5.725" r="5.725" transform="translate(202.15 984.213)" fill="#fff"/>
      <path d="M253.043,989.939a5.726,5.726,0,1,1-5.726-5.726A5.726,5.726,0,0,1,253.043,989.939Z" fill="#fff"/>
    </g>
    <g>
      <path d="M134.717,1027.245a5.725,5.725,0,1,1-5.725-5.725A5.725,5.725,0,0,1,134.717,1027.245Z" fill="#fff"/>
      <path d="M174.159,1027.245a5.726,5.726,0,1,1-5.725-5.725A5.725,5.725,0,0,1,174.159,1027.245Z" fill="#fff"/>
      <path d="M213.6,1027.245a5.726,5.726,0,1,1-5.726-5.725A5.725,5.725,0,0,1,213.6,1027.245Z" fill="#fff"/>
      <path d="M253.043,1027.245a5.726,5.726,0,1,1-5.726-5.725A5.726,5.726,0,0,1,253.043,1027.245Z" fill="#fff"/>
    </g>
  </g>
</svg>
