<svg xmlns="http://www.w3.org/2000/svg" width="175.152" height="175.32" viewBox="0 0 175.152 175.32">
  <g id="Сгруппировать_49" data-name="Сгруппировать 49" transform="translate(-131.348 -63.43)">
    <g id="Сгруппировать_47" data-name="Сгруппировать 47">
      <path id="Контур_199" data-name="Контур 199" d="M139.677,104.764a3,3,0,0,0,2.825-2.009h17.111l2.955,4.678h8.862v2.578H182.1v-7H171.43v2.422h-7.76l-2.955-4.678H142.5a3,3,0,1,0-2.825,4.009Z" fill="#7d7a74"/>
      <path id="Контур_200" data-name="Контур 200" d="M297.03,82.7a3.739,3.739,0,0,0-3.73,3.74,3.676,3.676,0,0,0,.42,1.72l-19.98,17.35h-7.86v-2.5H255.63v7h10.25v-2.5h8.61l20.59-17.88a3.739,3.739,0,1,0,1.95-6.93Zm0,5.48a1.068,1.068,0,0,1-.25-.03,1.7,1.7,0,0,1-1.44-1.4,1.055,1.055,0,0,1-.04-.31,1.735,1.735,0,1,1,1.73,1.74Z" fill="#7d7a74"/>
      <path id="Контур_201" data-name="Контур 201" d="M287.3,161.706l-11.627-9.518H265.88v-2.417H255.63v7h10.25v-2.583h9.076l11.075,9.065a3.008,3.008,0,1,0,1.267-1.547Z" fill="#7d7a74"/>
      <path id="Контур_202" data-name="Контур 202" d="M182.1,123.172h0v-2h0V118.6H171.43v2.571h-6.274l-3.319-4.68h-9.615a3.008,3.008,0,1,0,0,2H160.8l3.319,4.68h7.307V125.6H182.1Z" fill="#7d7a74"/>
      <path id="Контур_203" data-name="Контур 203" d="M265.88,123.108h9.79l11.62-9.51.006,0a3.008,3.008,0,1,0-1.267-1.552l-.009.007-11.06,9.06h-9.08V118.6H255.63v7h10.25Z" fill="#7d7a74"/>
      <path id="Контур_204" data-name="Контур 204" d="M171.43,134.18v2.61h-8a3.74,3.74,0,1,0,0,2h8v2.39H182.1v-7Zm-10.18,4.61a1.722,1.722,0,1,1,.32-1A1.716,1.716,0,0,1,161.25,138.79Z" fill="#7d7a74"/>
      <path id="Контур_205" data-name="Контур 205" d="M265.88,138.585h7.508a3.007,3.007,0,1,0,0-2H265.88v-2.4H255.63v7h10.25Z" fill="#7d7a74"/>
      <path id="Контур_206" data-name="Контур 206" d="M171.43,156.771H182.1v-7H171.43v2.5H157.117l-2.955,4.678H142.5a3.007,3.007,0,1,0,0,2h12.762l2.955-4.678H171.43Z" fill="#7d7a74"/>
      <path id="Контур_207" data-name="Контур 207" d="M224.26,171.791h2.471v18.457a3.008,3.008,0,1,0,2,0V171.791h2.529v-10.83h-7Z" fill="#7d7a74"/>
      <path id="Контур_208" data-name="Контур 208" d="M205.44,171.791h2.483v10.116a3.008,3.008,0,1,0,2,0V171.791h2.517v-10.83h-7Z" fill="#7d7a74"/>
      <path id="Контур_209" data-name="Контур 209" d="M186.62,171.791h2.5v6.864L167.692,195.3a3.008,3.008,0,1,0,1.227,1.58l21.814-16.944a1,1,0,0,0,.387-.79v-7.353h2.5v-10.83h-7Z" fill="#7d7a74"/>
      <path id="Контур_210" data-name="Контур 210" d="M218.86,63.43l-34.76,37v58.53h69.53V100.43Zm-1.44,32.84h3v6.11h-3ZM201.5,120.76h-6.11v-3h6.11Zm-.17-16.81,2.12-2.12,4.33,4.32-2.13,2.12ZM225.5,138.4v.5l-.07,2.21s.25,3.83-6.45,3.83c-6.47,0-6.58-3.83-6.58-3.83s-.11-1.77-.14-2.36c-.02-.27-.03-.55-.06-.82h13.31C225.5,138.09,225.5,138.24,225.5,138.4Zm3.53-10.01a18.03,18.03,0,0,0-2.86,5.54H211.52a14.829,14.829,0,0,0-2.62-5.31,12.675,12.675,0,0,1-2.74-7.87,12.72,12.72,0,0,1,25.44,0A12.6,12.6,0,0,1,229.03,128.39Zm.89-21.85,4.32-4.33,2.12,2.12-4.32,4.33Zm12,14.77h-6.11v-3h6.11Z" fill="#7d7a74"/>
      <path id="Контур_211" data-name="Контур 211" d="M247.57,177.56v-5.77h2.5V160.96h-7v10.83h2.5v5.77a3.74,3.74,0,1,0,2,0Zm0,5.02a1.732,1.732,0,1,1,.74-1.42A1.727,1.727,0,0,1,247.57,182.58Z" fill="#7d7a74"/>
    </g>
    <g id="Сгруппировать_48" data-name="Сгруппировать 48">
      <path id="Контур_212" data-name="Контур 212" d="M134.92,222.17v16.035h-3.572V197h9.937a16.486,16.486,0,0,1,5.371.805,10.759,10.759,0,0,1,3.947,2.328,9.83,9.83,0,0,1,2.445,3.736,14.32,14.32,0,0,1,.832,5.057,14.583,14.583,0,0,1-.94,5.3,12.016,12.016,0,0,1-2.7,4.195,12.292,12.292,0,0,1-4.283,2.758,15.553,15.553,0,0,1-5.721.992Zm0-21.667v18.161h5.1q4.97,0,7.547-2.471a9.217,9.217,0,0,0,2.578-6.983q0-8.706-9.507-8.707Z" fill="#7d7a74"/>
      <path id="Контур_213" data-name="Контур 213" d="M167.694,238.205H164.2V207.314h3.491Z" fill="#7d7a74"/>
      <path id="Контур_214" data-name="Контур 214" d="M201.6,238.205q-3.867-5.433-7.707-10.848t-7.734-10.848q-.834-1.147-1.531-2.14a18.157,18.157,0,0,1-1.316-2.2h-.134c.036.269.062.637.081,1.107s.026,1.039.026,1.709v23.219h-3.33V207.314H183.6l17.215,24.253q.269.373.5.732c.152.24.3.485.443.733h.107a32.446,32.446,0,0,1-.161-3.563V207.314h3.33v30.891Z" fill="#7d7a74"/>
      <path id="Контур_215" data-name="Контур 215" d="M244.174,222.342a20.764,20.764,0,0,1-1.061,6.882,14.847,14.847,0,0,1-3,5.158,12.851,12.851,0,0,1-4.619,3.247,15.267,15.267,0,0,1-5.935,1.121,14.635,14.635,0,0,1-5.894-1.149,13.071,13.071,0,0,1-4.526-3.219,14.6,14.6,0,0,1-2.914-4.942,18.556,18.556,0,0,1-1.034-6.321,20.464,20.464,0,0,1,1.021-6.624,14.834,14.834,0,0,1,2.941-5.159,13.179,13.179,0,0,1,4.685-3.347,15.753,15.753,0,0,1,6.285-1.193,13.839,13.839,0,0,1,5.788,1.179,13.021,13.021,0,0,1,4.43,3.261,14.638,14.638,0,0,1,2.833,4.928A18.606,18.606,0,0,1,244.174,222.342Zm-3.626.4a18.95,18.95,0,0,0-.711-5.4,11.164,11.164,0,0,0-2.082-4.022,8.933,8.933,0,0,0-3.37-2.5,11.476,11.476,0,0,0-4.58-.863,10.634,10.634,0,0,0-4.5.934,9.938,9.938,0,0,0-3.464,2.63,12.173,12.173,0,0,0-2.229,4.065,16.481,16.481,0,0,0-.792,5.245,17.4,17.4,0,0,0,.738,5.244A11.731,11.731,0,0,0,221.7,232.1a9.445,9.445,0,0,0,3.371,2.586,10.6,10.6,0,0,0,4.471.9,11.784,11.784,0,0,0,4.66-.876,9.27,9.27,0,0,0,3.464-2.529,11.261,11.261,0,0,0,2.148-4.037A18.259,18.259,0,0,0,240.548,222.745Z" fill="#7d7a74"/>
      <path id="Контур_216" data-name="Контур 216" d="M276.921,225.79q0,6.524-2.995,9.742T265,238.75q-5.64,0-8.487-3.1t-2.846-9.368V207.314h3.491v18.562q0,4.972,1.974,7.343t6.3,2.37q4.189,0,6.084-2.356t1.893-7.155V207.314h3.518Z" fill="#7d7a74"/>
      <path id="Контур_217" data-name="Контур 217" d="M297.395,210.5v27.7H293.9V210.5h-9.131v-3.189H306.5V210.5Z" fill="#7d7a74"/>
    </g>
  </g>
</svg>
