<svg xmlns="http://www.w3.org/2000/svg" width="231.328" height="50.338" viewBox="0 0 231.328 50.338">
  <g id="Сгруппировать_34" data-name="Сгруппировать 34" transform="translate(-495.063 -75.961)">
    <g id="Сгруппировать_17" data-name="Сгруппировать 17">
      <g id="Сгруппировать_15" data-name="Сгруппировать 15">
        <path id="Контур_19" data-name="Контур 19" d="M670.177,98,660.41,88.24a11.949,11.949,0,0,0-16.853,0,15.6,15.6,0,0,1-22.064.043,12.2,12.2,0,0,0-16.878-.017,15.958,15.958,0,0,1-22.035,0,12.194,12.194,0,0,0-16.859,0,15.5,15.5,0,0,1-11.02,4.567H554.7a15.474,15.474,0,0,1-11.01-4.563,11.842,11.842,0,0,0-8.437-3.5h0a11.863,11.863,0,0,0-8.436,3.491,15.942,15.942,0,0,1-22.026,0l-9.724-9.729,2.584-2.579,9.724,9.728a11.835,11.835,0,0,0,8.431,3.5h0a11.863,11.863,0,0,0,8.436-3.493,15.479,15.479,0,0,1,11.011-4.568h.005a15.472,15.472,0,0,1,11.011,4.563,11.84,11.84,0,0,0,8.436,3.5h0a11.859,11.859,0,0,0,8.436-3.491,15.457,15.457,0,0,1,11.011-4.567h.005a15.464,15.464,0,0,1,11.011,4.562,12.207,12.207,0,0,0,16.863,0,15.953,15.953,0,0,1,22.031,0,11.942,11.942,0,0,0,16.872.024,15.605,15.605,0,0,1,22.055-.053l9.766,9.76Z" fill="#fff"/>
      </g>
      <g id="Сгруппировать_16" data-name="Сгруппировать 16">
        <path id="Контур_20" data-name="Контур 20" d="M670.177,119.293l-9.767-9.756a11.948,11.948,0,0,0-16.853,0,15.6,15.6,0,0,1-22.064.042,12.2,12.2,0,0,0-16.878-.016,15.957,15.957,0,0,1-22.035,0,12.194,12.194,0,0,0-16.859,0,15.493,15.493,0,0,1-11.02,4.567H554.7a15.477,15.477,0,0,1-11.01-4.562,11.843,11.843,0,0,0-8.437-3.5h0a11.86,11.86,0,0,0-8.436,3.492,15.942,15.942,0,0,1-22.026,0l-9.724-9.728,2.584-2.58,9.724,9.729a11.835,11.835,0,0,0,8.431,3.5h0a11.86,11.86,0,0,0,8.436-3.494,15.474,15.474,0,0,1,11.011-4.567h.005a15.471,15.471,0,0,1,11.011,4.562,11.837,11.837,0,0,0,8.436,3.5h0a11.86,11.86,0,0,0,8.436-3.492,15.457,15.457,0,0,1,11.011-4.567h.005a15.461,15.461,0,0,1,11.011,4.563,12.207,12.207,0,0,0,16.863,0,15.952,15.952,0,0,1,22.031,0,11.941,11.941,0,0,0,16.872.024,15.605,15.605,0,0,1,22.055-.052l9.766,9.759Z" fill="#fff"/>
      </g>
    </g>
    <path id="Контур_33" data-name="Контур 33" d="M706.431,78.275c-1.806,0-3.827,1.443-3.827,3.376v5.1a19.96,19.96,0,1,0,7.654,0v-5.1C710.258,79.718,708.237,78.275,706.431,78.275Zm-17.709,28.063A17.736,17.736,0,0,1,702.6,89.051v3.913a13.914,13.914,0,1,0,7.654,0V89.051a17.707,17.707,0,1,1-21.536,17.287Zm17.709-25.812c.721,0,1.575.61,1.575,1.125v19.885c0,.516-.854,1.126-1.575,1.126s-1.576-.61-1.576-1.126V81.651C704.855,81.136,705.709,80.526,706.431,80.526Zm0,24.387c1.806,0,3.827-1.444,3.827-3.377V95.324a11.663,11.663,0,1,1-7.654,0v6.212C702.6,103.469,704.625,104.913,706.431,104.913Z" fill="#fff"/>
  </g>
</svg>
