<svg width="76" height="54" viewBox="0 0 76 54" fill="none" xmlns="http://www.w3.org/2000/svg">
<g clip-path="url(#clip0_4001_40336)">
<path d="M73.2777 35.3741C70.8311 33.7503 65.1181 33.1404 63.6898 30.9066C62.7687 29.365 62.1179 27.6785 61.7653 25.9195L50.8354 24.3301L49.7006 25.7734C49.4285 27.5888 48.8167 29.3373 47.8969 30.9281C46.4687 33.1618 40.7556 33.7718 38.3047 35.3955" fill="white"/>
<path d="M73.2777 35.3741C70.8311 33.7503 65.1181 33.1404 63.6898 30.9066C62.7687 29.365 62.1179 27.6785 61.7653 25.9195L50.8354 24.3301L49.7006 25.7734C49.4285 27.5888 48.8167 29.3373 47.8969 30.9281C46.4687 33.1618 40.7556 33.7718 38.3047 35.3955" stroke="black" stroke-width="2" stroke-linecap="round" stroke-linejoin="round"/>
<path d="M35.8359 50.2589C35.8359 49.6446 35.9956 36.8867 38.2825 35.3661C40.7335 33.7509 46.4465 33.1409 47.8963 30.9287C47.8963 30.9287 50.1315 32.5911 55.7842 32.5911C61.4368 32.5911 63.6892 30.9287 63.6892 30.9287C65.1175 33.1624 70.8305 33.7724 73.2771 35.3961C74.7486 36.3712 75.3354 47.7718 75.5684 50.289" fill="white"/>
<path d="M35.8359 50.2589C35.8359 49.6446 35.9956 36.8867 38.2825 35.3661C40.7335 33.7509 46.4465 33.1409 47.8963 30.9287C47.8963 30.9287 50.1315 32.5911 55.7842 32.5911C61.4368 32.5911 63.6892 30.9287 63.6892 30.9287C65.1175 33.1624 70.8305 33.7724 73.2771 35.3961C74.7486 36.3712 75.3354 47.7718 75.5684 50.289" stroke="black" stroke-width="2" stroke-linecap="round" stroke-linejoin="round"/>
<path d="M66.2739 14.8026C65.1909 13.2003 64.2718 14.3129 64.2718 14.3129L64.0646 10.1633C63.1455 8.41072 57.7389 7.83081 55.8316 8.07137C53.9244 7.83081 48.5177 8.41072 47.5986 10.1633V14.605C47.5986 14.605 46.7356 12.7364 45.3893 14.8155C44.5263 16.1686 45.0226 19.1111 46.0539 20.0862C47.0851 21.0613 47.5986 20.5157 47.5986 20.5157C47.5986 20.5157 48.1164 25.4342 51.2103 26.9119C54.3041 28.3896 54.8003 28.3509 55.8144 28.3509H55.8489C56.8586 28.3509 57.398 28.3294 60.453 26.8732C60.8315 26.7007 61.1831 26.4751 61.4972 26.2031C63.6547 24.2744 64.0646 20.5071 64.0646 20.5071C64.0646 20.5071 64.5781 21.0699 65.6094 20.0776C66.6407 19.0853 67.2146 16.1943 66.2739 14.8026Z" fill="white" stroke="black" stroke-width="2" stroke-linecap="round" stroke-linejoin="round"/>
<path d="M47.8366 15.8466C47.8366 15.8466 47.8366 9.88001 49.6273 9.67812C51.418 9.47622 53.8474 11.3749 56.6478 11.1687C59.4482 10.9625 60.3846 9.40749 62.6241 9.85853C64.1602 10.1635 63.9531 15.9798 63.9531 15.9798C64.0407 15.4967 64.2288 15.0373 64.5054 14.6309C64.6297 14.4539 64.7992 14.3132 64.9965 14.2233C65.1937 14.1334 65.4115 14.0977 65.6273 14.1198C65.6273 14.1198 65.9035 8.30352 64.7643 6.33184C63.979 4.97014 62.6543 4.36446 60.8506 3.14451C59.0469 1.92456 58.9995 0.970933 58.9995 0.970933C58.9995 0.970933 57.5281 2.14793 56.9283 1.95033C56.3285 1.75273 56.3846 0.429688 56.3846 0.429688C56.3846 0.429688 52.4623 2.4701 50.9995 3.00705C49.7913 3.43661 47.5475 4.16256 46.6845 6.3705C45.4935 9.37742 45.9553 14.0382 45.9553 14.0382C45.9553 14.0382 46.3868 13.8792 47.0944 14.3002C47.6554 14.6052 47.8366 15.8466 47.8366 15.8466Z" fill="white" stroke="black" stroke-width="2" stroke-linecap="round" stroke-linejoin="round"/>
<path d="M52.4448 17.4828C52.7379 17.4828 52.9756 17.0597 52.9756 16.5378C52.9756 16.0159 52.7379 15.5928 52.4448 15.5928C52.1517 15.5928 51.9141 16.0159 51.9141 16.5378C51.9141 17.0597 52.1517 17.4828 52.4448 17.4828Z" fill="black"/>
<path d="M58.8003 17.4828C59.0934 17.4828 59.331 17.0597 59.331 16.5378C59.331 16.0159 59.0934 15.5928 58.8003 15.5928C58.5072 15.5928 58.2695 16.0159 58.2695 16.5378C58.2695 17.0597 58.5072 17.4828 58.8003 17.4828Z" fill="black"/>
<path d="M57.8724 21.8174C57.6826 22.4703 56.8196 23.033 55.5251 23.033C54.2306 23.033 53.3676 22.4703 53.1777 21.8174" fill="white"/>
<path d="M57.8724 21.8174C57.6826 22.4703 56.8196 23.033 55.5251 23.033C54.2306 23.033 53.3676 22.4703 53.1777 21.8174" stroke="black" stroke-width="2" stroke-linecap="round" stroke-linejoin="round"/>
<path d="M43.2582 45.3271L42.9346 50.2671" stroke="black" stroke-width="2" stroke-linecap="round" stroke-linejoin="round"/>
<path d="M67.0469 45.3271L67.3662 50.2671" stroke="black" stroke-width="2" stroke-linecap="round" stroke-linejoin="round"/>
<path d="M9.79536 12.1133L6.11035 36.9419C6.11035 36.9419 15.284 37.874 15.1718 37.6721C15.0596 37.4702 15.1718 21.134 15.1718 21.134L9.79536 12.1133Z" fill="white" stroke="black" stroke-width="2" stroke-linecap="round" stroke-linejoin="round"/>
<path d="M29.2216 12.0625L32.9066 36.8739C32.9066 36.8739 23.7329 37.8017 23.8667 37.6084C24.0004 37.4151 23.8667 21.0661 23.8667 21.0661L29.2216 12.0625Z" fill="white" stroke="black" stroke-width="2" stroke-linecap="round" stroke-linejoin="round"/>
<path d="M35.4648 43.8753C33.139 42.3288 27.262 36.4825 25.8898 34.3648C24.5177 32.2471 23.3871 26.8904 23.3871 26.8904L14.6708 25.6318L14.7485 26.8862C14.7485 26.8862 13.8294 32.9 12.4745 35.0478C11.1196 37.1956 5.70859 41.4225 3.38281 42.956" fill="white"/>
<path d="M35.4648 43.8753C33.139 42.3288 27.262 36.4825 25.8898 34.3648C24.5177 32.2471 23.3871 26.8904 23.3871 26.8904L14.6708 25.6318L14.7485 26.8862C14.7485 26.8862 13.8294 32.9 12.4745 35.0478C11.1196 37.1956 5.70859 41.4225 3.38281 42.956" stroke="black" stroke-width="2" stroke-linecap="round" stroke-linejoin="round"/>
<path d="M0.431641 50.2583C0.431641 49.6741 0.582665 39.3647 2.75742 37.9256C5.0832 36.3792 11.1242 36.2503 12.4834 34.124C12.4834 34.124 13.7132 36.8431 19.081 36.8431C24.4489 36.8431 25.8901 34.3646 25.8901 34.3646C27.245 36.4866 33.6571 36.3921 35.9829 37.9385C37.3766 38.8621 37.9333 47.8785 38.1404 50.2712" fill="white"/>
<path d="M0.431641 50.2583C0.431641 49.6741 0.582665 39.3647 2.75742 37.9256C5.0832 36.3792 11.1242 36.2503 12.4834 34.124C12.4834 34.124 13.7132 36.8431 19.081 36.8431C24.4489 36.8431 25.8901 34.3646 25.8901 34.3646C27.245 36.4866 33.6571 36.3921 35.9829 37.9385C37.3766 38.8621 37.9333 47.8785 38.1404 50.2712" stroke="black" stroke-width="2" stroke-linecap="round" stroke-linejoin="round"/>
<path d="M29.342 17.2984C28.6387 16.5552 27.2406 17.4058 27.2406 17.4058V12.2511C26.3776 10.5328 21.2342 9.97009 19.4219 10.2021C17.6096 9.97009 12.4747 10.5371 11.6031 12.2511V17.4058C11.6031 17.4058 10.4381 16.0269 9.49307 17.612C9.02627 18.4241 8.83541 19.3646 8.94893 20.2934C9.06245 21.2222 9.47426 22.0897 10.1231 22.7667C11.1026 23.7332 11.5945 23.1962 11.5945 23.1962C11.5945 23.1962 12.0821 27.1654 15.0335 28.613C17.985 30.0606 18.451 30.0692 19.4176 30.0692H19.4521C20.41 30.0692 20.9235 30.0692 23.8232 28.6259C24.1834 28.4393 24.5147 28.202 24.807 27.9214C26.8696 26.0313 27.245 23.1962 27.245 23.1962C27.245 23.1962 27.6204 23.6258 28.7164 22.7667C30.4381 21.478 30.0497 18.0415 29.342 17.2984Z" fill="white" stroke="black" stroke-width="2" stroke-linecap="round" stroke-linejoin="round"/>
<path d="M16.2284 20.1891C16.4953 20.1891 16.7117 19.7872 16.7117 19.2913C16.7117 18.7955 16.4953 18.3936 16.2284 18.3936C15.9615 18.3936 15.7451 18.7955 15.7451 19.2913C15.7451 19.7872 15.9615 20.1891 16.2284 20.1891Z" fill="black"/>
<path d="M22.0409 20.1891C22.3078 20.1891 22.5242 19.7872 22.5242 19.2913C22.5242 18.7955 22.3078 18.3936 22.0409 18.3936C21.774 18.3936 21.5576 18.7955 21.5576 19.2913C21.5576 19.7872 21.774 20.1891 22.0409 20.1891Z" fill="black"/>
<path d="M20.5396 24.7344C20.1081 25.2026 18.7187 25.5248 18.0283 24.7344Z" fill="white"/>
<path d="M20.5396 24.7344C20.1081 25.2026 18.7187 25.5248 18.0283 24.7344" stroke="black" stroke-width="2" stroke-linecap="round" stroke-linejoin="round"/>
<path d="M29.8422 18.1103C29.4107 17.1653 29.0224 16.9376 28.1723 17.0407C27.7796 17.0772 27.4162 17.2634 27.1583 17.5605C25.2942 17.3715 20.7592 11.1944 19.7667 9.95729C18.675 11.1944 13.5445 17.612 11.6761 17.8096C11.6226 17.5951 11.5154 17.3974 11.3645 17.2352C11.2136 17.073 11.0239 16.9514 10.8131 16.8818C9.75162 16.667 9.47546 17.7409 9.08711 17.8741C9.08711 17.8741 7.74946 5.95378 16.647 4.70806C18.4998 4.50617 20.3692 4.50617 22.222 4.70806C30.7095 6.01392 29.8422 18.1103 29.8422 18.1103Z" fill="white" stroke="black" stroke-width="2" stroke-linecap="round" stroke-linejoin="round"/>
<path d="M8.50111 45.2246L8.19043 50.2676" stroke="black" stroke-width="2" stroke-linecap="round" stroke-linejoin="round"/>
<path d="M31.0938 45.2246L31.4001 50.2676" stroke="black" stroke-width="2" stroke-linecap="round" stroke-linejoin="round"/>
<path d="M24.5957 44.7987C26.5806 43.48 31.2149 42.986 32.3627 41.1775C33.1106 39.9284 33.6389 38.5614 33.9247 37.1354L42.7834 35.8467L43.7068 37.0108C43.9351 38.4807 44.4371 39.8953 45.1869 41.1818C46.3433 42.9903 50.9776 43.4843 52.9538 44.803" fill="white"/>
<path d="M24.5957 44.7987C26.5806 43.48 31.2149 42.986 32.3627 41.1775C33.1106 39.9284 33.6389 38.5614 33.9247 37.1354L42.7834 35.8467L43.7068 37.0108C43.9351 38.4807 44.4371 39.8953 45.1869 41.1818C46.3433 42.9903 50.9776 43.4843 52.9538 44.803" stroke="black" stroke-width="2" stroke-linecap="round" stroke-linejoin="round"/>
<path d="M54.9603 53.5705C54.9603 53.0723 54.8308 46.0318 52.9754 44.7989C50.9905 43.4802 46.3562 42.9862 45.2084 41.1777C45.2084 41.1777 43.3961 42.5223 38.8093 42.5223C34.2224 42.5223 32.3627 41.1777 32.3627 41.1777C31.2063 42.9862 26.5719 43.4802 24.5957 44.7989C23.4047 45.5893 22.9301 51.5301 22.7402 53.5705" fill="white"/>
<path d="M54.9603 53.5705C54.9603 53.0723 54.8308 46.0318 52.9754 44.7989C50.9905 43.4802 46.3562 42.9862 45.2084 41.1777C45.2084 41.1777 43.3961 42.5223 38.8093 42.5223C34.2224 42.5223 32.3627 41.1777 32.3627 41.1777C31.2063 42.9862 26.5719 43.4802 24.5957 44.7989C23.4047 45.5893 22.9301 51.5301 22.7402 53.5705" stroke="black" stroke-width="2" stroke-linecap="round" stroke-linejoin="round"/>
<path d="M30.2825 28.1193C31.1455 26.8306 31.9007 27.7241 31.9007 27.7241L32.0733 24.3564C32.8154 22.9345 37.1995 22.4663 38.7486 22.6381C40.2933 22.4448 44.6774 22.913 45.4195 24.3564V27.9475C45.4195 27.9475 46.1142 26.4311 47.2146 28.1193C47.9265 29.2147 47.5123 31.5944 46.6752 32.4149C45.8381 33.2354 45.4195 32.7543 45.4195 32.7543C45.4195 32.7543 44.988 36.7449 42.494 37.9433C39.9999 39.1418 39.577 39.1375 38.7615 39.1375H38.7313C37.9158 39.1375 37.4756 39.1375 34.9988 37.9433C34.6852 37.7968 34.3945 37.6058 34.1358 37.3763C32.3753 35.8084 32.056 32.7543 32.056 32.7543C32.056 32.7543 31.6245 33.2096 30.8003 32.4149C29.9762 31.6202 29.5188 29.2447 30.2825 28.1193Z" fill="white" stroke="black" stroke-width="2" stroke-linecap="round" stroke-linejoin="round"/>
<path d="M45.2298 28.9658C45.2298 28.9658 45.2298 24.1289 43.7799 23.9614C42.3301 23.7939 40.3581 25.3446 38.0841 25.1727C35.8101 25.0009 35.0636 23.7423 33.2384 24.1074C31.9957 24.3566 32.1596 29.0731 32.1596 29.0731C32.0954 28.683 31.9483 28.3111 31.7282 27.9821C31.6304 27.8354 31.4945 27.718 31.3348 27.6423C31.1752 27.5667 30.998 27.5356 30.822 27.5525C30.822 27.5525 30.5976 22.8273 31.5167 21.238C32.1553 20.134 33.2427 19.64 34.6882 18.6606C36.1338 17.6812 36.1942 16.8994 36.1942 16.8994C36.1942 16.8994 41.4973 18.1151 42.6667 18.5446C43.6505 18.8969 45.4541 19.4768 46.1618 21.268C47.1284 23.7122 46.753 27.4881 46.753 27.4881C46.5928 27.4563 46.4278 27.4586 46.2686 27.4949C46.1095 27.5311 45.9598 27.6006 45.8296 27.6986C45.3765 27.9606 45.2298 28.9658 45.2298 28.9658Z" fill="white" stroke="black" stroke-width="2" stroke-linecap="round" stroke-linejoin="round"/>
<path d="M41.493 30.2966C41.7313 30.2966 41.9245 29.9524 41.9245 29.5277C41.9245 29.103 41.7313 28.7588 41.493 28.7588C41.2547 28.7588 41.0615 29.103 41.0615 29.5277C41.0615 29.9524 41.2547 30.2966 41.493 30.2966Z" fill="black"/>
<path d="M36.3407 30.2966C36.579 30.2966 36.7722 29.9524 36.7722 29.5277C36.7722 29.103 36.579 28.7588 36.3407 28.7588C36.1024 28.7588 35.9092 29.103 35.9092 29.5277C35.9092 29.9524 36.1024 30.2966 36.3407 30.2966Z" fill="black"/>
<path d="M37.1094 33.8066C37.2604 34.335 37.9724 34.7903 39.0123 34.7903C40.0522 34.7903 40.7642 34.335 40.9152 33.8066" fill="white"/>
<path d="M37.1094 33.8066C37.2604 34.335 37.9724 34.7903 39.0123 34.7903C40.0522 34.7903 40.7642 34.335 40.9152 33.8066" stroke="black" stroke-width="2" stroke-linecap="round" stroke-linejoin="round"/>
<path d="M48.9404 51.7666L49.208 53.5708" stroke="black" stroke-width="2" stroke-linecap="round" stroke-linejoin="round"/>
<path d="M29.6525 51.7666L29.3936 53.5708" stroke="black" stroke-width="2" stroke-linecap="round" stroke-linejoin="round"/>
</g>
<defs>
<clipPath id="clip0_4001_40336">
<rect width="76" height="54" fill="white"/>
</clipPath>
</defs>
</svg>
