<svg width="76" height="50" viewBox="0 0 76 50" fill="none" xmlns="http://www.w3.org/2000/svg">
<path d="M72.6054 33.534C70.2027 32.0264 64.5818 31.4661 63.1793 29.3982C61.7768 27.3304 61.2876 24.7837 61.2876 24.7837L50.5459 23.3066L49.4261 24.6309C49.4261 24.6309 49.0347 27.3202 47.6322 29.3881C46.2297 31.4559 40.6088 32.0162 38.2061 33.5238" fill="#185972"/>
<path d="M72.6054 33.534C70.2027 32.0264 64.5818 31.4661 63.1793 29.3982C61.7768 27.3304 61.2876 24.7837 61.2876 24.7837L50.5459 23.3066L49.4261 24.6309C49.4261 24.6309 49.0347 27.3202 47.6322 29.3881C46.2297 31.4559 40.6088 32.0162 38.2061 33.5238" stroke="white" stroke-linecap="round" stroke-linejoin="round"/>
<path d="M35.8027 47.306C35.8027 46.7355 35.9658 34.9292 38.2055 33.5235C40.6082 32.0158 46.2291 31.4556 47.6316 29.3877C47.6316 29.3877 49.8278 30.9259 55.3834 30.9259C60.9391 30.9259 63.1679 29.3877 63.1679 29.3877C64.5704 31.4556 70.1912 32.0158 72.594 33.5235C74.04 34.4301 74.6162 44.9732 74.8445 47.306" fill="#185972"/>
<path d="M35.8027 47.306C35.8027 46.7355 35.9658 34.9292 38.2055 33.5235C40.6082 32.0158 46.2291 31.4556 47.6316 29.3877C47.6316 29.3877 49.8278 30.9259 55.3834 30.9259C60.9391 30.9259 63.1679 29.3877 63.1679 29.3877C64.5704 31.4556 70.1912 32.0158 72.594 33.5235C74.04 34.4301 74.6162 44.9732 74.8445 47.306" stroke="white" stroke-linecap="round" stroke-linejoin="round"/>
<path d="M65.7222 14.495C64.6567 13.0078 63.7543 14.0468 63.7543 14.0468L63.5478 10.2065C62.6454 8.58679 57.3289 8.0469 55.4589 8.27101C53.5889 8.0469 48.2724 8.58679 47.3701 10.2065V14.3015C47.3701 14.3015 46.5329 12.5698 45.1956 14.495C44.3259 15.748 44.8368 18.4576 45.848 19.3744C46.8591 20.281 47.3701 19.7615 47.3701 19.7615C47.3701 19.7615 47.881 24.3149 50.9144 25.6799C53.9151 27.0246 54.4478 27.045 55.4372 27.045C55.4372 27.045 55.448 27.045 55.4589 27.045C55.4698 27.045 55.4698 27.045 55.4806 27.045C56.47 27.045 57.0027 27.0246 60.0034 25.6799C60.384 25.5068 60.721 25.2929 61.0254 25.0382C63.1564 23.2555 63.5478 19.7717 63.5478 19.7717C63.5478 19.7717 64.0587 20.2912 65.0699 19.3846C66.081 18.478 66.6463 15.7989 65.7222 14.5052V14.495Z" fill="#185972" stroke="white" stroke-linecap="round" stroke-linejoin="round"/>
<path d="M47.5989 15.4626C47.5989 15.4626 47.588 9.94143 49.3602 9.75807C51.1323 9.57471 53.5024 11.3268 56.264 11.1434C59.0146 10.9601 59.9387 9.51359 62.1349 9.93124C63.6461 10.2165 63.4396 15.595 63.4396 15.595C63.4396 15.595 63.5809 14.8208 63.9832 14.3522C64.4833 13.7614 65.0812 13.8837 65.0812 13.8837C65.0812 13.8837 65.353 8.49493 64.2332 6.67152C63.4613 5.40838 62.1566 4.84812 60.3845 3.72759C58.6123 2.59687 58.558 1.72082 58.558 1.72082C58.558 1.72082 57.112 2.81079 56.5249 2.62743C55.9378 2.44407 55.9922 1.22168 55.9922 1.22168C55.9922 1.22168 52.1434 3.1062 50.6974 3.59516C49.5124 4.00263 47.3162 4.66476 46.4573 6.70208C45.2831 9.49322 45.7397 13.792 45.7397 13.792C45.7397 13.792 46.142 13.6494 46.8596 14.0365C47.4032 14.3319 47.588 15.4728 47.588 15.4728L47.5989 15.4626Z" fill="#185972" stroke="white" stroke-linecap="round" stroke-linejoin="round"/>
<path d="M52.1224 16.9806C52.4107 16.9806 52.6443 16.5884 52.6443 16.1046C52.6443 15.6207 52.4107 15.2285 52.1224 15.2285C51.8342 15.2285 51.6006 15.6207 51.6006 16.1046C51.6006 16.5884 51.8342 16.9806 52.1224 16.9806Z" fill="white"/>
<path d="M58.3734 16.9806C58.6616 16.9806 58.8953 16.5884 58.8953 16.1046C58.8953 15.6207 58.6616 15.2285 58.3734 15.2285C58.0852 15.2285 57.8516 15.6207 57.8516 16.1046C57.8516 16.5884 58.0852 16.9806 58.3734 16.9806Z" fill="white"/>
<path d="M57.4594 20.9834C57.2746 21.5844 56.4265 22.1039 55.1545 22.1039C53.8825 22.1039 53.0344 21.5844 52.8496 20.9834" fill="#185972"/>
<path d="M57.4594 20.9834C57.2746 21.5844 56.4265 22.1039 55.1545 22.1039C53.8825 22.1039 53.0344 21.5844 52.8496 20.9834" stroke="white" stroke-linecap="round" stroke-linejoin="round"/>
<path d="M43.0977 42.7324L42.7715 47.3062" stroke="white" stroke-linecap="round" stroke-linejoin="round"/>
<path d="M66.4727 42.7324L66.7879 47.3062" stroke="white" stroke-linecap="round" stroke-linejoin="round"/>
<path d="M45.8486 15.3408C46.5662 16.0844 46.9902 17.5717 47.0663 18.9673L45.8486 15.3408Z" fill="#185972"/>
<path d="M45.8486 15.3408C46.5662 16.0844 46.9902 17.5717 47.0663 18.9673" stroke="white" stroke-linecap="round" stroke-linejoin="round"/>
<path d="M65.08 15.3408C64.3624 16.0844 63.9384 17.5717 63.8623 18.9673L65.08 15.3408Z" fill="#185972"/>
<path d="M65.08 15.3408C64.3624 16.0844 63.9384 17.5717 63.8623 18.9673" stroke="white" stroke-linecap="round" stroke-linejoin="round"/>
<path d="M10.2083 12.8135L6.58789 35.7639C6.58789 35.7639 15.6009 36.6298 15.4704 36.4464C15.3399 36.2631 15.4704 21.1461 15.4704 21.1461L10.2083 12.8135Z" fill="#185972" stroke="white" stroke-linecap="round" stroke-linejoin="round"/>
<path d="M29.2996 12.7637L32.9201 35.7141C32.9201 35.7141 23.9071 36.58 24.0375 36.3966C24.168 36.2133 24.0375 21.0963 24.0375 21.0963L29.2996 12.7637Z" fill="#185972" stroke="white" stroke-linecap="round" stroke-linejoin="round"/>
<path d="M35.4316 42.1917C33.1485 40.7656 27.3754 35.3565 26.0381 33.3905C24.7008 31.4245 23.581 26.4738 23.581 26.4738L15.0029 25.3125L15.079 26.4738C15.079 26.4738 14.1766 32.056 12.8394 34.0221C11.5021 35.9881 6.17475 39.9303 3.8916 41.3564" fill="#185972"/>
<path d="M35.4316 42.1917C33.1485 40.7656 27.3754 35.3565 26.0381 33.3905C24.7008 31.4245 23.581 26.4738 23.581 26.4738L15.0029 25.3125L15.079 26.4738C15.079 26.4738 14.1766 32.056 12.8394 34.0221C11.5021 35.9881 6.17475 39.9303 3.8916 41.3564" stroke="white" stroke-linecap="round" stroke-linejoin="round"/>
<path d="M1 48.1109C1 47.571 1.15221 38.0363 3.28314 36.7019C5.56629 35.2758 11.5133 35.1535 12.8397 33.1875C12.8397 33.1875 14.0465 35.7036 19.3304 35.7036C24.6142 35.7036 26.0385 33.4014 26.0385 33.4014C27.3758 35.3674 33.6707 35.2758 35.9539 36.7019C37.3237 37.5576 37.8782 45.9004 38.0957 48.1109" fill="#185972"/>
<path d="M1 48.1109C1 47.571 1.15221 38.0363 3.28314 36.7019C5.56629 35.2758 11.5133 35.1535 12.8397 33.1875C12.8397 33.1875 14.0465 35.7036 19.3304 35.7036C24.6142 35.7036 26.0385 33.4014 26.0385 33.4014C27.3758 35.3674 33.6707 35.2758 35.9539 36.7019C37.3237 37.5576 37.8782 45.9004 38.0957 48.1109" stroke="white" stroke-linecap="round" stroke-linejoin="round"/>
<path d="M29.4199 17.6117C28.735 16.9292 27.3542 17.7136 27.3542 17.7136V12.9259C26.4953 11.3368 21.4506 10.8172 19.6676 11.0312C17.8846 10.8172 12.8399 11.3368 11.981 12.9259V17.7136C11.981 17.7136 10.8286 16.4402 9.91533 17.9071C8.74114 19.7815 9.56742 21.7882 10.535 22.6847C11.5027 23.5709 11.981 23.0616 11.981 23.0616C11.981 23.0616 12.4594 26.7491 15.3514 28.0836C18.1999 29.4078 18.7109 29.418 19.6459 29.418C19.6459 29.418 19.6567 29.418 19.6676 29.418C19.6785 29.418 19.6785 29.418 19.6894 29.418C20.6244 29.418 21.1354 29.3976 23.9838 28.0836C24.3426 27.9206 24.6688 27.6965 24.9623 27.452C26.9846 25.6999 27.3542 23.0616 27.3542 23.0616C27.3542 23.0616 27.7239 23.4486 28.8002 22.6847C30.4962 21.4724 30.1157 18.3146 29.4199 17.6219V17.6117Z" fill="#185972" stroke="white" stroke-linecap="round" stroke-linejoin="round"/>
<path d="M16.5252 20.2907C16.7894 20.2907 17.0036 19.9167 17.0036 19.4554C17.0036 18.9941 16.7894 18.6201 16.5252 18.6201C16.261 18.6201 16.0469 18.9941 16.0469 19.4554C16.0469 19.9167 16.261 20.2907 16.5252 20.2907Z" fill="white"/>
<path d="M22.244 20.2907C22.5082 20.2907 22.7224 19.9167 22.7224 19.4554C22.7224 18.9941 22.5082 18.6201 22.244 18.6201C21.9798 18.6201 21.7656 18.9941 21.7656 19.4554C21.7656 19.9167 21.9798 20.2907 22.244 20.2907Z" fill="white"/>
<path d="M20.7658 24.4877C20.3201 24.9156 18.9719 25.2212 18.2979 24.4775L20.7658 24.4877Z" fill="#185972"/>
<path d="M20.7658 24.4877C20.3201 24.9156 18.9719 25.2212 18.2979 24.4775" stroke="white" stroke-linecap="round" stroke-linejoin="round"/>
<path d="M29.9097 18.3656C29.4966 17.4896 29.1052 17.2757 28.268 17.3775C27.5831 17.459 27.2787 17.8563 27.2787 17.8563C25.4413 17.6831 20.9837 11.9684 20.0161 10.8275C18.9398 11.9684 13.8951 17.9174 12.0686 18.0906C12.0686 18.0906 11.8729 17.3572 11.1988 17.2349C10.1551 17.0312 9.88329 18.0193 9.51364 18.1517C9.51364 18.1517 8.19811 7.12979 16.9502 5.96851C18.3092 5.78515 21.0707 5.77497 22.4297 5.96851C30.7795 7.16035 29.9315 18.3656 29.9315 18.3656H29.9097Z" fill="#185972" stroke="white" stroke-linecap="round" stroke-linejoin="round"/>
<path d="M8.93639 43.4453L8.62109 47.7848" stroke="white" stroke-linecap="round" stroke-linejoin="round"/>
<path d="M31.1367 43.4453L31.4411 47.7848" stroke="white" stroke-linecap="round" stroke-linejoin="round"/>
<path d="M10.6211 18.5693C11.2952 19.2722 11.7083 20.6882 11.7735 22.0124L10.6211 18.5693Z" fill="#185972"/>
<path d="M10.6211 18.5693C11.2952 19.2722 11.7083 20.6882 11.7735 22.0124" stroke="white" stroke-linecap="round" stroke-linejoin="round"/>
<path d="M28.7784 18.5693C28.1043 19.2722 27.6912 20.6882 27.626 22.0124L28.7784 18.5693Z" fill="#185972"/>
<path d="M28.7784 18.5693C28.1043 19.2722 27.6912 20.6882 27.626 22.0124" stroke="white" stroke-linecap="round" stroke-linejoin="round"/>
<path d="M26.2129 39.2083C27.9633 38.1183 32.0403 37.7108 33.0623 36.2032C34.0843 34.7058 34.4322 32.8518 34.4322 32.8518L42.2384 31.7822L43.0538 32.75C43.0538 32.75 43.3365 34.7058 44.3585 36.2032C45.3804 37.7007 49.4575 38.1183 51.2079 39.2083" fill="#185972"/>
<path d="M26.2129 39.2083C27.9633 38.1183 32.0403 37.7108 33.0623 36.2032C34.0843 34.7058 34.4322 32.8518 34.4322 32.8518L42.2384 31.7822L43.0538 32.75C43.0538 32.75 43.3365 34.7058 44.3585 36.2032C45.3804 37.7007 49.4575 38.1183 51.2079 39.2083" stroke="white" stroke-linecap="round" stroke-linejoin="round"/>
<path d="M52.9584 49.2207C52.9584 48.803 52.8388 40.2259 51.208 39.2072C49.4576 38.1172 45.3805 37.7098 44.3585 36.2021C44.3585 36.2021 42.7603 37.3227 38.7268 37.3227C34.6932 37.3227 33.0624 36.2021 33.0624 36.2021C32.0404 37.6996 27.9634 38.1172 26.213 39.2072C25.1584 39.8591 24.7452 47.5297 24.5713 49.2207" fill="#185972"/>
<path d="M52.9584 49.2207C52.9584 48.803 52.8388 40.2259 51.208 39.2072C49.4576 38.1172 45.3805 37.7098 44.3585 36.2021C44.3585 36.2021 42.7603 37.3227 38.7268 37.3227C34.6932 37.3227 33.0624 36.2021 33.0624 36.2021C32.0404 37.6996 27.9634 38.1172 26.213 39.2072C25.1584 39.8591 24.7452 47.5297 24.5713 49.2207" stroke="white" stroke-linecap="round" stroke-linejoin="round"/>
<path d="M31.2141 25.3747C31.9861 24.2949 32.6384 25.0488 32.6384 25.0488L32.7906 22.2576C33.4429 21.076 37.3134 20.6889 38.6724 20.8519C40.0314 20.6889 43.9019 21.0862 44.5542 22.2576V25.2321C44.5542 25.2321 45.1631 23.9792 46.1307 25.3747C46.7613 26.2813 46.3916 28.2575 45.6523 28.9197C44.913 29.5818 44.5433 29.2049 44.5433 29.2049C44.5433 29.2049 44.1737 32.5155 41.9667 33.5036C39.7814 34.4816 39.4008 34.4918 38.6833 34.4918C38.6833 34.4918 38.6833 34.4918 38.6724 34.4918C38.6615 34.4918 38.6724 34.4918 38.6615 34.4918C37.944 34.4918 37.5526 34.4816 35.3782 33.5036C35.1063 33.3814 34.8563 33.2184 34.628 33.0351C33.0733 31.7414 32.7906 29.2049 32.7906 29.2049C32.7906 29.2049 32.4209 29.5818 31.6816 28.9197C30.9423 28.2575 30.5401 26.3119 31.2033 25.3747H31.2141Z" fill="#185972" stroke="white" stroke-linecap="round" stroke-linejoin="round"/>
<path d="M44.3798 26.0775C44.3798 26.0775 44.3798 22.064 43.1077 21.9315C41.8248 21.7991 40.0961 23.0724 38.0957 22.9298C36.0952 22.7872 35.432 21.7482 33.8229 22.0436C32.7248 22.2473 32.8771 26.159 32.8771 26.159C32.8771 26.159 32.7683 25.5987 32.4857 25.2524C32.1269 24.8245 31.6811 24.906 31.6811 24.906C31.6811 24.906 31.4854 20.9944 32.29 19.6701C32.8553 18.7533 33.8012 18.3458 35.0841 17.5309C36.367 16.716 36.4105 16.0742 36.4105 16.0742C36.4105 16.0742 41.0855 17.0827 42.1292 17.4392C42.999 17.7346 44.5863 18.2134 45.206 19.7007C46.0541 21.7278 45.7279 24.8551 45.7279 24.8551C45.7279 24.8551 45.4343 24.7532 44.9125 25.0283C44.5211 25.2422 44.3906 26.0775 44.3906 26.0775H44.3798Z" fill="#185972" stroke="white" stroke-linecap="round" stroke-linejoin="round"/>
<path d="M41.0963 27.178C41.3065 27.178 41.4769 26.8907 41.4769 26.5363C41.4769 26.1819 41.3065 25.8945 41.0963 25.8945C40.8862 25.8945 40.7158 26.1819 40.7158 26.5363C40.7158 26.8907 40.8862 27.178 41.0963 27.178Z" fill="white"/>
<path d="M36.5524 27.178C36.7626 27.178 36.9329 26.8907 36.9329 26.5363C36.9329 26.1819 36.7626 25.8945 36.5524 25.8945C36.3422 25.8945 36.1719 26.1819 36.1719 26.5363C36.1719 26.8907 36.3422 27.178 36.5524 27.178Z" fill="white"/>
<path d="M37.2148 30.0908C37.3453 30.5288 37.965 30.9057 38.8891 30.9057C39.8133 30.9057 40.433 30.5288 40.5635 30.0908" fill="#185972"/>
<path d="M37.2148 30.0908C37.3453 30.5288 37.965 30.9057 38.8891 30.9057C39.8133 30.9057 40.433 30.5288 40.5635 30.0908" stroke="white" stroke-linecap="round" stroke-linejoin="round"/>
<path d="M47.6533 45.9004L47.8925 49.2212" stroke="white" stroke-linecap="round" stroke-linejoin="round"/>
<path d="M30.659 45.9004L30.4307 49.2212" stroke="white" stroke-linecap="round" stroke-linejoin="round"/>
<path d="M45.6521 25.9863C45.1303 26.5262 44.8258 27.606 44.7715 28.6247L45.6521 25.9863Z" fill="#185972"/>
<path d="M45.6521 25.9863C45.1303 26.5262 44.8258 27.606 44.7715 28.6247" stroke="white" stroke-linecap="round" stroke-linejoin="round"/>
<path d="M31.6699 25.9863C32.1918 26.5262 32.4962 27.606 32.5506 28.6247L31.6699 25.9863Z" fill="#185972"/>
<path d="M31.6699 25.9863C32.1918 26.5262 32.4962 27.606 32.5506 28.6247" stroke="white" stroke-linecap="round" stroke-linejoin="round"/>
</svg>
