<svg width="48" height="54" viewBox="0 0 48 54" fill="none" xmlns="http://www.w3.org/2000/svg">
<path d="M23.4441 52.6089L45.8788 24.0493L37.3113 13.7354H9.58701L1.01953 24.0493L23.4441 52.6089Z" stroke="white" stroke-linecap="round" stroke-linejoin="round"/>
<path d="M1.52051 24.0498H45.379" stroke="white" stroke-linecap="round" stroke-linejoin="round"/>
<path d="M32.471 24.0493L23.444 13.7354L14.5498 24.0493L23.444 52.6089L32.471 24.0493Z" stroke="white" stroke-linecap="round" stroke-linejoin="round"/>
<path d="M9.83203 13.7354L14.5498 24.0493" stroke="white" stroke-linecap="round" stroke-linejoin="round"/>
<path d="M37.1884 13.7354L32.4707 24.0493" stroke="white" stroke-linecap="round" stroke-linejoin="round"/>
<path d="M41.4059 2.09139L42.2739 0.608398L43.1419 2.09139C43.5197 2.75156 44.1018 3.28735 44.7961 3.64136L46.3789 4.45461L44.9289 5.19132C44.1426 5.59316 43.5095 6.22463 43.1419 6.99005L42.2637 8.78877L41.3855 6.99005C41.0077 6.22463 40.3848 5.59316 39.5985 5.19132L38.1484 4.45461L39.7312 3.64136C40.4358 3.28735 41.0077 2.74199 41.3855 2.09139H41.4059Z" stroke="white" stroke-linecap="round" stroke-linejoin="round"/>
<path d="M6.44131 42.6192L6.79871 42.0068L7.15612 42.6192C7.30929 42.8871 7.55437 43.1071 7.84029 43.2602L8.49383 43.5951L7.90156 43.9012C7.57479 44.0639 7.3195 44.3318 7.16633 44.6379L6.80893 45.3747L6.45152 44.6379C6.29835 44.3222 6.04306 44.0639 5.71629 43.9012L5.12402 43.5951L5.77756 43.2602C6.06348 43.1167 6.29835 42.8871 6.46173 42.6192H6.44131Z" stroke="white" stroke-linecap="round" stroke-linejoin="round"/>
<path d="M43.1419 38.8882L43.7852 37.7783L44.4285 38.8882C44.7145 39.3761 45.1434 39.778 45.6641 40.0459L46.8487 40.6486L45.7765 41.2036C45.1944 41.5002 44.7247 41.9785 44.449 42.543L43.7954 43.8825L43.1419 42.543C42.8662 41.969 42.3965 41.5002 41.8144 41.2036L40.7422 40.6486L41.9267 40.0459C42.4475 39.778 42.8764 39.3761 43.1623 38.8882H43.1419Z" stroke="white" stroke-linecap="round" stroke-linejoin="round"/>
</svg>
