<svg width="56" height="13" viewBox="0 0 56 13" fill="none" xmlns="http://www.w3.org/2000/svg">
<path d="M6.37895 5.36672H0V3.88798H6.34985L6.37167 5.36672H6.37895ZM6.37895 7.9491H0V6.47758H6.37895V7.9491ZM1.21468 4.63817C1.21468 3.15222 1.55656 2.01251 2.233 1.21182C2.90945 0.411139 3.8841 0.0144043 5.14971 0.0144043C5.8407 0.0144043 6.45169 0.122605 6.99721 0.346219C7.53546 0.56262 7.99369 0.880008 8.37191 1.28396L7.05539 2.74827C6.82264 2.50301 6.55352 2.28661 6.24075 2.12071C5.92798 1.94759 5.63705 1.86824 5.36065 1.86824C4.80785 1.86824 4.4078 2.09185 4.14595 2.53187C3.8841 2.97188 3.75319 3.67158 3.75319 4.61653V7.52352C3.75319 8.44683 3.89137 9.12488 4.16777 9.55768C4.44416 9.99049 4.86603 10.2069 5.44065 10.2069C5.75341 10.2069 6.04437 10.1275 6.32077 9.96163C6.59717 9.79573 6.88811 9.57933 7.20087 9.30522L8.49557 10.6397C8.1028 11.0941 7.63002 11.4476 7.06995 11.6928C6.50988 11.9381 5.87708 12.0607 5.17881 12.0607C3.90593 12.0607 2.93126 11.664 2.24754 10.8777C1.56382 10.0915 1.22196 8.95898 1.22196 7.49466V4.63817H1.21468Z" fill="#449100"/>
<path d="M13.3105 5.67703C13.3105 3.82319 13.7906 2.40937 14.758 1.45C15.7254 0.49062 16.9837 0.00732422 18.533 0.00732422C20.0023 0.00732422 21.1661 0.389633 22.0316 1.15425C22.8972 1.91887 23.3263 2.89988 23.3263 4.09009V4.27764H20.8387V4.05402C20.8387 3.36154 20.6496 2.82054 20.2641 2.44544C19.8786 2.07035 19.2967 1.8828 18.5185 1.8828C17.7402 1.8828 17.0783 2.15691 16.591 2.69791C16.1036 3.23891 15.8563 4.14058 15.8563 5.39571V6.65083C15.8563 7.81218 16.0964 8.69221 16.5764 9.28371C17.0565 9.87521 17.7111 10.1782 18.5548 10.1782C19.2967 10.1782 19.8568 9.97619 20.2278 9.57946C20.5987 9.18272 20.8097 8.64893 20.846 7.99252V7.78333H23.3336V7.99252C23.2827 9.1683 22.839 10.1421 22.0025 10.9067C21.1661 11.6713 20.0168 12.0536 18.5476 12.0536C16.9837 12.0536 15.7254 11.5703 14.7653 10.6038C13.8052 9.63717 13.3251 8.23056 13.3251 6.39115V5.67703H13.3105Z" fill="#449100"/>
<path d="M27.9672 0.1875H30.5566L35.0735 11.8227H32.4259L29.4146 3.63549C29.3492 3.45515 29.2982 3.28203 29.2619 3.11613C29.2255 2.95022 29.1891 2.78431 29.16 2.62562H29.0873C29.0582 2.79152 29.0291 2.95743 28.9855 3.12334C28.9491 3.28925 28.8909 3.46237 28.8327 3.63549L25.8215 11.8227H23.5303L27.9672 0.1875ZM26.6216 7.45857H31.7785L32.3459 9.26912H26.0469L26.6143 7.45857H26.6216Z" fill="#449100"/>
<path d="M35.4517 8.32422H37.9611V8.50456C37.9611 9.07441 38.1429 9.5 38.5138 9.78132C38.8848 10.0626 39.4012 10.2069 40.0631 10.2069C40.725 10.2069 41.2269 10.0771 41.5761 9.81017C41.9325 9.54328 42.107 9.18983 42.107 8.74981C42.107 8.3098 41.9397 7.94191 41.6051 7.69666C41.2705 7.4514 40.5359 7.18451 39.394 6.88876C38.172 6.57859 37.2337 6.14579 36.5936 5.60478C35.9535 5.06378 35.6262 4.32081 35.6262 3.36864C35.6262 2.34434 36.019 1.52923 36.8118 0.916097C37.5974 0.310175 38.6593 0 39.9904 0C41.3215 0 42.3834 0.317388 43.1835 0.944951C43.9836 1.57973 44.3837 2.41648 44.3837 3.46963V3.6716H41.9106V3.50569C41.9106 3.01519 41.7506 2.61845 41.4306 2.31549C41.1105 2.01253 40.6305 1.86105 39.9977 1.86105C39.3649 1.86105 38.8921 1.98367 38.5939 2.22172C38.2956 2.45976 38.1429 2.78436 38.1429 3.19552C38.1429 3.60668 38.3029 3.89522 38.623 4.09719C38.943 4.29916 39.6776 4.55163 40.8123 4.85459C42.0125 5.17198 42.9508 5.612 43.6127 6.16743C44.2746 6.72286 44.6091 7.53075 44.6164 8.57669C44.6164 9.67312 44.2018 10.5315 43.3726 11.1374C42.5434 11.7506 41.4378 12.0535 40.0704 12.0535C38.703 12.0535 37.5974 11.7506 36.7391 11.1519C35.8808 10.5532 35.4517 9.68033 35.4517 8.5262V8.31701V8.32422Z" fill="#449100"/>
<path d="M46.3691 0.238037H48.8349V4.9123H53.5337V0.238037H55.9921V11.8227H53.5337V6.78777H48.8349V11.8227H46.3691V0.238037Z" fill="#449100"/>
</svg>
