<svg width="36" height="35" viewBox="0 0 36 35" fill="none" xmlns="http://www.w3.org/2000/svg">
<g clip-path="url(#clip0_4400_2173)">
<path d="M34.4101 15.4443L19.5911 0.653781C18.7164 -0.219229 17.2836 -0.219229 16.4089 0.653781L1.59232 15.4443C0.717632 16.3173 0 18.0441 0 19.2788V32.7526C0 33.9873 1.01242 34.9978 2.24955 34.9978H16.0899L9.99611 28.9157C9.68199 29.0242 9.34855 29.0845 9.0006 29.0845C7.30438 29.0845 5.92469 27.7075 5.92469 26.0145C5.92469 24.3215 7.30438 22.9445 9.0006 22.9445C10.6968 22.9445 12.0765 24.3215 12.0765 26.0145C12.0765 26.3642 12.0161 26.697 11.9074 27.0105L16.6529 31.7469V14.3977C15.6333 13.8985 14.9277 12.8518 14.9277 11.6436C14.9277 9.95062 16.3074 8.57358 18.0036 8.57358C19.6998 8.57358 21.0795 9.95062 21.0795 11.6436C21.0795 12.8518 20.374 13.896 19.3543 14.3977V26.5643L24.0733 21.8544C23.9815 21.5602 23.9283 21.2491 23.9283 20.9259C23.9283 19.233 25.308 17.8559 27.0042 17.8559C28.7004 17.8559 30.0801 19.233 30.0801 20.9259C30.0801 22.6189 28.7004 23.996 27.0042 23.996C26.6297 23.996 26.2721 23.926 25.9411 23.803L19.3543 30.3771V35.0002H33.7553C34.9924 35.0002 36.0048 33.9898 36.0048 32.755V19.2812C36.0048 18.0465 35.2896 16.3221 34.4125 15.4467L34.4101 15.4443Z" fill="#4384F4"/>
</g>
<defs>
<clipPath id="clip0_4400_2173">
<rect width="36" height="35" fill="white"/>
</clipPath>
</defs>
</svg>
