<svg xmlns="http://www.w3.org/2000/svg" viewBox="0 0 79.06 25.59"><defs><style>.cls-1{fill:#00579f;}.cls-2{fill:#faa61a;}</style></defs><g id="Layer_2" data-name="Layer 2"><g id="Слой_1" data-name="Слой 1"><g id="g4158"><polygon id="polygon9" class="cls-1" points="34.26 25.22 27.85 25.22 31.86 0.45 38.26 0.45 34.26 25.22"/><path id="path11" class="cls-1" d="M57.47,1.05a15.77,15.77,0,0,0-5.74-1C45.4,0,41,3.37,40.92,8.19c-.05,3.56,3.19,5.54,5.62,6.72s3.32,2,3.32,3.09c0,1.66-2,2.42-3.85,2.42a12.66,12.66,0,0,1-6-1.32l-.84-.39-.9,5.56a19.64,19.64,0,0,0,7.14,1.32c6.72,0,11.1-3.32,11.15-8.46,0-2.82-1.68-5-5.37-6.75-2.24-1.13-3.62-1.9-3.62-3.05s1.16-2.14,3.69-2.14A10.94,10.94,0,0,1,56,6.14l.58.26.87-5.35Z"/><path id="path13" class="cls-1" d="M66,16.44c.53-1.42,2.56-6.93,2.56-6.93s.53-1.45.84-2.37l.45,2.14S71,15.2,71.31,16.44Zm7.91-16h-5A3.17,3.17,0,0,0,65.59,2.5L56.08,25.22H62.8l1.34-3.72h8.22c.19.87.77,3.72.77,3.72h5.93L73.89.45Z"/><path id="path15" class="cls-1" d="M22.5.45,16.23,17.34l-.68-3.43A19,19,0,0,0,6.69,3.53l5.75,21.66h6.77L29.28.45Z"/><path id="path17" class="cls-2" d="M10.41.45H.11L0,1C8,3,13.36,8,15.55,13.91L13.31,2.53C12.94,1,11.81.5,10.41.45Z"/></g></g></g></svg>