<svg xmlns="http://www.w3.org/2000/svg" width="319.028" height="317.762" viewBox="0 0 319.028 317.762">
  <g id="Сгруппировать_8" data-name="Сгруппировать 8" transform="translate(-1088.585 -68.261)">
    <circle id="Эллипс_1" data-name="Эллипс 1" cx="154.046" cy="154.046" r="154.046" transform="translate(1099.521 77.931)" fill="#F2F2F2" opacity="0.67" style="mix-blend-mode: screen;isolation: isolate"/>
    <g id="Сгруппировать_7" data-name="Сгруппировать 7">
      <g id="Сгруппировать_3" data-name="Сгруппировать 3">
        <path id="Контур_3" data-name="Контур 3" d="M1088.585,195.137a126.877,126.877,0,1,1,126.876,126.877A127.021,127.021,0,0,1,1088.585,195.137Zm3.561,0A123.315,123.315,0,1,0,1215.461,71.822,123.455,123.455,0,0,0,1092.146,195.137Z" fill="#7d7a74"/>
      </g>
      <g id="Сгруппировать_4" data-name="Сгруппировать 4">
        <path id="Контур_4" data-name="Контур 4" d="M1117.2,195.137c0-69.959,44.079-126.876,98.261-126.876s98.262,56.917,98.262,126.876-44.08,126.877-98.262,126.877S1117.2,265.1,1117.2,195.137Zm3.561,0c0,68,42.482,123.316,94.7,123.316s94.7-55.319,94.7-123.316-42.482-123.315-94.7-123.315S1120.761,127.141,1120.761,195.137Z" fill="#7d7a74"/>
      </g>
      <g id="Сгруппировать_5" data-name="Сгруппировать 5">
        <path id="Контур_5" data-name="Контур 5" d="M1148.1,195.137c0-47.865,30.216-86.806,67.358-86.806s67.357,38.941,67.357,86.806-30.216,86.807-67.357,86.807S1148.1,243,1148.1,195.137Zm3.561,0c0,45.9,28.62,83.246,63.8,83.246s63.8-37.344,63.8-83.246-28.618-83.245-63.8-83.245S1151.664,149.235,1151.664,195.137Z" fill="#7d7a74"/>
      </g>
      <g id="Сгруппировать_6" data-name="Сгруппировать 6">
        <path id="Контур_6" data-name="Контур 6" d="M1175.574,195.137c0-28.225,17.894-51.189,39.887-51.189s39.886,22.964,39.886,51.189-17.892,51.188-39.886,51.188S1175.574,223.363,1175.574,195.137Zm3.561,0c0,26.261,16.3,47.627,36.326,47.627s36.325-21.366,36.325-47.627-16.3-47.628-36.325-47.628S1179.135,168.875,1179.135,195.137Z" fill="#7d7a74"/>
      </g>
    </g>
  </g>
</svg>
