<svg width="235" height="120" viewBox="0 0 235 120" fill="none" xmlns="http://www.w3.org/2000/svg"><path d="M.355.703h233.354v118.324H.355V.703z" fill="#191919" stroke="#fff" stroke-width=".716" stroke-miterlimit="10"/><path d="M233.709 11.41H.355m227.451-3.02a2.333 2.333 0 110-4.666 2.333 2.333 0 010 4.666zm-6.61 0a2.334 2.334 0 110-4.668 2.334 2.334 0 010 4.668zm-6.612 0a2.334 2.334 0 11.001-4.667 2.334 2.334 0 01-.001 4.667z" stroke="#fff" stroke-width=".716" stroke-miterlimit="10"/><path d="M38.642 84.949l18.435-35.373h7.182L45.78 84.95h-7.14zm45.508-2.797v-8.457l.29-.649V57.99h-.223L72.85 69.444h13.58l1.276-.38h9.42v6.578H64.124v-5.907l20.45-20.159h7.45v32.576h-7.876zm15.213-16.355v-.224c0-5.28 1.425-9.36 4.274-12.238 2.849-2.894 6.913-4.34 12.194-4.34 5.324 0 9.411 1.424 12.26 4.273 2.864 2.849 4.296 6.95 4.296 12.305v.247c0 5.504-1.462 9.702-4.385 12.596-2.924 2.879-6.981 4.318-12.171 4.318-5.325 0-9.405-1.47-12.239-4.407-2.819-2.939-4.228-7.115-4.228-12.53zm8.413.515c0 3.416.649 5.996 1.947 7.741 1.312 1.745 3.356 2.618 6.13 2.618s4.825-.873 6.153-2.618c1.342-1.745 2.013-4.318 2.013-7.719v-1.186c0-3.266-.678-5.735-2.036-7.405-1.357-1.686-3.401-2.529-6.13-2.529-2.73 0-4.758.843-6.086 2.529-1.327 1.67-1.991 4.131-1.991 7.383v1.186zm47.074 15.84v-8.457l.291-.649V57.99h-.224l-11.366 11.455h13.581l1.275-.38h9.42v6.578h-33.001v-5.907l20.449-20.159h7.451v32.576h-7.876z" fill="#B4B4B4"/></svg>