<svg width="47" height="47" viewBox="0 0 47 47" fill="none" xmlns="http://www.w3.org/2000/svg"><path d="M23.33 45.953c12.333 0 22.33-9.998 22.33-22.33 0-12.333-9.997-22.33-22.33-22.33C10.998 1.293 1 11.291 1 23.623c0 12.332 9.998 22.33 22.33 22.33z" fill="#000" stroke="#000" stroke-miterlimit="10"/><path d="M16.86 34.723a4.57 4.57 0 100-9.14 4.57 4.57 0 000 9.14zm13.33 0a4.57 4.57 0 100-9.14 4.57 4.57 0 000 9.14zm-8.76-4.57s2.29-1.52 4.19 0" stroke="#fff" stroke-miterlimit="10"/><path d="M36.67 21.773H10v1.9h26.67v-1.9zm-21.34-1.52h16.76l-3.26-8.47a1.638 1.638 0 00-2.01-.98l-2.96.91c-.34.11-.71.1-1.04-.03l-2.16-.79c-.84-.31-1.77.12-2.09.95l-3.23 8.4-.01.01z" fill="#fff"/></svg>