<svg width="321" height="273" viewBox="0 0 321 273" fill="none" xmlns="http://www.w3.org/2000/svg"><path d="M319.863 2.09a1 1 0 10-.276-1.98l.276 1.98zm-94.416 75.69l-.984-.183.984.182zm73.357 34.38l.927.375-.927-.375zm-210.375-7.983l-.635-.772.635.772zM319.587.109c-9.044 1.262-29.848 4.722-49.873 15.803-20.051 11.097-39.357 29.86-45.251 61.685l1.967.364c5.758-31.094 24.583-49.414 44.253-60.299 19.697-10.9 40.206-14.32 49.18-15.572l-.276-1.98zm-95.124 77.488c-2.751 14.857-.277 26.518 5.284 35.135 5.555 8.606 14.125 14.076 23.39 16.682 9.259 2.605 19.265 2.367 27.769-.493 8.504-2.86 15.589-8.376 18.825-16.386l-1.855-.749c-2.961 7.33-9.499 12.512-17.607 15.239-8.108 2.727-17.702 2.964-26.59.464-8.881-2.498-17.005-7.714-22.251-15.842-5.239-8.117-7.673-19.24-4.998-33.686l-1.967-.364zm75.268 34.938c3.206-7.938 3.642-15.22 1.7-21.723-1.941-6.496-6.224-12.115-12.284-16.792-12.092-9.331-31.386-15.015-54.002-16.538-45.254-3.045-104.383 10.537-147.351 45.923l1.271 1.544c42.51-35.009 101.111-48.489 145.946-45.471 22.43 1.51 41.269 7.139 52.914 16.125 5.809 4.483 9.795 9.775 11.589 15.781 1.792 6 1.428 12.812-1.638 20.402l1.855.749zm-211.937-9.13C19.132 159.949 1.116 239.703.694 272.607l2 .025c.416-32.462 18.267-111.598 86.371-167.683l-1.271-1.544z" fill="#fff"/></svg>