<svg width="403" height="160" viewBox="0 0 403 160" fill="none" xmlns="http://www.w3.org/2000/svg"><path d="M173.94 11.49l-.279-.96.279.96zm227.496 21.73a1 1 0 00.673-1.244l-2.564-8.627a1 1 0 10-1.917.57l2.279 7.668-7.668 2.28a1 1 0 00.57 1.916l8.627-2.564zM2.156 159.362C19 124.409 70.256 42.633 174.219 12.45l-.557-1.92C68.914 40.94 17.311 123.305.355 158.494l1.802.868zM174.219 12.45C213.63 1.008 259.515.357 300.954 5.495c41.449 5.14 78.326 16.054 99.721 27.645l.952-1.759C379.938 19.631 342.794 8.668 301.2 3.511c-41.604-5.159-87.782-4.525-127.539 7.018l.557 1.92z" fill="#fff"/></svg>