<svg xmlns="http://www.w3.org/2000/svg" viewBox="0 0 1795.98 244.47"><defs><pattern id="Diamond" data-name="Diamond" width="72" height="72" patternTransform="rotate(25.08 -669.402 -1548.933) scale(.52)" patternUnits="userSpaceOnUse" viewBox="0 0 72 72"><path class="cls-1" d="M0 0h72v72H0z"/><path d="M72 72l72 72m0-72l-72 72m66-72l-69 69m63-69l-63.01 63.01M126 72l-57.01 57.01M120 72l-51.01 51.01M114 72l-45.02 45.02M108 72l-39.02 39.02M102 72l-33.02 33.03M96 72L68.97 99.03M90 72L68.97 93.03M84 72L68.96 87.04M78 72l-9.04 9.04M72 72l-3.04 3.04M0 72l72 72M6 72l69 69M12 72l63 63.01M18 72l57.01 57.01M24 72l51.01 51.01M30 72l45.02 45.02M36 72l39.02 39.02M42 72l33.02 33.03M48 72l27.03 27.03M54 72l21.03 21.03M60 72l15.03 15.04M66 72l9.04 9.04M72 72l3.04 3.04M72 72L0 144m66-72l-69 69m63-69l-63.01 63.01M54 72l-57.01 57.01M48 72l-51.01 51.01M42 72l-45.02 45.02M36 72l-39.02 39.02M30 72l-33.02 33.03M24 72L-3.03 99.03M18 72L-3.03 93.03M12 72L-3.04 87.04M6 72l-9.04 9.04M0 72l-3.04 3.04M-72 72l72 72m-66-72l69 69m-63-69l63 63.01M-54 72l57.01 57.01M-48 72l51.01 51.01M-42 72l45.02 45.02M-36 72l39.02 39.02M-30 72l33.02 33.03M-24 72L3.03 99.03M-18 72L3.03 93.03M-12 72L3.03 87.04M-6 72l9.04 9.04M0 72l3.04 3.04M0 72l-72 72M72 0l72 72M69 3l69 69M68.99 9L132 72M68.99 14.99L126 72M68.99 20.99L120 72M68.98 26.98L114 72M68.98 32.98L108 72M68.98 38.98L102 72M68.97 44.97L96 72M68.97 50.97L90 72M68.96 56.96L84 72m-15.04-9.04L78 72m-9.04-3.04L72 72m72-72L72 72m66-72L69 69m63-69L68.99 63.01M126 0L68.99 57.01M120 0L68.99 51.01M114 0L68.98 45.02M108 0L68.98 39.02M102 0L68.98 33.03M96 0L68.97 27.03M90 0L68.97 21.03M84 0L68.96 15.04M78 0l-9.04 9.04M72 0l-3.04 3.04M0 0l72 72M-3 3l69 69M-3.01 9L60 72M-3.01 14.99L54 72M-3.01 20.99L48 72M-3.02 26.98L42 72M-3.02 32.98L36 72M-3.02 38.98L30 72M-3.03 44.97L24 72M-3.03 50.97L18 72M-3.04 56.96L12 72m-15.04-9.04L6 72m-9.04-3.04L0 72M6 0l69 69M12 0l63 63.01M18 0l57.01 57.01M24 0l51.01 51.01M30 0l45.02 45.02M36 0l39.02 39.02M42 0l33.02 33.03M48 0l27.03 27.03M54 0l21.03 21.03M60 0l15.03 15.04M66 0l9.04 9.04M72 0l3.04 3.04M72 0L0 72M66 0L-3 69M60 0L-3.01 63.01M54 0L-3.01 57.01M48 0L-3.01 51.01M42 0L-3.02 45.02M36 0L-3.02 39.02M30 0L-3.02 33.03M24 0L-3.03 27.03M18 0L-3.03 21.03M12 0L-3.04 15.04M6 0l-9.04 9.04M0 0l-3.04 3.04M75 3L6 72M75 9L12 72m63.01-57.01L18 72m57.01-51.01L24 72m51.02-45.02L30 72m45.02-39.02L36 72m39.02-33.02L42 72m33.03-27.03L48 72m27.03-21.03L54 72m21.03-15.04L60 72m15.04-9.04L66 72m9.04-3.04L72 72M-72 0L0 72M-66 0L3 69M-60 0L3 63.01M-54 0L3.01 57.01M-48 0L3.01 51.01M-42 0L3.02 45.02M-36 0L3.02 39.02M-30 0L3.02 33.03M-24 0L3.03 27.03M-18 0L3.03 21.03M-12 0L3.03 15.04M-6 0l9.04 9.04M0 0l3.04 3.04M0 0l-72 72M3 3l-69 69M3 9l-63 63M3.01 14.99L-54 72M3.01 20.99L-48 72M3.02 26.98L-42 72M3.02 32.98L-36 72M3.02 38.98L-30 72M3.03 44.97L-24 72M3.03 50.97L-18 72M3.03 56.96L-12 72m15.04-9.04L-6 72m9.04-3.04L0 72M72-72l72 72M69-69l69 69M68.99-63L132 0M68.99-57.01L126 0M68.99-51.01L120 0M68.98-45.02L114 0M68.98-39.02L108 0M68.98-33.02L102 0M68.97-27.03L96 0M68.97-21.03L90 0M68.96-15.04L84 0M68.96-9.04L78 0m-9.04-3.04L72 0m72-72L72 0M0-72L72 0M-3-69L66 0M-3.01-63L60 0M-3.01-57.01L54 0M-3.01-51.01L48 0M-3.02-45.02L42 0M-3.02-39.02L36 0M-3.02-33.02L30 0M-3.03-27.03L24 0M-3.03-21.03L18 0M-3.04-15.04L12 0M-3.04-9.04L6 0m-9.04-3.04L0 0m72-72L0 0m75-69L6 0m69-63L12 0m63.01-57.01L18 0m57.01-51.01L24 0m51.02-45.02L30 0m45.02-39.02L36 0m39.02-33.02L42 0m33.03-27.03L48 0m27.03-21.03L54 0m21.03-15.04L60 0m15.04-9.04L66 0m9.04-3.04L72 0M-72-72L0 0m0-72L-72 0M3-69L-66 0M3-63L-60 0M3.01-57.01L-54 0M3.01-51.01L-48 0M3.02-45.02L-42 0M3.02-39.02L-36 0M3.02-33.02L-30 0M3.03-27.03L-24 0M3.03-21.03L-18 0M3.03-15.04L-12 0M3.04-9.04L-6 0m9.04-3.04L0 0" stroke-linecap="square" stroke-linejoin="bevel" stroke="#1d1d1b" stroke-width=".3" fill="none"/></pattern><pattern id="Hatching_Double" data-name="Hatching Double" width="72" height="72" patternTransform="rotate(25.08 -666.118 -1949.301) scale(.52)" patternUnits="userSpaceOnUse" viewBox="0 0 72 72"><path class="cls-1" d="M0 0h72v72H0z"/><path d="M63.7 76.7l3.48-6.08m-1.74-.99l-3.48 6.07M49 77.5l-2.38-6.58m-1.88.68l2.38 6.58m-10.69-2.34l1.72-6.79m-1.94-.49l-1.72 6.79m-19.62-.04l1.91-6.73m-1.93-.55l-1.9 6.74m-4.16.16l-2.02-6.71m-1.92.58l2.02 6.7m44.15-6.21l4.43 5.42M57 73.44l-4.43-5.41M71.73 26.3l6.52-2.55M-.27 26.3l6.52-2.55m-2.06 16.4l-2.56 6.51m1.86.73l2.56-6.51M69.21 5.66l6.17 3.32m.94-1.76L70.16 3.9m-.9 16.19l5.3-4.57M73.25 14l-5.3 4.58m3.78 7.72l6.52-2.55m-.73-1.86L71 24.44m-2.07 10.47l6.82 1.54m.45-1.95l-6.83-1.54m-.41 23.32L75.75 58m.49-1.94l-6.78-1.72M70 66.25l6.65-2.19m-.63-1.9l-6.65 2.19M63.7 4.7l3.48-6.08m-1.74-.99L61.96 3.7M49 5.5l-2.38-6.58m-1.88.68l2.38 6.58M36.43 3.84l1.72-6.79m-1.94-.49l-1.72 6.79m-3.7.33L24.34.95m-.78 1.84L30 5.53M14.87 3.31l1.91-6.73m-1.93-.55l-1.9 6.74m-4.16.16L6.77-3.78m-1.92.58l2.02 6.7m58.57 66.13l-3.48 6.07m1.74 1l3.48-6.08m-16.16-1.33l4.43 5.42M57 73.44l-4.43-5.41m-7.83 3.57l2.38 6.58M49 77.5l-2.38-6.58m-10.41-2.36l-1.72 6.79m1.94.49l1.72-6.79m-23.3-1.02l-1.9 6.74m1.92.54l1.91-6.73m-11.93.22l2.02 6.7m1.92-.57l-2.02-6.71m11.67-21.09l-3.48 6.07m1.74 1l3.48-6.08M48.5 14.94l-4.43-5.41m-1.55 1.26l4.43 5.42M36.24 13.1l2.38 6.58M40.5 19l-2.38-6.58m24.67 48.76l-6.45-2.73m-.78 1.84L62 63.03m.98-19.81l-1.9 6.74m1.92.54l1.9-6.73m-12.33-5.9l2.01 6.71M56.5 44l-2.02-6.7m-21.46-4.72l3.48-6.08m-1.74-.99l-3.47 6.07m-12.77-5.79l4.43 5.42m1.55-1.27l-4.43-5.41m-9.33 3.07l2.38 6.58M15 33.5l-2.38-6.58m50.09-1.36l-1.72 6.79m1.94.49l1.72-6.79m-17.76 3.14l6.45 2.74m.78-1.84l-6.45-2.74m-17.6 32.02l2.01 6.71M34 65.5l-2.02-6.7m16.99 1.65l-6.93.97m.28 1.98l6.93-.97m-.14-14.2l-1.56 6.82m1.95.45l1.56-6.82M30.22 45.3l-3.74 5.92m1.69 1.07l3.74-5.92m-.02-9.67l-6.42 2.8m.81 1.84l6.41-2.8m-14.32 3.77l1.91-6.73m-1.93-.55l-1.9 6.74m27.47-2.85l-2.02-6.7m-1.92.58L42 39.5M30.2 15.76l-5.59 4.21m1.21 1.6l5.59-4.21m-10.47-1.42l-1.95-6.72m-1.92.55l1.95 6.73M10.4 9.42l-.41 6.99m2 .12l.4-6.99m10.86 47.74L19 62.84m1.58 1.21l4.26-5.56m-9.38 3.2l-4.85-5.05m-1.44 1.39l4.84 5.05M55.5 24.5l4.4-5.44m-1.55-1.26l-4.4 5.44m4.58-8.91l.78-6.95m-1.98-.23l-.79 6.96M35.56 49.29L42 52.03m.79-1.85l-6.45-2.73M51.02-2.71l4.43 5.42M57 1.44l-4.43-5.41M-2.79 5.66l6.17 3.32m.94-1.76L-1.84 3.9m-.9 16.19l5.3-4.57M1.25 14l-5.3 4.58m3.78 7.72l6.52-2.55m-.73-1.86L-1 24.44m-2.07 10.47l6.82 1.54m.45-1.95l-6.83-1.54m-.41 23.32L3.75 58m.49-1.94l-6.78-1.72M-2 66.25l6.65-2.19m-.63-1.9l-6.65 2.19M65.44-2.37L61.96 3.7m1.74 1l3.48-6.08M51.02-2.71l4.43 5.42M57 1.44l-4.43-5.41M44.74-.4l2.38 6.58M49 5.5l-2.38-6.58M36.21-3.44l-1.72 6.79m1.94.49l1.72-6.79m-23.3-1.02l-1.9 6.74m1.92.54l1.91-6.73M4.85-3.2l2.02 6.7m1.92-.57L6.77-3.78" stroke="#1d1d1b" stroke-width=".3" fill="none"/></pattern><clipPath id="clip-path" transform="translate(0 27.79)"><path class="cls-1" d="M1514.89 71.89c-7.84.22-20.52.57-26.46.46-36.67-.69-139.12-8-146.44-8.53-52.74-3.76-83.46-3.6-114.6-10-19.63-4.55-24.87-9-30.74-14.13 0 0 8.38-3.33 12.71-4.79 88.34-29.91 172.56-22.66 227-6.52 26.48 7.85 77 39.49 79.81 43.47z"/></clipPath><style>.cls-1,.cls-10,.cls-11,.cls-4{fill:none}.cls-10,.cls-11,.cls-13,.cls-15,.cls-4,.cls-5,.cls-6,.cls-8,.cls-9{stroke:#000}.cls-10,.cls-13,.cls-15,.cls-4,.cls-8,.cls-9{stroke-miterlimit:10}.cls-13,.cls-5{fill:#fff}.cls-11,.cls-5,.cls-6{stroke-linecap:round;stroke-linejoin:round}.cls-10,.cls-11,.cls-5,.cls-6,.cls-8,.cls-9{stroke-width:1.25px}.cls-6{fill:#999}.cls-9{fill:#4d4d4d}.cls-15{fill:url(#Diamond)}</style></defs><g id="Layer_2" data-name="Layer 2"><g id="Слой_1" data-name="Слой 1"><path class="cls-4" d="M0 137.27c28.06 0 28.06 12 56.12 12s28.06-12 56.12-12 28.07 12 56.13 12 28.06-12 56.12-12 28.06 12 56.13 12 28.06-12 56.12-12 28.06 12 56.12 12 28.06-12 56.12-12 28.06 12 56.13 12 28.06-12 56.12-12 28.06 12 56.12 12 28.06-12 56.12-12 28.07 12 56.13 12 28.06-12 56.12-12 28.06 12 56.13 12 28.06-12 56.12-12 28.06 12 56.12 12 28.06-12 56.12-12 28.07 12 56.13 12 28.06-12 56.12-12 28.06 12 56.12 12 28.06-12 56.12-12 28.07 12 56.13 12 28.06-12 56.13-12 28.06 12 56.12 12 28.06-12 56.13-12 28.06 12 56.12 12 28.06-12 56.13-12 28.06 12 56.13 12 28.06-12 56.12-12 28.07 12 56.13 12 28.07-12 56.14-12M0 121.27c28.06 0 28.06 12 56.12 12s28.06-12 56.12-12 28.07 12 56.13 12 28.06-12 56.12-12 28.06 12 56.13 12 28.06-12 56.12-12 28.06 12 56.12 12 28.06-12 56.12-12 28.06 12 56.13 12 28.06-12 56.12-12 28.06 12 56.12 12 28.06-12 56.12-12 28.07 12 56.13 12 28.06-12 56.12-12 28.06 12 56.13 12 28.06-12 56.12-12 28.06 12 56.12 12 28.06-12 56.12-12 28.07 12 56.13 12 28.06-12 56.12-12 28.06 12 56.12 12 28.06-12 56.12-12 28.07 12 56.13 12 28.06-12 56.13-12 28.06 12 56.12 12 28.06-12 56.13-12 28.06 12 56.12 12 28.06-12 56.13-12 28.06 12 56.13 12 28.06-12 56.12-12 28.07 12 56.13 12 28.07-12 56.14-12M0 105.27c28.06 0 28.06 12 56.12 12s28.06-12 56.12-12 28.07 12 56.13 12 28.06-12 56.12-12 28.06 12 56.13 12 28.06-12 56.12-12 28.06 12 56.12 12 28.06-12 56.12-12 28.06 12 56.13 12 28.06-12 56.12-12 28.06 12 56.12 12 28.06-12 56.12-12 28.07 12 56.13 12 28.06-12 56.12-12 28.06 12 56.13 12 28.06-12 56.12-12 28.06 12 56.12 12 28.06-12 56.12-12 28.07 12 56.13 12 28.06-12 56.12-12 28.06 12 56.12 12 28.06-12 56.12-12 28.07 12 56.13 12 28.06-12 56.13-12 28.06 12 56.12 12 28.06-12 56.13-12 28.06 12 56.12 12 28.06-12 56.13-12 28.06 12 56.13 12 28.06-12 56.12-12 28.07 12 56.13 12 28.07-12 56.14-12" transform="translate(0 27.79)"/><path class="cls-5" d="M1660.73 187.68a88.08 88.08 0 0015.77-.11s12.7-26.49 0-48.72-27.87-28.06-43.57-37.19-64.29 8-71.48 21.62-14.37 52.57-14.1 55-.8 6.59 3.26 7.95h20.23zM1257.9 181c3.83.12 8.43-2.23 16.14-2.13 0 0 6-24.88-6.66-47.11s-27.87-28.06-43.57-37.19-64.28 8-71.47 21.62-12 48.23-12.39 50.62c-.11.75-.27 3.57 2.07 4.32 17.66 5.66 103.9 9.49 115.88 9.87z" transform="translate(0 27.79)"/><path class="cls-6" transform="rotate(-180 1691.25 158.48)" d="M1683.38 137.87h15.74v13.43h-15.74z"/><path class="cls-5" d="M1699.43 140.75V146s.15-.22 1.11.78a3.42 3.42 0 01.37 4.09 39.08 39.08 0 01-2.33 4.15 5.05 5.05 0 00.26 5.83 18.4 18.4 0 013.23 5.6 7.72 7.72 0 01-.76 6.56c-3.69 6.3-11.41 12.59-24.25 14.47-2.08.31-2.25.21-2-1.9.56-5.92 1.15-11.83.49-17.82a97.75 97.75 0 00-2.3-13.51 68.33 68.33 0 00-10.9-23.26 58.51 58.51 0 00-22.72-19.11 54.09 54.09 0 00-19.69-5.12 54.86 54.86 0 00-24 3.63c-15.15 5.94-26.21 16.5-34.15 30.55-8.38 17.05-7.58 39.43-8.8 43.6a2.31 2.31 0 01-2.29 1.64c-8.38-.16-18-.17-26.24-.45-5.69-.19-11.38-.09-17.08-.29-8.25-.29-242.87-4.09-248.93-4.4-2.11-.1-2.24-.27-1.9-2.26.83-4.79 2.07-63.53-52-71-14.73-2-29.1 2.77-41.13 11.38-26.81 19.16-21.42 52-21.42 52-20.22-3.76-29.44-15.31-32.37-23.63l-1.5-4.32a5.9 5.9 0 01-.08-3.58c.45-1.75-.47-3.52-.9-5.22a66.18 66.18 0 01-2-14.46c-.08-2.64.48-5.08 2.75-7 3.26-2.73 4-6.72 4.73-10.65a114.54 114.54 0 001.63-16.51c.06-1.48-.11-3-.14-4.5a46.05 46.05 0 01.8-7.87c.34-2.26 2-3.94 3.38-5.6a31.86 31.86 0 003.27-4.95 4.89 4.89 0 00.67-3.73 8.44 8.44 0 010-3.17 2.65 2.65 0 012-2.53A82 82 0 011135 51a81 81 0 0010.69-2.87c72.39-30.81 91.41-40.56 177.08-46 3.77-.24 24-1.62 30.4-1.43 6.08.18 12.14.57 18.21 1 7 .57 14 1.37 21 2.35 67.4 9.31 118.56 42.32 130.38 48.3.93.47 2.11 1.17 3.35 1.94A32.49 32.49 0 001538 58.7c38.87 6.25 73.73 14.91 82 17.53 8.67 2.75 41.3 12.84 47.62 15.55a87 87 0 0128.89 19.51 11.56 11.56 0 013 7.51c.35 4.44.28 8.88.38 13.32a55.24 55.24 0 01-.28 8 2.32 2.32 0 01-1 1.56c-3.22 2.07-6.46 4.08-10.2 5.09.24 1.69.47 3.26.69 4.81 3.1.09 6.28-1 10.42-5.63" transform="translate(0 27.79)"/><path class="cls-5" d="M1227.19 53.78a21.49 21.49 0 01-4.82 6.84c-2.91 2.75-6.38 4.84-9.42 7.66 1.35 3.42 3.3 6.64 5 10a300.53 300.53 0 0019.34 32.62A212 212 0 001255 134c5.37 6 10.55 12.19 16.37 17.77a48.63 48.63 0 0014.45 10.11 25.62 25.62 0 009 1.93c8.32.34 16.63.67 25 1 3.94.18 7.88.3 11.82.47 8.07.35 139.52 5.83 143 6l79.6 3.07" transform="translate(0 27.79)"/><path d="M1514.89 99.68c-7.84.22-20.52.57-26.46.46-36.67-.69-139.12-8-146.44-8.53-52.74-3.76-83.46-3.6-114.6-10-19.63-4.55-24.87-9-30.74-14.13 0 0 8.38-3.33 12.71-4.79 88.34-29.91 172.56-22.66 227-6.52 26.48 7.85 77 39.49 79.81 43.47z" stroke-width="1.25" stroke-linecap="round" stroke-linejoin="round" stroke="#000"/><path class="cls-5" d="M1530.08 173.2a174.25 174.25 0 002.4-19.32c1.08-19.35 1.66-49.17.77-55.49-.51-11.48-2.74-16.88-3.7-18-2.3-2.7-7.39-8.4-7.39-8.4s0-.26-1.13-.25-2 0-4.87.12m-155.48-6.73c0 3.59 8.34 51.31 5.64 101.69" transform="translate(0 27.79)"/><path class="cls-6" d="M1685.24 106.79a15.33 15.33 0 014.31 4.69c1.15 2.24.47 3.52-2.07 3.56a20.75 20.75 0 01-11.08-3.16c-10.54-6.33-36.66-22.1-35.76-23.4 1.22-1.75 33.14 8.72 44.6 18.31z" transform="translate(0 27.79)"/><path class="cls-5" d="M1353.56 14.83s3.56 11.85 5.63 18.05c3.07 9.17 11.41 32.92 11.41 32.92m-30.72-51.42c1.78 8.06 3.21 15.15 5 23.21 1.67 7.62 5.62 26.83 5.62 26.83" transform="translate(0 27.79)"/><path class="cls-6" d="M1120.53 65.72a39 39 0 006.57.32c6.12.22 12.26.18 18.38.24.71 0 1.46-.18 2.1.63-2.31 1.86-4.63 4-7.18 5.72-5.1 3.52-10.07 7.24-15.56 10.14-3.15 1.67-6.41 3.11-10.12 2.83" transform="translate(0 27.79)"/><circle class="cls-8" cx="1198.49" cy="194.61" r="49.24"/><circle class="cls-9" cx="1198.49" cy="194.61" r="36.39"/><circle class="cls-8" cx="1198.49" cy="194.61" r="4.32"/><path class="cls-8" d="M1194.43 185.78h8.11l2.03-24.09h-12.17l2.03 24.09zm11.2 2.24l2.5 7.72 23.54-5.51-3.77-11.58-22.27 9.37zm1.33 11.34l-6.57 4.77 12.51 20.68 9.86-7.16-15.8-18.29zm-10.38 4.77l-6.57-4.77-15.8 18.29 9.86 7.16 12.51-20.68zm-7.74-8.39l2.51-7.72-22.28-9.37-3.77 11.58 23.54 5.51z"/><circle class="cls-10" cx="1198.49" cy="194.61" r="38.6"/><path class="cls-6" d="M1565.43 102.09l-7.09 7.38s-19.81-9.53-19.66-9.53 26.75 2.15 26.75 2.15z" transform="translate(0 27.79)"/><path class="cls-5" d="M1554.3 129.23l4.04 8.03"/><path class="cls-11" d="M1526.43 76.8s-93.21-3.16-141.32-7.15-107.41-7.39-118.39-8.19-42.34-4.34-53.2-7.68C1191.73 47.09 1188 38.7 1188 38.7" transform="translate(0 27.79)"/><path class="cls-11" d="M1522.16 72s-24.66-19.21-66.28-39.88c-34.13-16.94-83.15-24.49-127.74-22.22s-89.17 8.38-129.49 24S1152 53.37 1144 56.92s-19.52 9.1-19.52 9.1" transform="translate(0 27.79)"/><path class="cls-5" d="M1404.32 85.78a1.51 1.51 0 00-.9-.35c-2.74-.15-17.51-.93-18.15-1.14s-2.49-1.77-2.82-1.77-6.82-.6-6.86-.3 1.7 3.83 4 4.06 25.62 1.6 25.78 1.33-.2-1.14-1.05-1.83zm-140.78-5.34a1.57 1.57 0 00-.9-.35c-2.73-.15-17.51-.93-18.14-1.14s-2.5-1.77-2.83-1.77-6.82-.6-6.86-.3 1.7 3.83 4 4.06 25.62 1.6 25.79 1.33-.21-1.14-1.06-1.83zm241.1-9.05c-.15-.38-2.62-8.43-6.46-11.85-5.88-5.23-16.85-3.79-19.09-1.27s-5.26 12.63-4.51 13.25 30 .68 30.06.4.12-.23 0-.53z" transform="translate(0 27.79)"/><circle class="cls-8" cx="1616.12" cy="194.61" r="49.24"/><circle class="cls-9" cx="1616.12" cy="194.61" r="36.39"/><circle class="cls-8" cx="1616.12" cy="194.61" r="4.32"/><path class="cls-8" d="M1612.06 185.78h8.12l2.03-24.09h-12.18l2.03 24.09zm11.2 2.24l2.51 7.72 23.53-5.51-3.76-11.58-22.28 9.37zm1.33 11.34l-6.57 4.77 12.52 20.68 9.85-7.16-15.8-18.29zm-10.38 4.77l-6.56-4.77-15.8 18.29 9.85 7.16 12.51-20.68zm-7.74-8.39l2.51-7.72-22.28-9.37-3.76 11.58 23.53 5.51z"/><circle class="cls-10" cx="1616.12" cy="194.61" r="38.6"/><g clip-path="url(#clip-path)"><path class="cls-13" d="M1297.74 94.19s43-21.25 47.91-18.23 5 3.61 4.77 6 2.37 15 3.5 19.16 2.17 16.5 4.06 19 8.07 10.24 10 11.88a19.07 19.07 0 004.22 3c2 1.12 2.19 2.66 1.69 3.33a2.28 2.28 0 01-3.58-.06 5.77 5.77 0 00-3.42-2c-1.11-.33-8.81-3.57-12-4.52s-9.67-3.26-8.18-4.91 2.41-7.42 1-9.73-6.79-6.08-9-13.48a17.6 17.6 0 01.8-11.3s-3.54 4.61-5.86 8-13.81 12.1-18 13-14.88 2.07-15.88 0-2.03-19.14-2.03-19.14z" transform="translate(0 27.79)"/><path class="cls-13" d="M1304.83 105.15s16 2.61 25.16 5.33 13.9 3.53 14.93 3.59 5.79 2.27 7 4.88 11.93 14.36 15.23 17.6 13.4 13.41 15.75 15 15.67 7 17.59 7.92a37.92 37.92 0 006.35 2.37c1.86.44 4.32 1.33 2.38 3.56s-6-.44-7 .75-1.9 1.05-7.87-.77-6.57-.89-8.66.4-6 1.34-7.45-.29.59-8.21-5.38-11.79-22.18-9.78-26.78-12.82-9.66-10.31-9.2-15c0 0-10.12 5.38-25.38 4.91-11.7-.36-12.2-1.59-12.2-1.59s.8-22.75 5.53-24.05z" transform="translate(0 27.79)"/><path class="cls-13" d="M1281.24 22.74s3 3.33 2.68 4.27-1.29 1.94 0 3.22 3 2.62 2.32 3.52-1.71 1.64-1.42 2.18.1 1.11.18 1.82a20.68 20.68 0 010 2.15 8.84 8.84 0 000 1.07c0 .57 0 3.75-1.08 4.29-2.14 1.08-6.44-1.07-6.44-1.07s-.61-.24-1.6 3.1c-.49 1.67 2.1 1.92 6.67 4.32s5.36.57 8.83 3.54c3.84 3.29 6.88 3.21 11.23 7.35 5.44 5.17 8.35 9.92 10.93 9.91s26.07-2.44 29-1.36c0 0 8.06-3.48 8.72-1.68a15.37 15.37 0 002.38 3.22s3.83 3.31 6.52 3.35 5.78 0 6 1.3-10.26 2.08-13.47 0a12 12 0 00-8.82-2c-2 .16-13.58 7.32-24.19 8.86s-9 1-10.7.28a109.29 109.29 0 01-19-11.31s.62 6-.63 8.39.94 3.74 1.6 5.54c1 2.78 6 7.25 6.31 9.55s-.84 9.18-3.3 15.89-.53 14.06-.53 14.06-9.42-1-14.8-4.23c-17.43-10.44-14-17.91-17.77-25.39s-7.45-11.58-10.79-19.21c-3-6.78-5.22-6.52-7.94-7.66s-.09-20.46 12.88-19.33c2.82.25 1.28-.74 4.3 0 0 0 1.39-3 2.65-5.4s1.47-3.35.16-5.18-2.81-8.51-.64-9.39a4.25 4.25 0 014 .5 4.76 4.76 0 00.69-2.92 3 3 0 011.63-2.9c.59-.4.53-2.87 2.37-3.91s10.46-.92 11.07 1.26z" transform="translate(0 27.79)"/><path d="M1260.3 45.26s3-1 3.63-1.76 2.64-2.16 1.22-4c0 0-1 1.45-1.8.65s-2.83-5.53-1.33-6.72 5.09 1.06 5.06 2 .16-3.9 1.68-5.51c1.82-1.91 4.32-3.33 4.43-5 .07-1.22 7.81.57 10.73-3.22 1.06-1.36 2-7.81-3.73-7.66-1.92 0-3.76 1-11.33 1-3.17 0-10.43.52-12.85 4.54-2.3 3.8-1.52 10 .32 13.25S1261 39.49 1260 41c-2 3 .3 4.26.3 4.26z" transform="translate(0 27.79)" stroke="#fff" stroke-miterlimit="10"/><path class="cls-4" d="M1271 41s3.22 3.22 6.44 3.22" transform="translate(0 27.79)"/><path class="cls-13" d="M1271.43 56.48a8.42 8.42 0 00-2.27-3.49c-1.56-1.27-7.74-1.33-9.12-2.11m16.57 4.56s-.6-2.17 1-1.94 2.77-.71 3.59-1M1261 77a1.47 1.47 0 001.35 1.44m12.65-14.5s4.22 11.45 2.43 14m8.41-.94s-.79 1.39-1.12 1.23m-.88 18.56s1.56 1.27 1.81.45m-26.77-11.05s3.3 3.3 7.25 3.8m-7.44-.52s4.62 3.38 6.8 3.32m12.45 6.21s2.77-.73 3.35-1.4m4.71-2.5s3.11-2.32 3.52-3.21m-8.31 12.11s2.66-1.07 3.15-1.81m4.34-3.07s2.8-2.69 3.1-3.62m-15.11-1.5s2.64-.42 3.25-1m4.59-1.88s3.11-1.87 3.58-2.65m28.89 33.9s16.15-.59 19.6-2.39 2.83-3.23 2.83-3.23m11.31 4.25s-2.49 3.36-5.53 2.44m8.86 8.37s8.09 12.16 1 11.73m3.93-1.64s11.76 3.78 14.14 8.77m8.02 5.33a1.66 1.66 0 00-.2 2.54 2.87 2.87 0 002.84 1.11m-37.33-57.27s.67 7.19-2.1 7.65m-24.8-8.65s12.16-7 14.66-15.78m5.43 6.52s4.54-1.7 4.73-5m-31.06-13.59s3.66 2 2.17 3.71-5 2-5 2m-20.42-11.34s6.18 6.4 10.19 7.6a14.6 14.6 0 007.44.25m12.53 3.17s9.74-5.82 19.36-5.36" transform="translate(0 27.79)"/><path class="cls-13" d="M1281.66 87.43s-5.79 1.49-5.84 4.16a38.66 38.66 0 00.37 5m7.86-10.43s2.87-1.65 4-.23a17.29 17.29 0 012 3.95m35.81-9.18s9.84 10.06 11.5 16.33c0 0-12 16.09-17.08 18.81s-20.5-2.45-20.5-2.45l-1.85-21.55s4 1.66 9.81-2.6 18.12-8.54 18.12-8.54z" transform="translate(0 27.79)"/><path class="cls-15" d="M1325.86 80.7s9.84 10.06 11.5 16.33c0 0-12 16.09-17.08 18.81s-20.5-2.45-20.5-2.45l-1.85-21.55s4 1.66 9.81-2.6 18.12-8.54 18.12-8.54z" transform="translate(0 27.79)"/><path class="cls-13" d="M1337.13 111a22.59 22.59 0 010 9.76 49.6 49.6 0 01-3.22 10.55s-17.53 1.33-25.8 0-19.91-2.64-28.08-7.41c-3.13-1.83-8.09-7.23-8.09-7.23s15.27-21 15.61-25.67 10.36.85 10.36.85 21.07 13.94 26.27 15.61 12.95 3.54 12.95 3.54z" transform="translate(0 27.79)"/><path class="cls-15" d="M1337.13 111a22.59 22.59 0 010 9.76 49.6 49.6 0 01-3.22 10.55s-17.53 1.33-25.8 0-19.91-2.64-28.08-7.41c-3.13-1.83-8.09-7.23-8.09-7.23s15.27-21 15.61-25.67 10.36.85 10.36.85 21.07 13.94 26.27 15.61 12.95 3.54 12.95 3.54z" transform="translate(0 27.79)"/><path class="cls-13" d="M1261.37 56c1 2.91 3.47 13.83-3.22 10.74 0 0-14.49-5-13.17 2.7s8.27 24.7 15.79 36.82 13.29 15.49 13.29 15.49 18.22-10.49 17.64-32.56l-2.43-7.78a20.32 20.32 0 00.4-15.45c-3.2-8.47-5.57-14.38-5.57-14.38l-5.5-1.79a13.28 13.28 0 01-5.41 1.92c-9.35 1-15-2.15-15-2.15s-5.72.6-4.29 1.07c3.18 1.08 6.4 2.15 7.47 5.37z" transform="translate(0 27.79)"/><path d="M1093.11-27.28s.24 19.53-6.44 16.44c0 0 3.45-.41 4.77 7.27s8.27 24.7 15.79 36.82 13.29 15.49 13.29 15.49 18.22-10.5 17.64-32.56l-2.43-7.78a20.34 20.34 0 00.4-15.46c-3.2-8.47-6.82-16.39-6.82-16.39l-6.44-1.08a5.75 5.75 0 01-4.3 3.22c-9.35 1-12.4-4.45-12.4-4.45a16.81 16.81 0 00-4.68-1c-3.26-.42-8.38-.52-8.38-.52z" transform="translate(0 27.79)" fill="url(#Hatching_Double)" stroke-miterlimit="10" stroke="#000"/><path class="cls-13" d="M1288.23 150.33l-6.07 8-2.22-1.34s-7.28 13.84-8.87 13.82-6.7-3.86-7.44-7.54 4.17-11.08 7.94-12.64 17.34-1.14 16.66-.3z" transform="translate(0 27.79)"/><path class="cls-13" d="M1291 87.31s12.11 2.6 15.23 7.13 9.34 9.47 8.88 29c-.45 19-15.39 44.66-16.54 45.57s-6-9.83-10.42-13.57c-4.11-3.51-9.93-4.11-8-1s4.52 5-1.59 3.41-13.29 1.17-10.8 4 8.13 14-3.88 8.86c-2.92-1.24-27.32-9.17-31.19-11.7s1.46-5.82 4.49-4.59 3.62-1.55 7.33.18 15.88 5.45 18.19 1.65 24.96-35.89 27.3-43.25 4.05-17.93 1-25.69z" transform="translate(0 27.79)"/><path class="cls-13" d="M1279.72 152.43s21.42-29.07 22.23-36.37-2.24-18.42-2.24-18.42M1271 156.88s20.84-29 24-36.53m-57.77 34.03s23.18 11.46 26.4 8.91" transform="translate(0 27.79)"/><path stroke-miterlimit="10" stroke="#000" d="M1364.99 92.47l6.81 5.93-18.39 5.01-6.03-5.54 17.61-5.4z"/><path d="M1248.85 85.46c.84 1.52 2.84-.15 7.76-1.7s4.17-3.41 8.72-3.78c5.05-.42 7.13-2.63 13.13-2.81 7.5-.23 12.92 1 14.73-.8s16.61-20.24 19.4-21.53c0 0 3.2-8.18 4.94-7.37a15.67 15.67 0 004 .56s5-.39 7-2.27 4.06-4.12 5.14-3.34-5.74 8.76-9.49 9.56a12 12 0 00-7.65 4.84c-1.27 1.52-4.36 14.81-10.73 23.43s-5.6 7.12-7.33 7.8A109.05 109.05 0 011277 93.6s4.7 3.78 5.52 6.36 3.32 2 5.06 2.76" transform="translate(0 27.79)" fill="#fff"/><path class="cls-13" d="M1293.84 77.31s4-1.21 4.16 1.07-2.09 4.93-2.09 4.93m-22.43 6.56s8.89.11 12.58-1.89a14.63 14.63 0 005.4-5.11m11.07-6.68s2.71-11 9.81-17.53" transform="translate(0 27.79)"/><path class="cls-13" d="M1323.9 62.16l9.01-.66-9.38 16.58-8.18.4 8.55-16.32z"/></g></g></g></svg>