<svg id="Layer_1" data-name="Layer 1" xmlns="http://www.w3.org/2000/svg" viewBox="0 0 484.05 597.4"><defs><clipPath id="clippath"><path class="cls-3" d="M156.62 229.6s87.96-37.7 136.42-55.65c27.25-10.09 116.68-35.9 116.68-35.9s17.75 37.7 19.75 107.7c1.8 62.83 0 78.98 0 78.98S160.22 471.92 154.83 466.54s-26.93-66.42-23.34-78.98c3.59-12.57 262.07-141.81 262.07-141.81s-224.38 77.19-233.35 71.8c-8.98-5.39-16.16-61.03-3.59-87.96z"/></clipPath><clipPath id="clippath-1"><path class="cls-3" d="M389.92 25.28h129.24v129.24H389.92z"/></clipPath><clipPath id="clippath-2"><path class="cls-3" d="M389.92 154.52h129.24v129.24H389.92z"/></clipPath><clipPath id="clippath-3"><path class="cls-3" d="M389.92 283.76h129.24V413H389.92z"/></clipPath><clipPath id="clippath-4"><path class="cls-3" d="M389.92 413h129.24v129.24H389.92z"/></clipPath><clipPath id="clippath-5"><path class="cls-3" d="M260.68 25.28h129.24v129.24H260.68z"/></clipPath><clipPath id="clippath-6"><path class="cls-3" d="M260.68 154.52h129.24v129.24H260.68z"/></clipPath><clipPath id="clippath-7"><path class="cls-3" d="M260.68 283.76h129.24V413H260.68z"/></clipPath><clipPath id="clippath-8"><path class="cls-3" d="M131.44 154.52h129.24v129.24H131.44z"/></clipPath><clipPath id="clippath-9"><path class="cls-3" d="M131.44 283.76h129.24V413H131.44z"/></clipPath><clipPath id="clippath-10"><path class="cls-3" d="M131.44 413h129.24v129.24H131.44z"/></clipPath><style>.cls-3,.cls-4,.cls-5,.cls-6{stroke-width:0}.cls-3{fill:none}.cls-4{fill:#fff}.cls-5{fill:#191919}.cls-6{fill:#1d1d1b}</style></defs><path class="cls-4" d="M102.31 316.93l-.36-.82c-.39-.89-9.54-22-6.12-30.35.62-1.53 1.63-2.58 2.98-3.13 2.45-1.26 48.44-24.86 58.39-21.14 1.01.38 1.71 1.01 2.05 1.88 3.54 8.84 10.67 23.12 10.74 23.27l.42.85-68.11 29.45zm52.04-54.09c-10.82 0-42.52 15.08-54.75 21.4l-.08.04c-.92.37-1.58 1.07-2.03 2.16-2.78 6.79 4.1 24.14 5.76 28.13l64.71-27.99c-1.6-3.22-7.32-14.9-10.38-22.55-.15-.39-.49-.67-1.01-.87-.59-.22-1.34-.32-2.23-.32zm-46.39 194.53c-1.63 0-2.94-.26-3.87-.84-9.21-5.82-5.92-18.41-5.77-18.94l.08-.31.26-.19c1.74-1.25 42.73-30.66 52.88-28.27 1.07.25 1.83.8 2.29 1.65 12.48 23.41 11.65 24.02 10.85 24.62-.26.19-.57.24-.87.16-6.17 3.29-42.08 22.12-55.84 22.12zm-7.98-19.02c-.42 1.87-2.29 12.01 5.07 16.66 6.79 4.3 44.05-13.93 58.12-21.46-.48-1.56-2.55-6.51-10.93-22.23-.13-.24-.38-.58-1.11-.75-7.73-1.76-39.26 19.26-51.15 27.79zm223.58 66.78c-59.88 0-108.6-102.67-108.6-228.86s48.72-228.86 108.6-228.86 108.6 102.67 108.6 228.86-48.72 228.86-108.6 228.86zm0-455.93c-58.89 0-106.8 101.86-106.8 227.07s47.91 227.07 106.8 227.07 106.8-101.86 106.8-227.07S382.45 49.2 323.56 49.2z"/><path d="M346.39 53.45c-47.56 23.66-82.97 114.03-82.97 221.92s36.35 200.64 84.87 222.81c47.56-23.66 82.97-114.03 82.97-221.92S394.91 75.62 346.39 53.45z" stroke-width="0"/><path class="cls-4" d="M348.29 499.08c-.13 0-.25-.03-.37-.08-23.89-10.92-45.59-39.06-61.09-79.22-15.67-40.61-24.3-91.9-24.3-144.41 0-106.69 34.32-198.27 83.46-222.72.24-.12.52-.13.77-.01 23.89 10.92 45.59 39.05 61.09 79.22 15.67 40.61 24.3 91.9 24.3 144.41 0 106.69-34.32 198.27-83.47 222.72-.13.06-.26.09-.4.09zm-1.88-444.63c-22.88 11.57-43.64 39.5-58.49 78.69-15.21 40.13-23.59 90.64-23.59 142.23 0 106.01 35.28 199.16 83.95 221.82 22.88-11.57 43.64-39.5 58.5-78.69 15.21-40.13 23.59-90.64 23.59-142.23 0-106.02-35.28-199.17-83.95-221.82z"/><g clip-path="url(#clippath)"><path class="cls-4" d="M120.1 119.2h312.18v353.71H120.1z"/><g clip-path="url(#clippath-1)"><path class="cls-6" transform="rotate(-87.75 473.884 155.32)" d="M471.17 155.06h5.38v.54h-5.38z"/><path class="cls-6" d="M445.36 155.31l-2.56-3.69.44-.31 2.56 3.69-.44.31zm-28.76.23l-.45-.3 2.38-3.5.45.3-2.38 3.5z"/><path class="cls-6" transform="rotate(-35.72 394.98 155.704)" d="M394.76 153.15h.54v5.12h-.54z"/><path class="cls-4" d="M390.2 26.18h129.24V162.6H390.2z"/><path class="cls-6" transform="rotate(-35.97 395.637 46.561)" d="M392.56 46.3h6.1v.54h-6.1z"/><path class="cls-6" transform="rotate(-37.84 393.384 147.31)" d="M390.81 147.05h5.12v.54h-5.12z"/><path class="cls-6" d="M437.79 54.34l-2.97-4.6.45-.29 2.97 4.6-.45.29z"/><path class="cls-6" transform="rotate(-55.38 466.646 43.83)" d="M463.75 43.55h5.85v.54h-5.85z"/><path class="cls-6" d="M474.86 60.74l-2.97-4.6.46-.29 2.97 4.6-.46.29z"/><path class="cls-6" transform="rotate(-87.75 473.884 155.32)" d="M471.17 155.06h5.38v.54h-5.38z"/><path class="cls-6" transform="rotate(-55.38 462.15 149.28)" d="M459.26 149h5.85v.54h-5.85z"/><path class="cls-6" d="M445.36 155.31l-2.56-3.69.44-.31 2.56 3.69-.44.31zm32.91-56.44l-.4-.35 4.22-4.78.41.35-4.23 4.78zm-61.67 56.67l-.45-.3 2.38-3.5.45.3-2.38 3.5zm-11.98-2.79l-.53-.12 1.64-7.57.52.12-1.63 7.57z"/><path class="cls-6" transform="rotate(-35.72 394.98 155.704)" d="M394.76 153.15h.54v5.12h-.54z"/><path class="cls-6" transform="rotate(-87.75 436.418 148.509)" d="M433.7 148.25h5.39v.54h-5.39z"/><path class="cls-6" d="M406.94 37.84l-6.28-2.69.22-.5 6.28 2.7-.22.49zM396.1 62.75l-.54-.05.45-5.83.54.04-.45 5.84zm8.46 48.09l-2.7-6.73.51-.2 2.69 6.73-.5.2zm-7.15-16.56l-.46-.28 4.04-6.73.46.27-4.04 6.74zm39.01-56.06l-.4-.36 4.04-4.49.4.37-4.04 4.48z"/><path class="cls-6" transform="rotate(-49.76 450.833 36.012)" d="M450.54 32.2h.54v7.64h-.54z"/><path class="cls-6" d="M483.65 37.37l-5.84-3.59.28-.45 5.84 3.59-.28.45zm-5.02 12.93l-.46-.28 3.59-5.84.46.29-3.59 5.83zM421.14 34h.54v5.39h-.54zm-10.91 10.14l-.08-.53 5.84-.9.08.54-5.84.89zm14.06 12.79l-.9-5.83.53-.08.9 5.83-.53.08z"/><path class="cls-6" transform="rotate(-12.04 428.678 42.283)" d="M425.38 42.04h6.43v.54h-6.43z"/><path class="cls-6" transform="rotate(-35.97 406.847 62.271)" d="M403.77 62.01h6.1v.54h-6.1z"/><path class="cls-6" d="M401.49 140.38l-.54-.04.45-7.18.53.04-.44 7.18zm-.52-14.65l-.4-.36 4.04-4.49.4.36-4.04 4.49zm24.71 17.93l-4.49-6.29.44-.31 4.49 6.28-.44.32zM436.82 80l-.31-.44 4.49-3.15.31.45-4.49 3.14zm-1.1 17.54l-6.73-1.34.1-.53 6.73 1.34-.1.53zm5.15 19.7l-.32-.43 3.59-2.7.32.44-3.59 2.69zm-1.23 18.84l-4.94-4.04.34-.42 4.94 4.04-.34.42zm5.86 7.65l-3.59-2.25.29-.45 3.59 2.24-.29.46zm-10.18-20.25h5.39v.54h-5.39zm19.45-60.54l-.31-.44 4.49-3.14.31.44-4.49 3.14zm3.89 5.8h5.39v.54h-5.39zm-.6 13.96l-4.93-3.14.29-.46 4.93 3.14-.29.46z"/><path class="cls-6" transform="rotate(-73.34 456.172 104.018)" d="M453.85 103.74h4.69v.54h-4.69z"/><path class="cls-6" d="M457.59 119.03l-4.94-4.04.34-.42 4.94 4.04-.34.42zm.93 14.38l-3.59-2.25.28-.45 3.59 2.24-.28.46zm-26.49-27.38l-4.49-3.15.31-.44 4.49 3.14-.31.45zm4.19-44.02h5.39v.54h-5.39zm-17.66 29.21l-4.48-3.15.31-.44 4.48 3.14-.31.45zm-9.27 5.79h5.39v.54h-5.39zm5.98 13.96l-.29-.46 4.94-3.14.29.46-4.94 3.14zm57.45-26.03l-.3-.45 4.28-2.8.3.45-4.28 2.8zm4.57-10.26l-4.28-3.27.33-.43 4.28 3.27-.33.43zm-2.7 68.98l-5.47-.23.02-.54 5.48.23-.03.54zm.46-7.5l-4.28-3.27.32-.43 4.28 3.27-.32.43z"/><path class="cls-6" transform="rotate(-20.16 484.653 128.257)" d="M484.48 125.34h.54v5.85h-.54z"/><path class="cls-6" d="M470.03 106.92l-.31-.44 4.49-3.14.31.44-4.49 3.14zm3.81 10.36l-5.84-1.79.16-.52 5.83 1.8-.15.51zm-45.47-38.24l-5.47-.23.02-.54 5.47.23-.02.54zm.45-7.5l-4.27-3.27.32-.43 4.28 3.27-.33.43zm-13.51 59.88l-.9-5.83.54-.08.89 5.83-.53.08z"/><path class="cls-6" transform="rotate(-12.04 421.496 121.297)" d="M418.2 121.02h6.43v.54h-6.43z"/><path class="cls-6" d="M453.67 49.97l-7.18-1.34.1-.53 7.18 1.35-.1.52zm-5.2 41.99l-.9-6.28.53-.08.9 6.29-.53.07z"/><path class="cls-6" transform="rotate(-49.76 408.65 52.172)" d="M408.35 48.36h.54V56h-.54z"/><path class="cls-6" d="M391.95 81.79l-.31-.44 4.49-3.14.3.44-4.48 3.14zm20.65-10.32l-.33-.44 3.59-2.69.33.43-3.59 2.7z"/><path class="cls-6" transform="rotate(-55.38 463.5 31.717)" d="M460.61 31.43h5.85v.54h-5.85z"/><path class="cls-6" d="M448.67 72.76l-.52-.13 1.27-5.04.52.14-1.27 5.03zm-24.23 58.34l-.52-.13 1.27-5.04.52.13-1.27 5.04zm16.88-25.98l-.33-.43 3.59-2.69.33.43-3.59 2.69zm-54.01-36.83h5.39v.54h-5.39zm.16 31.45l-.33-.43 3.59-2.7.33.43-3.59 2.7z"/><path class="cls-6" transform="rotate(-87.75 473.882 26.067)" d="M471.17 25.82h5.38v.54h-5.38z"/><path class="cls-6" d="M445.36 26.06l-2.56-3.68.44-.31 2.56 3.69-.44.3zm-28.76.24l-.45-.3 2.38-3.5.45.3-2.38 3.5z"/><path class="cls-6" transform="rotate(-35.72 394.982 26.47)" d="M394.76 23.91h.54v5.12h-.54z"/><path class="cls-6" d="M397.13 119.08l-6.74-1.34.11-.53 6.73 1.34-.1.53zm33.92-28.89l-.53-.13 1.23-5 .52.13-1.22 5zm33.6 4.61l-.32-.43 3.59-2.69.32.43-3.59 2.69z"/><path class="cls-4" d="M260.96 26.18H390.2V162.6H260.96z"/><path class="cls-6" d="M384.23 39.65l-.13-.52 5.84-1.35.12.53-5.83 1.34zm3.08 28.64h5.39v.54h-5.39zm.16 31.45l-.33-.43 3.59-2.7.33.43-3.59 2.7zm2.48 38.64l-7.63-1.35.1-.53 7.63 1.35-.1.53z"/><path class="cls-4" d="M390.2-103.06h129.24V33.36H390.2z"/><path class="cls-6" transform="rotate(-87.75 473.882 26.067)" d="M471.17 25.82h5.38v.54h-5.38z"/><path class="cls-6" d="M445.36 26.06l-2.56-3.68.44-.31 2.56 3.69-.44.3zm-28.76.24l-.45-.3 2.38-3.5.45.3-2.38 3.5z"/><path class="cls-6" transform="rotate(-35.72 394.982 26.47)" d="M394.76 23.91h.54v5.12h-.54z"/><path class="cls-4" d="M260.96-103.06H390.2V33.36H260.96z"/></g><g clip-path="url(#clippath-2)"><path class="cls-6" transform="rotate(-87.75 473.886 284.56)" d="M471.17 284.3h5.38v.54h-5.38z"/><path class="cls-6" d="M445.36 284.55l-2.56-3.69.44-.31 2.56 3.69-.44.31zm-28.76.23l-.45-.3 2.38-3.5.45.3-2.38 3.5z"/><path class="cls-6" transform="rotate(-35.72 394.982 284.921)" d="M394.76 282.39h.54v5.12h-.54z"/><path class="cls-4" d="M390.2 155.42h129.24v136.42H390.2z"/><path class="cls-6" transform="rotate(-35.97 395.628 175.814)" d="M392.56 175.54h6.1v.54h-6.1z"/><path class="cls-6" transform="rotate(-37.84 393.387 276.561)" d="M390.81 276.29h5.12v.54h-5.12z"/><path class="cls-6" d="M437.79 183.58l-2.97-4.6.45-.29 2.97 4.6-.45.29z"/><path class="cls-6" transform="rotate(-55.38 466.635 173.057)" d="M463.75 172.79h5.85v.54h-5.85z"/><path class="cls-6" d="M474.86 189.98l-2.97-4.6.46-.29 2.97 4.6-.46.29z"/><path class="cls-6" transform="rotate(-87.75 473.886 284.56)" d="M471.17 284.3h5.38v.54h-5.38z"/><path class="cls-6" transform="rotate(-55.38 462.148 278.511)" d="M459.26 278.24h5.85v.54h-5.85z"/><path class="cls-6" d="M445.36 284.55l-2.56-3.69.44-.31 2.56 3.69-.44.31zm32.91-56.44l-.4-.35 4.22-4.78.41.35-4.23 4.78zm-61.67 56.67l-.45-.3 2.38-3.5.45.3-2.38 3.5zm-11.98-2.79l-.53-.12 1.64-7.57.52.12-1.63 7.57z"/><path class="cls-6" transform="rotate(-35.72 394.982 284.921)" d="M394.76 282.39h.54v5.12h-.54z"/><path class="cls-6" transform="rotate(-87.75 436.42 277.75)" d="M433.7 277.49h5.39v.54h-5.39z"/><path class="cls-6" d="M406.94 167.08l-6.28-2.69.22-.5 6.28 2.7-.22.49zm-10.84 24.91l-.54-.05.45-5.83.54.04-.45 5.84zm8.46 48.09l-2.7-6.73.51-.2 2.69 6.73-.5.2zm-7.15-16.56l-.46-.28 4.04-6.73.46.27-4.04 6.74zm39.01-56.06l-.4-.36 4.04-4.48.4.36-4.04 4.48z"/><path class="cls-6" transform="rotate(-49.76 450.84 165.261)" d="M450.54 161.44h.54v7.64h-.54z"/><path class="cls-6" d="M483.65 166.62l-5.84-3.59.28-.46 5.84 3.59-.28.46zm-5.02 12.92l-.46-.28 3.59-5.83.46.28-3.59 5.83zm-57.49-16.3h.54v5.39h-.54zm-10.91 10.14l-.08-.53 5.84-.9.08.54-5.84.89zm14.06 12.79l-.9-5.83.53-.08.9 5.83-.53.08z"/><path class="cls-6" transform="rotate(-12.04 428.706 171.58)" d="M425.38 171.28h6.43v.54h-6.43z"/><path class="cls-6" transform="rotate(-35.97 406.858 191.514)" d="M403.77 191.25h6.1v.54h-6.1z"/><path class="cls-6" d="M401.49 269.62l-.54-.04.45-7.18.53.04-.44 7.18zm-.52-14.65l-.4-.36 4.04-4.49.4.36-4.04 4.49zm24.71 17.93l-4.49-6.29.44-.31 4.49 6.28-.44.32zm11.14-63.66l-.31-.44 4.49-3.15.31.45-4.49 3.14zm-1.1 17.54l-6.73-1.34.1-.53 6.73 1.34-.1.53zm5.15 19.7l-.32-.43 3.59-2.69.32.43-3.59 2.69zm-1.23 18.84l-4.94-4.04.34-.42 4.94 4.04-.34.42zm5.86 7.65l-3.59-2.25.29-.45 3.59 2.24-.29.46zm-10.18-20.25h5.39v.54h-5.39zm19.45-60.53l-.31-.45 4.49-3.14.31.44-4.49 3.15zm3.89 5.79h5.39v.54h-5.39zm-.6 13.96l-4.93-3.14.29-.46 4.93 3.14-.29.46z"/><path class="cls-6" transform="rotate(-73.34 456.164 233.257)" d="M453.85 232.98h4.69v.54h-4.69z"/><path class="cls-6" d="M457.59 248.27l-4.94-4.04.34-.42 4.94 4.04-.34.42zm.93 14.38l-3.59-2.25.28-.45 3.59 2.24-.28.46zm-26.49-27.38l-4.49-3.15.31-.44 4.49 3.14-.31.45zm4.19-44.02h5.39v.54h-5.39zm-17.66 29.21l-4.48-3.14.31-.45 4.48 3.14-.31.45zm-9.27 5.79h5.39v.54h-5.39zm5.98 13.96l-.29-.46 4.94-3.14.29.46-4.94 3.14zm57.45-26.03l-.3-.45 4.28-2.8.3.45-4.28 2.8zm4.57-10.26l-4.28-3.27.33-.43 4.28 3.27-.33.43zm-2.7 68.98l-5.47-.23.02-.53 5.48.22-.03.54zm.46-7.5l-4.28-3.27.32-.43 4.28 3.27-.32.43z"/><path class="cls-6" transform="rotate(-20.16 484.636 257.46)" d="M484.48 254.58h.54v5.85h-.54z"/><path class="cls-6" d="M470.03 236.16l-.31-.44 4.49-3.14.31.44-4.49 3.14zm3.81 10.36l-5.84-1.79.16-.52 5.83 1.8-.15.51zm-45.47-38.24l-5.47-.23.02-.54 5.47.23-.02.54zm.45-7.5l-4.27-3.27.32-.43 4.28 3.27-.33.43zm-13.51 59.88l-.9-5.83.54-.08.89 5.83-.53.08z"/><path class="cls-6" transform="rotate(-12.04 421.523 250.594)" d="M418.2 250.26h6.43v.54h-6.43z"/><path class="cls-6" d="M453.67 179.22l-7.18-1.35.1-.53 7.18 1.35-.1.53zm-5.2 41.98l-.9-6.28.53-.08.9 6.29-.53.07z"/><path class="cls-6" transform="rotate(-49.76 408.655 181.422)" d="M408.35 177.6h.54v7.64h-.54z"/><path class="cls-6" d="M391.95 211.03l-.31-.44 4.49-3.14.3.44-4.48 3.14zm20.65-10.32l-.33-.43 3.59-2.7.33.43-3.59 2.7z"/><path class="cls-6" transform="rotate(-55.38 463.5 160.949)" d="M460.61 160.67h5.85v.54h-5.85z"/><path class="cls-6" d="M448.67 202.01l-.52-.14 1.27-5.04.52.14-1.27 5.04zm-24.23 58.33l-.52-.13 1.27-5.04.52.14-1.27 5.03zm16.88-25.98l-.33-.43 3.59-2.69.33.43-3.59 2.69zm-54.01-36.83h5.39v.54h-5.39zm.16 31.45l-.33-.43 3.59-2.7.33.44-3.59 2.69z"/><path class="cls-6" transform="rotate(-87.75 473.884 155.32)" d="M471.17 155.06h5.38v.54h-5.38z"/><path class="cls-6" d="M445.36 155.31l-2.56-3.69.44-.31 2.56 3.69-.44.31zm-28.76.23l-.45-.3 2.38-3.5.45.3-2.38 3.5z"/><path class="cls-6" transform="rotate(-35.72 394.98 155.704)" d="M394.76 153.15h.54v5.12h-.54z"/><path class="cls-6" d="M397.13 248.32l-6.74-1.34.11-.53 6.73 1.34-.1.53zm33.92-28.89l-.53-.12 1.23-5.01.52.13-1.22 5zm33.6 4.61l-.32-.43 3.59-2.69.32.43-3.59 2.69z"/><path class="cls-4" d="M260.96 155.42H390.2v136.42H260.96z"/><path class="cls-6" d="M384.23 168.89l-.13-.52 5.84-1.35.12.53-5.83 1.34zm3.08 28.64h5.39v.54h-5.39zm.16 31.45l-.33-.43 3.59-2.7.33.44-3.59 2.69zm2.48 38.64l-7.63-1.35.1-.53 7.63 1.35-.1.53z"/><path class="cls-4" d="M390.2 26.18h129.24V162.6H390.2z"/><path class="cls-6" transform="rotate(-87.75 473.884 155.32)" d="M471.17 155.06h5.38v.54h-5.38z"/><path class="cls-6" d="M445.36 155.31l-2.56-3.69.44-.31 2.56 3.69-.44.31zm-28.76.23l-.45-.3 2.38-3.5.45.3-2.38 3.5z"/><path class="cls-6" transform="rotate(-35.72 394.98 155.704)" d="M394.76 153.15h.54v5.12h-.54z"/><path class="cls-4" d="M260.96 26.18H390.2V162.6H260.96z"/></g><g clip-path="url(#clippath-3)"><path class="cls-6" transform="rotate(-87.75 473.894 413.808)" d="M471.17 413.54h5.38v.54h-5.38z"/><path class="cls-6" d="M445.36 413.79l-2.56-3.69.44-.31 2.56 3.69-.44.31zm-28.76.23l-.45-.3 2.38-3.5.45.3-2.38 3.5z"/><path class="cls-6" transform="rotate(-35.72 394.965 414.15)" d="M394.76 411.63h.54v5.12h-.54z"/><path class="cls-4" d="M390.2 284.66h129.24v136.42H390.2z"/><path class="cls-6" transform="rotate(-35.97 395.64 305.057)" d="M392.56 304.78h6.1v.54h-6.1z"/><path class="cls-6" transform="rotate(-37.84 393.39 405.813)" d="M390.81 405.53h5.12v.54h-5.12z"/><path class="cls-6" d="M437.79 312.82l-2.97-4.6.45-.29 2.97 4.6-.45.29z"/><path class="cls-6" transform="rotate(-55.38 466.634 302.289)" d="M463.75 302.03h5.85v.54h-5.85z"/><path class="cls-6" d="M474.86 319.22l-2.97-4.6.46-.29 2.97 4.6-.46.29z"/><path class="cls-6" transform="rotate(-87.75 473.894 413.808)" d="M471.17 413.54h5.38v.54h-5.38z"/><path class="cls-6" transform="rotate(-55.38 462.147 407.743)" d="M459.26 407.48h5.85v.54h-5.85z"/><path class="cls-6" d="M445.36 413.79l-2.56-3.69.44-.31 2.56 3.69-.44.31zm32.91-56.44l-.4-.35 4.22-4.78.41.35-4.23 4.78zm-61.67 56.67l-.45-.3 2.38-3.5.45.3-2.38 3.5zm-11.98-2.79l-.53-.12 1.64-7.57.52.12-1.63 7.57z"/><path class="cls-6" transform="rotate(-35.72 394.965 414.15)" d="M394.76 411.63h.54v5.12h-.54z"/><path class="cls-6" transform="rotate(-87.75 436.428 406.997)" d="M433.7 406.73h5.39v.54h-5.39z"/><path class="cls-6" d="M406.94 296.32l-6.28-2.69.22-.49 6.28 2.69-.22.49zm-10.84 24.91l-.54-.05.45-5.83.54.04-.45 5.84zm8.46 48.09l-2.7-6.73.51-.2 2.69 6.73-.5.2zm-7.15-16.56l-.46-.28 4.04-6.73.46.27-4.04 6.74zm39.01-56.06l-.4-.36 4.04-4.48.4.36-4.04 4.48z"/><path class="cls-6" transform="rotate(-49.76 450.845 294.51)" d="M450.54 290.68h.54v7.64h-.54z"/><path class="cls-6" d="M483.65 295.86l-5.84-3.59.28-.46 5.84 3.59-.28.46zm-5.02 12.92l-.46-.28 3.59-5.83.46.28-3.59 5.83zm-57.49-16.3h.54v5.39h-.54zm-10.91 10.14l-.08-.53 5.84-.9.08.54-5.84.89zm14.06 12.79l-.9-5.83.53-.08.9 5.83-.53.08z"/><path class="cls-6" transform="rotate(-12.04 428.69 300.824)" d="M425.38 300.52h6.43v.54h-6.43z"/><path class="cls-6" transform="rotate(-35.97 406.865 320.772)" d="M403.77 320.49h6.1v.54h-6.1z"/><path class="cls-6" d="M401.49 398.86l-.54-.04.45-7.18.53.04-.44 7.18zm-.52-14.65l-.4-.36 4.04-4.49.4.36-4.04 4.49zm24.71 17.93l-4.49-6.29.44-.31 4.49 6.28-.44.32zm11.14-63.66l-.31-.44 4.49-3.14.31.44-4.49 3.14zm-1.1 17.54l-6.73-1.34.1-.53 6.73 1.34-.1.53zm5.15 19.7l-.32-.43 3.59-2.69.32.43-3.59 2.69zm-1.23 18.84l-4.94-4.04.34-.42 4.94 4.04-.34.42zm5.86 7.65l-3.59-2.25.29-.45 3.59 2.24-.29.46zm-10.18-20.24h5.39v.54h-5.39zm19.45-60.54l-.31-.45 4.49-3.14.31.44-4.49 3.15zm3.89 5.79h5.39v.54h-5.39zm-.6 13.96l-4.93-3.14.29-.46 4.93 3.14-.29.46z"/><path class="cls-6" transform="rotate(-73.34 456.161 362.49)" d="M453.85 362.22h4.69v.54h-4.69z"/><path class="cls-6" d="M457.59 377.51l-4.94-4.04.34-.42 4.94 4.04-.34.42zm.93 14.38l-3.59-2.25.28-.45 3.59 2.24-.28.46zm-26.49-27.38l-4.49-3.15.31-.44 4.49 3.14-.31.45zm4.19-44.02h5.39v.54h-5.39zm-17.66 29.21l-4.48-3.14.31-.45 4.48 3.15-.31.44zm-9.27 5.79h5.39v.54h-5.39zm5.98 13.96l-.29-.46 4.94-3.14.29.46-4.94 3.14zm57.45-26.03l-.3-.45 4.28-2.8.3.45-4.28 2.8zm4.57-10.26l-4.28-3.27.33-.43 4.28 3.27-.33.43zm-2.7 68.98l-5.47-.23.02-.53 5.48.22-.03.54zm.46-7.5l-4.28-3.27.32-.43 4.28 3.27-.32.43z"/><path class="cls-6" transform="rotate(-20.16 484.642 386.696)" d="M484.48 383.82h.54v5.85h-.54z"/><path class="cls-6" d="M470.03 365.4l-.31-.44 4.49-3.14.31.44-4.49 3.14zm3.81 10.36l-5.84-1.79.16-.52 5.83 1.8-.15.51zm-45.47-38.24l-5.47-.23.02-.53 5.47.22-.02.54zm.45-7.5l-4.27-3.27.32-.43 4.28 3.27-.33.43zm-13.51 59.88l-.9-5.83.54-.08.89 5.83-.53.08z"/><path class="cls-6" transform="rotate(-12.04 421.509 379.839)" d="M418.2 379.5h6.43v.54h-6.43z"/><path class="cls-6" d="M453.67 308.46l-7.18-1.35.1-.53 7.18 1.35-.1.53zm-5.2 41.98l-.9-6.28.53-.08.9 6.29-.53.07z"/><path class="cls-6" transform="rotate(-49.76 408.66 310.672)" d="M408.35 306.84h.54v7.64h-.54z"/><path class="cls-6" d="M391.95 340.27l-.31-.44 4.49-3.14.3.44-4.48 3.14zm20.65-10.32l-.33-.43 3.59-2.7.33.43-3.59 2.7z"/><path class="cls-6" transform="rotate(-55.38 463.488 290.175)" d="M460.61 289.91h5.85v.54h-5.85z"/><path class="cls-6" d="M448.67 331.25l-.52-.14 1.27-5.04.52.14-1.27 5.04zm-24.23 58.33l-.52-.13 1.27-5.04.52.14-1.27 5.03zm16.88-25.98l-.33-.43 3.59-2.69.33.43-3.59 2.69zm-54.01-36.83h5.39v.54h-5.39zm.16 31.45l-.33-.43 3.59-2.7.33.44-3.59 2.69z"/><path class="cls-6" transform="rotate(-87.75 473.886 284.56)" d="M471.17 284.3h5.38v.54h-5.38z"/><path class="cls-6" d="M445.36 284.55l-2.56-3.69.44-.31 2.56 3.69-.44.31zm-28.76.23l-.45-.3 2.38-3.5.45.3-2.38 3.5z"/><path class="cls-6" transform="rotate(-35.72 394.982 284.921)" d="M394.76 282.39h.54v5.12h-.54z"/><path class="cls-6" d="M397.13 377.56l-6.74-1.34.11-.53 6.73 1.34-.1.53zm33.92-28.88l-.53-.13 1.23-5.01.52.13-1.22 5.01zm33.6 4.6l-.32-.43 3.59-2.69.32.43-3.59 2.69z"/><path class="cls-4" d="M260.96 284.66H390.2v136.42H260.96z"/><path class="cls-6" d="M384.23 298.13l-.13-.52 5.84-1.35.12.53-5.83 1.34zm3.08 28.64h5.39v.54h-5.39zm.16 31.45l-.33-.43 3.59-2.7.33.44-3.59 2.69zm2.48 38.64l-7.63-1.35.1-.53 7.63 1.35-.1.53z"/><path class="cls-4" d="M390.2 155.42h129.24v136.42H390.2z"/><path class="cls-6" transform="rotate(-87.75 473.886 284.56)" d="M471.17 284.3h5.38v.54h-5.38z"/><path class="cls-6" d="M445.36 284.55l-2.56-3.69.44-.31 2.56 3.69-.44.31zm-28.76.23l-.45-.3 2.38-3.5.45.3-2.38 3.5z"/><path class="cls-6" transform="rotate(-35.72 394.982 284.921)" d="M394.76 282.39h.54v5.12h-.54z"/><path class="cls-4" d="M260.96 155.42H390.2v136.42H260.96z"/></g><g clip-path="url(#clippath-4)"><path class="cls-6" transform="rotate(-87.75 473.901 543.054)" d="M471.17 542.78h5.38v.54h-5.38z"/><path class="cls-6" d="M445.36 543.03l-2.56-3.69.44-.31 2.56 3.69-.44.31zm-28.76.23l-.45-.3 2.38-3.5.45.3-2.38 3.5z"/><path class="cls-6" transform="rotate(-35.72 394.962 543.383)" d="M394.76 540.87h.54v5.12h-.54z"/><path class="cls-4" d="M390.2 413.9h129.24v136.42H390.2z"/><path class="cls-6" transform="rotate(-35.97 395.645 434.315)" d="M392.56 434.02h6.1v.54h-6.1z"/><path class="cls-6" transform="rotate(-37.84 393.393 535.065)" d="M390.81 534.77h5.12v.54h-5.12z"/><path class="cls-6" d="M437.79 442.06l-2.97-4.6.45-.29 2.97 4.6-.45.29z"/><path class="cls-6" transform="rotate(-55.38 466.633 431.52)" d="M463.75 431.27h5.85v.54h-5.85z"/><path class="cls-6" d="M474.86 448.46l-2.97-4.6.46-.29 2.97 4.6-.46.29z"/><path class="cls-6" transform="rotate(-87.75 473.901 543.054)" d="M471.17 542.78h5.38v.54h-5.38z"/><path class="cls-6" transform="rotate(-55.38 462.136 536.97)" d="M459.26 536.72h5.85v.54h-5.85z"/><path class="cls-6" d="M445.36 543.03l-2.56-3.69.44-.31 2.56 3.69-.44.31zm32.91-56.44l-.4-.35 4.22-4.78.41.35-4.23 4.78zm-61.67 56.67l-.45-.3 2.38-3.5.45.3-2.38 3.5zm-11.98-2.79l-.53-.11 1.64-7.58.52.12-1.63 7.57z"/><path class="cls-6" transform="rotate(-35.72 394.962 543.383)" d="M394.76 540.87h.54v5.12h-.54z"/><path class="cls-6" transform="rotate(-87.75 436.435 536.244)" d="M433.7 535.97h5.39v.54h-5.39z"/><path class="cls-6" d="M406.94 425.56l-6.28-2.69.22-.49 6.28 2.69-.22.49zm-10.84 24.91l-.54-.05.45-5.83.54.04-.45 5.84zm8.46 48.09l-2.7-6.73.51-.2 2.69 6.73-.5.2zM397.41 482l-.46-.28 4.04-6.73.46.28-4.04 6.73zm39.01-56.06l-.4-.36 4.04-4.48.4.36-4.04 4.48z"/><path class="cls-6" transform="rotate(-49.76 450.851 423.76)" d="M450.54 419.92h.54v7.64h-.54z"/><path class="cls-6" d="M483.65 425.1l-5.84-3.59.28-.46 5.84 3.59-.28.46zm-5.02 12.92l-.46-.28 3.59-5.83.46.28-3.59 5.83zm-57.49-16.29h.54v5.39h-.54zm-10.91 10.13l-.08-.53 5.84-.9.08.54-5.84.89zm14.06 12.79l-.9-5.83.53-.08.9 5.83-.53.08z"/><path class="cls-6" transform="rotate(-12.04 428.67 430.116)" d="M425.38 429.76h6.43v.54h-6.43z"/><path class="cls-6" transform="rotate(-35.97 406.86 450.01)" d="M403.77 449.73h6.1v.54h-6.1z"/><path class="cls-6" d="M401.49 528.1l-.54-.04.45-7.18.53.04-.44 7.18zm-.52-14.65l-.4-.36 4.04-4.49.4.36-4.04 4.49zm24.71 17.93l-4.49-6.29.44-.31 4.49 6.28-.44.32zm11.14-63.66l-.31-.44 4.49-3.14.31.44-4.49 3.14zm-1.1 17.54l-6.73-1.34.1-.53 6.73 1.34-.1.53zm5.15 19.7l-.32-.43 3.59-2.69.32.43-3.59 2.69zm-1.23 18.84l-4.94-4.04.34-.42 4.94 4.04-.34.42zm5.86 7.65l-3.59-2.25.29-.45 3.59 2.24-.29.46zm-10.18-20.24h5.39v.54h-5.39zm19.45-60.54l-.31-.45 4.49-3.14.31.45-4.49 3.14zm3.89 5.79h5.39v.54h-5.39zm-.6 13.96l-4.93-3.14.29-.46 4.93 3.14-.29.46z"/><path class="cls-6" transform="rotate(-73.34 456.158 491.723)" d="M453.85 491.46h4.69v.54h-4.69z"/><path class="cls-6" d="M457.59 506.75l-4.94-4.04.34-.42 4.94 4.04-.34.42zm.93 14.38l-3.59-2.25.28-.45 3.59 2.24-.28.46zm-26.49-27.38l-4.49-3.14.31-.45 4.49 3.14-.31.45zm4.19-44.02h5.39v.54h-5.39zm-17.66 29.21l-4.48-3.14.31-.45 4.48 3.15-.31.44zm-9.27 5.79h5.39v.54h-5.39zm5.98 13.96l-.29-.46 4.94-3.14.29.46-4.94 3.14zm57.45-26.03l-.3-.45 4.28-2.8.3.45-4.28 2.8zm4.57-10.26l-4.28-3.27.33-.42 4.28 3.26-.33.43zm-2.7 68.98l-5.47-.23.02-.53 5.48.22-.03.54zm.46-7.5l-4.28-3.27.32-.43 4.28 3.27-.32.43z"/><path class="cls-6" transform="rotate(-20.16 484.626 515.9)" d="M484.48 513.06h.54v5.85h-.54z"/><path class="cls-6" d="M470.03 494.64l-.31-.44 4.49-3.14.31.44-4.49 3.14zm3.81 10.36l-5.84-1.79.16-.52 5.83 1.8-.15.51zm-45.47-38.24l-5.47-.23.02-.53 5.47.22-.02.54zm.45-7.5l-4.27-3.27.32-.43 4.28 3.27-.33.43zm-13.51 59.88l-.9-5.83.54-.08.89 5.83-.53.08z"/><path class="cls-6" transform="rotate(-12.04 421.494 509.083)" d="M418.2 508.74h6.43v.54h-6.43z"/><path class="cls-6" d="M453.67 437.7l-7.18-1.35.1-.53 7.18 1.35-.1.53zm-5.2 41.98l-.9-6.28.53-.08.9 6.29-.53.07z"/><path class="cls-6" transform="rotate(-49.76 408.667 439.921)" d="M408.35 436.08h.54v7.64h-.54z"/><path class="cls-6" d="M391.95 469.51l-.31-.44 4.49-3.14.3.44-4.48 3.14zm20.65-10.32l-.33-.43 3.59-2.7.33.43-3.59 2.7z"/><path class="cls-6" transform="rotate(-55.38 463.487 419.407)" d="M460.61 419.15h5.85v.54h-5.85z"/><path class="cls-6" d="M448.67 460.49l-.52-.14 1.27-5.03.52.13-1.27 5.04zm-24.23 58.33l-.52-.13 1.27-5.04.52.14-1.27 5.03zm16.88-25.98l-.33-.43 3.59-2.69.33.43-3.59 2.69zm-54.01-36.83h5.39v.54h-5.39zm.16 31.45l-.33-.43 3.59-2.69.33.43-3.59 2.69z"/><path class="cls-6" transform="rotate(-87.75 473.894 413.808)" d="M471.17 413.54h5.38v.54h-5.38z"/><path class="cls-6" d="M445.36 413.79l-2.56-3.69.44-.31 2.56 3.69-.44.31zm-28.76.23l-.45-.3 2.38-3.5.45.3-2.38 3.5z"/><path class="cls-6" transform="rotate(-35.72 394.965 414.15)" d="M394.76 411.63h.54v5.12h-.54z"/><path class="cls-6" d="M397.13 506.8l-6.74-1.34.11-.53 6.73 1.34-.1.53zm33.92-28.88l-.53-.13 1.23-5.01.52.13-1.22 5.01zm33.6 4.6l-.32-.43 3.59-2.69.32.43-3.59 2.69z"/><path class="cls-4" d="M260.96 413.9H390.2v136.42H260.96z"/><path class="cls-6" d="M384.23 427.37l-.13-.52 5.84-1.35.12.53-5.83 1.34zm3.08 28.64h5.39v.54h-5.39zm.16 31.45l-.33-.43 3.59-2.69.33.43-3.59 2.69zm2.48 38.64l-7.63-1.35.1-.53 7.63 1.35-.1.53z"/><path class="cls-4" d="M390.2 284.66h129.24v136.42H390.2z"/><path class="cls-6" transform="rotate(-87.75 473.894 413.808)" d="M471.17 413.54h5.38v.54h-5.38z"/><path class="cls-6" d="M445.36 413.79l-2.56-3.69.44-.31 2.56 3.69-.44.31zm-28.76.23l-.45-.3 2.38-3.5.45.3-2.38 3.5z"/><path class="cls-6" transform="rotate(-35.72 394.965 414.15)" d="M394.76 411.63h.54v5.12h-.54z"/><path class="cls-4" d="M260.96 284.66H390.2v136.42H260.96z"/></g><g clip-path="url(#clippath-5)"><path class="cls-6" transform="rotate(-69.44 381.538 153.579)" d="M378.67 153.32h5.68v.54h-5.68z"/><path class="cls-6" transform="rotate(-10.83 371.35 153.565)" d="M370.99 150.55h.54v5.99h-.54z"/><path class="cls-6" transform="rotate(-87.75 344.642 155.321)" d="M341.93 155.06h5.38v.54h-5.38z"/><path class="cls-6" d="M316.12 155.31l-2.56-3.69.44-.31 2.56 3.69-.44.31zm-28.76.23l-.45-.3 2.38-3.5.45.3-2.38 3.5z"/><path class="cls-6" transform="rotate(-35.72 265.747 155.701)" d="M265.52 153.15h.54v5.12h-.54z"/><path class="cls-6" d="M358.31 158.49l-.45-.3 3.59-5.38.45.29-3.59 5.39zm29-90.2h5.39v.54h-5.39zm.16 31.45l-.33-.43 3.59-2.7.33.43-3.59 2.7z"/><path class="cls-4" d="M260.96 26.18H390.2V162.6H260.96z"/><path class="cls-6" transform="rotate(-35.97 266.379 46.567)" d="M263.32 46.3h6.1v.54h-6.1z"/><path class="cls-6" transform="rotate(-37.84 264.147 147.317)" d="M261.57 147.05h5.12v.54h-5.12z"/><path class="cls-6" d="M384.23 39.65l-.13-.52 5.84-1.35.12.53-5.83 1.34zm-.81 22.85l-.31-.45 4.49-3.14.31.44-4.49 3.15zm3.89 5.79h5.39v.54h-5.39zm-.6 13.96l-4.93-3.14.28-.46 4.94 3.14-.29.46zm.76 17.49l-.33-.43 3.59-2.7.33.43-3.59 2.7zm-1.23 18.84l-4.94-4.04.34-.42 4.94 4.04-.34.42zm3.71 19.8l-7.63-1.35.1-.53 7.63 1.35-.1.53z"/><path class="cls-6" transform="rotate(-37.84 370.502 136.548)" d="M367.92 136.28h5.12v.54h-5.12z"/><path class="cls-6" d="M381.92 105.98h5.39v.54h-5.39zM362.4 57.04l-3.4-5.07.45-.3 3.4 5.07-.45.3zm-53.85-2.7l-2.97-4.6.45-.29 2.97 4.6-.45.29z"/><path class="cls-6" transform="rotate(-55.38 337.415 43.83)" d="M334.51 43.55h5.85v.54h-5.85z"/><path class="cls-6" transform="rotate(-69.44 381.538 153.579)" d="M378.67 153.32h5.68v.54h-5.68z"/><path class="cls-6" transform="rotate(-10.83 371.35 153.565)" d="M370.99 150.55h.54v5.99h-.54z"/><path class="cls-6" d="M360.6 111.79l-3.39-5.07.45-.3 3.39 5.07-.45.3zm-14.98-51.05l-2.97-4.6.46-.29 2.96 4.6-.45.29z"/><path class="cls-6" transform="rotate(-87.75 344.642 155.321)" d="M341.93 155.06h5.38v.54h-5.38z"/><path class="cls-6" transform="rotate(-55.38 332.923 149.27)" d="M330.02 149h5.85v.54h-5.85z"/><path class="cls-6" d="M316.12 155.31l-2.56-3.69.44-.31 2.56 3.69-.44.31zm32.91-56.44l-.4-.35 4.22-4.78.4.35-4.22 4.78zm-61.67 56.67l-.45-.3 2.38-3.5.45.3-2.38 3.5zm-11.98-2.79l-.53-.12 1.63-7.57.53.12-1.63 7.57z"/><path class="cls-6" transform="rotate(-35.72 265.747 155.701)" d="M265.52 153.15h.54v5.12h-.54z"/><path class="cls-6" transform="rotate(-87.75 307.176 148.511)" d="M304.46 148.25h5.39v.54h-5.39z"/><path class="cls-6" d="M277.7 37.84l-6.28-2.69.21-.5 6.29 2.7-.22.49zm-10.84 24.91l-.54-.05.45-5.83.54.04-.45 5.84zm8.46 48.09l-2.7-6.73.5-.2 2.7 6.73-.5.2zm-7.15-16.56l-.46-.28 4.04-6.73.46.27-4.04 6.74zm39.01-56.06l-.4-.36 4.04-4.49.4.37-4.04 4.48z"/><path class="cls-6" transform="rotate(-49.76 321.584 36.017)" d="M321.29 32.2h.54v7.64h-.54z"/><path class="cls-6" d="M354.41 37.37l-5.84-3.59.28-.45 5.84 3.59-.28.45zm-5.02 12.93l-.46-.28 3.59-5.84.46.29-3.59 5.83z"/><path class="cls-6" transform="rotate(-24.23 369.761 40.068)" d="M364.88 39.79h9.84v.54h-9.84z"/><path class="cls-6" d="M374.45 51.73l-.31-.45 4.49-3.14.3.44-4.48 3.15zM291.9 34h.54v5.39h-.54zm-10.91 10.14l-.08-.53 5.83-.9.09.54-5.84.89zm14.06 12.79l-.9-5.83.53-.08.9 5.83-.53.08z"/><path class="cls-6" transform="rotate(-12.04 299.429 42.315)" d="M296.14 42.04h6.43v.54h-6.43z"/><path class="cls-6" transform="rotate(-35.97 277.61 62.267)" d="M274.53 62.01h6.1v.54h-6.1z"/><path class="cls-6" d="M272.24 140.38l-.53-.04.45-7.18.53.04-.45 7.18zm-.51-14.65l-.4-.36 4.04-4.49.4.36-4.04 4.49zm24.71 17.93l-4.49-6.29.44-.31 4.49 6.28-.44.32zM307.58 80l-.31-.44 4.49-3.15.31.45-4.49 3.14zm54.47 6.3l-4.94-2.7.26-.47 4.94 2.69-.26.48zm-55.57 11.24l-6.73-1.34.1-.53 6.73 1.34-.1.53zm5.15 19.7l-.32-.43 3.59-2.7.32.44-3.59 2.69zm-1.23 18.84l-4.94-4.04.34-.42 4.94 4.04-.34.42zm5.86 7.65l-3.59-2.25.28-.45 3.59 2.24-.28.46zm-10.18-20.25h5.39v.54h-5.39zm19.45-60.54l-.31-.44 4.49-3.14.31.44-4.49 3.14zm3.89 5.8h5.39v.54h-5.39zm-.6 13.96l-4.93-3.14.29-.46 4.93 3.14-.29.46z"/><path class="cls-6" transform="rotate(-73.34 326.928 104.017)" d="M324.61 103.74h4.69v.54h-4.69z"/><path class="cls-6" d="M328.35 119.03l-4.94-4.04.34-.42 4.94 4.04-.34.42zm.92 14.38l-3.59-2.25.29-.45 3.59 2.24-.29.46zm36.9-28.29h5.39v.54h-5.39zm-63.38.91l-4.49-3.15.31-.44 4.48 3.14-.3.45zm4.19-44.02h5.39v.54h-5.39zm-17.66 29.21l-4.48-3.15.3-.44 4.49 3.14-.31.45zm-9.27 5.79h5.39v.54h-5.39zm5.98 13.96l-.29-.46 4.94-3.14.29.46-4.94 3.14zm57.45-26.03l-.3-.45 4.28-2.8.3.45-4.28 2.8zm4.57-10.26l-4.28-3.27.33-.43 4.27 3.27-.32.43zm8.56-5.21l-.54-.03.4-5.42.54.04-.4 5.41zm-11.26 74.19l-5.47-.23.02-.54 5.48.23-.03.54zm.45-7.5l-4.27-3.27.32-.43 4.28 3.27-.33.43z"/><path class="cls-6" transform="rotate(-20.16 355.445 128.268)" d="M355.24 125.34h.54v5.85h-.54z"/><path class="cls-6" d="M340.79 106.92l-.31-.44 4.49-3.14.31.44-4.49 3.14zm3.81 10.36l-5.84-1.79.16-.52 5.83 1.8-.15.51zm16.09 27.79l-4.94-3.14.29-.45 4.93 3.14-.28.45zm13.46-45.77l-4.94-3.14.29-.46 4.94 3.14-.29.46zm-7.33 22.43l-.32-.44 3.59-2.69.32.43-3.59 2.7zm-67.69-42.69l-5.47-.23.02-.54 5.47.23-.02.54zm.45-7.5l-4.27-3.27.32-.43 4.28 3.27-.33.43z"/><path class="cls-6" transform="rotate(-78.73 364.639 77.113)" d="M364.35 74.63h.54v4.98h-.54z"/><path class="cls-6" d="M286.07 131.42l-.9-5.83.54-.08.89 5.83-.53.08z"/><path class="cls-6" transform="rotate(-12.04 292.246 121.33)" d="M288.96 121.02h6.43v.54h-6.43z"/><path class="cls-6" d="M324.43 49.97l-7.18-1.34.1-.53 7.18 1.35-.1.52zm-5.2 41.99l-.9-6.28.53-.08.9 6.29-.53.07zM374.17 67l-4.49-2.24.25-.48 4.48 2.24-.24.48z"/><path class="cls-6" transform="rotate(-49.76 279.4 52.178)" d="M279.11 48.36h.54V56h-.54z"/><path class="cls-6" d="M262.71 81.79l-.31-.44 4.49-3.14.3.44-4.48 3.14zm20.65-10.32l-.33-.44 3.59-2.69.33.43-3.59 2.7z"/><path class="cls-6" transform="rotate(-55.38 334.274 31.707)" d="M331.37 31.43h5.85v.54h-5.85z"/><path class="cls-6" transform="rotate(-55.38 376.004 86.002)" d="M373.1 85.73h5.85v.54h-5.85z"/><path class="cls-6" d="M319.43 72.76l-.52-.13 1.27-5.04.52.14-1.27 5.03zM295.2 131.1l-.52-.13 1.27-5.04.52.13-1.27 5.04zm16.88-25.98l-.33-.43 3.59-2.69.33.43-3.59 2.69zm-54.01-36.83h5.39v.54h-5.39zm.16 31.45l-.33-.43 3.59-2.7.33.43-3.59 2.7z"/><path class="cls-6" transform="rotate(-69.44 381.534 24.334)" d="M378.67 24.07h5.68v.54h-5.68z"/><path class="cls-6" transform="rotate(-10.83 371.362 24.292)" d="M370.99 21.31h.54v5.99h-.54z"/><path class="cls-6" transform="rotate(-87.75 344.635 26.075)" d="M341.93 25.82h5.38v.54h-5.38z"/><path class="cls-6" d="M316.12 26.06l-2.56-3.68.44-.31 2.56 3.69-.44.3zm-28.76.24l-.45-.3 2.38-3.5.45.3-2.38 3.5z"/><path class="cls-6" transform="rotate(-35.72 265.765 26.473)" d="M265.52 23.91h.54v5.12h-.54z"/><path class="cls-6" d="M267.89 119.08l-6.74-1.34.11-.53 6.73 1.34-.1.53z"/><path class="cls-6" transform="rotate(-33.86 379.567 125.876)" d="M379.26 122.82h.54v6.1h-.54z"/><path class="cls-6" d="M301.81 90.19l-.53-.13 1.23-5 .52.13-1.22 5zm33.6 4.61l-.32-.43 3.59-2.69.32.43-3.59 2.69zm22.9-65.55l-.45-.3 3.59-5.38.45.29-3.59 5.39zm0 129.24l-.45-.3 3.59-5.38.45.29-3.59 5.39z"/><path class="cls-4" d="M131.72 26.18h129.24V162.6H131.72z"/><path class="cls-6" d="M254.99 39.65l-.13-.52 5.84-1.35.12.53-5.83 1.34zm3.08 28.64h5.39v.54h-5.39zm.16 31.45l-.33-.43 3.59-2.7.33.43-3.59 2.7zm2.48 38.64l-7.63-1.35.1-.53 7.62 1.35-.09.53z"/><path class="cls-4" d="M260.96-103.06H390.2V33.36H260.96z"/><path class="cls-6" transform="rotate(-69.44 381.534 24.334)" d="M378.67 24.07h5.68v.54h-5.68z"/><path class="cls-6" transform="rotate(-10.83 371.362 24.292)" d="M370.99 21.31h.54v5.99h-.54z"/><path class="cls-6" transform="rotate(-87.75 344.635 26.075)" d="M341.93 25.82h5.38v.54h-5.38z"/><path class="cls-6" d="M316.12 26.06l-2.56-3.68.44-.31 2.56 3.69-.44.3zm-28.76.24l-.45-.3 2.38-3.5.45.3-2.38 3.5z"/><path class="cls-6" transform="rotate(-35.72 265.765 26.473)" d="M265.52 23.91h.54v5.12h-.54z"/><path class="cls-6" d="M358.31 29.25l-.45-.3 3.59-5.38.45.29-3.59 5.39z"/><path class="cls-4" d="M131.72-103.06h129.24V33.36H131.72z"/></g><g clip-path="url(#clippath-6)"><path class="cls-6" transform="rotate(-69.44 381.543 282.824)" d="M378.67 282.56h5.68v.54h-5.68z"/><path class="cls-6" transform="rotate(-10.83 371.389 282.842)" d="M370.99 279.79h.54v5.99h-.54z"/><path class="cls-6" transform="rotate(-87.75 344.644 284.563)" d="M341.93 284.3h5.38v.54h-5.38z"/><path class="cls-6" d="M316.12 284.55l-2.56-3.69.44-.31 2.56 3.69-.44.31zm-28.76.23l-.45-.3 2.38-3.5.45.3-2.38 3.5z"/><path class="cls-6" transform="rotate(-35.72 265.75 284.92)" d="M265.52 282.39h.54v5.12h-.54z"/><path class="cls-6" d="M358.31 287.73l-.45-.3 3.59-5.38.45.29-3.59 5.39zm29-90.2h5.39v.54h-5.39zm.16 31.45l-.33-.43 3.59-2.7.33.44-3.59 2.69z"/><path class="cls-4" d="M260.96 155.42H390.2v136.42H260.96z"/><path class="cls-6" transform="rotate(-35.97 266.39 175.81)" d="M263.32 175.54h6.1v.54h-6.1z"/><path class="cls-6" transform="rotate(-37.84 264.15 276.569)" d="M261.57 276.29h5.12v.54h-5.12z"/><path class="cls-6" d="M384.23 168.89l-.13-.52 5.84-1.35.12.53-5.83 1.34zm-.81 22.85l-.31-.45 4.49-3.14.31.45-4.49 3.14zm3.89 5.79h5.39v.54h-5.39zm-.6 13.96l-4.93-3.14.28-.46 4.94 3.14-.29.46zm.76 17.49l-.33-.43 3.59-2.7.33.44-3.59 2.69zm-1.23 18.84l-4.94-4.04.34-.42 4.94 4.04-.34.42zm3.71 19.8l-7.63-1.35.1-.53 7.63 1.35-.1.53z"/><path class="cls-6" transform="rotate(-37.84 370.505 265.8)" d="M367.92 265.52h5.12v.54h-5.12z"/><path class="cls-6" d="M381.92 235.22h5.39v.54h-5.39zm-19.52-48.94l-3.4-5.07.45-.3 3.4 5.07-.45.3zm-53.85-2.7l-2.97-4.6.45-.29 2.97 4.6-.45.29z"/><path class="cls-6" transform="rotate(-55.38 337.404 173.056)" d="M334.51 172.79h5.85v.54h-5.85z"/><path class="cls-6" transform="rotate(-69.44 381.543 282.824)" d="M378.67 282.56h5.68v.54h-5.68z"/><path class="cls-6" transform="rotate(-10.83 371.389 282.842)" d="M370.99 279.79h.54v5.99h-.54z"/><path class="cls-6" d="M360.6 241.03l-3.39-5.07.45-.3 3.39 5.07-.45.3zm-14.98-51.05l-2.97-4.6.46-.29 2.96 4.6-.45.29z"/><path class="cls-6" transform="rotate(-87.75 344.644 284.563)" d="M341.93 284.3h5.38v.54h-5.38z"/><path class="cls-6" transform="rotate(-55.38 332.917 278.51)" d="M330.02 278.24h5.85v.54h-5.85z"/><path class="cls-6" d="M316.12 284.55l-2.56-3.69.44-.31 2.56 3.69-.44.31zm32.91-56.44l-.4-.35 4.22-4.78.4.35-4.22 4.78zm-61.67 56.67l-.45-.3 2.38-3.5.45.3-2.38 3.5zm-11.98-2.79l-.53-.12 1.63-7.57.53.12-1.63 7.57z"/><path class="cls-6" transform="rotate(-35.72 265.75 284.92)" d="M265.52 282.39h.54v5.12h-.54z"/><path class="cls-6" transform="rotate(-87.75 307.178 277.753)" d="M304.46 277.49h5.39v.54h-5.39z"/><path class="cls-6" d="M277.7 167.08l-6.28-2.69.21-.5 6.29 2.7-.22.49zm-10.84 24.91l-.54-.05.45-5.83.54.04-.45 5.84zm8.46 48.09l-2.7-6.73.5-.2 2.7 6.73-.5.2zm-7.15-16.56l-.46-.28 4.04-6.73.46.27-4.04 6.74zm39.01-56.06l-.4-.36 4.04-4.48.4.36-4.04 4.48z"/><path class="cls-6" transform="rotate(-49.76 321.59 165.267)" d="M321.29 161.44h.54v7.64h-.54z"/><path class="cls-6" d="M354.41 166.62l-5.84-3.59.28-.46 5.84 3.59-.28.46zm-5.02 12.92l-.46-.28 3.59-5.83.46.28-3.59 5.83z"/><path class="cls-6" transform="rotate(-24.23 369.777 169.287)" d="M364.88 169.03h9.84v.54h-9.84z"/><path class="cls-6" d="M374.45 180.97l-.31-.45 4.49-3.14.3.45-4.48 3.14zm-82.55-17.73h.54v5.39h-.54zm-10.91 10.14l-.08-.53 5.83-.9.09.54-5.84.89zm14.06 12.79l-.9-5.83.53-.08.9 5.83-.53.08z"/><path class="cls-6" transform="rotate(-12.04 299.414 171.56)" d="M296.14 171.28h6.43v.54h-6.43z"/><path class="cls-6" transform="rotate(-35.97 277.6 191.52)" d="M274.53 191.25h6.1v.54h-6.1z"/><path class="cls-6" d="M272.24 269.62l-.53-.04.45-7.18.53.04-.45 7.18zm-.51-14.65l-.4-.36 4.04-4.49.4.36-4.04 4.49zm24.71 17.93l-4.49-6.29.44-.31 4.49 6.28-.44.32zm11.14-63.66l-.31-.44 4.49-3.15.31.45-4.49 3.14zm54.47 6.3l-4.94-2.7.26-.47 4.94 2.69-.26.48zm-55.57 11.24l-6.73-1.34.1-.53 6.73 1.34-.1.53zm5.15 19.7l-.32-.43 3.59-2.69.32.43-3.59 2.69zm-1.23 18.84l-4.94-4.04.34-.42 4.94 4.04-.34.42zm5.86 7.65l-3.59-2.25.28-.45 3.59 2.24-.28.46zm-10.18-20.25h5.39v.54h-5.39zm19.45-60.53l-.31-.45 4.49-3.14.31.44-4.49 3.15zm3.89 5.79h5.39v.54h-5.39zm-.6 13.96l-4.93-3.14.29-.46 4.93 3.14-.29.46z"/><path class="cls-6" transform="rotate(-73.34 326.925 233.25)" d="M324.61 232.98h4.69v.54h-4.69z"/><path class="cls-6" d="M328.35 248.27l-4.94-4.04.34-.42 4.94 4.04-.34.42zm.92 14.38l-3.59-2.25.29-.45 3.59 2.24-.29.46zm36.9-28.29h5.39v.54h-5.39zm-63.38.91l-4.49-3.15.31-.44 4.48 3.14-.3.45zm4.19-44.02h5.39v.54h-5.39zm-17.66 29.21l-4.48-3.14.3-.45 4.49 3.14-.31.45zm-9.27 5.79h5.39v.54h-5.39zm5.98 13.96l-.29-.46 4.94-3.14.29.46-4.94 3.14zm57.45-26.03l-.3-.45 4.28-2.8.3.45-4.28 2.8zm4.57-10.26l-4.28-3.27.33-.43 4.27 3.27-.32.43zm8.56-5.2l-.54-.04.4-5.42.54.04-.4 5.42zm-11.26 74.18l-5.47-.23.02-.53 5.48.22-.03.54zm.45-7.5l-4.27-3.27.32-.43 4.28 3.27-.33.43z"/><path class="cls-6" transform="rotate(-20.16 355.428 257.471)" d="M355.24 254.58h.54v5.85h-.54z"/><path class="cls-6" d="M340.79 236.16l-.31-.44 4.49-3.14.31.44-4.49 3.14zm3.81 10.36l-5.84-1.79.16-.52 5.83 1.8-.15.51zm16.09 27.79l-4.94-3.14.29-.45 4.93 3.14-.28.45zm13.46-45.77l-4.94-3.14.29-.46 4.94 3.15-.29.45zm-7.33 22.43l-.32-.43 3.59-2.7.32.43-3.59 2.7zm-67.69-42.69l-5.47-.23.02-.54 5.47.23-.02.54zm.45-7.5l-4.27-3.27.32-.43 4.28 3.27-.33.43z"/><path class="cls-6" transform="rotate(-78.73 364.642 206.358)" d="M364.35 203.87h.54v4.98h-.54z"/><path class="cls-6" d="M286.07 260.66l-.9-5.83.54-.08.89 5.83-.53.08z"/><path class="cls-6" transform="rotate(-12.04 292.232 250.574)" d="M288.96 250.26h6.43v.54h-6.43z"/><path class="cls-6" d="M324.43 179.22l-7.18-1.35.1-.53 7.18 1.35-.1.53zm-5.2 41.98l-.9-6.28.53-.08.9 6.29-.53.07zm54.94-24.96l-4.49-2.24.25-.48 4.48 2.24-.24.48z"/><path class="cls-6" transform="rotate(-49.76 279.405 181.428)" d="M279.11 177.6h.54v7.64h-.54z"/><path class="cls-6" d="M262.71 211.03l-.31-.44 4.49-3.14.3.44-4.48 3.14zm20.65-10.32l-.33-.43 3.59-2.7.33.43-3.59 2.7z"/><path class="cls-6" transform="rotate(-55.38 334.273 160.938)" d="M331.37 160.67h5.85v.54h-5.85z"/><path class="cls-6" transform="rotate(-55.38 375.989 215.238)" d="M373.1 214.97h5.85v.54h-5.85z"/><path class="cls-6" d="M319.43 202.01l-.52-.14 1.27-5.04.52.14-1.27 5.04zm-24.23 58.33l-.52-.13 1.27-5.04.52.14-1.27 5.03zm16.88-25.98l-.33-.43 3.59-2.69.33.43-3.59 2.69zm-54.01-36.83h5.39v.54h-5.39zm.16 31.45l-.33-.43 3.59-2.7.33.44-3.59 2.69z"/><path class="cls-6" transform="rotate(-69.44 381.538 153.579)" d="M378.67 153.32h5.68v.54h-5.68z"/><path class="cls-6" transform="rotate(-10.83 371.35 153.565)" d="M370.99 150.55h.54v5.99h-.54z"/><path class="cls-6" transform="rotate(-87.75 344.642 155.321)" d="M341.93 155.06h5.38v.54h-5.38z"/><path class="cls-6" d="M316.12 155.31l-2.56-3.69.44-.31 2.56 3.69-.44.31zm-28.76.23l-.45-.3 2.38-3.5.45.3-2.38 3.5z"/><path class="cls-6" transform="rotate(-35.72 265.747 155.701)" d="M265.52 153.15h.54v5.12h-.54z"/><path class="cls-6" d="M267.89 248.32l-6.74-1.34.11-.53 6.73 1.34-.1.53z"/><path class="cls-6" transform="rotate(-33.86 379.584 255.125)" d="M379.26 252.06h.54v6.1h-.54z"/><path class="cls-6" d="M301.81 219.43l-.53-.12 1.23-5.01.52.13-1.22 5zm33.6 4.61l-.32-.43 3.59-2.69.32.43-3.59 2.69zm22.9-65.55l-.45-.3 3.59-5.38.45.29-3.59 5.39zm0 129.24l-.45-.3 3.59-5.38.45.29-3.59 5.39z"/><path class="cls-4" d="M131.72 155.42h129.24v136.42H131.72z"/><path class="cls-6" d="M254.99 168.89l-.13-.52 5.84-1.35.12.53-5.83 1.34zm3.08 28.64h5.39v.54h-5.39zm.16 31.45l-.33-.43 3.59-2.7.33.44-3.59 2.69zm2.48 38.64l-7.63-1.35.1-.53 7.62 1.35-.09.53z"/><path class="cls-4" d="M260.96 26.18H390.2V162.6H260.96z"/><path class="cls-6" transform="rotate(-69.44 381.538 153.579)" d="M378.67 153.32h5.68v.54h-5.68z"/><path class="cls-6" transform="rotate(-10.83 371.35 153.565)" d="M370.99 150.55h.54v5.99h-.54z"/><path class="cls-6" transform="rotate(-87.75 344.642 155.321)" d="M341.93 155.06h5.38v.54h-5.38z"/><path class="cls-6" d="M316.12 155.31l-2.56-3.69.44-.31 2.56 3.69-.44.31zm-28.76.23l-.45-.3 2.38-3.5.45.3-2.38 3.5z"/><path class="cls-6" transform="rotate(-35.72 265.747 155.701)" d="M265.52 153.15h.54v5.12h-.54z"/><path class="cls-6" d="M358.31 158.49l-.45-.3 3.59-5.38.45.29-3.59 5.39z"/><path class="cls-4" d="M131.72 26.18h129.24V162.6H131.72z"/></g><g clip-path="url(#clippath-7)"><path class="cls-6" transform="rotate(-69.44 381.542 412.076)" d="M378.67 411.8h5.68v.54h-5.68z"/><path class="cls-6" transform="rotate(-10.83 371.375 412.115)" d="M370.99 409.03h.54v5.99h-.54z"/><path class="cls-6" transform="rotate(-87.75 344.652 413.81)" d="M341.93 413.54h5.38v.54h-5.38z"/><path class="cls-6" d="M316.12 413.79l-2.56-3.69.44-.31 2.56 3.69-.44.31zm-28.76.23l-.45-.3 2.38-3.5.45.3-2.38 3.5z"/><path class="cls-6" transform="rotate(-35.72 265.747 414.152)" d="M265.52 411.63h.54v5.12h-.54z"/><path class="cls-6" d="M358.31 416.97l-.45-.3 3.59-5.38.45.29-3.59 5.39zm29-90.2h5.39v.54h-5.39zm.16 31.45l-.33-.43 3.59-2.7.33.44-3.59 2.69z"/><path class="cls-4" d="M260.96 284.66H390.2v136.42H260.96z"/><path class="cls-6" transform="rotate(-35.97 266.396 305.068)" d="M263.32 304.78h6.1v.54h-6.1z"/><path class="cls-6" transform="rotate(-37.84 264.138 405.816)" d="M261.57 405.53h5.12v.54h-5.12z"/><path class="cls-6" d="M384.23 298.13l-.13-.52 5.84-1.35.12.53-5.83 1.34zm-.81 22.85l-.31-.44 4.49-3.15.31.45-4.49 3.14zm3.89 5.79h5.39v.54h-5.39zm-.6 13.96l-4.93-3.14.28-.46 4.94 3.14-.29.46zm.76 17.49l-.33-.43 3.59-2.7.33.44-3.59 2.69zm-1.23 18.84l-4.94-4.04.34-.42 4.94 4.04-.34.42zm3.71 19.8l-7.63-1.35.1-.53 7.63 1.35-.1.53z"/><path class="cls-6" transform="rotate(-37.84 370.513 395.037)" d="M367.92 394.76h5.12v.54h-5.12z"/><path class="cls-6" d="M381.92 364.46h5.39v.54h-5.39zm-19.52-48.94l-3.4-5.07.45-.3 3.4 5.07-.45.3zm-53.85-2.7l-2.97-4.6.45-.29 2.97 4.6-.45.29z"/><path class="cls-6" transform="rotate(-55.38 337.403 302.287)" d="M334.51 302.03h5.85v.54h-5.85z"/><path class="cls-6" transform="rotate(-69.44 381.542 412.076)" d="M378.67 411.8h5.68v.54h-5.68z"/><path class="cls-6" transform="rotate(-10.83 371.375 412.115)" d="M370.99 409.03h.54v5.99h-.54z"/><path class="cls-6" d="M360.6 370.27l-3.39-5.07.45-.3 3.39 5.07-.45.3zm-14.98-51.05l-2.97-4.6.46-.29 2.96 4.6-.45.29z"/><path class="cls-6" transform="rotate(-87.75 344.652 413.81)" d="M341.93 413.54h5.38v.54h-5.38z"/><path class="cls-6" transform="rotate(-55.38 332.906 407.736)" d="M330.02 407.48h5.85v.54h-5.85z"/><path class="cls-6" d="M316.12 413.79l-2.56-3.69.44-.31 2.56 3.69-.44.31zm32.91-56.44l-.4-.35 4.22-4.78.4.35-4.22 4.78zm-61.67 56.67l-.45-.3 2.38-3.5.45.3-2.38 3.5zm-11.98-2.79l-.53-.12 1.63-7.57.53.12-1.63 7.57z"/><path class="cls-6" transform="rotate(-35.72 265.747 414.152)" d="M265.52 411.63h.54v5.12h-.54z"/><path class="cls-6" transform="rotate(-87.75 307.186 407)" d="M304.46 406.73h5.39v.54h-5.39z"/><path class="cls-6" d="M277.7 296.32l-6.28-2.69.21-.49 6.29 2.69-.22.49zm-10.84 24.91l-.54-.05.45-5.83.54.04-.45 5.84zm8.46 48.09l-2.7-6.73.5-.2 2.7 6.73-.5.2zm-7.15-16.56l-.46-.28 4.04-6.73.46.27-4.04 6.74zm39.01-56.06l-.4-.36 4.04-4.48.4.36-4.04 4.48z"/><path class="cls-6" transform="rotate(-49.76 321.596 294.517)" d="M321.29 290.68h.54v7.64h-.54z"/><path class="cls-6" d="M354.41 295.86l-5.84-3.59.28-.46 5.84 3.59-.28.46zm-5.02 12.92l-.46-.28 3.59-5.83.46.28-3.59 5.83z"/><path class="cls-6" transform="rotate(-24.23 369.765 298.524)" d="M364.88 298.27h9.84v.54h-9.84z"/><path class="cls-6" d="M374.45 310.21l-.31-.44 4.49-3.15.3.45-4.48 3.14zm-82.55-17.73h.54v5.39h-.54zm-10.91 10.14l-.08-.53 5.83-.9.09.54-5.84.89zm14.06 12.79l-.9-5.83.53-.08.9 5.83-.53.08z"/><path class="cls-6" transform="rotate(-12.04 299.441 300.857)" d="M296.14 300.52h6.43v.54h-6.43z"/><path class="cls-6" transform="rotate(-35.97 277.607 320.778)" d="M274.53 320.49h6.1v.54h-6.1z"/><path class="cls-6" d="M272.24 398.86l-.53-.04.45-7.18.53.04-.45 7.18zm-.51-14.65l-.4-.36 4.04-4.49.4.36-4.04 4.49zm24.71 17.93l-4.49-6.29.44-.31 4.49 6.28-.44.32zm11.14-63.66l-.31-.44 4.49-3.14.31.44-4.49 3.14zm54.47 6.3l-4.94-2.7.26-.47 4.94 2.69-.26.48zm-55.57 11.24l-6.73-1.34.1-.53 6.73 1.34-.1.53zm5.15 19.7l-.32-.43 3.59-2.69.32.43-3.59 2.69zm-1.23 18.84l-4.94-4.04.34-.42 4.94 4.04-.34.42zm5.86 7.65l-3.59-2.25.28-.45 3.59 2.24-.28.46zm-10.18-20.24h5.39v.54h-5.39zm19.45-60.54l-.31-.45 4.49-3.14.31.44-4.49 3.15zm3.89 5.79h5.39v.54h-5.39zm-.6 13.96l-4.93-3.14.29-.46 4.93 3.14-.29.46z"/><path class="cls-6" transform="rotate(-73.34 326.922 362.482)" d="M324.61 362.22h4.69v.54h-4.69z"/><path class="cls-6" d="M328.35 377.51l-4.94-4.04.34-.42 4.94 4.04-.34.42zm.92 14.38l-3.59-2.25.29-.45 3.59 2.24-.29.46zm36.9-28.29h5.39v.54h-5.39zm-63.38.91l-4.49-3.15.31-.44 4.48 3.14-.3.45zm4.19-44.02h5.39v.54h-5.39zm-17.66 29.21l-4.48-3.14.3-.45 4.49 3.15-.31.44zm-9.27 5.79h5.39v.54h-5.39zm5.98 13.96l-.29-.46 4.94-3.14.29.46-4.94 3.14zm57.45-26.03l-.3-.45 4.28-2.8.3.45-4.28 2.8zm4.57-10.26l-4.28-3.27.33-.43 4.27 3.27-.32.43zm8.56-5.2l-.54-.04.4-5.42.54.04-.4 5.42zm-11.26 74.18l-5.47-.23.02-.53 5.48.22-.03.54zm.45-7.5l-4.27-3.27.32-.43 4.28 3.27-.33.43z"/><path class="cls-6" transform="rotate(-20.16 355.44 386.68)" d="M355.24 383.82h.54v5.85h-.54z"/><path class="cls-6" d="M340.79 365.4l-.31-.44 4.49-3.14.31.44-4.49 3.14zm3.81 10.36l-5.84-1.79.16-.52 5.83 1.8-.15.51zm16.09 27.79l-4.94-3.14.29-.45 4.93 3.14-.28.45zm13.46-45.77l-4.94-3.14.29-.46 4.94 3.15-.29.45zm-7.33 22.43l-.32-.43 3.59-2.7.32.43-3.59 2.7zm-67.69-42.69l-5.47-.23.02-.53 5.47.22-.02.54zm.45-7.5l-4.27-3.27.32-.43 4.28 3.27-.33.43z"/><path class="cls-6" transform="rotate(-78.73 364.646 335.604)" d="M364.35 333.11h.54v4.98h-.54z"/><path class="cls-6" d="M286.07 389.9l-.9-5.83.54-.08.89 5.83-.53.08z"/><path class="cls-6" transform="rotate(-12.04 292.264 379.824)" d="M288.96 379.5h6.43v.54h-6.43z"/><path class="cls-6" d="M324.43 308.46l-7.18-1.35.1-.53 7.18 1.35-.1.53zm-5.2 41.98l-.9-6.28.53-.08.9 6.29-.53.07zm54.94-24.96l-4.49-2.24.25-.48 4.48 2.24-.24.48z"/><path class="cls-6" transform="rotate(-49.76 279.411 310.678)" d="M279.11 306.84h.54v7.64h-.54z"/><path class="cls-6" d="M262.71 340.27l-.31-.44 4.49-3.14.3.44-4.48 3.14zm20.65-10.32l-.33-.43 3.59-2.7.33.43-3.59 2.7z"/><path class="cls-6" transform="rotate(-55.38 334.257 290.174)" d="M331.37 289.91h5.85v.54h-5.85z"/><path class="cls-6" transform="rotate(-55.38 375.987 344.47)" d="M373.1 344.21h5.85v.54h-5.85z"/><path class="cls-6" d="M319.43 331.25l-.52-.14 1.27-5.04.52.14-1.27 5.04zm-24.23 58.33l-.52-.13 1.27-5.04.52.14-1.27 5.03zm16.88-25.98l-.33-.43 3.59-2.69.33.43-3.59 2.69zm-54.01-36.83h5.39v.54h-5.39zm.16 31.45l-.33-.43 3.59-2.7.33.44-3.59 2.69z"/><path class="cls-6" transform="rotate(-69.44 381.543 282.824)" d="M378.67 282.56h5.68v.54h-5.68z"/><path class="cls-6" transform="rotate(-10.83 371.389 282.842)" d="M370.99 279.79h.54v5.99h-.54z"/><path class="cls-6" transform="rotate(-87.75 344.644 284.563)" d="M341.93 284.3h5.38v.54h-5.38z"/><path class="cls-6" d="M316.12 284.55l-2.56-3.69.44-.31 2.56 3.69-.44.31zm-28.76.23l-.45-.3 2.38-3.5.45.3-2.38 3.5z"/><path class="cls-6" transform="rotate(-35.72 265.75 284.92)" d="M265.52 282.39h.54v5.12h-.54z"/><path class="cls-6" d="M267.89 377.56l-6.74-1.34.11-.53 6.73 1.34-.1.53z"/><path class="cls-6" transform="rotate(-33.86 379.58 384.385)" d="M379.26 381.3h.54v6.1h-.54z"/><path class="cls-6" d="M301.81 348.68l-.53-.13 1.23-5.01.52.13-1.22 5.01zm33.6 4.6l-.32-.43 3.59-2.69.32.43-3.59 2.69zm22.9-65.55l-.45-.3 3.59-5.38.45.29-3.59 5.39zm0 129.24l-.45-.3 3.59-5.38.45.29-3.59 5.39z"/><path class="cls-4" d="M131.72 284.66h129.24v136.42H131.72z"/><path class="cls-6" d="M254.99 298.13l-.13-.52 5.84-1.35.12.53-5.83 1.34zm3.08 28.64h5.39v.54h-5.39zm.16 31.45l-.33-.43 3.59-2.7.33.44-3.59 2.69zm2.48 38.64l-7.63-1.35.1-.53 7.62 1.35-.09.53z"/><path class="cls-4" d="M260.96 155.42H390.2v136.42H260.96z"/><path class="cls-6" transform="rotate(-69.44 381.543 282.824)" d="M378.67 282.56h5.68v.54h-5.68z"/><path class="cls-6" transform="rotate(-10.83 371.389 282.842)" d="M370.99 279.79h.54v5.99h-.54z"/><path class="cls-6" transform="rotate(-87.75 344.644 284.563)" d="M341.93 284.3h5.38v.54h-5.38z"/><path class="cls-6" d="M316.12 284.55l-2.56-3.69.44-.31 2.56 3.69-.44.31zm-28.76.23l-.45-.3 2.38-3.5.45.3-2.38 3.5z"/><path class="cls-6" transform="rotate(-35.72 265.75 284.92)" d="M265.52 282.39h.54v5.12h-.54z"/><path class="cls-6" d="M358.31 287.73l-.45-.3 3.59-5.38.45.29-3.59 5.39z"/><path class="cls-4" d="M131.72 155.42h129.24v136.42H131.72z"/></g><g clip-path="url(#clippath-8)"><path class="cls-6" transform="rotate(-69.44 252.293 282.836)" d="M249.43 282.56h5.68v.54h-5.68z"/><path class="cls-6" transform="rotate(-10.83 242.111 282.882)" d="M241.75 279.79h.54v5.99h-.54z"/><path class="cls-6" transform="rotate(-87.75 215.398 284.57)" d="M212.69 284.3h5.38v.54h-5.38z"/><path class="cls-6" d="M186.87 284.55l-2.55-3.69.44-.31 2.56 3.69-.45.31zm-28.75.23l-.45-.3 2.38-3.5.45.3-2.38 3.5z"/><path class="cls-6" transform="rotate(-35.72 136.532 284.922)" d="M136.28 282.39h.54v5.12h-.54z"/><path class="cls-6" d="M229.07 287.73l-.45-.3 3.59-5.38.45.29-3.59 5.39zm29-90.2h5.39v.54h-5.39zm.16 31.45l-.33-.43 3.59-2.7.33.44-3.59 2.69z"/><path class="cls-4" d="M131.72 155.42h129.24v136.42H131.72z"/><path class="cls-6" transform="rotate(-35.97 137.132 175.816)" d="M134.07 175.54h6.1v.54h-6.1z"/><path class="cls-6" transform="rotate(-37.84 134.898 276.572)" d="M132.32 276.29h5.12v.54h-5.12z"/><path class="cls-6" d="M254.99 168.89l-.13-.52 5.84-1.35.12.53-5.83 1.34zm-.81 22.85l-.31-.45 4.49-3.14.31.45-4.49 3.14zm3.89 5.79h5.39v.54h-5.39zm-.6 13.96l-4.93-3.14.28-.46 4.94 3.14-.29.46zm.76 17.49l-.33-.43 3.59-2.7.33.44-3.59 2.69zM257 247.82l-4.94-4.04.34-.42 4.94 4.04-.34.42zm3.71 19.8l-7.63-1.35.1-.53 7.62 1.35-.09.53z"/><path class="cls-6" transform="rotate(-37.84 241.258 265.788)" d="M238.68 265.52h5.12v.54h-5.12z"/><path class="cls-6" d="M252.68 235.22h5.39v.54h-5.39zm-19.52-48.94l-3.4-5.07.45-.3 3.4 5.07-.45.3zm-53.85-2.7l-2.97-4.6.45-.29 2.97 4.6-.45.29z"/><path class="cls-6" transform="rotate(-55.38 208.172 173.055)" d="M205.27 172.79h5.85v.54h-5.85z"/><path class="cls-6" transform="rotate(-69.44 252.293 282.836)" d="M249.43 282.56h5.68v.54h-5.68z"/><path class="cls-6" transform="rotate(-10.83 242.111 282.882)" d="M241.75 279.79h.54v5.99h-.54z"/><path class="cls-6" d="M231.36 241.03l-3.39-5.07.45-.3 3.39 5.07-.45.3zm-14.98-51.05l-2.97-4.6.45-.29 2.97 4.6-.45.29z"/><path class="cls-6" transform="rotate(-87.75 215.398 284.57)" d="M212.69 284.3h5.38v.54h-5.38z"/><path class="cls-6" transform="rotate(-55.38 203.69 278.5)" d="M200.78 278.24h5.85v.54h-5.85z"/><path class="cls-6" d="M186.87 284.55l-2.55-3.69.44-.31 2.56 3.69-.45.31zm32.92-56.44l-.4-.35 4.22-4.78.4.35-4.22 4.78zm-61.67 56.67l-.45-.3 2.38-3.5.45.3-2.38 3.5zm-11.98-2.79l-.53-.12 1.63-7.57.53.12-1.63 7.57z"/><path class="cls-6" transform="rotate(-35.72 136.532 284.922)" d="M136.28 282.39h.54v5.12h-.54z"/><path class="cls-6" transform="rotate(-87.75 177.932 277.76)" d="M175.22 277.49h5.39v.54h-5.39z"/><path class="cls-6" d="M148.46 167.08l-6.28-2.69.21-.5 6.29 2.7-.22.49zm-10.84 24.91l-.54-.05.45-5.83.54.04-.45 5.84zm8.46 48.09l-2.7-6.73.5-.2 2.7 6.73-.5.2zm-7.15-16.56l-.46-.28 4.03-6.73.47.27-4.04 6.74zm39.01-56.06l-.4-.36 4.04-4.48.4.36-4.04 4.48z"/><path class="cls-6" transform="rotate(-49.76 192.34 165.273)" d="M192.05 161.44h.54v7.64h-.54z"/><path class="cls-6" d="M225.17 166.62l-5.84-3.59.28-.46 5.84 3.59-.28.46zm-5.02 12.92l-.46-.28 3.59-5.83.46.28-3.59 5.83z"/><path class="cls-6" transform="rotate(-24.23 240.535 169.298)" d="M235.64 169.03h9.84v.54h-9.84z"/><path class="cls-6" d="M245.21 180.97l-.31-.45 4.48-3.14.31.45-4.48 3.14zm-82.55-17.73h.54v5.39h-.54zm-10.91 10.14l-.08-.53 5.83-.9.09.54-5.84.89zm14.05 12.79l-.89-5.83.53-.08.9 5.83-.54.08z"/><path class="cls-6" transform="rotate(-12.04 170.164 171.592)" d="M166.9 171.28h6.43v.54h-6.43z"/><path class="cls-6" transform="rotate(-35.97 148.358 191.531)" d="M145.29 191.25h6.1v.54h-6.1z"/><path class="cls-6" d="M143 269.62l-.53-.04.45-7.18.53.04-.45 7.18zm-.51-14.65l-.4-.36 4.04-4.49.4.36-4.04 4.49zm24.71 17.93l-4.49-6.29.44-.31 4.49 6.28-.44.32zm11.14-63.66l-.31-.44 4.49-3.15.31.45-4.49 3.14zm54.47 6.3l-4.94-2.7.26-.47 4.93 2.69-.25.48zm-55.57 11.24l-6.73-1.34.1-.53 6.73 1.34-.1.53zm5.15 19.7l-.33-.43 3.59-2.69.33.43-3.59 2.69zm-1.23 18.84l-4.94-4.04.34-.42 4.94 4.04-.34.42zm5.86 7.65l-3.59-2.25.28-.45 3.59 2.24-.28.46zm-10.18-20.25h5.39v.54h-5.39zm19.45-60.53l-.31-.45 4.49-3.14.31.44-4.49 3.15zm3.89 5.79h5.39v.54h-5.39zm-.6 13.96l-4.93-3.14.28-.46 4.94 3.14-.29.46z"/><path class="cls-6" transform="rotate(-73.34 197.692 233.246)" d="M195.37 232.98h4.69v.54h-4.69z"/><path class="cls-6" d="M199.11 248.27l-4.94-4.04.34-.42 4.94 4.04-.34.42zm.92 14.38l-3.59-2.25.29-.45 3.59 2.24-.29.46zm36.89-28.29h5.39v.54h-5.39zm-63.37.91l-4.49-3.15.31-.44 4.48 3.14-.3.45zm4.19-44.02h5.39v.54h-5.39zm-17.66 29.21l-4.48-3.14.3-.45 4.49 3.14-.31.45zm-9.27 5.79h5.39v.54h-5.39zm5.98 13.96l-.29-.46 4.94-3.14.29.46-4.94 3.14zm57.44-26.03l-.29-.45 4.28-2.8.3.45-4.29 2.8zm4.58-10.26l-4.28-3.27.33-.43 4.27 3.27-.32.43zm8.56-5.2l-.54-.04.4-5.42.54.04-.4 5.42zm-11.26 74.18l-5.47-.23.02-.53 5.47.22-.02.54zm.45-7.5l-4.27-3.27.32-.43 4.28 3.27-.33.43z"/><path class="cls-6" transform="rotate(-20.16 226.225 257.455)" d="M226 254.58h.54v5.85H226z"/><path class="cls-6" d="M211.55 236.16l-.31-.44 4.49-3.14.31.44-4.49 3.14zm3.8 10.36l-5.83-1.79.16-.52 5.83 1.8-.16.51zm16.1 27.79l-4.94-3.14.29-.45 4.93 3.14-.28.45zm13.46-45.77l-4.94-3.14.29-.46 4.94 3.15-.29.45zm-7.33 22.43l-.32-.43 3.59-2.7.32.43-3.59 2.7zm-67.69-42.69l-5.47-.23.02-.54 5.47.23-.02.54zm.45-7.5l-4.27-3.27.32-.43 4.28 3.27-.33.43z"/><path class="cls-6" transform="rotate(-78.73 235.397 206.362)" d="M235.11 203.87h.54v4.98h-.54z"/><path class="cls-6" d="M156.83 260.66l-.9-5.83.53-.08.9 5.83-.53.08z"/><path class="cls-6" transform="rotate(-12.04 162.987 250.56)" d="M159.72 250.26h6.43v.54h-6.43z"/><path class="cls-6" d="M195.19 179.22l-7.18-1.35.1-.53 7.18 1.35-.1.53zm-5.2 41.98l-.9-6.28.53-.08.9 6.29-.53.07zm54.94-24.96l-4.49-2.24.24-.48 4.49 2.24-.24.48z"/><path class="cls-6" transform="rotate(-49.76 150.16 181.423)" d="M149.87 177.6h.54v7.64h-.54z"/><path class="cls-6" d="M133.47 211.03l-.31-.44 4.49-3.14.3.44-4.48 3.14zm20.65-10.32l-.33-.43 3.59-2.7.33.43-3.59 2.7z"/><path class="cls-6" transform="rotate(-55.38 205.032 160.932)" d="M202.13 160.67h5.85v.54h-5.85z"/><path class="cls-6" transform="rotate(-55.38 246.762 215.227)" d="M243.86 214.97h5.85v.54h-5.85z"/><path class="cls-6" d="M190.19 202.01l-.52-.14 1.27-5.04.52.14-1.27 5.04zm-24.23 58.33l-.53-.13 1.28-5.04.52.14-1.27 5.03zm16.88-25.98l-.33-.43 3.59-2.69.33.43-3.59 2.69zm-54.02-36.83h5.39v.54h-5.39zm.17 31.45l-.33-.43 3.59-2.7.33.44-3.59 2.69z"/><path class="cls-6" transform="rotate(-69.44 252.293 153.583)" d="M249.43 153.32h5.68v.54h-5.68z"/><path class="cls-6" transform="rotate(-10.83 242.071 153.604)" d="M241.75 150.55h.54v5.99h-.54z"/><path class="cls-6" transform="rotate(-87.75 215.39 155.324)" d="M212.69 155.06h5.38v.54h-5.38z"/><path class="cls-6" d="M186.87 155.31l-2.55-3.69.44-.31 2.56 3.69-.45.31zm-28.75.23l-.45-.3 2.38-3.5.45.3-2.38 3.5z"/><path class="cls-6" transform="rotate(-35.72 136.534 155.689)" d="M136.28 153.15h.54v5.12h-.54z"/><path class="cls-6" d="M138.64 248.32l-6.73-1.34.11-.53 6.73 1.34-.11.53z"/><path class="cls-6" transform="rotate(-33.86 250.324 255.12)" d="M250.02 252.06h.54v6.1h-.54z"/><path class="cls-6" d="M172.57 219.43l-.53-.12 1.23-5.01.52.13-1.22 5zm33.6 4.61l-.32-.43 3.59-2.69.32.43-3.59 2.69zm22.9-65.55l-.45-.3 3.59-5.38.45.29-3.59 5.39zm0 129.24l-.45-.3 3.59-5.38.45.29-3.59 5.39z"/><path class="cls-4" d="M2.48 155.42h129.24v136.42H2.48z"/><path class="cls-6" d="M125.74 168.89l-.12-.52 5.84-1.35.12.53-5.84 1.34zm3.08 28.64h5.39v.54h-5.39zm.17 31.45l-.33-.43 3.59-2.7.33.44-3.59 2.69zm2.48 38.64l-7.63-1.35.1-.53 7.62 1.35-.09.53z"/><path class="cls-4" d="M131.72 26.18h129.24V162.6H131.72z"/><path class="cls-6" transform="rotate(-69.44 252.293 153.583)" d="M249.43 153.32h5.68v.54h-5.68z"/><path class="cls-6" transform="rotate(-10.83 242.071 153.604)" d="M241.75 150.55h.54v5.99h-.54z"/><path class="cls-6" transform="rotate(-87.75 215.39 155.324)" d="M212.69 155.06h5.38v.54h-5.38z"/><path class="cls-6" d="M186.87 155.31l-2.55-3.69.44-.31 2.56 3.69-.45.31zm-28.75.23l-.45-.3 2.38-3.5.45.3-2.38 3.5z"/><path class="cls-6" transform="rotate(-35.72 136.534 155.689)" d="M136.28 153.15h.54v5.12h-.54z"/><path class="cls-6" d="M229.07 158.49l-.45-.3 3.59-5.38.45.29-3.59 5.39z"/><path class="cls-4" d="M2.48 26.18h129.24V162.6H2.48z"/></g><g clip-path="url(#clippath-9)"><path class="cls-6" transform="rotate(-69.44 252.297 412.08)" d="M249.43 411.8h5.68v.54h-5.68z"/><path class="cls-6" transform="rotate(-10.83 242.098 412.154)" d="M241.75 409.03h.54v5.99h-.54z"/><path class="cls-6" transform="rotate(-87.75 215.405 413.817)" d="M212.69 413.54h5.38v.54h-5.38z"/><path class="cls-6" d="M186.87 413.79l-2.55-3.69.44-.31 2.56 3.69-.45.31zm-28.75.23l-.45-.3 2.38-3.5.45.3-2.38 3.5z"/><path class="cls-6" transform="rotate(-35.72 136.519 414.134)" d="M136.28 411.63h.54v5.12h-.54z"/><path class="cls-6" d="M229.07 416.97l-.45-.3 3.59-5.38.45.29-3.59 5.39zm29-90.2h5.39v.54h-5.39zm.16 31.45l-.33-.43 3.59-2.7.33.44-3.59 2.69z"/><path class="cls-4" d="M131.72 284.66h129.24v136.42H131.72z"/><path class="cls-6" transform="rotate(-35.97 137.143 305.059)" d="M134.07 304.78h6.1v.54h-6.1z"/><path class="cls-6" transform="rotate(-37.84 134.901 405.824)" d="M132.32 405.53h5.12v.54h-5.12z"/><path class="cls-6" d="M254.99 298.13l-.13-.52 5.84-1.35.12.53-5.83 1.34zm-.81 22.85l-.31-.44 4.49-3.15.31.45-4.49 3.14zm3.89 5.79h5.39v.54h-5.39zm-.6 13.96l-4.93-3.14.28-.46 4.94 3.14-.29.46zm.76 17.49l-.33-.43 3.59-2.7.33.44-3.59 2.69zM257 377.06l-4.94-4.04.34-.42 4.94 4.04-.34.42zm3.71 19.8l-7.63-1.35.1-.53 7.62 1.35-.09.53z"/><path class="cls-6" transform="rotate(-37.84 241.261 395.04)" d="M238.68 394.76h5.12v.54h-5.12z"/><path class="cls-6" d="M252.68 364.46h5.39v.54h-5.39zm-19.52-48.94l-3.4-5.07.45-.3 3.4 5.07-.45.3zm-53.85-2.7l-2.97-4.6.45-.29 2.97 4.6-.45.29z"/><path class="cls-6" transform="rotate(-55.38 208.171 302.286)" d="M205.27 302.03h5.85v.54h-5.85z"/><path class="cls-6" transform="rotate(-69.44 252.297 412.08)" d="M249.43 411.8h5.68v.54h-5.68z"/><path class="cls-6" transform="rotate(-10.83 242.098 412.154)" d="M241.75 409.03h.54v5.99h-.54z"/><path class="cls-6" d="M231.36 370.27l-3.39-5.07.45-.3 3.39 5.07-.45.3zm-14.98-51.05l-2.97-4.6.45-.29 2.97 4.6-.45.29z"/><path class="cls-6" transform="rotate(-87.75 215.405 413.817)" d="M212.69 413.54h5.38v.54h-5.38z"/><path class="cls-6" transform="rotate(-55.38 203.675 407.735)" d="M200.78 407.48h5.85v.54h-5.85z"/><path class="cls-6" d="M186.87 413.79l-2.55-3.69.44-.31 2.56 3.69-.45.31zm32.92-56.44l-.4-.35 4.22-4.78.4.35-4.22 4.78zm-61.67 56.67l-.45-.3 2.38-3.5.45.3-2.38 3.5zm-11.98-2.79l-.53-.12 1.63-7.57.53.12-1.63 7.57z"/><path class="cls-6" transform="rotate(-35.72 136.519 414.134)" d="M136.28 411.63h.54v5.12h-.54z"/><path class="cls-6" transform="rotate(-87.75 177.94 407.007)" d="M175.22 406.73h5.39v.54h-5.39z"/><path class="cls-6" d="M148.46 296.32l-6.28-2.69.21-.49 6.29 2.69-.22.49zm-10.84 24.91l-.54-.05.45-5.83.54.04-.45 5.84zm8.46 48.09l-2.7-6.73.5-.2 2.7 6.73-.5.2zm-7.15-16.56l-.46-.28 4.03-6.73.47.27-4.04 6.74zm39.01-56.06l-.4-.36 4.04-4.48.4.36-4.04 4.48z"/><path class="cls-6" transform="rotate(-49.76 192.346 294.522)" d="M192.05 290.68h.54v7.64h-.54z"/><path class="cls-6" d="M225.17 295.86l-5.84-3.59.28-.46 5.84 3.59-.28.46zm-5.02 12.92l-.46-.28 3.59-5.83.46.28-3.59 5.83z"/><path class="cls-6" transform="rotate(-24.23 240.528 298.511)" d="M235.64 298.27h9.84v.54h-9.84z"/><path class="cls-6" d="M245.21 310.21l-.31-.44 4.48-3.15.31.45-4.48 3.14zm-82.55-17.73h.54v5.39h-.54zm-10.91 10.14l-.08-.53 5.83-.9.09.54-5.84.89zm14.05 12.79l-.89-5.83.53-.08.9 5.83-.54.08z"/><path class="cls-6" transform="rotate(-12.04 170.15 300.837)" d="M166.9 300.52h6.43v.54h-6.43z"/><path class="cls-6" transform="rotate(-35.97 148.37 320.774)" d="M145.29 320.49h6.1v.54h-6.1z"/><path class="cls-6" d="M143 398.86l-.53-.04.45-7.18.53.04-.45 7.18zm-.51-14.65l-.4-.36 4.04-4.49.4.36-4.04 4.49zm24.71 17.93l-4.49-6.29.44-.31 4.49 6.28-.44.32zm11.14-63.66l-.31-.44 4.49-3.14.31.44-4.49 3.14zm54.47 6.3l-4.94-2.7.26-.47 4.93 2.69-.25.48zm-55.57 11.24l-6.73-1.34.1-.53 6.73 1.34-.1.53zm5.15 19.7l-.33-.43 3.59-2.69.33.43-3.59 2.69zm-1.23 18.84l-4.94-4.04.34-.42 4.94 4.04-.34.42zm5.86 7.65l-3.59-2.25.28-.45 3.59 2.24-.28.46zm-10.18-20.24h5.39v.54h-5.39zm19.45-60.54l-.31-.45 4.49-3.14.31.44-4.49 3.15zm3.89 5.79h5.39v.54h-5.39zm-.6 13.96l-4.93-3.14.28-.46 4.94 3.14-.29.46z"/><path class="cls-6" transform="rotate(-73.34 197.69 362.48)" d="M195.37 362.22h4.69v.54h-4.69z"/><path class="cls-6" d="M199.11 377.51l-4.94-4.04.34-.42 4.94 4.04-.34.42zm.92 14.38l-3.59-2.25.29-.45 3.59 2.24-.29.46zm36.89-28.29h5.39v.54h-5.39zm-63.37.91l-4.49-3.15.31-.44 4.48 3.14-.3.45zm4.19-44.02h5.39v.54h-5.39zm-17.66 29.21l-4.48-3.14.3-.45 4.49 3.15-.31.44zm-9.27 5.79h5.39v.54h-5.39zm5.98 13.96l-.29-.46 4.94-3.14.29.46-4.94 3.14zm57.44-26.03l-.29-.45 4.28-2.8.3.45-4.29 2.8zm4.58-10.26l-4.28-3.27.33-.43 4.27 3.27-.32.43zm8.56-5.2l-.54-.04.4-5.42.54.04-.4 5.42zm-11.26 74.18l-5.47-.23.02-.53 5.47.22-.02.54zm.45-7.5l-4.27-3.27.32-.43 4.28 3.27-.33.43z"/><path class="cls-6" transform="rotate(-20.16 226.203 386.686)" d="M226 383.82h.54v5.85H226z"/><path class="cls-6" d="M211.55 365.4l-.31-.44 4.49-3.14.31.44-4.49 3.14zm3.8 10.36l-5.83-1.79.16-.52 5.83 1.8-.16.51zm16.1 27.79l-4.94-3.14.29-.45 4.93 3.14-.28.45zm13.46-45.77l-4.94-3.14.29-.46 4.94 3.15-.29.45zm-7.33 22.43l-.32-.43 3.59-2.7.32.43-3.59 2.7zm-67.69-42.69l-5.47-.23.02-.53 5.47.22-.02.54zm.45-7.5l-4.27-3.27.32-.43 4.28 3.27-.33.43z"/><path class="cls-6" transform="rotate(-78.73 235.4 335.607)" d="M235.11 333.11h.54v4.98h-.54z"/><path class="cls-6" d="M156.83 389.9l-.9-5.83.53-.08.9 5.83-.53.08z"/><path class="cls-6" transform="rotate(-12.04 162.967 379.851)" d="M159.72 379.5h6.43v.54h-6.43z"/><path class="cls-6" d="M195.19 308.46l-7.18-1.35.1-.53 7.18 1.35-.1.53zm-5.2 41.98l-.9-6.28.53-.08.9 6.29-.53.07zm54.94-24.96l-4.49-2.24.24-.48 4.49 2.24-.24.48z"/><path class="cls-6" transform="rotate(-49.76 150.167 310.673)" d="M149.87 306.84h.54v7.64h-.54z"/><path class="cls-6" d="M133.47 340.27l-.31-.44 4.49-3.14.3.44-4.48 3.14zm20.65-10.32l-.33-.43 3.59-2.7.33.43-3.59 2.7z"/><path class="cls-6" transform="rotate(-55.38 205.03 290.163)" d="M202.13 289.91h5.85v.54h-5.85z"/><path class="cls-6" transform="rotate(-55.38 246.76 344.459)" d="M243.86 344.21h5.85v.54h-5.85z"/><path class="cls-6" d="M190.19 331.25l-.52-.14 1.27-5.04.52.14-1.27 5.04zm-24.23 58.33l-.53-.13 1.28-5.04.52.14-1.27 5.03zm16.88-25.98l-.33-.43 3.59-2.69.33.43-3.59 2.69zm-54.02-36.83h5.39v.54h-5.39zm.17 31.45l-.33-.43 3.59-2.7.33.44-3.59 2.69z"/><path class="cls-6" transform="rotate(-69.44 252.293 282.836)" d="M249.43 282.56h5.68v.54h-5.68z"/><path class="cls-6" transform="rotate(-10.83 242.111 282.882)" d="M241.75 279.79h.54v5.99h-.54z"/><path class="cls-6" transform="rotate(-87.75 215.398 284.57)" d="M212.69 284.3h5.38v.54h-5.38z"/><path class="cls-6" d="M186.87 284.55l-2.55-3.69.44-.31 2.56 3.69-.45.31zm-28.75.23l-.45-.3 2.38-3.5.45.3-2.38 3.5z"/><path class="cls-6" transform="rotate(-35.72 136.532 284.922)" d="M136.28 282.39h.54v5.12h-.54z"/><path class="cls-6" d="M138.64 377.56l-6.73-1.34.11-.53 6.73 1.34-.11.53z"/><path class="cls-6" transform="rotate(-33.86 250.336 384.386)" d="M250.02 381.3h.54v6.1h-.54z"/><path class="cls-6" d="M172.57 348.68l-.53-.13 1.23-5.01.52.13-1.22 5.01zm33.6 4.6l-.32-.43 3.59-2.69.32.43-3.59 2.69zm22.9-65.55l-.45-.3 3.59-5.38.45.29-3.59 5.39zm0 129.24l-.45-.3 3.59-5.38.45.29-3.59 5.39z"/><path class="cls-4" d="M2.48 284.66h129.24v136.42H2.48z"/><path class="cls-6" d="M125.74 298.13l-.12-.52 5.84-1.35.12.53-5.84 1.34zm3.08 28.64h5.39v.54h-5.39zm.17 31.45l-.33-.43 3.59-2.7.33.44-3.59 2.69zm2.48 38.64l-7.63-1.35.1-.53 7.62 1.35-.09.53z"/><path class="cls-4" d="M131.72 155.42h129.24v136.42H131.72z"/><path class="cls-6" transform="rotate(-69.44 252.293 282.836)" d="M249.43 282.56h5.68v.54h-5.68z"/><path class="cls-6" transform="rotate(-10.83 242.111 282.882)" d="M241.75 279.79h.54v5.99h-.54z"/><path class="cls-6" transform="rotate(-87.75 215.398 284.57)" d="M212.69 284.3h5.38v.54h-5.38z"/><path class="cls-6" d="M186.87 284.55l-2.55-3.69.44-.31 2.56 3.69-.45.31zm-28.75.23l-.45-.3 2.38-3.5.45.3-2.38 3.5z"/><path class="cls-6" transform="rotate(-35.72 136.532 284.922)" d="M136.28 282.39h.54v5.12h-.54z"/><path class="cls-6" d="M229.07 287.73l-.45-.3 3.59-5.38.45.29-3.59 5.39z"/><path class="cls-4" d="M2.48 155.42h129.24v136.42H2.48z"/></g><g clip-path="url(#clippath-10)"><path class="cls-6" transform="rotate(-69.44 252.302 541.326)" d="M249.43 541.04h5.68v.54h-5.68z"/><path class="cls-6" transform="rotate(-10.83 242.085 541.427)" d="M241.75 538.27h.54v5.99h-.54z"/><path class="cls-6" transform="rotate(-87.75 215.407 543.06)" d="M212.69 542.78h5.38v.54h-5.38z"/><path class="cls-6" d="M186.87 543.03l-2.55-3.69.44-.31 2.56 3.69-.45.31zm-28.75.23l-.45-.3 2.38-3.5.45.3-2.38 3.5z"/><path class="cls-6" transform="rotate(-35.72 136.516 543.368)" d="M136.28 540.87h.54v5.12h-.54z"/><path class="cls-6" d="M229.07 546.21l-.45-.3 3.59-5.38.45.3-3.59 5.38zm29-90.2h5.39v.54h-5.39zm.16 31.45l-.33-.43 3.59-2.69.33.43-3.59 2.69z"/><path class="cls-4" d="M131.72 413.9h129.24v136.42H131.72z"/><path class="cls-6" transform="rotate(-35.97 137.15 434.317)" d="M134.07 434.02h6.1v.54h-6.1z"/><path class="cls-6" transform="rotate(-37.84 134.909 535.061)" d="M132.32 534.77h5.12v.54h-5.12z"/><path class="cls-6" d="M254.99 427.37l-.13-.52 5.84-1.35.12.53-5.83 1.34zm-.81 22.85l-.31-.44 4.49-3.15.31.45-4.49 3.14zm3.89 5.79h5.39v.54h-5.39zm-.6 13.96l-4.93-3.14.28-.46 4.94 3.14-.29.46zm.76 17.49l-.33-.43 3.59-2.69.33.43-3.59 2.69zM257 506.3l-4.94-4.04.34-.42 4.94 4.04-.34.42zm3.71 19.8l-7.63-1.35.1-.53 7.62 1.35-.09.53z"/><path class="cls-6" transform="rotate(-37.84 241.264 524.292)" d="M238.68 524h5.12v.54h-5.12z"/><path class="cls-6" d="M252.68 493.7h5.39v.54h-5.39zm-19.52-48.94l-3.4-5.07.45-.3 3.4 5.07-.45.3zm-53.85-2.7l-2.97-4.6.45-.29 2.97 4.6-.45.29z"/><path class="cls-6" transform="rotate(-55.38 208.17 431.517)" d="M205.27 431.27h5.85v.54h-5.85z"/><path class="cls-6" transform="rotate(-69.44 252.302 541.326)" d="M249.43 541.04h5.68v.54h-5.68z"/><path class="cls-6" transform="rotate(-10.83 242.085 541.427)" d="M241.75 538.27h.54v5.99h-.54z"/><path class="cls-6" d="M231.36 499.51l-3.39-5.07.45-.3 3.39 5.07-.45.3zm-14.98-51.05l-2.97-4.6.45-.29 2.97 4.6-.45.29z"/><path class="cls-6" transform="rotate(-87.75 215.407 543.06)" d="M212.69 542.78h5.38v.54h-5.38z"/><path class="cls-6" transform="rotate(-55.38 203.674 536.967)" d="M200.78 536.72h5.85v.54h-5.85z"/><path class="cls-6" d="M186.87 543.03l-2.55-3.69.44-.31 2.56 3.69-.45.31zm32.92-56.44l-.4-.35 4.22-4.78.4.35-4.22 4.78zm-61.67 56.67l-.45-.3 2.38-3.5.45.3-2.38 3.5zm-11.98-2.79l-.53-.11 1.63-7.58.53.12-1.63 7.57z"/><path class="cls-6" transform="rotate(-35.72 136.516 543.368)" d="M136.28 540.87h.54v5.12h-.54z"/><path class="cls-6" transform="rotate(-87.75 177.941 536.249)" d="M175.22 535.97h5.39v.54h-5.39z"/><path class="cls-6" d="M148.46 425.56l-6.28-2.69.21-.49 6.29 2.69-.22.49zm-10.84 24.91l-.54-.05.45-5.83.54.04-.45 5.84zm8.46 48.09l-2.7-6.73.5-.2 2.7 6.73-.5.2zM138.93 482l-.46-.28 4.03-6.73.47.28-4.04 6.73zm39.01-56.06l-.4-.36 4.04-4.48.4.36-4.04 4.48z"/><path class="cls-6" transform="rotate(-49.76 192.352 423.772)" d="M192.05 419.92h.54v7.64h-.54z"/><path class="cls-6" d="M225.17 425.1l-5.84-3.59.28-.46 5.84 3.59-.28.46zm-5.02 12.92l-.46-.28 3.59-5.83.46.28-3.59 5.83z"/><path class="cls-6" transform="rotate(-24.23 240.539 427.753)" d="M235.64 427.51h9.84v.54h-9.84z"/><path class="cls-6" d="M245.21 439.45l-.31-.44 4.48-3.15.31.45-4.48 3.14zm-82.55-17.72h.54v5.39h-.54zm-10.91 10.13l-.08-.53 5.83-.9.09.54-5.84.89zm14.05 12.79l-.89-5.83.53-.08.9 5.83-.54.08z"/><path class="cls-6" transform="rotate(-12.04 170.177 430.134)" d="M166.9 429.76h6.43v.54h-6.43z"/><path class="cls-6" transform="rotate(-35.97 148.36 450.027)" d="M145.29 449.73h6.1v.54h-6.1z"/><path class="cls-6" d="M143 528.1l-.53-.04.45-7.18.53.04-.45 7.18zm-.51-14.65l-.4-.36 4.04-4.49.4.36-4.04 4.49zm24.71 17.93l-4.49-6.29.44-.31 4.49 6.28-.44.32zm11.14-63.66l-.31-.44 4.49-3.14.31.44-4.49 3.14zm54.47 6.3l-4.94-2.7.26-.47 4.93 2.69-.25.48zm-55.57 11.24l-6.73-1.34.1-.53 6.73 1.34-.1.53zm5.15 19.7l-.33-.43 3.59-2.69.33.43-3.59 2.69zm-1.23 18.84l-4.94-4.04.34-.42 4.94 4.04-.34.42zm5.86 7.65l-3.59-2.25.28-.45 3.59 2.24-.28.46zm-10.18-20.24h5.39v.54h-5.39zm19.45-60.54l-.31-.45 4.49-3.14.31.45-4.49 3.14zm3.89 5.79h5.39v.54h-5.39zm-.6 13.96l-4.93-3.14.28-.46 4.94 3.14-.29.46z"/><path class="cls-6" transform="rotate(-73.34 197.681 491.719)" d="M195.37 491.46h4.69v.54h-4.69z"/><path class="cls-6" d="M199.11 506.75l-4.94-4.04.34-.42 4.94 4.04-.34.42zm.92 14.38l-3.59-2.25.29-.45 3.59 2.24-.29.46zm36.89-28.29h5.39v.54h-5.39zm-63.37.91l-4.49-3.14.31-.45 4.48 3.14-.3.45zm4.19-44.02h5.39v.54h-5.39zm-17.66 29.21l-4.48-3.14.3-.45 4.49 3.15-.31.44zm-9.27 5.79h5.39v.54h-5.39zm5.98 13.96l-.29-.46 4.94-3.14.29.46-4.94 3.14zm57.44-26.03l-.29-.45 4.28-2.8.3.45-4.29 2.8zm4.58-10.26l-4.28-3.27.33-.42 4.27 3.26-.32.43zm8.56-5.2l-.54-.04.4-5.42.54.04-.4 5.42zm-11.26 74.18l-5.47-.23.02-.53 5.47.22-.02.54zm.45-7.5l-4.27-3.27.32-.43 4.28 3.27-.33.43z"/><path class="cls-6" transform="rotate(-20.16 226.214 515.894)" d="M226 513.06h.54v5.85H226z"/><path class="cls-6" d="M211.55 494.64l-.31-.44 4.49-3.14.31.44-4.49 3.14zm3.8 10.36l-5.83-1.79.16-.52 5.83 1.8-.16.51zm16.1 27.79l-4.94-3.14.29-.45 4.93 3.14-.28.45zm13.46-45.77l-4.94-3.14.29-.45 4.94 3.14-.29.45zm-7.33 22.43l-.32-.43 3.59-2.7.32.44-3.59 2.69zm-67.69-42.69l-5.47-.23.02-.53 5.47.22-.02.54zm.45-7.5l-4.27-3.27.32-.43 4.28 3.27-.33.43z"/><path class="cls-6" transform="rotate(-78.73 235.404 464.852)" d="M235.11 462.35h.54v4.98h-.54z"/><path class="cls-6" d="M156.83 519.14l-.9-5.83.53-.08.9 5.83-.53.08z"/><path class="cls-6" transform="rotate(-12.04 163 509.1)" d="M159.72 508.74h6.43v.54h-6.43z"/><path class="cls-6" d="M195.19 437.7l-7.18-1.35.1-.53 7.18 1.35-.1.53zm-5.2 41.98l-.9-6.28.53-.08.9 6.29-.53.07zm54.94-24.96l-4.49-2.24.24-.48 4.49 2.24-.24.48z"/><path class="cls-6" transform="rotate(-49.76 150.168 439.933)" d="M149.87 436.08h.54v7.64h-.54z"/><path class="cls-6" d="M133.47 469.51l-.31-.44 4.49-3.14.3.44-4.48 3.14zm20.65-10.32l-.33-.43 3.59-2.7.33.43-3.59 2.7z"/><path class="cls-6" transform="rotate(-55.38 205.024 419.404)" d="M202.13 419.15h5.85v.54h-5.85z"/><path class="cls-6" transform="rotate(-55.38 246.755 473.7)" d="M243.86 473.45h5.85v.54h-5.85z"/><path class="cls-6" d="M190.19 460.49l-.52-.14 1.27-5.03.52.13-1.27 5.04zm-24.23 58.33l-.53-.13 1.28-5.04.52.14-1.27 5.03zm16.88-25.98l-.33-.43 3.59-2.69.33.43-3.59 2.69zm-54.02-36.83h5.39v.54h-5.39zm.17 31.45l-.33-.43 3.59-2.69.33.43-3.59 2.69z"/><path class="cls-6" transform="rotate(-69.44 252.297 412.08)" d="M249.43 411.8h5.68v.54h-5.68z"/><path class="cls-6" transform="rotate(-10.83 242.098 412.154)" d="M241.75 409.03h.54v5.99h-.54z"/><path class="cls-6" transform="rotate(-87.75 215.405 413.817)" d="M212.69 413.54h5.38v.54h-5.38z"/><path class="cls-6" d="M186.87 413.79l-2.55-3.69.44-.31 2.56 3.69-.45.31zm-28.75.23l-.45-.3 2.38-3.5.45.3-2.38 3.5z"/><path class="cls-6" transform="rotate(-35.72 136.519 414.134)" d="M136.28 411.63h.54v5.12h-.54z"/><path class="cls-6" d="M138.64 506.8l-6.73-1.34.11-.53 6.73 1.34-.11.53z"/><path class="cls-6" transform="rotate(-33.86 250.337 513.63)" d="M250.02 510.54h.54v6.1h-.54z"/><path class="cls-6" d="M172.57 477.92l-.53-.13 1.23-5.01.52.13-1.22 5.01zm33.6 4.6l-.32-.43 3.59-2.69.32.43-3.59 2.69zm22.9-65.55l-.45-.3 3.59-5.38.45.29-3.59 5.39zm0 129.24l-.45-.3 3.59-5.38.45.3-3.59 5.38z"/><path class="cls-4" d="M2.48 413.9h129.24v136.42H2.48z"/><path class="cls-6" d="M125.74 427.37l-.12-.52 5.84-1.35.12.53-5.84 1.34zm3.08 28.64h5.39v.54h-5.39zm.17 31.45l-.33-.43 3.59-2.69.33.43-3.59 2.69zm2.48 38.64l-7.63-1.35.1-.53 7.62 1.35-.09.53z"/><path class="cls-4" d="M131.72 284.66h129.24v136.42H131.72z"/><path class="cls-6" transform="rotate(-69.44 252.297 412.08)" d="M249.43 411.8h5.68v.54h-5.68z"/><path class="cls-6" transform="rotate(-10.83 242.098 412.154)" d="M241.75 409.03h.54v5.99h-.54z"/><path class="cls-6" transform="rotate(-87.75 215.405 413.817)" d="M212.69 413.54h5.38v.54h-5.38z"/><path class="cls-6" d="M186.87 413.79l-2.55-3.69.44-.31 2.56 3.69-.45.31zm-28.75.23l-.45-.3 2.38-3.5.45.3-2.38 3.5z"/><path class="cls-6" transform="rotate(-35.72 136.519 414.134)" d="M136.28 411.63h.54v5.12h-.54z"/><path class="cls-6" d="M229.07 416.97l-.45-.3 3.59-5.38.45.29-3.59 5.39z"/><path class="cls-4" d="M2.48 284.66h129.24v136.42H2.48z"/></g></g><path class="cls-4" d="M155.24 467.56c-.66 0-.87-.21-1.05-.39-5.61-5.61-27.33-66.69-23.56-79.86 3.27-11.44 195.89-108.9 250.62-136.39-50.41 17.22-213.38 72.26-221.5 67.4-10.04-6.02-16.17-62.91-3.94-89.11l.15-.31.31-.13c.88-.38 88.53-37.91 136.46-55.66 26.97-9.99 115.84-35.66 116.74-35.92l.73-.21.33.69c.18.38 17.85 38.67 19.83 108.06 1.78 62.17.01 78.94 0 79.11l-.05.46-.41.22c-.67.37-68.1 37.21-135.31 72.93-116.57 61.94-135.52 69.12-139.34 69.12zm.12-1.77h.16c10.26 0 168.17-84.27 273.1-141.63.26-3.05 1.57-21.96-.05-78.39-1.82-63.88-16.98-101.18-19.35-106.65-8.72 2.52-90.28 26.19-115.86 35.66-46.43 17.2-130.21 52.99-136.06 55.49-12.32 26.95-4.76 81.61 3.38 86.5.25.15.72.23 1.38.23 15.8 0 144.8-42.38 231.22-72.11l.69 1.65c-103.76 51.88-259.06 132.31-261.61 141.25-3.61 12.65 17.97 72.42 23 77.99zM112.81 270.7s22.65 9.44 13.21 30.2c-9.44 20.76-37.75 33.97-37.75 33.97s-39.63 58.51-56.62 54.73c-16.99-3.77-16.99-11.32-9.44-22.65 7.55-11.32 54.73-81.15 62.28-86.82 7.55-5.66 16.99-16.99 28.31-9.44z"/><path class="cls-4" d="M33.24 390.67c-.62 0-1.21-.06-1.79-.19-8.09-1.8-12.79-4.58-14.36-8.49-1.55-3.87-.21-8.66 4.38-15.53.53-.8 54.21-80.82 62.49-87.04 1.23-.93 2.52-2.01 3.88-3.15 6.87-5.77 15.43-12.95 25.39-6.36 1.09.47 11 4.96 14.66 14.26 2.07 5.25 1.71 11.01-1.06 17.1-9.12 20.08-35.06 32.92-37.96 34.31-2.9 4.25-37.9 55.09-55.63 55.09zm71.84-121.57c-5.91 0-11.23 4.47-16.09 8.55-1.38 1.16-2.69 2.25-3.96 3.21-7.19 5.39-53.29 73.42-62.07 86.6-4.16 6.24-5.5 10.65-4.2 13.87 1.34 3.33 5.62 5.75 13.09 7.41.49.11 1.01.16 1.54.16 17 0 53.76-53.96 54.14-54.52l.14-.21.22-.11c.28-.13 28.12-13.32 37.31-33.53 2.56-5.63 2.9-10.91 1.03-15.69-3.51-8.93-13.67-13.26-13.77-13.31l-.15-.08c-2.5-1.67-4.91-2.36-7.22-2.36z"/><path class="cls-5" d="M102.42 282.97s-5.66-5.66-15.1 15.1c-9.44 20.76-43.41 67.94-56.62 77.38-14.16 10.11-16.04 2.83-8.49-8.49 7.55-11.32 54.73-81.15 62.28-86.82 7.55-5.66 6.61-4.72 17.93 2.83z"/><path class="cls-4" d="M20.51 381.15c-1.05 0-1.89-.3-2.51-.9-2.18-2.11-.88-7.26 3.48-13.79.53-.8 54.21-80.82 62.49-87.04 6.83-5.12 7.4-5.12 15.19.24.93.64 1.98 1.36 3.17 2.16.33.17.58.36.74.52.33.33.35.85.06 1.2-.3.35-.81.43-1.19.18-.17-.11-.34-.23-.51-.34-.34-.15-.89-.3-1.66-.15-1.93.39-6.01 2.89-11.61 15.21-9.26 20.37-43.12 67.89-56.91 77.74-4.61 3.29-8.25 4.97-10.72 4.97zm70.64-103.67c-1.61 0-3.13 1.14-6.12 3.38-7.19 5.39-53.29 73.42-62.07 86.6-4.02 6.03-4.91 10.35-3.72 11.5 1.03 1 4.45.41 10.95-4.24 13.32-9.51 47.36-57.3 56.32-77.02 4.31-9.49 8.45-14.89 12.32-16.08-.24-.16-.47-.32-.7-.48-3.57-2.45-5.32-3.66-6.98-3.66z"/><path class="cls-5" d="M69.4 321.66h8.34s30.35-36.8 24.69-42.46c-5.66-5.66-15.7-6.25-15.7-6.25L69.4 321.67z"/><path class="cls-4" d="M77.74 322.56H69.4c-.29 0-.56-.14-.73-.38s-.21-.54-.11-.82l17.33-48.72c.13-.38.5-.63.9-.59.42.02 10.45.68 16.28 6.51 5.94 5.94-19.48 37.42-24.63 43.67-.17.21-.42.33-.69.33zm-7.07-1.8h6.64c12.35-15.02 27.96-37.45 24.48-40.93-4.54-4.54-12.17-5.68-14.45-5.93l-16.67 46.86z"/><path class="cls-5" d="M57.13 300.75s23.59-35.71 34.92-26.27c11.32 9.44-22.65 47.18-22.65 47.18l-12.27-20.91z"/><path class="cls-4" d="M69.4 322.56h-.09a.887.887 0 01-.68-.44l-12.27-20.91a.904.904 0 01.03-.95c.71-1.07 17.53-26.34 29.86-28.16 2.45-.36 4.6.21 6.38 1.69 1.56 1.3 2.44 3.13 2.6 5.44.99 13.8-24.09 41.84-25.16 43.03a.91.91 0 01-.67.3zm-11.21-21.78l11.35 19.36c4.36-5.01 24.73-29.07 23.89-40.78-.13-1.83-.77-3.2-1.96-4.19-1.39-1.16-3.01-1.58-4.97-1.29-10.67 1.57-25.95 23.43-28.31 26.91zm42.32 129.65s24.45 2.02 21.85 24.67c-2.6 22.66-25.48 43.93-25.48 43.93s-19.73 67.86-37.05 69.49c-17.32 1.63-19.64-5.55-15.94-18.65 3.7-13.1 27.14-94.05 32.58-101.76 5.44-7.71 10.94-21.38 24.04-17.68z"/><path class="cls-4" d="M55.4 569.65c-5.72 0-9.59-1.29-11.76-3.89-2.67-3.2-2.86-8.18-.61-16.12.26-.93 26.64-93.44 32.71-102.03.89-1.26 1.78-2.68 2.73-4.19 4.77-7.6 10.69-17.06 22.21-13.86 1.18.11 11.99 1.33 18.33 9.06 3.58 4.36 5.01 9.95 4.25 16.6-2.51 21.91-23.25 42.11-25.58 44.31-1.5 5.11-20.38 68.26-37.76 69.89-1.62.15-3.12.23-4.52.23zm40.89-138.93c-7.75 0-12.26 7.2-16.3 13.65-.96 1.53-1.86 2.97-2.78 4.27-5.15 7.3-27.25 83.11-32.45 101.48-2.04 7.22-1.96 11.82.26 14.49 2.29 2.76 7.11 3.75 14.73 3.03 16.52-1.55 36.08-68.17 36.28-68.84l.07-.24.18-.17c.23-.21 22.67-21.32 25.19-43.37.71-6.15-.59-11.28-3.85-15.26-6.09-7.43-17.07-8.41-17.18-8.42l-.17-.03c-1.42-.4-2.74-.59-3.98-.59z"/><path class="cls-5" d="M94.4 445.3s-7.13-3.65-9.73 19.01c-2.6 22.66-20.42 78-30.09 91.04-10.36 13.98-14.4 7.63-10.69-5.47 3.7-13.1 27.14-94.05 32.58-101.76 5.44-7.71 4.84-6.52 17.93-2.82z"/><path class="cls-4" d="M45.31 564.13c-.49 0-.94-.1-1.36-.31-2.72-1.34-3.06-6.64-.93-14.19.26-.93 26.64-93.44 32.71-102.03 4.93-6.98 5.47-7.15 14.52-4.45 1.09.32 2.31.69 3.68 1.08.36.06.66.16.86.26.41.21.6.7.43 1.13s-.64.66-1.08.54c-.2-.06-.4-.11-.59-.17-.37-.04-.94-.01-1.63.37-1.72.97-4.83 4.59-6.37 18.04-2.55 22.23-20.17 77.85-30.26 91.47-4.03 5.44-7.45 8.25-9.99 8.25zm37.91-120.77c-2.3 0-3.33 1.47-6.02 5.27-5.15 7.3-27.25 83.11-32.45 101.48-1.97 6.97-1.5 11.36 0 12.09 1.28.63 4.35-.98 9.11-7.4 9.75-13.15 27.45-69.08 29.92-90.61 1.19-10.35 3.47-16.77 6.78-19.09-.28-.08-.55-.16-.81-.24-3.15-.94-5.09-1.51-6.52-1.51z"/><path class="cls-5" d="M74.86 492.27l7.94-2.56s17.57-44.35 10.44-48-16.86-1.12-16.86-1.12l-1.51 51.69z"/><path class="cls-4" d="M74.86 493.16a.899.899 0 01-.9-.92l1.51-51.69c.01-.4.29-.74.67-.84.41-.11 10.14-2.56 17.49 1.19 7.47 3.83-7.03 41.6-10.01 49.13-.1.25-.3.44-.56.52l-7.94 2.56c-.09.03-.18.04-.28.04zm2.39-51.86l-1.46 49.72 6.32-2.04c7.13-18.09 15.09-44.23 10.71-46.47-5.71-2.92-13.33-1.67-15.58-1.2z"/><path class="cls-5" d="M56.76 476.14s11.47-41.23 25.15-35.73c13.68 5.5-7.05 51.86-7.05 51.86l-18.1-16.13z"/><path class="cls-4" d="M74.86 493.16a.9.9 0 01-.6-.23l-18.1-16.13a.914.914 0 01-.27-.91c.35-1.24 8.59-30.46 19.76-35.97 2.22-1.1 4.43-1.22 6.59-.35 1.89.76 3.29 2.23 4.15 4.38 5.19 12.83-10.06 47.22-10.72 48.68-.12.26-.35.45-.63.51-.06.01-.12.02-.19.02zm-17.08-17.32l16.75 14.93c2.61-6.11 14.6-35.26 10.2-46.15-.69-1.7-1.72-2.81-3.16-3.38-1.68-.67-3.35-.58-5.12.29-9.67 4.78-17.49 30.28-18.67 34.31z"/></svg>