<svg width="286" height="175" viewBox="0 0 286 175" fill="none" xmlns="http://www.w3.org/2000/svg"><path d="M175.981 127.719c.53 1.96-.54 3.59-1.03 5.3-.76 2.63-1.71 5.21-2.56 7.82-.14.43-.25.89-.3 1.34-.15 1.28-.15 2.53 1.19 3.32-1.59.92-4.2-.64-4.26-2.49-.05-1.32.16-2.65.26-3.98.03-.37.1-.73-.07-1.24-.21.21-.47.39-.63.64-2.91 4.45-5.01 9.27-6.01 14.49-.41 2.16-.48 4.43.69 6.49.63 1.12 1.6 1.75 2.9 1.7 1.36-.05 2.34-.85 3.14-1.87.11-.14.07-.53-.04-.71-.62-.98-.07-1.57.66-2.1s1.45-1.09 2.21-1.57c.28-.18.7-.26 1.03-.21 1.59.24 2.38-.39 2.48-1.93.34-5.31 1.38-10.5 2.88-15.59.31-1.06.67-2.11 1.07-3.14.51-1.29 1.13-1.59 2.27-1.22 1.16.38 1.9 1.44 1.65 2.52-.51 2.15-1.08 4.29-1.61 6.43-.25.99-.47 1.98-.7 2.97.1.05.2.1.29.16.52-.69 1.07-1.37 1.56-2.08 2.91-4.27 6.17-8.24 9.82-11.91.64-.65 1.21-1.15 2.14-.46.97.72 1.37 1.71.77 2.65-1.11 1.77-2.26 3.53-3.54 5.18-3.28 4.21-6.66 8.36-9.98 12.54-.3.38-.52.82-.96 1.54 1.63-.25 2.94-.49 4.27-.65 1.44-.16 2.88-.34 4.32-.34 1.69 0 2.83 1 2.81 2.25 0 .27-.1.68-.29.77-.2.1-.62 0-.81-.17-.77-.67-1.6-.61-2.47-.33-3.11 1.02-6.22 2.03-9.34 3.05-.9.3-1.33.87-1.33 1.88 0 1.14-.18 2.28-.22 3.42-.04 1.2 0 2.4 0 3.68-1.28.53-2.38 0-2.56-1.52-.17-1.43-.18-2.89-.24-4.33-.06-1.28-.32-1.5-1.42-.93-.71.37-1.47.84-1.94 1.46-3.2 4.2-11.57 3.95-13.61-1.89-.34-.98-1.09-1.12-2.34-.67-1.08.39-.78 1.06-.43 1.72.52.97 1.1 1.9 1.82 3.13-.84-.06-1.61.07-2.16-.21-.89-.46-1.83-1.06-2.38-1.86-.69-.99-1.22-1.23-2.27-.6-1.41.84-2.89 1.56-4.34 2.31-.98.5-3.58.17-4.29-.62-.26-.29-.38-.84-.35-1.26.14-1.97.27-3.95.56-5.91 1.02-6.84 3.04-13.44 5-20.05.47-1.57.93-2 2.01-1.86 1.91.26 2.99 1.18 3.08 2.6.3 4.72.57 9.44.92 14.15.11 1.51.47 3.01.69 4.52.12.82.47 1.26 1.37 1.38.76.1 1.49.48 2.36.79.02-.3.06-.65.06-1-.08-6.35 1.55-12.23 5.01-17.55.82-1.26 1.92-2.37 3.04-3.39 1.05-.95 2.33-1.41 3.82-.82.29.11.98-.1 1.09-.34.72-1.62 1.33-3.29 2-4.99-1.01-.11-2.03-.17-3.03-.35-3.32-.6-5.25-2.7-5.47-6.08-.16-2.51-.19-5.03-.22-7.55-.03-2.83.04-5.66-.01-8.48-.02-1.01.21-1.42 1.32-1.38 2.22.08 2.22.02 2.22 2.27 0 4.01-.01 8.02.01 12.04 0 .95.06 1.91.21 2.85.24 1.47 1 2.68 2.55 2.87 1.53.19 3.12.2 4.64-.01 1.59-.22 2.52-1.54 2.56-3.33.09-4.43.11-8.86.15-13.29 0-.84-.07-1.69.03-2.52.04-.31.47-.78.76-.81 2.78-.31 2.8-.29 2.8 2.53 0 3.94.04 7.87-.02 11.81-.02 1.44-.19 2.9-.47 4.31-.42 2.14-1.77 3.58-3.8 4.38-.18.07-.36.11-.54.18-.14.05-.27.12-.4.19l-.05-.04zm-29.14 30.4c1.2-.51 2.15-.98 3.14-1.32.67-.23.79-.59.63-1.2-.4-1.5-.76-3.01-1.16-4.51-.15-.59-.35-1.17-.53-1.76-.06 0-.12.02-.18.03-.61 2.82-1.22 5.64-1.9 8.76zm82.7-8.651c-1.18.67-2.1 1.19-3.03 1.72-.53.3-1.04.77-1.6.86-1.53.23-1.47 1.24-1.38 2.36.07.87.07 1.75.14 2.63.06.74.07 1.47.81 2.03.3.23.34 1.01.22 1.46-.07.25-.71.48-1.11.49-1.92.07-3.15-.98-3.44-3.08-.32-2.22-.6-4.47-.69-6.71-.18-4.47-.09-8.93.66-13.36.43-2.52.93-5.02 1.4-7.52.15-.82.63-1.15 1.47-1.05 1.49.17 2.49 1.21 2.49 2.75 0 4.28-.36 8.53-1.25 12.73-.07.33-.06.69-.17 1.01-.52 1.48-.04 1.96 1.61 1.19 1.03-.48 2.13-.83 3.22-1.17.71-.22 1.03-.56 1.1-1.36.76-7.87 1.88-15.66 4.6-23.14.51-1.41.87-1.67 2.15-1.42 1.23.23 2.11 1.24 1.98 2.4-.11.94-.32 1.88-.53 2.81-1.68 7.2-3.14 14.44-3.82 21.82-.56 6.13-.89 12.26-.38 18.4.17 2.07.71 4.1 1.06 6.16.04.24-.03.64-.18.74-.73.47-2.67-.05-3.04-.86-.34-.75-.64-1.56-.75-2.38-.42-3.17-.81-6.34-1.11-9.53-.22-2.35-.31-4.72-.43-7.08-.04-.88 0-1.76 0-2.89v-.01zm-100.94 7.04c1.49-.52 2.66-1.05 3.9-1.34 1.65-.39 2.26-1.26 2.39-2.99.54-6.66 1.61-13.23 3.64-19.62.25-.8.61-1.57.83-2.37.28-1.05.82-1.59 1.97-1.38 1.22.22 2.22 1.12 2.1 2.17-.17 1.43-.51 2.84-.81 4.25-1.5 7-2.94 14.01-3.58 21.17-.25 2.81-.71 5.61-.74 8.41-.03 2.42.38 4.85.67 7.27.06.53.47 1.01.72 1.51-1.27.98-3.26.46-3.67-1.11-.59-2.24-1.06-4.52-1.35-6.82-.26-2.03-.21-4.1-.3-6.15-.01-.26-.08-.52-.16-1-.68.35-1.26.66-1.85.95-1.21.61-2.45 1.18-3.63 1.85-.28.16-.53.67-.52 1.01.05 1.6.17 3.2.34 4.79.03.28.43.51.55.81.19.49.5 1.09.36 1.49-.11.32-.84.59-1.29.59-1.69 0-2.85-.89-3.16-2.58-.4-2.17-.77-4.37-.87-6.57-.24-5.65-.05-11.29 1.29-16.83.19-.77.43-1.53.62-2.31.2-.86.75-1.07 1.54-.91 1.55.31 2.26 1.2 2.32 2.8.13 3.4-.22 6.75-.96 10.07-.19.83-.2 1.7-.33 2.85l-.02-.01zm133.03-22.75c-.13 1.32-.32 2.31-.32 3.31 0 4.81.03 9.62.09 14.43 0 .64-.19.81-.76.81-1.14 0-2.23-.89-2.46-2.32-.32-1.95-.56-3.93-.65-5.9-.22-4.99-.36-9.99-.46-14.99-.04-1.75.7-2.7 2.05-2.54.96.11 2.05.53 2.75 1.17 1.31 1.2 2.44 2.62 3.52 4.03 1.08 1.41 2.01 2.93 3.21 4.7.1-2.18.17-4.02.28-5.86.15-2.32.31-4.64.51-6.95.04-.52.24-1.04.39-1.55.24-.83.49-1.72 1.64-1.48 1.27.26 2.27.88 2.22 2.15-.25 6.18-.49 12.36-.6 18.54-.09 5.27 0 10.54-.03 15.81 0 .4-.13 1.06-.38 1.15-.39.15-1.12.11-1.36-.16-.53-.59-1.1-1.33-1.21-2.08-.33-2.22-.64-4.48-.6-6.71.04-2.42-.72-4.46-1.98-6.43-1.7-2.67-3.34-5.38-5.01-8.07-.17-.28-.41-.52-.86-1.06h.02zm-100.61-47.679l-1.32 4.89c-.76 2.83-1.5 5.67-2.32 8.49-.1.34-.62.74-.98.77a18 18 0 01-3.2 0c-.33-.03-.85-.42-.91-.71-.97-4.7-1.87-9.42-2.79-14.13-.52-2.65-1.05-5.3-1.62-8.21 1.13 0 2.17-.06 3.19.05.24.03.54.59.61.95.79 3.88 1.54 7.78 2.29 11.67.31 1.61.61 3.22.93 4.83.03.16.15.31.38.74.42-1.5.78-2.72 1.11-3.95.89-3.31 1.79-6.62 2.64-9.95.16-.63.39-.86 1.07-.87 3.18-.05 3.13-.06 3.93 3.2.89 3.62 1.87 7.22 2.82 10.83.05.17.17.32.42.8l.39-1.98c1-5.16 1.98-10.33 3.03-15.48.07-.35.61-.61.95-.88.07-.06.22-.02.34-.03 1.634-.1 2.3.63 2 2.19-1.26 6.55-2.52 13.09-3.76 19.65-.18.96-.52 1.52-1.62 1.35-.6-.09-1.22-.02-1.83-.02-1.71 0-1.69 0-2.12-1.65-1.01-3.91-2.03-7.82-3.05-11.73-.07-.27-.21-.53-.32-.79-.08 0-.16 0-.24-.01l-.02-.02z" fill="#191919"/><path d="M212.401 128.858c-.98.15-1.73.23-2.46.39-1.4.31-3.11-.91-2.8-2.26.17-.71 1.11-1.34 1.83-1.78.77-.46 1.68-.75 2.57-.93 1.32-.27 1.74-1.07 1.94-2.3.23-1.42.68-2.8 1.09-4.19.29-.97.9-1.3 1.93-.96 1.52.5 2.32 1.49 2.32 3.11v1.95c2.03-.49 3.87-.94 5.71-1.36.93-.21 1.87-.39 2.81-.48 1.63-.15 3.06.88 3.54 2.47.29.96.06 1.14-.92 1.14-.94 0-1.89.17-2.81.38-2.63.62-5.25 1.28-7.87 1.95-.85.22-1.42.59-1.53 1.66-.51 5.08-1.24 10.13-1.67 15.22-.38 4.4-.54 8.83-.64 13.25-.03 1.54.28 3.12.71 4.61.27.93 1.04 1.71 1.62 2.62-1.04.39-1.79-.12-2.52-.67-2.3-1.74-3.12-4.17-3.43-6.95-.74-6.61-.14-13.19.17-19.77.11-2.28.24-4.56.38-7.12l.03.02zm-70.27-45.84c-.95 2.23-1.9 4.47-2.84 6.71-.71 1.69-1.41 3.37-2.08 5.08-.24.62-.58.86-1.27.86-2.34 0-2.37.05-3.29-2.1-1.28-2.98-2.5-5.98-3.76-8.96-.22-.51-.47-1.01-.98-1.49-.02.38-.07.77-.07 1.15 0 4.93-.03 9.85.02 14.78 0 .94-.27 1.27-1.23 1.23-2.47-.09-2.19.31-2.19-2.21-.01-6.49.02-12.98-.03-19.47 0-1.16.34-1.52 1.49-1.5 3.38.04 3.35 0 4.62 3.09 1.4 3.42 2.85 6.82 4.29 10.23.07.16.19.31.39.63.23-.4.42-.66.54-.95 1.69-4 3.38-8 5.02-12.02.27-.66.59-.99 1.33-.95.91.05 1.83.05 2.75 0 .86-.04 1.11.31 1.11 1.15-.03 4.01 0 8.02 0 12.03 0 2.98-.03 5.96 0 8.93 0 .79-.23 1.08-1.04 1.06-2.73-.07-2.38.33-2.39-2.37-.02-4.54 0-9.09 0-13.63 0-.4-.05-.81-.08-1.21-.1-.02-.21-.03-.31-.05v-.02zm68.39 69.69c-3.3.49-3.24.62-1.59 3.48.26.45.61.86 1.17 1.62-.96-.05-1.7.09-2.27-.15-.78-.33-1.56-.84-2.13-1.47-1.38-1.53-1.33-1.59-3.15-.65-1.32.68-2.62 1.41-3.94 2.09-1.47.75-2.73-.12-3.95-.7-.35-.17-.54-1.08-.49-1.62.27-2.65.43-5.34 1.04-7.92 1.45-6.11 3.13-12.15 4.71-18.23.25-.97.81-1.36 1.83-1.29 1.92.13 2.98 1.1 3.1 2.9.29 4.64.56 9.28.93 13.92.12 1.59.45 3.17.81 4.73.09.37.63.82 1.04.91 1.76.38 2.79 1.17 2.9 2.39l-.01-.01zm-9.07-8.32c-.08 0-.16-.01-.25-.02l-1.84 8.79c1.3-.55 2.4-.97 3.45-1.48.2-.1.4-.57.34-.81-.53-2.17-1.12-4.32-1.69-6.48h-.01zm-97.75-55.74c0-3.43.02-6.87-.01-10.3-.01-.85.18-1.27 1.13-1.25 3.59.06 7.17-.01 10.76.11 4.36.15 6.77 4.08 4.82 8.02-.95 1.92-1.52 3.15.22 5.22 2.25 2.68 1.07 8.99-4.37 9.51-3.9.37-7.84.21-11.77.3-.83.02-.78-.53-.78-1.08v-10.53zm7.57 8.28v-.03h3.32c.26 0 .52-.09.79-.15 1.75-.37 2.53-1.38 2.5-3.27-.02-1.77-.85-2.95-2.55-3.09-2.43-.2-4.87-.18-7.31-.16-.26 0-.74.54-.75.84-.08 1.64-.03 3.28-.04 4.92 0 .67.26.97.95.95 1.03-.03 2.06 0 3.09 0v-.01zm.31-10.07h1.95c2.41 0 2.79-.26 3.6-2.54.05-.14.08-.29.12-.44.53-1.81-.31-3.22-2.16-3.33-2.32-.14-4.65-.09-6.98-.13-.61 0-.9.27-.89.9.02 1.53.03 3.05 0 4.58-.01.76.32 1 1.04.97 1.1-.04 2.21-.01 3.32 0v-.01zm29.88 40.61c-1.43 0-2.61.07-3.77-.04-.34-.03-.71-.53-.93-.9-1.27-2.13-2.54-4.26-3.74-6.43-.48-.86-1.03-1.32-2.07-1.23-1.02.09-2.06.05-3.09.01-.86-.03-1.22.25-1.2 1.18.06 2.14 0 4.28.03 6.42.01.73-.21 1.03-.97 1.02-3.14-.06-2.58.36-2.59-2.48-.03-6.46.02-12.91-.03-19.37 0-1.12.33-1.42 1.42-1.39 3.51.12 7.02.03 10.53.23 4.18.24 5.87 4.27 5.29 7.61-.39 2.29-1.92 3.88-3.38 5.46-.72.78-.59 1.29-.11 2.06 1.53 2.5 2.99 5.05 4.63 7.84l-.02.01zm-14.78-15.84c0 .99.03 1.98 0 2.97-.03.69.24.94.93.93 1.98-.03 3.96 0 5.94-.03.31 0 .73-.12.91-.34.71-.88 1.53-1.75 1.98-2.77.88-1.98.28-4.48-2.6-4.59-2.05-.08-4.11-.1-6.16-.17-.73-.02-1.03.27-1 1.02.04.99.01 1.98.01 2.97l-.01.01zm34.92 4.27c-.33 2.05-.49 4.12-1.03 6.08-.86 3.14-2.88 5.21-6.23 5.79-2.3.39-4.57.33-6.79-.34-2.58-.78-4-2.73-4.67-5.22-1.08-4.05-1.08-8.16-.12-12.23.84-3.58 3.3-5.78 6.96-6.11 1.65-.15 3.36-.06 5 .21 3.17.51 5.04 2.64 5.84 5.6.54 2 .7 4.11 1.04 6.22zm-3.76.27c-.13-1.53-.18-2.79-.35-4.03-.41-3.01-1.78-4.57-4.7-4.9-3.9-.44-6.35.83-6.72 4.52-.27 2.71-.28 5.49.04 8.19.41 3.43 2.25 4.74 5.72 4.66 3.24-.08 4.93-1.43 5.56-4.61.27-1.34.33-2.72.45-3.82v-.01zm86.5 30.371c-3.25.17-7.52-3.59-7.32-7.32.23-4.36 1.83-8.2 3.77-11.98.23-.44.44-1.03.33-1.47-.2-.79.12-1.06.77-1.21.63-.15 1.25-.35 1.89-.4.42-.03.9.07 1.29.25 1.16.53 2.24 1.23 3.43 1.67 2.23.82 4.21 1.9 5.62 3.9 2.33 3.31 1.76 7.32-.37 10.49-1.63 2.43-3.86 4.2-6.58 5.29-.9.36-1.89.52-2.83.78zm-3.48-5.56c-.04 1.24.17 1.32 1.38 1.05 2.21-.49 3.99-1.69 5.59-3.18 2.08-1.92 3.71-4.14 3.97-7.11.07-.81-.15-1.47-.9-1.81-1.38-.63-2.77-1.25-4.2-1.73-.33-.11-1.01.25-1.27.59-.56.76-.97 1.63-1.4 2.48-1.56 3.07-2.92 6.2-3.18 9.7l.01.01zm-121.51-32.63c-1.6-.31-3.04-.68-4.51-.85-1.31-.16-2.66-.21-3.97-.11-2 .16-3.19 1.46-3.65 3.29-.87 3.45-.87 6.96-.1 10.43.52 2.36 2.11 3.41 5.08 3.51 1.21.04 2.43-.13 3.65-.21.81-.05.84-.61.84-1.22 0-2.33.03-4.66-.02-6.99-.02-.91.29-1.19 1.18-1.15 2.51.1 2.27-.39 2.28 2.24.01 2.9-.02 5.8.02 8.7.01.86-.17 1.32-1.15 1.41-3.18.29-6.34.95-9.56.34-2.92-.55-4.81-2.28-5.61-5.08-1.28-4.46-1.25-8.97.03-13.43.96-3.31 3.68-5.47 7.11-5.4 2.53.05 5.05.55 7.57.92.3.05.71.55.76.89.11.82.04 1.67.04 2.69l.01.02zm64.76 7.519v-10.54c0-.47-.14-1.05.67-1.04 3.47.05 6.96-.07 10.41.2 2.97.23 4.76 2.1 5.2 5.08.36 2.44.32 4.89-1.26 7.02-1.51 2.04-3.76 2.32-6.03 2.43-1.45.07-2.9.06-4.35.02-.83-.03-1.15.24-1.13 1.1.05 2.1-.01 4.2.03 6.3.02.8-.25 1.08-1.05 1.06-2.91-.08-2.5.38-2.49-2.46v-9.17zm6.96-8.28v.05c-.8 0-1.6.02-2.4 0-.69-.02-1.05.18-1.04.97.04 2.06.03 4.12 0 6.18 0 .7.28.96.95.93 1.71-.07 3.43-.1 5.14-.2 1.63-.09 2.62-.8 2.99-2.19.45-1.71.53-3.43-.82-4.81-.39-.39-1.05-.62-1.62-.71-1.05-.16-2.13-.15-3.19-.21l-.01-.01zm66.06 43.4c-1.04.14-2.12.17-3.12.46-3.36.97-6.69 2.03-10.03 3.08-1.02.32-1.99.75-3.01 1.07-1.42.43-3.87-1.66-3.64-3.13.05-.33.43-.75.76-.87 2.01-.78 4-1.76 6.09-2.17 3.12-.62 6.32-.92 9.5-1.18 1.96-.16 3.21.97 3.45 2.75v-.01zm-48.82 9.051c-2 .87-3.77 1.6-5.51 2.41-1.76.81-3.47 1.73-5.24 2.53-1.42.64-3.04-.07-3.68-1.49-.3-.66-.09-1.12.53-1.4 1.9-.86 3.79-1.76 5.73-2.54 1.34-.53 2.74-.92 4.13-1.3 1.11-.3 2.23-.19 3.14.56.43.36.69.93.91 1.22l-.01.01zm-52.64 4.839c-3.09 1.48-6.08 2.93-9.08 4.36-.62.29-1.24.67-1.89.77-.62.1-1.44.1-1.91-.23-.64-.44-1.24-1.18-1.42-1.9-.08-.32.83-1.11 1.42-1.34 3.11-1.22 6.24-2.4 9.41-3.44 1.59-.52 3.34.65 3.48 1.78h-.01zm125.31-45.48c.01 1.74-1.14 2.85-2.98 2.86-1.52 0-2.44-1.04-2.46-2.81-.03-1.72 1.18-2.72 3.24-2.71 1.32 0 2.19 1.05 2.2 2.66zm5 9.37c.02 1.34-.61 2.23-1.59 2.23-1 0-1.7-.69-1.74-1.72-.04-1.14.93-2.12 2.13-2.04.88.06 1.19.7 1.19 1.52l.01.01z" fill="#191919"/><path d="M146.841 158.118c.68-3.12 1.29-5.94 1.9-8.76.06 0 .12-.02.18-.03.18.58.37 1.16.53 1.76.39 1.5.76 3.01 1.16 4.51.16.61.04.97-.63 1.2-.99.34-1.93.8-3.14 1.32zm54.6-13.73c.57 2.16 1.16 4.31 1.69 6.48.06.24-.13.71-.34.81-1.05.51-2.14.93-3.45 1.48l1.84-8.79c.08 0 .16.01.25.02h.01zm-90.17-47.46c-1.03 0-2.06-.02-3.09 0-.69.02-.96-.28-.95-.95.02-1.64-.03-3.28.04-4.92.01-.3.49-.84.75-.84 2.44-.01 4.88-.03 7.31.16 1.7.14 2.53 1.32 2.55 3.09.02 1.88-.75 2.89-2.5 3.27-.26.06-.52.14-.79.15-1.11.02-2.21 0-3.32 0v.04zm.31-10.069c-1.11 0-2.21-.03-3.32 0-.72.03-1.05-.21-1.04-.97.03-1.53.02-3.05 0-4.58 0-.63.28-.91.89-.9 2.33.04 4.66 0 6.98.13 1.85.11 2.69 1.52 2.16 3.33-.04.15-.07.3-.12.44-.82 2.28-1.19 2.54-3.6 2.54h-1.95v.01zm15.09 24.759c0-.99.03-1.98-.01-2.97-.03-.75.27-1.04 1-1.02 2.05.07 4.11.09 6.16.17 2.88.11 3.48 2.61 2.6 4.59-.45 1.02-1.27 1.88-1.98 2.77-.18.22-.6.34-.91.34-1.98.03-3.96 0-5.94.03-.69.01-.96-.24-.93-.93.04-.99 0-1.98 0-2.97l.01-.01zm31.17 4.55c-.13 1.1-.19 2.48-.45 3.82-.63 3.18-2.32 4.54-5.56 4.61-3.47.08-5.32-1.22-5.72-4.66-.32-2.7-.31-5.48-.04-8.19.37-3.69 2.82-4.96 6.72-4.52 2.92.33 4.29 1.89 4.7 4.9.17 1.24.22 2.5.35 4.03v.01zm83.02 24.811c.26-3.5 1.62-6.63 3.18-9.7.43-.85.84-1.72 1.4-2.48.25-.34.93-.7 1.27-.59 1.43.48 2.82 1.1 4.2 1.73.75.34.97 1 .9 1.81-.26 2.97-1.89 5.18-3.97 7.11-1.6 1.48-3.39 2.69-5.59 3.18-1.22.27-1.42.18-1.38-1.05l-.01-.01zm4.4-2.33c.72-1.37 1.39-2.62 2.04-3.89.27-.53.59-1.08.71-1.65.19-.98-.45-1.58-1.25-1.94-.82-.37-1.51.11-1.78.79-.54 1.4-1.04 2.85-1.3 4.32-.22 1.28.45 2.02 1.58 2.37zm-54.19-31.061c1.07.06 2.14.06 3.19.21.57.09 1.24.31 1.62.71 1.35 1.38 1.27 3.1.82 4.81-.36 1.39-1.36 2.1-2.99 2.19-1.71.1-3.43.12-5.14.2-.67.03-.96-.23-.95-.93.03-2.06.04-4.12 0-6.18-.02-.79.35-.99 1.04-.97.8.02 1.6 0 2.4 0v-.05l.01.01z" fill="#fff"/><path d="M245.261 138.648c-1.13-.35-1.81-1.09-1.58-2.37.26-1.47.76-2.92 1.3-4.32.27-.69.96-1.16 1.78-.79.8.36 1.44.96 1.25 1.94-.11.58-.43 1.12-.71 1.65-.65 1.27-1.32 2.53-2.04 3.89z" fill="#191919"/><path d="M54.882 6.953c7.23 5.93 10.58 16.24 7.69 26.33-2.7 9.45-12.52 17.7-21.82 18.42l-.47 1.99c14.1-3.05 21.28-14.06 22.94-19.89 2.97-10.39-.67-21.01-8.35-26.85h.01zm-.78 43.51c-2.75-.26-5.52 1.6-5.52 1.6s2.38 2.33 5.13 2.59c4.02.37 4.84-1.66 4.84-1.66s-.43-2.15-4.45-2.52v-.01z" fill="#B4B4B4"/><path d="M45.912 44.244c-.71 2.61.61 5.59.61 5.59s2.64-1.9 3.35-4.51c1.03-3.81-.79-4.94-.79-4.94s-2.14.06-3.18 3.86h.01zm12.93 2.07c-2.66.02-5.14 2.05-5.14 2.05s2.5 2.01 5.16 1.99c3.89-.02 4.48-2.05 4.48-2.05s-.62-2.02-4.51-1.99h.01zm-7.86-5.24c-.11 2.55 1.72 5.02 1.72 5.02s2.04-2.3 2.15-4.85c.16-3.72-1.75-4.39-1.75-4.39s-1.96.5-2.13 4.22h.01zm11.78.519c-2.69.34-4.93 2.71-4.93 2.71s2.77 1.72 5.46 1.37c3.92-.5 4.27-2.62 4.27-2.62s-.87-1.96-4.79-1.46h-.01zm-7.85-4.51c.33 2.28 2.36 4.16 2.36 4.16s1.42-2.38 1.09-4.66c-.48-3.32-2.28-3.59-2.28-3.59s-1.65.77-1.18 4.09h.01zm9.75-.67c-2.3 1.14-3.59 3.96-3.59 3.96s3.02.68 5.32-.46c3.36-1.67 3.02-3.68 3.02-3.68s-1.39-1.49-4.75.18zm-6.85-3.58c.71 2.08 2.96 3.47 2.96 3.47s.91-2.48.2-4.56c-1.04-3.03-2.78-2.96-2.78-2.96s-1.41 1.01-.37 4.04l-.01.01zm8.6-2.44c-1.95 1.68-2.5 4.72-2.5 4.72s3.09-.08 5.05-1.76c2.85-2.44 2.02-4.31 2.02-4.31s-1.72-1.1-4.56 1.34l-.01.01zm-7.82-3.02c1.28 1.84 3.87 2.59 3.87 2.59s.21-2.69-1.07-4.53c-1.86-2.69-3.55-2.14-3.55-2.14s-1.11 1.39.76 4.08h-.01zm7.41-2.82c-1.3 2.05-.95 4.96-.95 4.96s2.77-.93 4.07-2.99c1.89-3 .63-4.45.63-4.45s-1.85-.52-3.74 2.48h-.01zm-7.47-2.319c1.69 1.08 4.08.81 4.08.81s-.75-2.29-2.44-3.37c-2.46-1.58-3.66-.54-3.66-.54s-.44 1.53 2.02 3.1zm6.72-3.921c-.98 2.16-.26 4.93-.26 4.93s2.56-1.27 3.54-3.44c1.44-3.16.02-4.4.02-4.4s-1.87-.25-3.3 2.9v.01zm-2.62-4.81c-.37 2.3 1.03 4.72 1.03 4.72s2.09-1.87 2.46-4.16c.54-3.35-1.12-4.16-1.12-4.16s-1.83.24-2.37 3.6zm-5.26 4.01c1.79 1.02 4.24.62 4.24.62s-.9-2.31-2.68-3.33c-2.61-1.49-3.79-.37-3.79-.37s-.37 1.59 2.24 3.08h-.01zm2-8.759c-.03 2.18 1.6 4.23 1.6 4.23s1.68-2.01 1.7-4.19c.04-3.17-1.61-3.69-1.61-3.69s-1.66.48-1.7 3.65h.01zm-4.67 4.23c2 .67 4.37-.21 4.37-.21s-1.35-2.15-3.35-2.82c-2.91-.98-3.88.38-3.88.38s-.06 1.67 2.85 2.65h.01zm.89-7.74c.31 1.97 2.09 3.58 2.09 3.58s1.21-2.07.91-4.05c-.45-2.88-2.01-3.09-2.01-3.09s-1.43.68-.98 3.56h-.01zm-4.23-1.781c.71 1.72 2.68 2.79 2.68 2.79s.64-2.15-.07-3.87c-1.03-2.52-2.5-2.37-2.5-2.37s-1.14.93-.11 3.44v.01zm-.67 5.601c1.85.22 3.75-.97 3.75-.97s-1.56-1.61-3.41-1.84c-2.7-.33-3.29 1.03-3.29 1.03s.25 1.46 2.95 1.78zm-3.99-4.341c1.84.88 4.22.3 4.22.3s-1.05-2.22-2.89-3.09c-2.68-1.28-3.77-.08-3.77-.08s-.25 1.6 2.44 2.87zm-30.49 2.23c-7.23 5.93-10.58 16.24-7.69 26.33 2.7 9.45 12.52 17.7 21.82 18.42l.47 1.99c-14.1-3.05-21.28-14.06-22.94-19.89-2.97-10.39.67-21.01 8.35-26.85h-.01zm.78 43.51c2.75-.26 5.52 1.6 5.52 1.6s-2.38 2.33-5.13 2.59c-4.02.37-4.84-1.66-4.84-1.66s.43-2.15 4.45-2.52v-.01z" fill="#B4B4B4"/><path d="M25.182 44.244c.71 2.61-.61 5.59-.61 5.59s-2.64-1.9-3.35-4.51c-1.03-3.81.79-4.94.79-4.94s2.14.06 3.18 3.86h-.01zm-12.93 2.07c2.66.02 5.14 2.05 5.14 2.05s-2.5 2.01-5.16 1.99c-3.89-.02-4.48-2.05-4.48-2.05s.62-2.02 4.51-1.99h-.01zm7.86-5.24c.11 2.55-1.72 5.02-1.72 5.02s-2.04-2.3-2.15-4.85c-.16-3.72 1.75-4.39 1.75-4.39s1.96.5 2.13 4.22h-.01zm-11.78.519c2.69.34 4.93 2.71 4.93 2.71s-2.77 1.72-5.46 1.37c-3.92-.5-4.27-2.62-4.27-2.62s.87-1.96 4.79-1.46h.01zm7.85-4.51c-.33 2.28-2.36 4.16-2.36 4.16s-1.42-2.38-1.09-4.66c.48-3.32 2.28-3.59 2.28-3.59s1.65.77 1.18 4.09h-.01zm-9.75-.67c2.3 1.14 3.59 3.96 3.59 3.96s-3.02.68-5.32-.46c-3.36-1.67-3.02-3.68-3.02-3.68s1.39-1.49 4.75.18zm6.851-3.58c-.71 2.08-2.96 3.47-2.96 3.47s-.91-2.48-.2-4.56c1.04-3.03 2.78-2.96 2.78-2.96s1.41 1.01.37 4.04l.01.01zm-8.601-2.44c1.95 1.68 2.5 4.72 2.5 4.72s-3.09-.08-5.05-1.76c-2.85-2.44-2.02-4.3-2.02-4.3s1.72-1.1 4.56 1.34h.01zm7.82-3.02c-1.28 1.84-3.87 2.59-3.87 2.59s-.21-2.69 1.07-4.53c1.86-2.69 3.55-2.14 3.55-2.14s1.11 1.39-.76 4.08h.01zm-7.409-2.82c1.3 2.05.95 4.96.95 4.96s-2.77-.93-4.07-2.99c-1.89-3-.63-4.45-.63-4.45s1.85-.52 3.74 2.48h.01zm7.469-2.319c-1.69 1.08-4.08.81-4.08.81s.75-2.29 2.44-3.37c2.46-1.58 3.66-.54 3.66-.54s.44 1.53-2.02 3.1zm-6.72-3.921c.98 2.16.26 4.93.26 4.93s-2.56-1.27-3.54-3.44c-1.44-3.16-.02-4.4-.02-4.4s1.87-.25 3.3 2.9v.01zm2.62-4.81c.37 2.3-1.03 4.72-1.03 4.72s-2.09-1.87-2.46-4.16c-.54-3.35 1.12-4.16 1.12-4.16s1.83.24 2.37 3.6zm5.26 4.01c-1.79 1.02-4.24.62-4.24.62s.9-2.31 2.68-3.33c2.61-1.49 3.79-.37 3.79-.37s.37 1.59-2.24 3.08h.01zm-1.999-8.759c.03 2.18-1.6 4.23-1.6 4.23s-1.68-2.01-1.7-4.19c-.04-3.17 1.61-3.69 1.61-3.69s1.66.48 1.7 3.65h-.01zm4.669 4.23c-2 .67-4.37-.21-4.37-.21s1.35-2.15 3.35-2.82c2.91-.98 3.88.38 3.88.38s.06 1.67-2.85 2.65h-.01zm-.89-7.74c-.31 1.97-2.09 3.58-2.09 3.58s-1.21-2.07-.91-4.05c.45-2.88 2.01-3.09 2.01-3.09s1.43.68.98 3.56h.01zm4.23-1.781c-.71 1.72-2.68 2.79-2.68 2.79s-.64-2.15.07-3.87c1.03-2.52 2.5-2.37 2.5-2.37s1.14.93.11 3.44v.01zm.67 5.601c-1.85.22-3.75-.97-3.75-.97s1.56-1.61 3.41-1.84c2.7-.33 3.29 1.03 3.29 1.03s-.25 1.46-2.95 1.78zm3.99-4.341c-1.84.88-4.22.3-4.22.3s1.05-2.22 2.89-3.09c2.68-1.28 3.77-.08 3.77-.08s.25 1.6-2.44 2.87z" fill="#B4B4B4"/><g style="mix-blend-mode:multiply"><path opacity=".02" d="M45.982 29.754c-.38 8.39 1.99 14.13 2.98 14.96 1 .84 3.31.14 4.62 1.15 1.31 1.01 2.64 6.21 1.97 7.18-1.01 1.44-25.83 1.15-25.87.87-.17-1.16.99-42.39 2.33-43.37 1.34-.97 19.3-2.23 20.32-.48 1.22 2.1-5.79 7.42-6.36 19.68l.01.01z" fill="#FDFCFC"/><path opacity=".04" d="M45.942 29.744c-.38 8.27 1.96 14.19 2.93 15.01 1.01.84 3.33.14 4.62 1.15 1.3 1 2.6 6.16 1.92 7.12-1.02 1.44-25.61 1.15-25.65.86-.18-1.15.95-42.37 2.28-43.33 1.33-.95 19.1-2.2 20.12-.44 1.2 2.07-5.68 7.49-6.23 19.63h.01z" fill="#FBFAF9"/><path opacity=".06" d="M45.892 29.734c-.37 8.15 1.92 14.25 2.89 15.06 1.01.85 3.34.15 4.62 1.14 1.28 1 2.56 6.11 1.88 7.06-1.02 1.44-25.39 1.15-25.43.85-.19-1.15.9-42.35 2.23-43.29 1.33-.93 18.9-2.16 19.92-.41 1.18 2.04-5.57 7.56-6.11 19.58v.01z" fill="#F8F7F6"/><path opacity=".08" d="M45.842 29.724c-.36 8.02 1.89 14.31 2.84 15.11 1.01.85 3.36.15 4.62 1.14 1.26 1 2.51 6.05 1.84 7-1.03 1.43-25.17 1.14-25.22.84-.2-1.14.86-42.33 2.18-43.25 1.33-.92 18.7-2.13 19.72-.38 1.17 2.01-5.46 7.63-5.99 19.53l.01.01z" fill="#F6F5F3"/><path opacity=".1" d="M45.792 29.704c-.36 7.9 1.85 14.37 2.8 15.16 1.02.85 3.38.15 4.62 1.14 1.25.99 2.47 6 1.79 6.95-1.03 1.43-24.95 1.14-25 .82-.2-1.13.81-42.31 2.14-43.21 1.32-.9 18.5-2.09 19.52-.34 1.15 1.98-5.35 7.7-5.87 19.48z" fill="#F4F2EF"/><path opacity=".12" d="M45.752 29.694c-.35 7.78 1.81 14.43 2.75 15.22 1.02.85 3.39.15 4.62 1.13 1.23.99 2.43 5.95 1.75 6.89-1.04 1.42-24.72 1.14-24.79.81-.21-1.12.77-42.29 2.09-43.17 1.32-.88 18.3-2.06 19.32-.31 1.13 1.94-5.24 7.78-5.74 19.43z" fill="#F2F0EC"/><path opacity=".14" d="M45.702 29.684c-.34 7.66 1.77 14.49 2.7 15.27 1.03.85 3.41.15 4.62 1.13 1.21.99 2.39 5.9 1.71 6.83-1.04 1.42-24.5 1.14-24.57.8-.22-1.12.72-42.27 2.04-43.13 1.32-.86 18.1-2.02 19.12-.28 1.11 1.91-5.12 7.85-5.62 19.38z" fill="#F0EDE9"/><path opacity=".16" d="M45.652 29.674c-.33 7.54 1.74 14.55 2.66 15.32 1.03.86 3.43.15 4.62 1.13 1.2.98 2.35 5.84 1.66 6.77-1.05 1.42-24.28 1.14-24.35.79-.22-1.11.68-42.25 1.99-43.09 1.31-.84 17.9-1.98 18.91-.24 1.09 1.88-5.01 7.92-5.5 19.33l.01-.01z" fill="#EDEAE6"/><path opacity=".18" d="M45.602 29.654c-.33 7.42 1.7 14.61 2.61 15.37 1.03.86 3.44.15 4.62 1.13 1.18.98 2.31 5.79 1.62 6.71-1.05 1.42-24.06 1.14-24.14.77-.23-1.1.64-42.23 1.95-43.05 1.31-.82 17.7-1.95 18.71-.21 1.08 1.85-4.9 7.99-5.38 19.28h.01z" fill="#EBE8E3"/><path opacity=".2" d="M45.562 29.644c-.32 7.3 1.66 14.67 2.57 15.42 1.04.86 3.46.15 4.62 1.12 1.17.97 2.26 5.74 1.58 6.65-1.06 1.41-23.84 1.14-23.92.76-.23-1.1.59-42.21 1.9-43.01 1.31-.8 17.49-1.91 18.51-.18 1.06 1.82-4.79 8.06-5.26 19.23v.01z" fill="#E9E5E0"/><path opacity=".22" d="M45.512 29.634c-.31 7.18 1.63 14.73 2.52 15.47 1.04.86 3.47.15 4.62 1.12 1.15.97 2.22 5.69 1.53 6.6-1.06 1.41-23.62 1.14-23.71.75-.24-1.09.55-42.19 1.85-42.97 1.3-.78 17.29-1.88 18.31-.14 1.04 1.78-4.68 8.13-5.13 19.18l.01-.01z" fill="#E7E3DD"/><path opacity=".24" d="M45.462 29.624c-.3 7.06 1.59 14.8 2.47 15.52 1.05.86 3.49.15 4.62 1.12 1.13.97 2.18 5.63 1.49 6.54-1.07 1.4-23.4 1.14-23.49.74-.24-1.08.5-42.17 1.8-42.93 1.3-.76 17.09-1.84 18.11-.11 1.02 1.75-4.57 8.2-5.01 19.12h.01z" fill="#E5E0DA"/><path opacity=".25" d="M45.422 29.604c-.3 6.94 1.56 14.86 2.43 15.57 1.05.87 3.51.15 4.62 1.11 1.12.96 2.14 5.58 1.45 6.48-1.07 1.4-23.18 1.14-23.27.72-.25-1.08.46-42.15 1.76-42.89 1.3-.74 16.89-1.81 17.91-.08 1 1.72-4.46 8.27-4.89 19.07l-.01.02z" fill="#E2DED6"/><path opacity=".27" d="M45.372 29.593c-.29 6.82 1.52 14.92 2.38 15.63 1.06.87 3.52.15 4.62 1.11 1.1.96 2.1 5.53 1.4 6.42-1.08 1.4-22.96 1.14-23.06.71-.25-1.07.42-42.13 1.71-42.85 1.29-.72 16.69-1.77 17.71-.04.98 1.69-4.34 8.34-4.77 19.02h.01z" fill="#E0DBD3"/><path opacity=".29" d="M45.322 29.584c-.28 6.69 1.48 14.98 2.34 15.68 1.06.87 3.54.15 4.62 1.11 1.08.96 2.05 5.47 1.36 6.36-1.08 1.39-22.74 1.13-22.84.7-.25-1.06.37-42.11 1.66-42.81 1.29-.7 16.49-1.73 17.5-.01.97 1.66-4.23 8.41-4.65 18.97h.01z" fill="#DED8D0"/><path opacity=".31" d="M45.272 29.574c-.27 6.57 1.45 15.04 2.29 15.73 1.06.87 3.56.15 4.62 1.11 1.07.95 2.01 5.42 1.32 6.31-1.09 1.39-22.52 1.13-22.62.69-.26-1.05.33-42.09 1.61-42.77 1.29-.68 16.29-1.7 17.3.02.95 1.63-4.12 8.48-4.52 18.92v-.01z" fill="#DCD6CD"/><path opacity=".33" d="M45.232 29.554c-.27 6.45 1.41 15.1 2.24 15.78 1.07.87 3.57.15 4.62 1.1 1.05.95 1.97 5.37 1.27 6.25-1.1 1.39-22.29 1.13-22.41.67-.26-1.05.28-42.07 1.57-42.73 1.28-.66 16.09-1.66 17.1.06.93 1.59-4.01 8.56-4.4 18.87h.01z" fill="#DAD3CA"/><path opacity=".35" d="M45.182 29.544c-.26 6.33 1.37 15.16 2.2 15.83 1.07.88 3.59.15 4.62 1.1 1.04.95 1.93 5.32 1.23 6.19-1.1 1.38-22.07 1.13-22.19.66-.26-1.04.24-42.05 1.52-42.69 1.28-.64 15.89-1.63 16.9.09.92 1.56-3.9 8.63-4.28 18.82z" fill="#D7D1C7"/><path opacity=".37" d="M45.132 29.534c-.25 6.21 1.34 15.22 2.15 15.88 1.08.88 3.61.15 4.62 1.1 1.02.94 1.89 5.26 1.19 6.13-1.11 1.38-21.85 1.13-21.98.65-.27-1.03.2-42.03 1.47-42.65 1.28-.62 15.69-1.59 16.7.12.9 1.53-3.79 8.7-4.16 18.77h.01z" fill="#D5CEC4"/><path opacity=".39" d="M45.082 29.524c-.24 6.09 1.3 15.28 2.11 15.93 1.08.88 3.62.15 4.62 1.09 1 .94 1.84 5.21 1.14 6.07-1.11 1.37-21.63 1.13-21.76.64-.27-1.03.15-42.01 1.42-42.61 1.27-.6 15.49-1.56 16.5.16.88 1.5-3.67 8.77-4.03 18.72z" fill="#D3CCC1"/><path opacity=".41" d="M45.042 29.504c-.24 5.97 1.26 15.34 2.06 15.98 1.09.88 3.64.15 4.62 1.09.99.94 1.8 5.16 1.1 6.02-1.12 1.37-21.41 1.13-21.54.62-.27-1.02.11-41.99 1.38-42.57 1.27-.58 15.29-1.52 16.3.19.86 1.47-3.56 8.84-3.91 18.67h-.01z" fill="#D1C9BE"/><path opacity=".43" d="M44.992 29.494c-.22 5.85 1.23 15.4 2.01 16.04 1.09.88 3.65.15 4.62 1.09.97.93 1.76 5.1 1.06 5.96-1.12 1.37-21.19 1.13-21.33.61-.28-1.01.06-41.97 1.33-42.53 1.27-.56 15.09-1.49 16.09.22.84 1.43-3.43 8.91-3.79 18.62l.01-.01z" fill="#CFC6BA"/><path opacity=".45" d="M44.942 29.484c-.21 5.73 1.19 15.46 1.97 16.09 1.09.89 3.67.15 4.62 1.08.95.93 1.72 5.05 1.01 5.9-1.13 1.36-20.97 1.13-21.11.6-.28-1.01.02-41.95 1.28-42.49 1.26-.54 14.89-1.45 15.89.25.83 1.4-3.32 8.98-3.67 18.57h.01z" fill="#CCC4B7"/><path opacity=".47" d="M44.892 29.474c-.2 5.61 1.16 15.52 1.92 16.14 1.1.89 3.69.15 4.62 1.08.94.93 1.67 5 .97 5.84-1.13 1.36-20.74 1.12-20.9.59-.28-1-.03-41.93 1.23-42.45 1.26-.52 14.69-1.42 15.69.29.81 1.37-3.21 9.05-3.55 18.51h.02z" fill="#CAC1B4"/><path opacity=".49" d="M44.852 29.454c-.19 5.49 1.12 15.58 1.87 16.19 1.1.89 3.7.15 4.62 1.08.92.92 1.63 4.95.93 5.78-1.14 1.36-20.52 1.12-20.68.57-.28-.99-.07-41.91 1.19-42.41s14.49-1.38 15.49.32c.79 1.34-3.09 9.12-3.42 18.46v.01z" fill="#C8BFB1"/><path opacity=".51" d="M44.802 29.444c-.19 5.36 1.08 15.64 1.83 16.24 1.11.89 3.72.15 4.62 1.08.9.92 1.59 4.89.88 5.72-1.15 1.35-20.3 1.12-20.46.56-.29-.99-.11-41.89 1.14-42.37 1.25-.48 14.29-1.34 15.29.35.77 1.31-2.98 9.2-3.3 18.41v.01z" fill="#C6BCAE"/><path opacity=".53" d="M44.752 29.434c-.18 5.24 1.05 15.7 1.78 16.29 1.11.89 3.74.16 4.62 1.07.89.92 1.55 4.84.84 5.67-1.15 1.35-20.08 1.12-20.25.55-.29-.98-.16-41.87 1.09-42.33 1.25-.46 14.09-1.31 15.09.39.75 1.27-2.87 9.27-3.18 18.36h.01z" fill="#C4BAAB"/><path opacity=".55" d="M44.702 29.424c-.17 5.12 1.01 15.76 1.74 16.34 1.12.9 3.75.16 4.62 1.07.87.91 1.51 4.79.8 5.61-1.16 1.34-19.86 1.12-20.03.54-.29-.98-.2-41.85 1.04-42.29 1.25-.44 13.89-1.27 14.89.42.73 1.24-2.76 9.34-3.06 18.31z" fill="#C2B7A8"/><path opacity=".57" d="M44.662 29.404c-.16 5 .97 15.82 1.69 16.39 1.12.9 3.77.16 4.62 1.07.86.91 1.46 4.73.75 5.55-1.16 1.34-19.63 1.12-19.82.52-.29-.97-.25-41.83 1-42.25 1.24-.42 13.68-1.24 14.68.45.72 1.21-2.65 9.41-2.94 18.26l.02.01z" fill="#BFB5A5"/><path opacity=".59" d="M44.612 29.394c-.16 4.88.94 15.88 1.64 16.45 1.13.9 3.78.16 4.62 1.06.84.91 1.42 4.68.71 5.49-1.17 1.34-19.41 1.12-19.6.51-.3-.96-.29-41.8.95-42.21 1.24-.41 13.48-1.2 14.48.49.7 1.18-2.53 9.48-2.81 18.21h.01z" fill="#BDB2A1"/><path opacity=".61" d="M44.562 29.384c-.15 4.76.9 15.94 1.6 16.5 1.13.9 3.8.16 4.62 1.06.82.9 1.38 4.63.67 5.43-1.17 1.33-19.19 1.12-19.38.5-.3-.96-.33-41.78.9-42.17 1.24-.39 13.28-1.17 14.28.52.68 1.15-2.42 9.55-2.69 18.16z" fill="#BBAF9E"/><path opacity=".63" d="M44.522 29.374c-.14 4.64.86 16 1.55 16.55 1.14.9 3.82.16 4.62 1.06.81.9 1.34 4.58.62 5.38-1.18 1.33-18.97 1.12-19.17.49-.3-.95-.38-41.76.85-42.13 1.23-.37 13.08-1.13 14.08.55.66 1.12-2.31 9.62-2.57 18.11l.02-.01z" fill="#B9AD9B"/><path opacity=".65" d="M44.472 29.354c-.13 4.52.83 16.06 1.51 16.6 1.14.9 3.83.16 4.62 1.06s1.29 4.52.58 5.32c-1.19 1.32-18.75 1.11-18.95.47-.3-.94-.42-41.74.81-42.09 1.23-.35 12.88-1.09 13.88.59.64 1.08-2.2 9.69-2.45 18.06v-.01z" fill="#B7AA98"/><path opacity=".67" d="M44.422 29.344c-.13 4.4.79 16.12 1.46 16.65 1.14.91 3.85.16 4.62 1.05s1.25 4.47.54 5.26c-1.19 1.32-18.52 1.11-18.73.46-.3-.94-.47-41.72.76-42.05 1.23-.33 12.68-1.06 13.68.62.62 1.05-2.09 9.76-2.32 18.01h-.01z" fill="#B4A895"/><path opacity=".69" d="M44.372 29.334c-.12 4.28.76 16.18 1.41 16.7 1.15.91 3.87.16 4.62 1.05.76.89 1.21 4.42.5 5.2-1.2 1.32-18.3 1.11-18.52.45-.3-.93-.51-41.7.71-42.01 1.22-.31 12.48-1.02 13.48.65.61 1.02-1.97 9.83-2.2 17.96z" fill="#B2A592"/><path opacity=".71" d="M44.332 29.314c-.11 4.16.72 16.24 1.37 16.75 1.15.91 3.88.16 4.62 1.05.74.89 1.17 4.36.45 5.14-1.2 1.31-18.08 1.11-18.3.44-.31-.93-.55-41.68.66-41.97 1.22-.29 12.28-.99 13.28.69.59.99-1.86 9.9-2.08 17.9z" fill="#B0A38F"/><path opacity=".73" d="M44.282 29.304c-.11 4.03.68 16.3 1.32 16.8 1.16.91 3.9.16 4.62 1.04.72.88 1.12 4.31.41 5.09-1.21 1.31-17.86 1.11-18.09.42-.31-.92-.6-41.66.62-41.93 1.22-.27 12.08-.95 13.07.72.57.96-1.75 9.98-1.96 17.85l.01.01z" fill="#AEA08C"/><path opacity=".75" d="M44.232 29.294c-.1 3.91.65 16.36 1.28 16.86 1.16.91 3.92.16 4.62 1.04.71.88 1.08 4.26.37 5.03-1.22 1.3-17.63 1.11-17.87.41-.31-.91-.64-41.64.57-41.89s11.88-.92 12.87.75c.55.93-1.64 10.05-1.84 17.8z" fill="#AC9D89"/><path opacity=".76" d="M44.182 29.284c-.09 3.79.61 16.42 1.23 16.91 1.17.91 3.93.16 4.62 1.04s1.04 4.2.32 4.97c-1.22 1.3-17.41 1.11-17.65.4-.31-.91-.69-41.62.52-41.85 1.21-.23 11.68-.88 12.67.79.53.89-1.53 10.12-1.71 17.75v-.01z" fill="#A99B85"/><path opacity=".78" d="M44.142 29.264c-.08 3.67.58 16.48 1.18 16.96 1.17.92 3.95.16 4.62 1.03.68.87 1 4.15.28 4.91-1.23 1.3-17.19 1.1-17.44.39-.31-.9-.73-41.6.47-41.81 1.21-.21 11.48-.84 12.47.82.51.86-1.42 10.19-1.59 17.7h.01z" fill="#A79882"/><path opacity=".8" d="M44.092 29.254c-.08 3.55.54 16.54 1.14 17.01 1.18.92 3.96.16 4.62 1.03.66.87.96 4.1.24 4.85-1.23 1.29-16.97 1.1-17.22.37-.31-.9-.78-41.58.43-41.77 1.2-.19 11.28-.81 12.27.85.5.83-1.31 10.26-1.47 17.65l-.01.01z" fill="#A5967F"/><path opacity=".82" d="M44.042 29.244c-.07 3.43.5 16.6 1.09 17.06 1.18.92 3.98.16 4.62 1.03.64.87.91 4.04.19 4.79-1.24 1.29-16.74 1.1-17.01.36-.32-.89-.82-41.56.38-41.73 1.2-.17 11.07-.77 12.07.89.48.8-1.2 10.33-1.35 17.6h.01z" fill="#A3937C"/><path opacity=".84" d="M43.992 29.233c-.06 3.31.47 16.66 1.04 17.11 1.19.92 4 .16 4.62 1.03.63.86.87 3.99.15 4.74-1.25 1.28-16.52 1.1-16.79.35-.32-.88-.86-41.54.33-41.69 1.2-.15 10.87-.74 11.87.92.46.77-1.09 10.4-1.22 17.55v-.01z" fill="#A19179"/><path opacity=".86" d="M43.952 29.214c-.06 3.19.43 16.72 1 17.16 1.19.92 4.01.16 4.62 1.02.61.86.83 3.94.11 4.68-1.25 1.28-16.3 1.1-16.57.34-.32-.88-.91-41.52.28-41.65 1.19-.13 10.67-.7 11.66.95.44.74-.98 10.47-1.1 17.5z" fill="#9E8E76"/><path opacity=".88" d="M43.902 29.204c-.05 3.07.39 16.78.95 17.22 1.2.92 4.03.16 4.62 1.02.59.86.78 3.88.06 4.62-1.26 1.27-16.07 1.1-16.36.32-.32-.87-.95-41.5.24-41.61 1.19-.11 10.47-.66 11.46.99.42.7-.87 10.54-.98 17.45l.01-.01z" fill="#9C8B73"/><path opacity=".9" d="M43.852 29.194c-.04 2.95.36 16.84.91 17.27 1.2.92 4.05.16 4.62 1.02.58.85.74 3.83.02 4.56-1.27 1.27-15.85 1.09-16.14.31-.32-.87-1-41.48.19-41.57 1.18-.09 10.27-.63 11.26 1.02.4.67-.76 10.61-.86 17.4v-.01z" fill="#9A8970"/><path opacity=".92" d="M43.802 29.183c-.04 2.83.32 16.9.86 17.32 1.21.93 4.06.16 4.62 1.01.56.85.7 3.78-.02 4.5-1.27 1.27-15.63 1.09-15.92.3-.32-.86-1.04-41.46.14-41.53 1.18-.07 10.07-.59 11.06 1.05.39.64-.66 10.68-.74 17.35z" fill="#98866C"/><path opacity=".94" d="M43.762 29.164c-.04 2.7.29 16.96.81 17.37 1.21.92 4.08.16 4.62 1.01s.66 3.73-.07 4.45c-1.28 1.26-15.4 1.09-15.71.29-.32-.85-1.08-41.44.09-41.49 1.18-.05 9.86-.56 10.86 1.08.37.61-.55 10.76-.61 17.29h.01z" fill="#968469"/><path opacity=".96" d="M43.712 29.154c-.03 2.58.25 17.02.77 17.42 1.22.93 4.1.16 4.62 1.01.53.84.62 3.67-.11 4.39-1.28 1.26-15.18 1.09-15.49.27-.31-.82-1.13-41.42.05-41.45 1.17-.03 9.66-.52 10.66 1.12.35.58-.44 10.83-.49 17.24h-.01z" fill="#938166"/><path opacity=".98" d="M43.662 29.144c-.02 2.46.21 17.08.72 17.47 1.22.93 4.11.16 4.62 1.01.51.84.57 3.62-.15 4.33-1.29 1.25-14.95 1.09-15.28.26-.33-.83-1.17-41.4 0-41.41 1.17-.01 9.46-.48 10.46 1.15.33.55-.32 10.9-.37 17.19z" fill="#917F63"/><path d="M43.622 29.134c-.01 2.34.18 17.14.68 17.52 1.23.93 4.13.17 4.62 1 .5.84.53 3.57-.2 4.27-1.29 1.25-14.73 1.08-15.06.25-.33-.84-1.22-41.38-.05-41.37 1.17 0 9.26-.45 10.25 1.18.31.51-.21 10.97-.25 17.14l.01.01z" fill="#8F7C60"/></g><path d="M23.782 54.694c-.18 0-.28-.08-.34-.14a.424.424 0 01-.08-.33c.02-.11-.02-1.6-.05-3.31-.03-1.71-.06-3.18-.05-3.29.04-.3.25-.44.43-.44.16 0 3.84-.03 4.27-.04-.02-.76-.28-11.18-.32-12.57-.04-1.33-.11-10.45-.11-11.16-.6.02-6.19.21-6.32.21-.22 0-.37-.15-.37-.37 0-.06-.08-6.08-.07-6.22.02-.24.15-.4.38-.48l.04-.02c1.77-.61 3.54-1.51 4.98-2.53 2.37-1.68 4.08-3.88 4.49-4.51.2-.3.34-.3.52-.31.06 0 .12 0 .19-.01.3-.05 11.57-.24 12.39-.24h.04c.28 0 .46.07.46.37 0 .12-.05 3.12-.11 6.92-.07 4.35-.15 9.76-.19 12.42-.06 4.37.16 17.43.17 18.27.37 0 3.06-.02 4.16-.01h.48c.19.02.29.14.29.33 0 .08.07 1.58.15 3.16.09 1.79.17 3.65.18 3.76 0 .26-.09.42-.28.46-.16.04-6.6-.26-13.43-.14h-.1c-5.42.1-11.56.16-11.74.19h-.1l.04.03z" fill="#fff" stroke="#191919" stroke-miterlimit="10"/><path d="M21.212 16.644c.37-.13 2.72-.91 5.03-2.55 2.57-1.82 4.26-4.15 4.51-4.53.24-.38.39-.26.68-.3.29-.05 11.95-.25 12.43-.24.29 0 .42.08.42.33s-.23 14.42-.29 19.34c-.06 4.55.17 18.31.17 18.31s4.46-.03 4.67 0c.17.02.25.12.25.29 0 .17.32 6.71.33 6.92 0 .21-.06.38-.24.42-.16.04-6.66-.02-13.51.03-5.9.04-11.56 0-11.74.02-.37.05-.5-.2-.46-.41.04-.21-.13-6.38-.1-6.6.04-.27.22-.4.39-.4s4.32-.04 4.32-.04-.28-11.16-.32-12.61c-.04-1.4-.11-11.2-.11-11.2s-6.23.21-6.36.21c-.19 0-.34-.12-.34-.33 0-.17-.08-6.08-.07-6.21.02-.19.1-.36.35-.44l-.01-.01z" stroke="#191919" stroke-miterlimit="10"/></svg>