<svg width="369" height="463" viewBox="0 0 369 463" fill="none" xmlns="http://www.w3.org/2000/svg"><path d="M76.4 239.166l-.319-.731c-.35-.795-8.457-19.489-5.42-26.88.556-1.352 1.446-2.289 2.638-2.782 2.162-1.113 42.888-22.016 51.71-18.726.906.334 1.511.89 1.813 1.669 3.131 7.821 9.442 20.474 9.505 20.602l.382.747-60.31 26.085v.016zm46.082-47.895c-9.585 0-37.658 13.353-48.483 18.948l-.064.032c-.81.334-1.399.954-1.796 1.924-2.464 6.008 3.64 21.38 5.103 24.909l57.305-24.782c-1.415-2.862-6.486-13.194-9.188-19.966-.143-.334-.429-.588-.906-.763-.525-.191-1.176-.286-1.971-.286v-.016zM81.39 363.537c-1.447 0-2.607-.239-3.418-.747-8.154-5.151-5.245-16.31-5.118-16.771l.08-.27.222-.159c1.542-1.113 37.833-27.15 46.83-25.036.938.222 1.621.715 2.019 1.462 11.047 20.729 10.316 21.269 9.601 21.81a.92.92 0 01-.779.143c-5.468 2.909-37.26 19.6-49.453 19.6l.016-.032zm-7.058-16.85c-.365 1.653-2.019 10.634 4.483 14.751 6.008 3.8 39.009-12.335 51.471-19.011-.429-1.383-2.257-5.771-9.68-19.696-.112-.206-.334-.508-.986-.667-6.835-1.558-34.765 17.056-45.304 24.607l.016.016zm198 59.132c-53.03 0-96.172-90.925-96.172-202.675C176.16 91.394 219.302.469 272.332.469c53.029 0 96.171 90.925 96.171 202.675 0 111.75-43.142 202.675-96.171 202.675zm0-403.76c-52.156 0-94.582 90.21-94.582 201.085 0 110.875 42.426 201.086 94.582 201.086 52.155 0 94.581-90.211 94.581-201.086 0-110.875-42.426-201.086-94.581-201.086z" fill="#fff"/><path d="M292.555 5.824c-42.125 20.951-73.472 100.988-73.472 196.524 0 95.535 32.19 177.686 75.157 197.318 42.124-20.951 73.472-100.988 73.472-196.523 0-95.536-32.19-177.687-75.157-197.319z" fill="#000"/><path d="M294.224 400.463a.83.83 0 01-.334-.064c-21.157-9.665-40.376-34.59-54.094-70.15-13.877-35.957-21.524-81.388-21.524-127.884 0-94.486 30.394-175.588 73.917-197.239a.743.743 0 01.684 0c21.158 9.665 40.376 34.59 54.094 70.15 13.878 35.957 21.524 81.388 21.524 127.884 0 94.487-30.394 175.588-73.917 197.239a.7.7 0 01-.35.079v-.015zM292.555 6.7c-20.252 10.253-38.643 34.972-51.805 69.689-13.48 35.543-20.888 80.275-20.888 125.944 0 93.883 31.252 176.368 74.346 196.445 20.252-10.253 38.644-34.972 51.806-69.689 13.464-35.544 20.887-80.275 20.887-125.945 0-93.882-31.252-176.383-74.346-196.444z" fill="#fff"/><mask id="a" style="mask-type:luminance" maskUnits="userSpaceOnUse" x="101" y="80" width="266" height="292"><path d="M124.484 161.814s77.891-33.382 120.81-49.278c24.131-8.933 103.325-31.792 103.325-31.792s15.721 33.382 17.486 95.377c1.589 55.636 0 69.943 0 69.943S127.663 376.412 122.894 371.643c-4.769-4.769-23.844-58.816-20.665-69.943 3.18-11.127 232.083-125.579 232.083-125.579s-198.701 68.353-206.649 63.584c-7.948-4.769-14.306-54.047-3.179-77.891z" fill="#fff"/></mask><g mask="url(#a)"><mask id="b" style="mask-type:luminance" maskUnits="userSpaceOnUse" x="331" y="-20" width="115" height="116"><path d="M445.542-19.116H331.09V95.336h114.452V-19.116z" fill="#fff"/></mask><g mask="url(#b)"><path d="M354.725 96.246l-.398-.27 2.114-3.1.382.27-2.098 3.1zm-20.243-1.875l-.387.278 2.645 3.679.387-.279-2.645-3.678z" fill="#1D1D1B"/><path d="M445.794-18.321H331.342v120.81h114.452v-120.81z" fill="#fff"/><path d="M335.784 87.387l-3.578 2.779.293.377 3.577-2.78-.292-.376zm18.941 8.856l-.398-.27 2.114-3.1.382.27-2.098 3.1zm-10.618-2.48l-.461-.096 1.446-6.708.461.095-1.446 6.709zm-9.624.603l-.387.278 2.645 3.679.387-.279-2.645-3.678zm6.857-11.556l-.477-.032.398-6.358.477.032-.398 6.358zm21.427 2.908l-3.974-5.564.382-.286 3.974 5.564-.382.286z" fill="#1D1D1B"/><path d="M331.342-18.32H216.89v120.811h114.452v-120.81z" fill="#fff"/><path d="M331.119 81.046l-6.756-1.192.08-.477 6.756 1.192-.08.477z" fill="#1D1D1B"/></g><mask id="c" style="mask-type:luminance" maskUnits="userSpaceOnUse" x="331" y="95" width="115" height="115"><path d="M445.542 95.34H331.09v114.452h114.452V95.34z" fill="#fff"/></mask><g mask="url(#c)"><path d="M354.726 210.697l-.398-.27 2.114-3.1.382.27-2.098 3.1zm-20.233-1.882l-.388.279 2.645 3.678.388-.279-2.645-3.678z" fill="#1D1D1B"/><path d="M445.794 96.138H331.342v120.81h114.452V96.138z" fill="#fff"/><path d="M338.18 112.445l-4.374 3.174.28.386 4.374-3.174-.28-.386zm-2.398 89.404l-3.578 2.779.293.377 3.577-2.78-.292-.376zm18.943 8.851l-.398-.27 2.114-3.1.382.27-2.098 3.1zm-10.618-2.479l-.461-.095 1.446-6.708.461.095-1.446 6.708zm-9.613.596l-.388.279 2.645 3.678.388-.279-2.645-3.678zm11.679-102.345l-5.564-2.384.191-.445 5.564 2.384-.191.445zm-9.6 22.047l-.477-.031.397-5.167.477.032-.397 5.166zm7.486 42.601l-2.384-5.961.445-.191 2.384 5.961-.445.191zm-6.328-14.672l-.414-.255 3.577-5.961.413.255-3.576 5.961zm21.494-53.379h-.477v4.769h.477v-4.769zm-10.144 8.981l-.063-.477 5.166-.795.063.477-5.166.795zm12.447 11.318l-.795-5.167.477-.063.795 5.166-.477.064zm6.54-13.754l-5.566 1.187.099.466 5.566-1.187-.099-.466zm-19.956 16.74l-4.374 3.174.28.386 4.375-3.174-.281-.386zm-6.772 70.915l-.477-.032.398-6.358.477.032-.398 6.358zm-.461-12.971l-.35-.318 3.577-3.974.35.318-3.577 3.974zm21.888 15.881l-3.974-5.564.382-.286 3.974 5.564-.382.286zm8.886-40.839l-5.961-1.192.096-.477 5.961 1.192-.096.477zm-3.275 7.506l-3.974-2.782.271-.381 3.974 2.781-.271.382zm-11.921-13.117l-3.974-2.782.271-.382 3.974 2.782-.271.382zm-3.435 5.134h-4.769v.477h4.769v-.477zm.526 12.368l-.254-.413 4.371-2.782.255.413-4.372 2.782zm11.603-28.279l-4.848-.207.016-.476 4.848.206-.016.477zm.398-6.646l-3.783-2.893.286-.382 3.783 2.893-.286.382zm-11.968 53.03l-.795-5.166.477-.064.795 5.167-.477.063zm8.121-9.785l-5.565 1.187.099.467 5.566-1.187-.1-.467zm-16.457-62.722l-.308.364 5.169 4.375.308-.364-5.169-4.375zm-12.36 28.555l-.271-.381 3.974-2.782.271.381-3.974 2.782zm18.295-9.142l-.286-.381 3.179-2.384.286.381-3.179 2.384zm10.476 52.808l-.461-.112 1.129-4.466.461.127-1.129 4.451zm-28.105-55.621h-4.769v.477h4.769v-.477zm-4.626 27.85l-.286-.382 3.179-2.384.286.381-3.179 2.385zm25.8-65.029l-.398-.27 2.114-3.1.382.27-2.098 3.1zm-20.242-1.875l-.387.278 2.645 3.678.387-.278-2.645-3.678zm2.995 84.041l-5.961-1.192.095-.477 5.961 1.192-.095.477z" fill="#1D1D1B"/><path d="M331.342 96.137H216.89v120.81h114.452V96.137z" fill="#fff"/><path d="M326.049 108.073l-.111-.476 5.166-1.193.111.477-5.166 1.192zm7.503 25.355h-4.769v.477h4.769v-.477zm-4.627 27.851l-.286-.382 3.179-2.384.286.381-3.179 2.385zm2.196 34.223l-6.756-1.192.08-.477 6.756 1.192-.08.477z" fill="#1D1D1B"/><path d="M445.796-18.317H331.344v120.81h114.452v-120.81z" fill="#fff"/><path d="M354.727 96.246l-.398-.27 2.114-3.1.382.27-2.098 3.1zm-20.241-1.876l-.387.277 2.645 3.679.387-.279-2.645-3.678z" fill="#1D1D1B"/><path d="M331.342-18.317H216.89v120.81h114.452v-120.81z" fill="#fff"/></g><mask id="d" style="mask-type:luminance" maskUnits="userSpaceOnUse" x="331" y="209" width="115" height="116"><path d="M445.542 209.79H331.09v114.452h114.452V209.79z" fill="#fff"/></mask><g mask="url(#d)"><path d="M354.727 325.145l-.398-.27 2.114-3.1.382.271-2.098 3.099zm-20.227-1.887l-.387.278 2.645 3.678.387-.278-2.645-3.678z" fill="#1D1D1B"/><path d="M445.794 210.585H331.342v120.81h114.452v-120.81z" fill="#fff"/><path d="M338.18 226.894l-4.374 3.174.28.386 4.374-3.174-.28-.386zm-2.4 89.399l-3.578 2.779.293.377 3.577-2.779-.292-.377zm18.945 8.854l-.398-.27 2.114-3.1.382.271-2.098 3.099zm-10.618-2.48l-.461-.096 1.446-6.708.461.096-1.446 6.708zm-9.608.59l-.387.278 2.645 3.678.387-.278-2.645-3.678zm11.674-102.341l-5.564-2.384.191-.445 5.564 2.384-.191.445zm-9.6 22.048l-.477-.032.397-5.166.477.031-.397 5.167zm7.486 42.601l-2.384-5.961.445-.191 2.384 5.961-.445.191zm-6.328-14.673l-.414-.254 3.577-5.961.413.254-3.576 5.961zm21.492-53.378h-.477v4.769h.477v-4.769zm-10.142 8.981l-.063-.477 5.166-.794.063.476-5.166.795zm12.447 11.319l-.795-5.166.477-.064.795 5.166-.477.064zm6.538-13.76l-5.566 1.187.099.467 5.566-1.187-.099-.467zm-19.956 16.75l-4.374 3.175.28.385 4.375-3.174-.281-.386zm-6.77 70.909l-.477-.031.398-6.359.477.032-.398 6.358zm-.461-12.97l-.35-.318 3.577-3.974.35.318-3.577 3.974zm21.888 15.881l-3.974-5.563.382-.287 3.974 5.564-.382.286zm8.885-40.837l-5.961-1.192.096-.477 5.961 1.192-.096.477zm-3.274 7.501l-3.974-2.781.271-.382 3.974 2.782-.271.381zm-11.923-13.114l-3.974-2.782.271-.381 3.974 2.782-.271.381zm-3.433 5.137h-4.769v.476h4.769v-.476zm.526 12.365l-.254-.414 4.371-2.782.255.414-4.372 2.782zm11.603-28.278l-4.848-.206.016-.477 4.848.206-.016.477zm.398-6.645l-3.783-2.893.286-.381 3.783 2.893-.286.381zm-11.97 53.032l-.795-5.167.477-.063.795 5.166-.477.064zm8.12-9.779l-5.565 1.187.099.467 5.566-1.187-.1-.467zm-16.469-62.728l-.308.364 5.169 4.374.308-.364-5.169-4.374zm-12.345 28.55l-.271-.381 3.974-2.782.271.382-3.974 2.781zm18.295-9.139l-.286-.382 3.179-2.384.286.381-3.179 2.385zm10.476 52.806l-.461-.111 1.129-4.467.461.127-1.129 4.451zm-28.105-55.619h-4.769v.477h4.769v-.477zm-4.626 27.848l-.286-.382 3.179-2.384.286.381-3.179 2.385zm25.8-65.029l-.398-.27 2.114-3.1.382.27-2.098 3.1zm-20.231-1.883l-.388.279 2.645 3.678.388-.278-2.645-3.679zm2.982 84.05l-5.961-1.192.095-.477 5.961 1.193-.095.476z" fill="#1D1D1B"/><path d="M331.342 210.583H216.89v120.81h114.452v-120.81z" fill="#fff"/><path d="M326.047 222.52l-.111-.477 5.166-1.192.111.476-5.166 1.193zm7.505 25.354h-4.769v.477h4.769v-.477zm-4.627 27.851l-.286-.382 3.179-2.384.286.381-3.179 2.385zm2.194 34.223l-6.756-1.192.08-.477 6.756 1.193-.08.476z" fill="#1D1D1B"/><path d="M445.796 96.132H331.344v120.81h114.452V96.132z" fill="#fff"/><path d="M354.726 210.695l-.398-.27 2.114-3.1.382.27-2.098 3.1zm-20.233-1.882l-.388.279 2.645 3.678.388-.278-2.645-3.679z" fill="#1D1D1B"/><path d="M331.342 96.132H216.89v120.81h114.452V96.132z" fill="#fff"/></g><mask id="e" style="mask-type:luminance" maskUnits="userSpaceOnUse" x="331" y="324" width="115" height="115"><path d="M445.542 324.242H331.09v114.452h114.452V324.242z" fill="#fff"/></mask><g mask="url(#e)"><path d="M445.794 325.038H331.342v120.81h114.452v-120.81z" fill="#fff"/><path d="M338.164 341.349l-4.374 3.174.28.386 4.374-3.174-.28-.386zm8.009-5.978l-5.564-2.385.191-.445 5.564 2.384-.191.446zm-9.6 22.047l-.477-.032.397-5.166.477.032-.397 5.166zm22.652-25.45h-.477v4.769h.477v-4.769zm-10.144 8.98l-.063-.476 5.166-.795.063.477-5.166.794zm12.447 11.318l-.795-5.166.477-.064.795 5.166-.477.064zm6.537-13.75l-5.566 1.187.1.467 5.565-1.188-.099-.466zm-19.953 16.742l-4.374 3.175.28.386 4.375-3.175-.281-.386zm17.039 16.595l-4.848-.207.016-.477 4.848.207-.016.477zm.398-6.647l-3.783-2.893.286-.381 3.783 2.893-.286.381zm-20.317-19.458l-.308.364 5.169 4.375.308-.364-5.169-4.375zm-12.349 28.535l-.271-.381 3.974-2.782.271.382-3.974 2.781zm18.297-9.139l-.286-.382 3.179-2.384.286.381-3.179 2.385zm-17.629-2.817h-4.769v.477h4.769v-.477zm21.174-37.181l-.398-.27 2.114-3.1.382.271-2.098 3.099zm-20.227-1.887l-.387.278 2.645 3.678.387-.278-2.645-3.678z" fill="#1D1D1B"/><path d="M331.342 325.039H216.89v120.81h114.452v-120.81z" fill="#fff"/><path d="M326.047 336.978l-.111-.477 5.166-1.192.111.477-5.166 1.192zm7.505 25.352h-4.769v.477h4.769v-.477z" fill="#1D1D1B"/><path d="M445.794 210.584H331.342v120.81h114.452v-120.81z" fill="#fff"/><path d="M354.724 325.147l-.398-.27 2.114-3.1.382.271-2.098 3.099zm-20.226-1.889l-.387.278 2.645 3.678.387-.278-2.645-3.678z" fill="#1D1D1B"/><path d="M331.342 210.584H216.89v120.81h114.452v-120.81z" fill="#fff"/></g><mask id="f" style="mask-type:luminance" maskUnits="userSpaceOnUse" x="216" y="-20" width="116" height="116"><path d="M331.086-19.116H216.634V95.336h114.452V-19.116z" fill="#fff"/></mask><g mask="url(#f)"><path d="M324.33 92.106l-1.765 4.704.447.167 1.764-4.703-.446-.168zm-10.026-.26l-.468.09.998 5.214.468-.09-.998-5.214zm-23.439 1.822l-.187 4.765.476.018.187-4.765-.476-.019zm-25.128 2.368l-2.273-3.275.397-.27 2.258 3.275-.382.27zm-25.466.207l-.397-.27 2.114-3.1.382.27-2.099 3.1zm-20.233-1.867l-.388.278 2.645 3.678.388-.278-2.645-3.678zm83.072 4.474l-.397-.27 3.179-4.769.398.27-3.18 4.77z" fill="#1D1D1B"/><path d="M331.341-18.318H216.889v120.81h114.452v-120.81z" fill="#fff"/><path d="M221.329 87.386l-3.578 2.779.293.377 3.577-2.78-.292-.376zm109.786-6.34l-6.756-1.192.08-.477 6.756 1.192-.08.477zm-15.602-3.19l-3.577 2.78.292.376 3.578-2.779-.293-.377zm8.815 14.247l-1.765 4.704.447.167 1.764-4.703-.446-.168zm-10.024-.258l-.468.09.998 5.214.468-.09-.998-5.214zm-23.437 1.82l-.187 4.766.476.018.187-4.765-.476-.019zm-8.956-5.279l-2.944 4.264.392.271 2.944-4.264-.392-.271zm-16.174 7.65l-2.273-3.275.397-.27 2.258 3.275-.382.27zm-25.466.206l-.397-.27 2.114-3.1.382.27-2.099 3.1zm-10.618-2.479l-.461-.096 1.447-6.708.461.095-1.447 6.709zm-9.615.613l-.388.278 2.645 3.678.388-.278-2.645-3.678zm37.643-6.743l-.187 4.765.477.02.187-4.766-.477-.019zm-30.794-4.823l-.477-.032.398-6.358.476.032-.397 6.358zm21.427 2.91l-3.974-5.564.381-.286 3.974 5.564-.381.286zm17.549.061l-3.179-1.987.254-.413 3.179 1.987-.254.413zm25.768-.063l-4.848-.207.016-.477 4.848.207-.016.477zm13.575 1.257l-4.371-2.781.254-.414 4.372 2.782-.255.413zM303.11 98.85l-.397-.27 3.179-4.77.398.27-3.18 4.77z" fill="#1D1D1B"/><path d="M216.888-18.32H102.437v120.811h114.451v-120.81z" fill="#fff"/><path d="M216.666 81.046l-6.756-1.192.08-.477 6.755 1.192-.079.477z" fill="#1D1D1B"/></g><mask id="g" style="mask-type:luminance" maskUnits="userSpaceOnUse" x="216" y="95" width="116" height="115"><path d="M331.086 95.34H216.634v114.452h114.452V95.34z" fill="#fff"/></mask><g mask="url(#g)"><path d="M324.34 206.553l-1.764 4.703.447.167 1.764-4.703-.447-.167zm-10.051-.24l-.469.089.998 5.215.468-.09-.997-5.214zm-23.43 1.821l-.187 4.765.476.019.188-4.765-.477-.019zm-25.119 2.358l-2.273-3.275.397-.27 2.257 3.275-.381.27zm-25.467.205l-.397-.27 2.114-3.1.382.27-2.099 3.1zm-20.225-1.874l-.387.279 2.645 3.678.387-.279-2.645-3.678zm83.062 4.481l-.397-.271 3.179-4.768.398.27-3.18 4.769zm30.438-79.876h-4.769v.477h4.769v-.477zm-4.625 27.852l-.286-.382 3.179-2.384.286.381-3.179 2.385z" fill="#1D1D1B"/><path d="M331.34 96.134H216.888v120.81H331.34V96.134z" fill="#fff"/><path d="M223.722 112.426l-4.374 3.175.28.386 4.374-3.175-.28-.386zm-2.395 89.413l-3.578 2.779.293.377 3.577-2.779-.292-.377zm104.718-93.767l-.111-.476 5.166-1.193.111.477-5.166 1.192zm-.714 20.219l-.27-.381 3.974-2.782.27.381-3.974 2.782zm8.216 5.134h-4.769v.477h4.769v-.477zm-5.293 12.369l-4.371-2.782.254-.413 4.372 2.781-.255.414zm.67 15.483l-.286-.382 3.179-2.384.286.381-3.179 2.385zm-1.097 16.69l-4.372-3.577.302-.381 4.372 3.576-.302.382zm3.287 17.534l-6.756-1.192.08-.477 6.756 1.192-.08.477zm-15.603-3.191l-3.577 2.779.292.376 3.578-2.779-.293-.376zm13.269-25.501h-4.769v.476h4.769v-.476zm-22.064-43.349l-3.004-4.483.397-.27 3.005 4.499-.398.254zm-47.69-2.385l-2.623-4.069.398-.271 2.623 4.086-.398.254zm26.866-11.622l-2.944 4.265.393.271 2.944-4.265-.393-.271zm38.441 97.098l-1.764 4.703.447.167 1.764-4.703-.447-.167zm-10.046-.238l-.469.089.998 5.215.468-.09-.997-5.214zm-9.162-34.371l-3.004-4.482.397-.271 3.005 4.499-.398.254zm-13.258-45.208l-2.638-4.07.397-.254 2.639 4.07-.398.254zm-1.011 81.399l-.187 4.765.476.019.188-4.765-.477-.019zm-8.944-5.3l-2.944 4.265.392.271 2.944-4.265-.392-.271zm-16.176 7.657l-2.273-3.274.397-.271 2.258 3.275-.382.27zm29.154-49.978l-.366-.318 3.736-4.228.366.302-3.736 4.244zm-54.62 50.186l-.397-.27 2.114-3.1.382.27-2.099 3.1zm-10.618-2.48l-.461-.096 1.447-6.708.461.095-1.447 6.709zm-9.608.605l-.387.279 2.645 3.678.387-.279-2.645-3.678zm37.627-6.726l-.188 4.765.477.019.187-4.765-.476-.019zm-25.952-95.632l-5.564-2.384.191-.445 5.564 2.384-.191.445zm-9.601 22.049l-.476-.031.397-5.167.477.032-.398 5.166zm7.486 42.602l-2.384-5.961.445-.191 2.384 5.961-.445.191zm-6.327-14.672l-.414-.254 3.577-5.961.413.254-3.576 5.961zm34.542-49.644l-.349-.318 3.576-3.974.35.318-3.577 3.974zm10.326-4.283l-.308.364 5.169 4.374.308-.364-5.169-4.374zm31.496 3.536l-5.166-3.179.254-.413 5.166 3.179-.254.413zm-4.434 11.445l-.413-.255 3.179-5.166.413.254-3.179 5.167zm21.949-11.098l-7.944 3.575.196.434 7.943-3.575-.195-.434zm.226 12.353l-.271-.381 3.974-2.782.271.381-3.974 2.782zm-72.611-15.688h-.477v4.769h.477v-4.769zm-10.144 8.98l-.064-.477 5.167-.795.063.477-5.166.795zm12.447 11.319l-.795-5.167.477-.063.795 5.166-.477.064zm6.546-13.755l-5.565 1.187.099.466 5.566-1.187-.1-.466zm-19.966 16.725l-4.374 3.175.28.386 4.375-3.175-.281-.386zm-6.768 70.931l-.477-.032.398-6.358.476.032-.397 6.358zm-.461-12.971l-.35-.318 3.577-3.974.35.318-3.577 3.974zm21.888 15.88l-3.974-5.564.381-.286 3.974 5.564-.381.286zm9.856-56.383l-.271-.381 3.974-2.782.271.381-3.974 2.782zm48.242 5.579l-4.371-2.384.223-.414 4.371 2.385-.223.413zm-49.213 9.966l-5.961-1.192.096-.477 5.961 1.192-.096.477zm4.563 17.439l-.286-.382 3.179-2.384.286.381-3.179 2.385zm-1.096 16.69l-4.371-3.577.302-.381 4.371 3.576-.302.382zm5.197 6.773l-3.179-1.987.254-.413 3.179 1.987-.254.413zm-4.244-17.931h-4.768v.477h4.768v-.477zm12.447-53.616l-.27-.382 3.974-2.782.27.382-3.974 2.782zm8.218 5.131h-4.769v.477h4.769v-.477zm-5.292 12.369l-4.372-2.782.254-.413 4.372 2.782-.254.413zm-1.318 16.782l-1.19 3.974.457.137 1.19-3.975-.457-.136zm.888 15.39l-4.372-3.576.302-.382 4.372 3.577-.302.381zm.825 12.737l-3.179-1.987.254-.414 3.18 1.987-.255.414zm37.436-25.054h-4.769v.477h4.769v-.477zm-60.898.793l-3.974-2.782.27-.381 3.974 2.782-.27.381zm8.488-38.976h-4.768v.477h4.768v-.477zm-20.409 25.863l-3.974-2.782.271-.382 3.974 2.782-.271.382zm-3.435 5.133h-4.769v.477h4.769v-.477zm.525 12.368l-.254-.413 4.371-2.782.255.414-4.372 2.781zm50.867-23.05l-.254-.413 3.783-2.48.255.398-3.784 2.495zm4.055-9.092l-3.784-2.893.287-.381 3.783 2.893-.286.381zm7.582-4.61l-.477-.032.35-4.8.477.031-.35 4.801zm-9.966 65.7l-4.849-.207.016-.477 4.848.207-.015.477zm.397-6.646l-3.783-2.893.286-.381 3.784 2.893-.287.381zm7.928-9.543l-.448.164 1.786 4.865.447-.164-1.785-4.865zm-12.378-16.351l-.27-.382 3.974-2.781.27.381-3.974 2.782zm3.37 9.171l-5.166-1.589.143-.446 5.167 1.59-.144.445zm14.257 24.624l-4.371-2.781.254-.414 4.372 2.782-.255.413zm11.923-40.536l-4.371-2.781.254-.414 4.372 2.782-.255.413zm-6.486 19.855l-.287-.381 3.18-2.385.286.382-3.179 2.384zm-59.945-37.801l-4.848-.206.016-.477 4.848.206-.016.477zm.398-6.644l-3.783-2.893.286-.382 3.783 2.893-.286.382zm55.496 4.304l-.093.467 4.318.861.094-.468-4.319-.86zm-67.464 48.723l-.795-5.166.477-.063.795 5.166-.477.063zm8.128-9.787l-5.566 1.187.1.467 5.566-1.187-.1-.467zm25.842-62.331l-6.359-1.192.096-.477 6.358 1.192-.095.477zm-4.612 37.182l-.795-5.564.477-.063.795 5.563-.477.064zm48.658-22.113l-3.974-1.987.222-.413 3.974 1.987-.222.413zm-86.353-15.457l-.309.364 5.17 4.375.308-.364-5.169-4.375zm-12.362 28.555l-.27-.381 3.974-2.782.27.381-3.974 2.782zm18.298-9.14l-.287-.382 3.18-2.384.286.381-3.179 2.385zm46.368-37.524l-2.945 4.264.393.271 2.944-4.264-.392-.271zm36.962 48.09l-2.944 4.264.393.271 2.944-4.264-.393-.271zm-51.394-9.421l-.461-.112 1.129-4.466.461.127-1.129 4.451zM247.2 189.047l-.461-.111 1.129-4.467.461.127-1.129 4.451zm14.958-23.001l-.286-.381 3.179-2.385.286.382-3.179 2.384zm-43.061-32.621h-4.769v.477h4.769v-.477zm-4.626 27.852l-.286-.382 3.179-2.384.286.381-3.179 2.385zm109.856-69.169l-1.765 4.703.447.168 1.764-4.703-.446-.168zm-10.024-.26l-.468.09.998 5.214.468-.09-.998-5.214zm-23.437 1.822l-.187 4.765.476.018.187-4.765-.476-.019zm-25.13 2.368l-2.273-3.275.397-.27 2.258 3.275-.382.27zm-25.466.205l-.397-.27 2.114-3.1.382.27-2.099 3.1zm-20.233-1.865l-.388.278 2.645 3.678.388-.278-2.645-3.678zm2.987 84.032l-5.962-1.192.096-.477 5.961 1.192-.095.477zm97.565 3.672l-.396.266 3.012 4.488.396-.266-3.012-4.488zm-67.524-29.263l-.461-.112 1.081-4.435.461.112-1.081 4.435zm29.758 4.087l-.286-.382 3.179-2.384.286.381-3.179 2.385zm20.286-58.053l-.397-.27 3.179-4.77.398.27-3.18 4.77zm0 114.451l-.397-.271 3.179-4.768.398.27-3.18 4.769z" fill="#1D1D1B"/><path d="M216.887 96.137H102.436v120.81h114.451V96.137z" fill="#fff"/><path d="M211.593 108.073l-.112-.476 5.167-1.193.111.477-5.166 1.192zm7.505 25.355h-4.769v.477h4.769v-.477zm-4.627 27.851l-.286-.382 3.179-2.384.286.381-3.179 2.385zm2.194 34.223l-6.756-1.192.08-.477 6.756 1.192-.08.477z" fill="#1D1D1B"/><path d="M331.34-18.317H216.888v120.81H331.34v-120.81z" fill="#fff"/><path d="M324.33 92.11l-1.765 4.703.447.167 1.764-4.703-.446-.168zm-10.027-.261l-.468.09.998 5.214.468-.09-.998-5.214zm-23.439 1.819l-.187 4.766.476.018.188-4.765-.477-.019zm-25.128 2.37l-2.273-3.275.397-.27 2.258 3.275-.382.27zm-25.467.208l-.397-.27 2.114-3.1.382.27-2.099 3.1zm-20.232-1.868l-.388.278 2.645 3.678.388-.278-2.645-3.678zm83.071 4.475l-.397-.27 3.179-4.769.398.27-3.18 4.77z" fill="#1D1D1B"/><path d="M216.887-18.317H102.436v120.81h114.451v-120.81z" fill="#fff"/></g><mask id="h" style="mask-type:luminance" maskUnits="userSpaceOnUse" x="216" y="209" width="116" height="116"><path d="M331.086 209.791H216.634v114.452h114.452V209.791z" fill="#fff"/></mask><g mask="url(#h)"><path d="M324.326 321.013l-1.764 4.703.446.167 1.764-4.703-.446-.167zm-10.041-.253l-.469.09.998 5.214.468-.089-.997-5.215zm-23.421 1.833l-.187 4.765.476.019.188-4.765-.477-.019zm-25.127 2.351l-2.273-3.274.397-.271 2.258 3.275-.382.27zm-25.466.205l-.397-.27 2.114-3.1.382.271-2.099 3.099zm-20.232-1.882l-.388.279 2.645 3.678.387-.278-2.644-3.679zm83.071 4.49l-.397-.27 3.179-4.769.398.27-3.18 4.769zm30.439-79.881h-4.769v.477h4.769v-.477zm-4.626 27.852l-.286-.382 3.179-2.384.286.381-3.179 2.385z" fill="#1D1D1B"/><path d="M331.34 210.586H216.888v120.81H331.34v-120.81z" fill="#fff"/><path d="M223.722 226.879l-4.374 3.175.28.386 4.374-3.175-.28-.386zm-2.396 89.415l-3.578 2.779.293.377 3.577-2.779-.292-.377zm104.719-93.771l-.111-.477 5.166-1.192.111.476-5.166 1.193zm-.714 20.22l-.27-.381 3.974-2.782.27.382-3.974 2.781zm8.216 5.133h-4.769v.477h4.769v-.477zm-5.293 12.37l-4.371-2.782.254-.413 4.372 2.782-.255.413zm.67 15.482l-.286-.382 3.179-2.384.286.381-3.179 2.385zm-1.097 16.69l-4.372-3.576.302-.382 4.372 3.577-.302.381zm3.287 17.532l-6.756-1.192.08-.477 6.756 1.192-.08.477zm-15.605-3.188l-3.577 2.779.292.377 3.578-2.78-.293-.376zm13.271-25.503h-4.769v.477h4.769v-.477zm-22.064-43.348l-3.004-4.483.397-.27 3.005 4.499-.398.254zm-47.69-2.386l-2.623-4.069.398-.27 2.623 4.085-.398.254zm26.867-11.626l-2.944 4.264.393.271 2.944-4.265-.393-.27zm38.431 97.115l-1.764 4.703.446.167 1.764-4.703-.446-.167zm-10.039-.254l-.469.09.998 5.214.468-.089-.997-5.215zm-9.16-34.366l-3.004-4.483.397-.27 3.005 4.498-.398.255zm-13.258-45.208l-2.638-4.069.397-.255 2.639 4.07-.398.254zm-1.004 81.408l-.187 4.765.476.019.188-4.765-.477-.019zm-8.95-5.314l-2.944 4.265.392.271 2.944-4.265-.392-.271zm-16.177 7.66l-2.273-3.274.397-.27 2.258 3.274-.382.27zm29.154-49.974l-.366-.318 3.736-4.228.366.302-3.736 4.244zm-54.62 50.184l-.397-.27 2.114-3.1.382.27-2.099 3.1zm-10.618-2.48l-.461-.096 1.447-6.708.461.096-1.447 6.708zm-9.612.597l-.388.279 2.645 3.678.387-.278-2.644-3.679zm37.638-6.707l-.187 4.765.477.019.187-4.765-.477-.019zm-25.959-95.64l-5.564-2.384.191-.445 5.564 2.384-.191.445zm-9.601 22.046l-.476-.032.397-5.166.477.031-.398 5.167zm7.486 42.602l-2.384-5.961.445-.191 2.384 5.961-.445.191zm-6.327-14.673l-.414-.254 3.577-5.961.413.254-3.576 5.961zm34.542-49.642l-.349-.318 3.576-3.974.35.318-3.577 3.974zm10.312-4.281l-.308.364 5.169 4.374.308-.364-5.169-4.374zm31.51 3.534l-5.166-3.18.254-.413 5.166 3.179-.254.414zm-4.434 11.445l-.413-.254 3.179-5.167.413.255-3.179 5.166zm21.947-11.101l-7.944 3.575.196.435 7.943-3.575-.195-.435zm.228 12.356l-.271-.381 3.974-2.782.271.381-3.974 2.782zm-72.611-15.69h-.477v4.768h.477v-4.768zm-10.144 8.979l-.064-.477 5.167-.794.063.476-5.166.795zm12.447 11.32l-.795-5.166.477-.064.795 5.166-.477.064zm6.527-13.761l-5.566 1.187.1.467 5.565-1.187-.099-.467zm-19.947 16.736l-4.374 3.175.28.386 4.375-3.175-.281-.386zm-6.768 70.927l-.477-.031.398-6.359.476.032-.397 6.358zm-.461-12.973l-.35-.318 3.577-3.974.35.318-3.577 3.974zm21.888 15.881l-3.974-5.563.381-.287 3.974 5.564-.381.286zm9.856-56.383l-.271-.381 3.974-2.782.271.382-3.974 2.781zm48.242 5.58l-4.371-2.384.223-.414 4.371 2.385-.223.413zm-49.213 9.967l-5.961-1.192.096-.477 5.961 1.192-.096.477zm4.563 17.437l-.286-.382 3.179-2.384.286.382-3.179 2.384zm-1.096 16.69l-4.371-3.576.302-.382 4.371 3.577-.302.381zm5.197 6.775l-3.179-1.987.254-.413 3.179 1.987-.254.413zm-4.244-17.933h-4.768v.477h4.768v-.477zm12.447-53.616l-.27-.382 3.974-2.781.27.381-3.974 2.782zm8.218 5.132h-4.769v.477h4.769v-.477zm-5.292 12.367l-4.372-2.781.254-.414 4.372 2.782-.254.413zm-1.305 16.785l-1.19 3.974.457.137 1.189-3.975-.456-.136zm.875 15.39l-4.372-3.577.302-.382 4.372 3.577-.302.382zm.825 12.733l-3.179-1.987.254-.414 3.18 1.987-.255.414zm37.436-25.053h-4.769v.477h4.769v-.477zm-60.898.796l-3.974-2.782.27-.381 3.974 2.782-.27.381zm8.488-38.977h-4.768v.477h4.768v-.477zm-20.409 25.862l-3.974-2.782.271-.381 3.974 2.781-.271.382zm-3.435 5.135h-4.769v.476h4.769v-.476zm.525 12.366l-.254-.413 4.371-2.782.255.414-4.372 2.781zm50.867-23.049l-.254-.413 3.783-2.48.255.398-3.784 2.495zm4.055-9.093l-3.784-2.893.287-.381 3.783 2.893-.286.381zm7.582-4.61l-.477-.032.35-4.8.477.032-.35 4.8zm-9.966 65.698l-4.849-.207.016-.477 4.848.207-.015.477zm.397-6.645l-3.783-2.893.286-.382 3.784 2.893-.287.382zm7.932-9.543l-.447.165 1.786 4.864.447-.164-1.786-4.865zm-12.382-16.349l-.27-.381 3.974-2.782.27.381-3.974 2.782zm3.37 9.173l-5.166-1.589.143-.445 5.167 1.589-.144.445zm14.257 24.622l-4.371-2.782.254-.413 4.372 2.781-.255.414zm11.923-40.536l-4.371-2.781.254-.414 4.372 2.782-.255.413zm-6.486 19.855l-.287-.382 3.18-2.384.286.381-3.179 2.385zM250.697 257.4l-4.848-.206.016-.477 4.848.206-.016.477zm.398-6.646l-3.783-2.893.286-.382 3.783 2.894-.286.381zm55.483 4.31l-.094.467 4.319.861.093-.468-4.318-.86zm-67.451 48.721l-.795-5.167.477-.063.795 5.166-.477.064zm8.127-9.794l-5.566 1.187.1.466 5.566-1.187-.1-.466zm25.841-62.327l-6.359-1.192.096-.477 6.358 1.192-.095.477zm-4.61 37.181l-.795-5.564.477-.063.795 5.563-.477.064zm48.658-22.112l-3.974-1.987.222-.413 3.974 1.987-.222.413zm-86.369-15.45l-.308.364 5.169 4.375.308-.364-5.169-4.375zm-12.346 28.549l-.27-.381 3.974-2.782.27.381-3.974 2.782zm18.298-9.139l-.287-.382 3.18-2.384.286.381-3.179 2.385zm46.387-37.534l-2.944 4.265.392.271 2.945-4.265-.393-.271zm36.947 48.092l-2.944 4.265.393.271 2.944-4.265-.393-.271zm-51.398-9.416l-.461-.111 1.129-4.467.461.127-1.129 4.451zM247.2 303.498l-.461-.111 1.129-4.467.461.127-1.129 4.451zm14.958-23.001l-.286-.381 3.179-2.385.286.382-3.179 2.384zm-43.061-32.621h-4.769v.477h4.769v-.477zm-4.626 27.852l-.286-.382 3.179-2.384.286.381-3.179 2.385zm109.862-69.176l-1.764 4.703.447.167 1.764-4.703-.447-.167zm-10.046-.24l-.469.089.998 5.215.468-.089-.997-5.215zm-23.431 1.819l-.187 4.765.476.019.188-4.765-.477-.019zm-25.12 2.359l-2.273-3.274.397-.271 2.258 3.275-.382.27zm-25.466.205l-.397-.27 2.114-3.1.382.27-2.099 3.1zm-20.226-1.873l-.387.279 2.645 3.678.387-.279-2.645-3.678zm2.98 84.041l-5.962-1.192.096-.477 5.961 1.193-.095.476zm97.559 3.669l-.396.266 3.011 4.488.396-.266-3.011-4.488zm-67.518-29.263l-.461-.111 1.081-4.435.461.111-1.081 4.435zm29.758 4.086l-.286-.382 3.179-2.384.286.381-3.179 2.385zm20.286-58.052l-.397-.27 3.179-4.769.398.27-3.18 4.769zm0 114.454l-.397-.27 3.179-4.769.398.27-3.18 4.769z" fill="#1D1D1B"/><path d="M216.887 210.586H102.436v120.81h114.451v-120.81z" fill="#fff"/><path d="M211.593 222.523l-.112-.477 5.167-1.192.111.476-5.166 1.193zm7.505 25.354h-4.769v.477h4.769v-.477zm-4.627 27.851l-.286-.382 3.179-2.384.286.381-3.179 2.385zm2.194 34.223l-6.756-1.192.08-.477 6.756 1.192-.08.477z" fill="#1D1D1B"/><path d="M331.339 96.136H216.887v120.81h114.452V96.136z" fill="#fff"/><path d="M324.335 206.554l-1.764 4.703.447.167 1.764-4.703-.447-.167zm-10.048-.24l-.469.089.998 5.215.468-.09-.997-5.214zm-23.43 1.818l-.187 4.765.476.019.188-4.765-.477-.019zm-25.122 2.36l-2.273-3.275.397-.27 2.258 3.275-.382.27zm-25.466.207l-.397-.27 2.114-3.1.382.27-2.099 3.1zm-20.224-1.877l-.387.279 2.645 3.678.387-.279-2.645-3.678zm83.062 4.485l-.397-.271 3.179-4.768.398.27-3.18 4.769z" fill="#1D1D1B"/><path d="M216.887 96.134H102.435v120.81h114.452V96.134z" fill="#fff"/></g><mask id="i" style="mask-type:luminance" maskUnits="userSpaceOnUse" x="216" y="324" width="116" height="115"><path d="M331.086 324.242H216.634v114.452h114.452V324.242z" fill="#fff"/></mask><g mask="url(#i)"><path d="M333.548 362.327h-4.769v.477h4.769v-.477z" fill="#1D1D1B"/><path d="M331.34 325.036H216.888v120.81H331.34v-120.81z" fill="#fff"/><path d="M223.709 341.329l-4.374 3.175.28.386 4.374-3.175-.28-.386zm102.336-4.357l-.111-.477 5.166-1.192.111.477-5.166 1.192zm-.714 20.22l-.27-.382 3.974-2.782.27.382-3.974 2.782zm8.216 5.134h-4.769v.477h4.769v-.477zm-5.293 12.367l-4.371-2.782.254-.413 4.372 2.782-.255.413zm-21.538-22.335l-3.004-4.482.397-.271 3.005 4.499-.398.254zm-47.69-2.382l-2.623-4.069.398-.27 2.623 4.085-.398.254zm26.87-11.637l-2.944 4.265.393.27 2.944-4.264-.393-.271zm5.971 17.295l-2.638-4.069.397-.254 2.639 4.069-.398.254zm-60.148-20.267l-5.564-2.385.191-.445 5.564 2.385-.191.445zm-9.601 22.047l-.476-.032.397-5.166.477.032-.398 5.166zm35.701-21.712l-.349-.318 3.576-3.974.35.318-3.577 3.974zm10.314-4.263l-.308.364 5.169 4.374.308-.364-5.169-4.374zm31.508 3.515l-5.166-3.179.254-.414 5.166 3.18-.254.413zm-4.434 11.445l-.413-.254 3.179-5.166.413.254-3.179 5.166zm21.959-11.104l-7.943 3.575.195.435 7.944-3.575-.196-.435zm.216 12.361l-.271-.382 3.974-2.782.271.382-3.974 2.782zm-72.611-15.692h-.477v4.769h.477v-4.769zm-10.144 8.983l-.064-.476 5.167-.795.063.477-5.166.794zm12.447 11.318l-.795-5.166.477-.064.795 5.166-.477.064zm6.525-13.769l-5.566 1.187.1.466 5.565-1.187-.099-.466zm-19.945 16.744l-4.374 3.174.28.386 4.375-3.174-.281-.386zm24.515 17.451l-.271-.382 3.974-2.782.271.382-3.974 2.782zm15.896-15.102l-.27-.381 3.974-2.782.27.381-3.974 2.782zm8.218 5.135h-4.769v.477h4.769v-.477zm-19.871-5.961h-4.768v.477h4.768v-.477zm31.603 11.221l-3.784-2.893.287-.382 3.783 2.893-.286.382zm7.582-4.607l-.477-.031.35-4.801.477.032-.35 4.8zm-50.9 8.473l-4.848-.207.016-.477 4.848.207-.016.477zm.398-6.645l-3.783-2.893.286-.381 3.783 2.893-.286.381zm55.486 4.307l-.093.467 4.319.861.093-.468-4.319-.86zm-33.484-23.398l-6.359-1.192.096-.477 6.358 1.193-.095.476zm44.046 15.069l-3.974-1.988.222-.413 3.974 1.987-.222.414zm-86.368-15.45l-.308.364 5.169 4.374.308-.364-5.169-4.374zm-12.347 28.548l-.27-.382 3.974-2.782.27.382-3.974 2.782zm18.298-9.141l-.287-.382 3.18-2.384.286.382-3.179 2.384zm46.39-37.538l-2.944 4.264.392.271 2.944-4.264-.392-.271zm-14.454 38.681l-.461-.111 1.129-4.467.461.127-1.129 4.451zm-49.565-3.958h-4.769v.477h4.769v-.477zm105.229-41.315l-1.764 4.703.446.167 1.764-4.703-.446-.167zm-10.041-.253l-.469.09.998 5.214.468-.089-.997-5.215zm-23.422 1.833l-.187 4.765.476.019.188-4.765-.477-.019zm-25.127 2.35l-2.273-3.274.397-.27 2.258 3.274-.382.27zm-25.466.206l-.397-.27 2.114-3.1.382.271-2.099 3.099zm-20.23-1.881l-.388.278 2.645 3.678.387-.278-2.644-3.678zm83.069 4.489l-.397-.27 3.179-4.769.398.27-3.18 4.769z" fill="#1D1D1B"/><path d="M216.887 325.036H102.436v120.81h114.451v-120.81z" fill="#fff"/><path d="M211.593 336.973l-.112-.477 5.167-1.192.111.477-5.166 1.192zm7.505 25.354h-4.769v.477h4.769v-.477z" fill="#1D1D1B"/><path d="M331.34 210.584H216.888v120.81H331.34v-120.81z" fill="#fff"/><path d="M324.324 321.012l-1.764 4.703.446.167 1.764-4.703-.446-.167zm-10.041-.253l-.469.09.998 5.214.468-.089-.997-5.215zm-23.42 1.833l-.187 4.765.476.019.188-4.765-.477-.019zm-25.127 2.348l-2.273-3.274.397-.27 2.258 3.274-.382.27zm-25.467.207l-.397-.27 2.114-3.1.382.271-2.099 3.099zm-20.231-1.881l-.388.278 2.645 3.678.387-.278-2.644-3.678zm83.07 4.489l-.397-.27 3.179-4.769.398.27-3.18 4.769z" fill="#1D1D1B"/><path d="M216.887 210.584H102.436v120.81h114.451v-120.81z" fill="#fff"/></g><mask id="j" style="mask-type:luminance" maskUnits="userSpaceOnUse" x="102" y="-20" width="115" height="116"><path d="M216.636-19.116H102.184V95.336h114.452V-19.116z" fill="#fff"/></mask><g mask="url(#j)"><path d="M209.869 92.092l-1.765 4.703.447.167 1.764-4.703-.446-.167zm-10.026-.252l-.468.09.998 5.214.468-.09-.998-5.214zm-23.438 1.83l-.187 4.766.476.018.188-4.765-.477-.019zm-25.119 2.361l-2.273-3.274.397-.27 2.257 3.274-.381.27zm-25.466.209l-.397-.271 2.114-3.1.382.27-2.099 3.1zm-20.241-1.86l-.388.28 2.645 3.677.388-.278-2.645-3.678zm83.077 4.468l-.397-.27 3.179-4.77.397.27-3.179 4.77z" fill="#1D1D1B"/><path d="M216.891-18.322H102.439v120.81h114.452v-120.81z" fill="#fff"/><path d="M106.879 87.382l-3.578 2.78.292.376 3.578-2.78-.292-.376zm109.787-6.339l-6.756-1.192.08-.477 6.755 1.192-.079.477zm-15.602-3.208l-3.578 2.78.293.376 3.578-2.78-.293-.376zm8.808 14.26l-1.765 4.703.447.167 1.764-4.703-.446-.167zm-10.029-.255l-.468.089.998 5.215.468-.09-.998-5.215zm-23.438 1.831l-.187 4.765.476.02.188-4.766-.477-.019zm-8.936-5.284l-2.945 4.264.393.271 2.944-4.264-.392-.271zm-16.182 7.647l-2.273-3.275.397-.27 2.257 3.275-.381.27zm-25.465.208l-.397-.27 2.114-3.1.381.27-2.098 3.1zm-10.619-2.481l-.461-.095 1.447-6.708.461.095-1.447 6.709zm-9.622.622l-.388.278 2.645 3.678.387-.278-2.644-3.678zm37.638-6.746l-.187 4.765.477.02.187-4.766-.477-.019zm-30.781-4.827l-.477-.032.397-6.358.477.032-.397 6.358zm21.427 2.907l-3.974-5.564.381-.286 3.974 5.564-.381.286zm17.549.064l-3.18-1.987.255-.413 3.179 1.987-.254.413zm25.768-.062l-4.848-.207.016-.477 4.848.207-.016.477zm13.575 1.255l-4.371-2.782.254-.414 4.372 2.782-.255.413zm-2.097 11.873l-.397-.27 3.179-4.77.397.27-3.179 4.77z" fill="#1D1D1B"/><path d="M102.437-18.322H-12.015v120.81h114.452v-120.81z" fill="#fff"/><path d="M102.215 81.043l-6.756-1.192.08-.477 6.755 1.192-.079.477z" fill="#1D1D1B"/></g><mask id="k" style="mask-type:luminance" maskUnits="userSpaceOnUse" x="102" y="95" width="115" height="115"><path d="M216.636 95.34H102.184v114.452h114.452V95.34z" fill="#fff"/></mask><g mask="url(#k)"><path d="M209.881 206.558l-1.764 4.704.447.167 1.764-4.703-.447-.168zm-10.037-.264l-.468.09.998 5.215.468-.09-.998-5.215zm-23.429 1.844l-.187 4.765.476.019.187-4.765-.476-.019zm-25.126 2.35l-2.273-3.274.397-.271 2.257 3.275-.381.27zm-25.466.21l-.397-.27 2.114-3.1.381.27-2.098 3.1zm-20.234-1.866l-.387.278 2.645 3.678.387-.278-2.645-3.678zm83.073 4.472l-.397-.271 3.179-4.768.397.27-3.179 4.769zm30.439-79.876h-4.769v.477h4.769v-.477zm-4.627 27.852l-.286-.382 3.179-2.384.286.381-3.179 2.385z" fill="#1D1D1B"/><path d="M216.891 96.134H102.439v120.81h114.452V96.134z" fill="#fff"/><path d="M109.274 112.424l-4.375 3.175.281.386 4.374-3.175-.28-.386zm-2.395 89.415l-3.578 2.779.292.377 3.578-2.779-.292-.377zm104.719-93.767l-.112-.476 5.167-1.193.111.477-5.166 1.192zm-.714 20.218l-.271-.381 3.974-2.782.271.381-3.974 2.782zm8.216 5.137h-4.769v.477h4.769v-.477zm-5.294 12.367l-4.371-2.782.254-.413 4.371 2.781-.254.414zm.67 15.483l-.287-.382 3.18-2.384.286.381-3.179 2.385zm-1.097 16.69l-4.371-3.577.302-.381 4.371 3.576-.302.382zm3.288 17.533l-6.756-1.192.08-.477 6.755 1.192-.079.477zm-15.603-3.191l-3.578 2.779.293.377 3.578-2.78-.293-.376zm13.268-25.499h-4.769v.476h4.769v-.476zm-22.064-43.351l-3.004-4.483.397-.27 3.004 4.499-.397.254zm-47.689-2.383l-2.623-4.069.397-.271 2.623 4.086-.397.254zm26.871-11.621l-2.944 4.265.392.271 2.944-4.265-.392-.271zm38.428 97.101l-1.764 4.703.447.167 1.764-4.703-.447-.167zm-10.037-.265l-.468.09.998 5.215.468-.09-.998-5.215zm-9.161-34.349l-3.004-4.482.397-.271 3.005 4.499-.398.254zm-13.26-45.208l-2.639-4.07.398-.254 2.638 4.07-.397.254zm-1.005 81.404l-.187 4.765.476.019.187-4.765-.476-.019zm-8.944-5.303l-2.944 4.265.393.271 2.944-4.265-.393-.271zm-16.182 7.656l-2.273-3.274.397-.271 2.257 3.275-.381.27zm29.154-49.98l-.366-.318 3.736-4.228.365.302-3.735 4.244zm-54.62 50.185l-.397-.27 2.114-3.1.381.27-2.098 3.1zm-10.619-2.478l-.461-.096 1.447-6.708.461.095-1.447 6.709zm-9.615.613l-.387.278 2.645 3.679.387-.279-2.645-3.678zm37.623-6.727l-.188 4.765.477.019.187-4.765-.476-.019zm-25.94-95.638l-5.564-2.384.191-.445 5.563 2.384-.19.445zm-9.602 22.047l-.477-.031.398-5.167.477.032-.398 5.166zm7.487 42.603l-2.385-5.961.446-.191 2.384 5.961-.445.191zm-6.328-14.673l-.413-.254 3.577-5.961.413.254-3.577 5.961zm34.543-49.642l-.35-.318 3.577-3.974.35.318-3.577 3.974zm10.31-4.282l-.308.364 5.169 4.374.308-.364-5.169-4.374zm31.511 3.533l-5.167-3.179.255-.413 5.166 3.179-.254.413zm-4.433 11.444l-.413-.255 3.179-5.166.413.255-3.179 5.166zm21.952-11.098l-7.943 3.575.195.435 7.944-3.575-.196-.435zm.222 12.355l-.27-.381 3.974-2.782.27.381-3.974 2.782zm-72.61-15.69h-.477v4.769h.477v-4.769zm-10.144 8.983l-.064-.477 5.166-.795.064.477-5.166.795zm12.447 11.319l-.795-5.167.477-.063.795 5.166-.477.064zm6.535-13.774l-5.565 1.187.099.467 5.566-1.187-.1-.467zm-19.957 16.743l-4.374 3.175.28.386 4.374-3.175-.28-.386zm-6.766 70.93l-.477-.032.397-6.358.477.032-.397 6.358zm-.461-12.97l-.35-.318 3.577-3.974.349.318-3.576 3.974zm21.888 15.879l-3.974-5.564.381-.286 3.974 5.564-.381.286zm9.855-56.385l-.27-.381 3.974-2.782.27.381-3.974 2.782zm48.243 5.58l-4.371-2.384.222-.414 4.372 2.385-.223.413zm-49.213 9.968l-5.961-1.192.095-.477 5.961 1.192-.095.477zm4.562 17.439l-.286-.382 3.18-2.384.286.381-3.18 2.385zm-1.095 16.69l-4.371-3.577.302-.381 4.371 3.576-.302.382zm5.197 6.771l-3.18-1.987.255-.413 3.179 1.987-.254.413zm-4.245-17.928h-4.769v.476h4.769v-.476zm12.448-53.619l-.27-.382 3.974-2.782.27.382-3.974 2.782zm8.217 5.133h-4.769v.477h4.769v-.477zm-5.292 12.368l-4.371-2.782.254-.413 4.372 2.782-.255.413zm-1.305 16.794l-1.189 3.975.457.137 1.189-3.975-.457-.137zm.876 15.379l-4.372-3.576.302-.382 4.372 3.577-.302.381zm.825 12.734l-3.179-1.987.254-.414 3.179 1.987-.254.414zm37.435-25.053h-4.769v.477h4.769v-.477zm-60.897.793l-3.974-2.782.27-.381 3.974 2.782-.27.381zm8.488-38.976h-4.769v.477h4.769v-.477zm-20.409 25.863l-3.974-2.782.27-.381 3.974 2.781-.27.382zm-3.436 5.136h-4.768v.477h4.768v-.477zm.526 12.366l-.254-.413 4.371-2.782.254.414-4.371 2.781zm50.867-23.048l-.254-.413 3.783-2.48.254.398-3.783 2.495zm4.054-9.093l-3.783-2.893.286-.381 3.784 2.893-.287.381zm7.583-4.609l-.477-.032.35-4.8.476.031-.349 4.801zm-9.967 65.697l-4.848-.207.016-.477 4.848.207-.016.477zm.398-6.644l-3.783-2.893.286-.381 3.783 2.893-.286.381zm7.928-9.536l-.447.164 1.786 4.865.447-.164-1.786-4.865zm-12.378-16.359l-.271-.381 3.974-2.782.271.381-3.974 2.782zm3.37 9.172l-5.166-1.589.143-.446 5.166 1.59-.143.445zm14.257 24.623l-4.371-2.782.254-.414 4.371 2.782-.254.414zm11.923-40.535l-4.371-2.781.254-.414 4.371 2.782-.254.413zm-6.487 19.853l-.286-.381 3.179-2.385.287.382-3.18 2.384zm-59.944-37.8l-4.849-.206.016-.477 4.849.206-.016.477zm.398-6.643l-3.784-2.893.286-.382 3.784 2.893-.286.382zm55.479 4.292l-.093.467 4.318.861.094-.468-4.319-.86zm-67.447 48.736l-.795-5.166.477-.063.794 5.166-.476.063zm8.118-9.791l-5.566 1.188.1.466 5.565-1.187-.099-.467zm25.85-62.328l-6.359-1.192.095-.477 6.359 1.192-.095.477zm-4.61 37.18l-.795-5.564.477-.063.795 5.563-.477.064zm48.658-22.112l-3.974-1.987.222-.413 3.974 1.987-.222.413zm-86.372-15.469l-.308.364 5.169 4.374.308-.364-5.169-4.374zm-12.344 28.567l-.27-.381 3.974-2.782.27.381-3.974 2.782zm18.298-9.141l-.286-.382 3.179-2.384.287.381-3.18 2.385zm46.377-37.503L165.711 103l.392.271 2.945-4.265-.393-.27zm36.962 48.073l-2.944 4.264.392.271 2.944-4.264-.392-.271zm-51.402-9.425l-.461-.112 1.129-4.466.461.127-1.129 4.451zm-21.462 51.663l-.461-.111 1.129-4.467.461.127-1.129 4.451zm14.958-23.002l-.286-.381 3.179-2.385.286.382-3.179 2.384zm-43.061-32.617h-4.77v.477h4.77v-.477zm-4.627 27.85l-.286-.382 3.18-2.384.286.381-3.18 2.385zm109.849-69.179l-1.764 4.703.447.167 1.764-4.703-.447-.167zm-10.028-.253l-.468.09.998 5.214.468-.09-.998-5.214zm-23.438 1.83l-.187 4.765.476.02.187-4.766-.476-.019zm-25.117 2.363l-2.273-3.275.397-.27 2.257 3.275-.381.27zm-25.466.206l-.397-.27 2.114-3.1.381.27-2.098 3.1zm-20.241-1.858l-.388.278 2.645 3.678.387-.278-2.644-3.678zm2.994 84.025l-5.961-1.192.096-.477 5.961 1.192-.096.477zm97.568 3.664l-.396.266 3.011 4.488.396-.266-3.011-4.488zm-67.526-29.255l-.461-.112 1.081-4.435.461.112-1.081 4.435zm29.758 4.085l-.286-.382 3.179-2.384.286.381-3.179 2.385zm20.285-58.052l-.397-.27 3.179-4.77.397.27-3.179 4.77zm0 114.45l-.397-.27 3.179-4.769.397.27-3.179 4.769z" fill="#1D1D1B"/><path d="M102.438 96.137H-12.014v120.81h114.452V96.137z" fill="#fff"/><path d="M97.144 108.073l-.112-.476 5.166-1.193.112.477-5.166 1.192zm7.505 25.355h-4.77v.477h4.77v-.477zm-4.628 27.851l-.286-.382 3.18-2.384.286.381-3.18 2.385zm2.195 34.223l-6.756-1.192.08-.477 6.755 1.192-.079.477z" fill="#1D1D1B"/><path d="M216.892-18.317H102.44v120.81h114.452v-120.81z" fill="#fff"/><path d="M209.872 92.097l-1.765 4.703.447.167 1.764-4.703-.446-.167zm-10.027-.251l-.468.09.998 5.214.468-.09-.998-5.214zm-23.438 1.829l-.187 4.765.476.02.187-4.766-.476-.019zm-25.118 2.363l-2.273-3.275.397-.27 2.257 3.275-.381.27zm-25.466.208l-.397-.27 2.114-3.1.381.27-2.098 3.1zm-20.241-1.859l-.387.278 2.645 3.678.387-.278-2.645-3.678zm83.079 4.466l-.397-.27 3.179-4.769.397.27-3.179 4.77z" fill="#1D1D1B"/><path d="M102.438-18.317H-12.014v120.81h114.452v-120.81z" fill="#fff"/></g><mask id="l" style="mask-type:luminance" maskUnits="userSpaceOnUse" x="102" y="209" width="115" height="116"><path d="M216.636 209.79H102.184v114.452h114.452V209.79z" fill="#fff"/></mask><g mask="url(#l)"><path d="M209.869 321.019l-1.765 4.704.447.167 1.764-4.703-.446-.168zm-10.03-.261l-.468.09.998 5.214.468-.089-.998-5.215zm-23.433 1.842l-.187 4.765.476.019.188-4.765-.477-.019zm-25.118 2.341l-2.273-3.274.397-.271 2.257 3.275-.381.27zm-25.465.207l-.397-.27 2.114-3.1.381.271-2.098 3.099zm-20.226-1.872l-.387.279 2.645 3.678.387-.279-2.645-3.678zm83.062 4.48l-.397-.27 3.179-4.769.397.27-3.179 4.769zm30.44-79.881h-4.769v.477h4.769v-.477zm-4.626 27.852l-.286-.382 3.179-2.384.286.381-3.179 2.385z" fill="#1D1D1B"/><path d="M216.888 210.583H102.437v120.81h114.451v-120.81z" fill="#fff"/><path d="M109.271 226.878l-4.375 3.175.281.386 4.374-3.175-.28-.386zm-2.397 89.414l-3.578 2.779.292.377 3.578-2.779-.292-.377zm104.721-93.768l-.112-.477 5.167-1.193.111.477-5.166 1.193zm-.714 20.218l-.271-.381 3.974-2.782.271.382-3.974 2.781zm8.216 5.136h-4.769v.477h4.769v-.477zm-5.294 12.367l-4.371-2.782.254-.413 4.371 2.782-.254.413zm.67 15.482l-.286-.382 3.179-2.384.286.381-3.179 2.385zm-1.097 16.691l-4.371-3.576.302-.382 4.371 3.577-.302.381zm3.288 17.534l-6.756-1.192.08-.477 6.756 1.192-.08.477zm-15.605-3.192l-3.578 2.779.293.377 3.578-2.78-.293-.376zm13.27-25.501h-4.768v.477h4.768v-.477zm-22.064-43.349l-3.004-4.483.397-.27 3.005 4.499-.398.254zm-47.689-2.384l-2.623-4.069.398-.27 2.622 4.085-.397.254zm26.874-11.627l-2.944 4.264.392.271 2.944-4.265-.392-.27zm38.415 97.118l-1.764 4.704.446.167 1.764-4.703-.446-.168zm-10.029-.26l-.469.09.998 5.214.468-.089-.997-5.215zm-9.161-34.362l-3.004-4.483.397-.27 3.005 4.498-.398.255zm-13.258-45.21l-2.639-4.069.398-.255 2.638 4.07-.397.254zm-1.016 81.415l-.187 4.765.476.019.188-4.765-.477-.019zm-8.929-5.32l-2.944 4.265.393.271 2.944-4.265-.393-.271zm-16.186 7.662l-2.273-3.274.397-.271 2.257 3.275-.381.27zm29.154-49.979l-.366-.318 3.736-4.228.365.302-3.735 4.244zm-54.62 50.184l-.397-.27 2.114-3.1.382.271-2.099 3.099zm-10.619-2.477l-.461-.096 1.447-6.708.461.096-1.447 6.708zm-9.607.603l-.387.279 2.645 3.678.387-.279-2.645-3.678zm37.623-6.704l-.188 4.765.477.019.187-4.765-.476-.019zm-25.948-95.654l-5.564-2.384.191-.445 5.563 2.384-.19.445zm-9.602 22.049l-.477-.032.398-5.166.477.031-.398 5.167zm7.487 42.603l-2.384-5.961.445-.191 2.384 5.961-.445.191zm-6.328-14.673l-.413-.254 3.577-5.961.413.254-3.577 5.961zm34.543-49.643l-.349-.318 3.576-3.974.35.318-3.577 3.974zm10.311-4.279l-.308.364 5.169 4.374.308-.364-5.169-4.374zm31.51 3.533l-5.167-3.18.255-.413 5.166 3.179-.254.414zm-4.433 11.444l-.413-.254 3.179-5.167.413.255-3.179 5.166zm21.949-11.105l-7.943 3.575.195.435 7.944-3.575-.196-.435zm.225 12.36l-.27-.381 3.974-2.782.27.382-3.974 2.781zm-72.61-15.687h-.477v4.768h.477v-4.768zm-10.144 8.98l-.064-.477 5.167-.794.063.476-5.166.795zm12.447 11.318l-.795-5.166.477-.064.795 5.166-.477.064zm6.533-13.766l-5.565 1.187.099.467 5.566-1.187-.1-.467zm-19.955 16.74l-4.374 3.175.28.386 4.374-3.175-.28-.386zm-6.766 70.924l-.477-.031.397-6.359.477.032-.397 6.358zm-.461-12.968l-.35-.318 3.577-3.974.349.318-3.576 3.974zm21.888 15.879l-3.974-5.563.381-.287 3.974 5.564-.381.286zm9.855-56.384l-.27-.381 3.974-2.782.27.382-3.974 2.781zm48.243 5.581l-4.371-2.384.222-.414 4.372 2.385-.223.413zm-49.213 9.966l-5.961-1.192.095-.477 5.962 1.192-.096.477zm4.563 17.439l-.287-.382 3.18-2.384.286.382-3.179 2.384zm-1.096 16.692l-4.371-3.576.302-.382 4.371 3.577-.302.381zm5.197 6.771l-3.18-1.987.255-.413 3.179 1.987-.254.413zm-4.245-17.932h-4.769v.477h4.769v-.477zm12.448-53.617l-.27-.382 3.974-2.781.27.381-3.974 2.782zm8.217 5.135h-4.769v.477h4.769v-.477zm-5.292 12.368l-4.371-2.781.254-.414 4.372 2.782-.255.413zm-1.309 16.779l-1.189 3.974.457.137 1.189-3.975-.457-.136zm.88 15.394l-4.372-3.577.302-.382 4.372 3.577-.302.382zm.825 12.733l-3.179-1.987.254-.414 3.179 1.987-.254.414zm37.435-25.053h-4.768v.477h4.768v-.477zm-60.897.794l-3.974-2.782.27-.381 3.974 2.782-.27.381zm8.488-38.978h-4.769v.477h4.769v-.477zm-20.409 25.864l-3.974-2.782.27-.381 3.974 2.782-.27.381zm-3.436 5.135h-4.768v.476h4.768v-.476zm.526 12.367l-.254-.413 4.371-2.782.254.414-4.371 2.781zm50.867-23.05l-.254-.413 3.783-2.48.254.398-3.783 2.495zm4.055-9.092l-3.784-2.893.286-.381 3.784 2.893-.286.381zm7.582-4.611l-.477-.032.35-4.8.477.032-.35 4.8zm-9.967 65.701l-4.848-.207.016-.477 4.848.207-.016.477zm.398-6.646l-3.783-2.893.286-.382 3.783 2.893-.286.382zm7.934-9.538l-.448.164 1.786 4.865.448-.164-1.786-4.865zm-12.384-16.357l-.271-.381 3.974-2.782.271.381-3.974 2.782zm3.37 9.171l-5.166-1.589.143-.445 5.166 1.589-.143.445zm14.257 24.624l-4.371-2.782.254-.413 4.372 2.781-.255.414zm11.923-40.534l-4.371-2.781.254-.414 4.371 2.782-.254.413zm-6.487 19.854l-.286-.382 3.179-2.384.287.381-3.18 2.385zm-59.944-37.801l-4.849-.206.016-.477 4.849.206-.016.477zm.398-6.644l-3.784-2.893.286-.382 3.784 2.894-.286.381zm55.481 4.31l-.093.467 4.318.861.094-.468-4.319-.86zm-67.449 48.717l-.795-5.167.477-.063.795 5.166-.477.064zm8.117-9.796l-5.565 1.187.099.466 5.566-1.187-.1-.466zm25.851-62.325l-6.359-1.192.096-.477 6.358 1.192-.095.477zm-4.61 37.183l-.795-5.564.477-.063.795 5.563-.477.064zm48.658-22.111l-3.974-1.987.222-.413 3.974 1.987-.222.413zm-86.371-15.453l-.308.364 5.169 4.374.308-.364-5.169-4.374zm-12.345 28.55l-.27-.381 3.974-2.782.27.381-3.974 2.782zm18.298-9.14l-.286-.382 3.179-2.384.287.381-3.18 2.385zm46.396-37.511l-2.944 4.264.392.271 2.944-4.264-.392-.271zm36.948 48.074l-2.944 4.265.392.271 2.944-4.265-.392-.271zm-51.407-9.417l-.461-.111 1.129-4.467.461.127-1.129 4.451zm-21.462 51.661l-.461-.111 1.129-4.467.461.127-1.129 4.451zm14.958-23.002l-.286-.381 3.179-2.385.286.382-3.179 2.384zm-43.061-32.617h-4.77v.477h4.77v-.477zm-4.627 27.849l-.286-.382 3.18-2.384.286.381-3.18 2.385zm109.855-69.17l-1.764 4.703.447.167 1.764-4.703-.447-.167zm-10.036-.265l-.469.09.998 5.215.468-.09-.997-5.215zm-23.427 1.844l-.187 4.765.476.019.187-4.765-.476-.019zm-25.126 2.353l-2.273-3.274.397-.271 2.257 3.275-.381.27zm-25.466.207l-.397-.27 2.114-3.1.382.27-2.099 3.1zm-20.234-1.866l-.387.278 2.645 3.679.387-.279-2.645-3.678zm2.987 84.033l-5.961-1.192.096-.477 5.961 1.193-.096.476zm97.561 3.662l-.396.266 3.012 4.488.396-.266-3.012-4.488zm-67.519-29.255l-.461-.111 1.081-4.435.461.111-1.081 4.435zm29.758 4.086l-.286-.382 3.179-2.384.286.381-3.179 2.385zm20.285-58.054l-.397-.27 3.179-4.769.397.27-3.179 4.769zm0 114.452l-.397-.27 3.179-4.769.397.27-3.179 4.769z" fill="#1D1D1B"/><path d="M102.437 210.585H-12.015v120.81h114.452v-120.81z" fill="#fff"/><path d="M97.142 222.521l-.11-.477 5.165-1.192.112.476-5.166 1.193zm7.506 25.355h-4.77v.477h4.77v-.477zm-4.628 27.851l-.286-.382 3.18-2.384.286.381-3.18 2.385zm2.195 34.223l-6.756-1.192.08-.477 6.755 1.192-.079.477z" fill="#1D1D1B"/><path d="M216.891 96.133H102.439v120.81h114.452V96.133z" fill="#fff"/><path d="M209.877 206.558l-1.764 4.703.447.167 1.764-4.703-.447-.167zm-10.036-.266l-.468.09.998 5.215.468-.09-.998-5.215zm-23.429 1.845l-.187 4.765.476.019.187-4.765-.476-.019zm-25.124 2.351l-2.273-3.274.397-.271 2.257 3.275-.381.27zm-25.467.208l-.397-.27 2.114-3.1.382.27-2.099 3.1zm-20.233-1.867l-.387.278 2.645 3.679.387-.279-2.645-3.678zm83.072 4.475l-.397-.271 3.179-4.768.397.27-3.179 4.769z" fill="#1D1D1B"/><path d="M102.437 96.133H-12.015v120.81h114.452V96.133z" fill="#fff"/></g><mask id="m" style="mask-type:luminance" maskUnits="userSpaceOnUse" x="102" y="324" width="115" height="115"><path d="M216.636 324.242H102.184v114.452h114.452V324.242z" fill="#fff"/></mask><g mask="url(#m)"><path d="M219.1 362.327h-4.769v.477h4.769v-.477z" fill="#1D1D1B"/><path d="M216.891 325.036H102.439v120.81h114.452v-120.81z" fill="#fff"/><path d="M109.257 341.33l-4.374 3.175.28.386 4.374-3.175-.28-.386zm102.34-4.358l-.112-.477 5.167-1.192.111.477-5.166 1.192zm-.714 20.222l-.271-.382 3.974-2.782.271.382-3.974 2.782zm8.216 5.132h-4.769v.477h4.769v-.477zm-5.293 12.368l-4.371-2.782.254-.413 4.371 2.782-.254.413zm-21.538-22.333l-3.004-4.482.397-.271 3.004 4.499-.397.254zm-47.69-2.386l-2.623-4.069.397-.27 2.623 4.085-.397.254zm26.875-11.632l-2.944 4.264.392.271 2.944-4.264-.392-.271zm5.966 17.292l-2.639-4.069.398-.254 2.638 4.069-.397.254zm-60.148-20.267l-5.564-2.385.191-.445 5.563 2.385-.19.445zm-9.601 22.048l-.477-.032.398-5.166.477.032-.398 5.166zm35.701-21.713l-.35-.318 3.577-3.974.35.318-3.577 3.974zm10.312-4.28l-.308.364 5.169 4.375.308-.364-5.169-4.375zm31.51 3.533l-5.167-3.179.255-.414 5.166 3.18-.254.413zm-4.434 11.445l-.413-.254 3.179-5.167.413.255-3.179 5.166zm21.963-11.108l-7.944 3.575.196.435 7.944-3.575-.196-.435zm.211 12.364l-.27-.382 3.974-2.782.27.382-3.974 2.782zm-72.61-15.691h-.477v4.769h.477v-4.769zm-10.144 8.981l-.064-.477 5.166-.795.064.477-5.166.795zm12.447 11.317l-.795-5.166.477-.064.795 5.166-.477.064zm6.531-13.768l-5.565 1.187.099.466 5.566-1.187-.1-.466zm-19.953 16.745l-4.374 3.174.28.386 4.374-3.174-.28-.386zm24.516 17.452l-.27-.382 3.974-2.782.27.382-3.974 2.782zm15.897-15.102l-.27-.381 3.974-2.782.27.381-3.974 2.782zm8.217 5.133h-4.769v.477h4.769v-.477zm-19.87-5.96h-4.769v.477h4.769v-.477zm31.602 11.223l-3.783-2.894.286-.381 3.784 2.893-.287.382zm7.583-4.611l-.477-.031.35-4.801.476.032-.349 4.8zm-50.9 8.475l-4.849-.207.016-.477 4.849.207-.016.477zm.398-6.647l-3.784-2.893.286-.381 3.784 2.893-.286.381zm55.485 4.313l-.093.467 4.318.861.094-.468-4.319-.86zm-33.485-23.403l-6.359-1.192.095-.477 6.359 1.193-.095.476zm44.048 15.069l-3.974-1.987.222-.413 3.974 1.987-.222.413zm-86.369-15.45l-.308.364 5.169 4.374.308-.364-5.169-4.374zm-12.346 28.549l-.27-.381 3.974-2.782.27.382-3.974 2.781zm18.297-9.139l-.286-.382 3.179-2.384.287.381-3.18 2.385zm46.398-37.522l-2.945 4.265.393.271 2.944-4.265-.392-.271zm-14.461 38.664l-.461-.111 1.129-4.467.461.127-1.129 4.451zm-49.565-3.959h-4.77v.477h4.77v-.477zm105.218-41.309l-1.764 4.703.446.167 1.764-4.703-.446-.167zm-10.028-.262l-.469.09.998 5.214.468-.089-.997-5.215zm-23.436 1.842l-.187 4.765.476.019.188-4.765-.477-.019zm-25.115 2.341l-2.273-3.274.397-.27 2.257 3.274-.381.27zm-25.466.207l-.397-.27 2.114-3.1.381.271-2.098 3.099zm-20.226-1.871l-.387.279 2.645 3.678.387-.279-2.645-3.678zm83.065 4.479l-.397-.27 3.179-4.769.397.27-3.179 4.769z" fill="#1D1D1B"/><path d="M102.437 325.036H-12.015v120.81h114.452v-120.81z" fill="#fff"/><path d="M97.142 336.975l-.11-.477 5.165-1.192.112.477-5.166 1.192zm7.506 25.352h-4.77v.477h4.77v-.477z" fill="#1D1D1B"/><path d="M216.889 210.584H102.438v120.81h114.451v-120.81z" fill="#fff"/><path d="M209.868 321.018l-1.764 4.704.446.167 1.764-4.703-.446-.168zm-10.029-.263l-.469.09.998 5.214.468-.089-.997-5.215zm-23.435 1.844l-.187 4.765.476.019.188-4.765-.477-.019zm-25.118 2.341l-2.273-3.274.397-.27 2.257 3.274-.381.27zm-25.466.207l-.397-.27 2.114-3.1.382.271-2.099 3.099zm-20.224-1.874l-.387.279 2.645 3.678.387-.279-2.645-3.678zm83.062 4.482l-.397-.27 3.179-4.769.397.27-3.179 4.769z" fill="#1D1D1B"/><path d="M102.437 210.584H-12.015v120.81h114.452v-120.81z" fill="#fff"/></g><mask id="n" style="mask-type:luminance" maskUnits="userSpaceOnUse" x="-13" y="-20" width="116" height="116"><path d="M102.181-19.116H-12.27V95.336h114.45V-19.116z" fill="#fff"/></mask><g mask="url(#n)"><path d="M102.438-18.318H-12.014v120.81h114.452v-120.81z" fill="#fff"/><path d="M102.213 81.047l-6.756-1.192.08-.477 6.755 1.192-.079.477z" fill="#1D1D1B"/></g><mask id="o" style="mask-type:luminance" maskUnits="userSpaceOnUse" x="-13" y="95" width="116" height="115"><path d="M102.181 95.34H-12.27v114.452h114.45V95.34z" fill="#fff"/></mask><g mask="url(#o)"><path d="M104.648 133.428h-4.77v.477h4.77v-.477zm-4.626 27.852l-.286-.382 3.18-2.384.286.381-3.18 2.385z" fill="#1D1D1B"/><path d="M102.439 96.134H-12.013v120.81H102.44V96.134z" fill="#fff"/><path d="M97.144 108.074l-.112-.477 5.166-1.192.112.477-5.166 1.192zm7.502 25.354h-4.769v.477h4.769v-.477zm-4.624 27.851l-.286-.382 3.18-2.384.286.381-3.18 2.385zm2.193 34.223l-6.756-1.192.08-.477 6.755 1.192-.079.477z" fill="#1D1D1B"/><path d="M102.439-18.317H-12.013v120.81H102.44v-120.81z" fill="#fff"/></g><mask id="p" style="mask-type:luminance" maskUnits="userSpaceOnUse" x="-13" y="209" width="116" height="116"><path d="M102.181 209.79H-12.27v114.452h114.45V209.79z" fill="#fff"/></mask><g mask="url(#p)"><path d="M104.645 247.875h-4.769v.477h4.769v-.477zm-4.626 27.852l-.287-.382 3.18-2.384.286.381-3.179 2.385z" fill="#1D1D1B"/><path d="M102.437 210.584H-12.015v120.81h114.452v-120.81z" fill="#fff"/><path d="M97.142 222.524l-.11-.477 5.165-1.193.112.477-5.166 1.193zm7.503 25.355h-4.769v.477h4.769v-.477zm-4.624 27.849l-.286-.382 3.18-2.384.286.381-3.18 2.385zm2.192 34.224l-6.756-1.192.08-.477 6.755 1.192-.079.477z" fill="#1D1D1B"/><path d="M102.437 96.133H-12.015v120.81h114.452V96.133z" fill="#fff"/></g><mask id="q" style="mask-type:luminance" maskUnits="userSpaceOnUse" x="-13" y="324" width="116" height="115"><path d="M102.181 324.242H-12.27v114.452h114.45V324.242z" fill="#fff"/></mask><g mask="url(#q)"><path d="M104.649 362.327h-4.77v.477h4.77v-.477z" fill="#1D1D1B"/><path d="M102.438 325.037H-12.014v120.81h114.452v-120.81z" fill="#fff"/><path d="M97.142 336.973l-.11-.477 5.165-1.192.112.477-5.166 1.192zm7.503 25.356h-4.769v.477h4.769v-.477z" fill="#1D1D1B"/><path d="M102.435 210.584H-12.017v120.81h114.452v-120.81z" fill="#fff"/></g></g><path d="M123.275 372.564c-.588 0-.763-.191-.922-.35-4.959-4.959-24.193-59.054-20.871-70.721 2.893-10.142 173.474-96.442 221.941-120.779-44.636 15.245-188.973 63.998-196.158 59.69-8.886-5.341-14.322-55.716-3.497-78.908l.127-.27.271-.128c.779-.333 78.399-33.572 120.842-49.293 23.892-8.855 102.593-31.586 103.388-31.809l.652-.19.286.62c.159.333 15.801 34.24 17.565 95.694 1.574 55.048 0 69.911 0 70.054l-.048.414-.365.19c-.604.334-60.31 32.953-119.825 64.586-103.229 54.858-120.016 61.216-123.401 61.216l.015-.016zm.096-1.574h.143c9.092 0 148.93-74.632 241.843-125.42.223-2.702 1.383-19.441-.048-69.418-1.621-56.558-15.037-89.606-17.136-94.439-7.725 2.242-79.941 23.193-102.609 31.586-41.123 15.228-115.31 46.925-120.492 49.151-10.905 23.86-4.213 72.279 2.988 76.603.223.127.636.206 1.224.206 13.989 0 128.234-37.53 204.758-63.854l.62 1.462c-91.88 45.94-229.413 117.17-231.67 125.087-3.195 11.206 15.912 64.125 20.363 69.068l.016-.032zm-37.69-172.774s20.061 8.362 11.7 26.738c-8.362 18.391-33.43 30.091-33.43 30.091s-35.098 51.805-50.136 48.467c-15.038-3.338-15.038-10.03-8.361-20.061 6.692-10.03 48.467-71.866 55.159-76.889 6.692-5.007 15.038-15.038 25.068-8.362v.016z" fill="#fff"/><path d="M15.23 304.466c-.54 0-1.08-.047-1.59-.174-7.168-1.59-11.317-4.054-12.716-7.519-1.383-3.434-.175-7.662 3.879-13.75.476-.716 48.006-71.581 55.334-77.081 1.097-.826 2.225-1.78 3.433-2.782 6.089-5.118 13.655-11.461 22.493-5.627.954.414 9.745 4.388 12.987 12.638 1.829 4.657 1.511 9.744-.937 15.149-8.076 17.772-31.046 29.153-33.62 30.377-2.56 3.767-33.557 48.785-49.263 48.785v-.016zm63.617-107.664c-5.23 0-9.951 3.958-14.243 7.567-1.224 1.033-2.385 2.003-3.513 2.845-6.359 4.769-47.196 65.015-54.97 76.683-3.687 5.532-4.863 9.426-3.719 12.272 1.177 2.94 4.976 5.086 11.588 6.565.43.095.89.143 1.367.143 15.054 0 47.61-47.784 47.943-48.277l.127-.175.191-.095c.254-.111 24.91-11.795 33.048-29.694 2.257-4.991 2.575-9.665.906-13.893-3.1-7.9-12.097-11.747-12.192-11.779l-.127-.064c-2.21-1.478-4.34-2.082-6.39-2.082l-.016-.016z" fill="#fff"/><path d="M76.496 209.088s-5.008-5.007-13.369 13.369c-8.361 18.391-38.437 60.166-50.136 68.528-12.542 8.949-14.211 2.511-7.52-7.519 6.693-10.031 48.468-71.867 55.16-76.89 6.692-5.007 5.85-4.18 15.88 2.512h-.015z" fill="#191919"/><path d="M3.945 296.024c-.922 0-1.67-.27-2.226-.795-1.923-1.86-.779-6.422 3.084-12.208.477-.715 48.006-71.58 55.334-77.08 6.057-4.531 6.55-4.531 13.448.206a129.8 129.8 0 002.814 1.908c.286.143.509.318.652.461a.784.784 0 01.047 1.065.792.792 0 01-1.049.159c-.159-.095-.302-.207-.445-.302-.302-.143-.794-.27-1.478-.127-1.717.349-5.325 2.559-10.285 13.464-8.202 18.042-38.182 60.119-50.406 68.846-4.086 2.909-7.297 4.403-9.49 4.403zm62.567-91.8c-1.43 0-2.766 1.001-5.42 2.988-6.36 4.769-47.196 65.015-54.97 76.683-3.56 5.341-4.355 9.156-3.29 10.19.906.89 3.942.365 9.696-3.752 11.795-8.425 41.934-50.74 49.882-68.21 3.816-8.409 7.488-13.178 10.905-14.243l-.62-.429c-3.163-2.178-4.72-3.243-6.183-3.243v.016z" fill="#fff"/><path d="M47.246 243.345h7.392s26.88-32.587 21.857-37.61c-5.007-5.007-13.91-5.532-13.91-5.532l-15.339 43.142z" fill="#191919"/><path d="M54.637 244.14h-7.392a.828.828 0 01-.652-.334.75.75 0 01-.095-.731l15.34-43.142c.127-.334.445-.557.794-.525.382.016 9.252.604 14.418 5.771 5.166 5.166-17.247 33.143-21.81 38.675a.768.768 0 01-.62.286h.017zm-6.263-1.59h5.881c10.937-13.305 24.766-33.159 21.683-36.243-4.022-4.022-10.778-5.039-12.797-5.246l-14.767 41.505v-.016z" fill="#fff"/><path d="M36.386 224.827s20.887-31.617 30.918-23.272c10.03 8.346-20.061 41.791-20.061 41.791l-10.857-18.519z" fill="#191919"/><path d="M47.243 244.141h-.08a.831.831 0 01-.604-.381l-10.857-18.519a.805.805 0 01.016-.843c.636-.954 15.53-23.319 26.451-24.941 2.162-.318 4.07.191 5.644 1.494 1.382 1.161 2.161 2.782 2.305 4.817.874 12.224-21.333 37.054-22.287 38.103a.787.787 0 01-.588.27zm-9.92-19.282l10.063 17.136c3.863-4.435 21.905-25.736 21.158-36.116-.111-1.621-.684-2.829-1.733-3.719-1.224-1.018-2.655-1.399-4.403-1.145-9.458 1.399-22.986 20.744-25.068 23.828l-.016.016zm37.473 114.815s21.65 1.78 19.345 21.857c-2.305 20.061-22.556 38.898-22.556 38.898s-17.47 60.087-32.81 61.533c-15.34 1.447-17.39-4.911-14.115-16.516 3.274-11.604 24.034-83.279 28.851-90.115 4.816-6.819 9.697-18.932 21.285-15.657z" fill="#fff"/><path d="M34.849 462.966c-5.071 0-8.489-1.145-10.412-3.45-2.369-2.845-2.528-7.248-.54-14.275.238-.826 23.589-82.739 28.962-90.353.795-1.113 1.573-2.384 2.416-3.704 4.228-6.74 9.474-15.117 19.664-12.272 1.049.096 10.618 1.177 16.23 8.028 3.179 3.863 4.434 8.806 3.767 14.704-2.226 19.409-20.586 37.292-22.652 39.247-1.32 4.515-18.058 60.453-33.446 61.9-1.43.127-2.766.206-4.005.206l.016-.031zm36.21-123.036c-6.866 0-10.856 6.374-14.433 12.081-.842 1.351-1.653 2.639-2.464 3.783-4.562 6.47-24.13 73.599-28.74 89.877-1.812 6.39-1.733 10.475.239 12.828 2.034 2.448 6.294 3.322 13.05 2.686 14.625-1.383 31.951-60.373 32.126-60.961l.064-.207.159-.143c.206-.191 20.077-18.885 22.318-38.405.62-5.452-.525-9.999-3.418-13.512-5.404-6.581-15.117-7.455-15.212-7.455l-.143-.032c-1.256-.35-2.432-.524-3.53-.524l-.015-.016z" fill="#fff"/><path d="M69.388 352.837s-6.31-3.227-8.616 16.834c-2.305 20.061-18.09 69.069-26.642 80.625-9.172 12.383-12.748 6.756-9.474-4.848 3.275-11.604 24.035-83.28 28.852-90.115 4.816-6.819 4.276-5.77 15.88-2.496z" fill="#191919"/><path d="M25.912 458.068c-.43 0-.827-.095-1.208-.27-2.4-1.176-2.719-5.881-.827-12.558.239-.826 23.59-82.739 28.963-90.353 4.355-6.184 4.848-6.327 12.86-3.942.953.286 2.034.604 3.258.953.318.048.589.143.764.239.365.191.524.62.381 1.001a.787.787 0 01-.954.477l-.524-.143c-.334-.032-.843 0-1.447.334-1.526.858-4.276 4.069-5.643 15.975-2.257 19.696-17.867 68.942-26.8 81.007-3.578 4.817-6.598 7.296-8.84 7.296l.017-.016zm33.572-106.949c-2.034 0-2.956 1.304-5.34 4.674-4.563 6.47-24.131 73.599-28.74 89.877-1.75 6.167-1.32 10.062 0 10.713 1.128.557 3.862-.858 8.074-6.549 8.632-11.636 24.305-61.184 26.5-80.243 1.048-9.172 3.067-14.847 6.008-16.898-.255-.079-.493-.143-.715-.206-2.782-.827-4.5-1.336-5.77-1.336l-.017-.032z" fill="#fff"/><path d="M52.093 394.435l7.026-2.273s15.562-39.279 9.251-42.506c-6.31-3.227-14.926-1.002-14.926-1.002l-1.335 45.765-.016.016z" fill="#191919"/><path d="M52.093 395.231a.752.752 0 01-.477-.159.78.78 0 01-.318-.668l1.335-45.765c0-.349.255-.652.604-.747.366-.095 8.982-2.273 15.5 1.065 6.612 3.386-6.232 36.831-8.87 43.508a.752.752 0 01-.494.461l-7.026 2.273s-.159.032-.238.032h-.016zm2.114-45.924l-1.287 44.032 5.595-1.812c6.31-16.023 13.369-39.168 9.49-41.155-5.055-2.591-11.795-1.478-13.798-1.065z" fill="#fff"/><path d="M36.054 380.146s10.157-36.513 22.27-31.649c12.113 4.864-6.247 45.924-6.247 45.924L36.054 380.13v.016z" fill="#191919"/><path d="M52.093 395.233a.731.731 0 01-.524-.206l-16.024-14.291a.811.811 0 01-.238-.811c.302-1.096 7.598-26.975 17.502-31.855 1.97-.97 3.926-1.081 5.834-.318 1.669.667 2.908 1.971 3.672 3.878 4.593 11.366-8.918 41.823-9.49 43.111-.096.238-.318.397-.557.461-.048 0-.111.015-.159.015l-.016.016zM36.96 379.894l14.831 13.225c2.321-5.404 12.924-31.22 9.03-40.869-.605-1.51-1.527-2.479-2.798-3.004-1.495-.604-2.973-.509-4.53.254-8.569 4.229-15.484 26.817-16.533 30.378v.016z" fill="#fff"/></svg>