<svg xmlns="http://www.w3.org/2000/svg" viewBox="0 0 1345.61 550.8"><g data-name="Layer 2"><path d="M498.12 550.8H0V228.3L246.33 0l251.79 228.3v322.5z"/><circle cx="587.28" cy="346.46" r="51.04"/><circle fill="#fff" cx="379.2" cy="346.46" r="51.04"/><path d="M827.21 336.27c0 27.19-20.4 44.1-53 44.1h-24.57V414h-28.23V292h52.81c32.59 0 52.99 16.9 52.99 44.27zm-28.59 0c0-13.42-8.71-21.27-26-21.27h-23v42.36h23c17.29 0 26-7.85 26-21.09zM842 292c0-8.54 6.8-15.16 16.91-15.16s16.9 6.27 16.9 14.64c0 9.07-6.79 15.69-16.9 15.69S842 300.54 842 292zm3.31 28.24h27.19V414h-27.16zm148.37 40.08V414h-27.2v-49.5c0-15.16-7-22.13-19-22.13-13.07 0-22.48 8-22.48 25.27V414h-27.19v-93.77h26v11c7.32-8 18.3-12.37 31-12.37 22.13-.02 38.87 12.87 38.87 41.46zm18.82-7.32c0-36.26 28.24-63.1 66.76-63.1 38.35 0 66.76 26.67 66.76 63.1s-28.41 63.1-66.76 63.1c-38.52 0-66.76-26.84-66.76-63.1zm104.93 0c0-23.18-16.38-39-38.17-39s-38.17 15.86-38.17 39 16.38 39 38.17 39 38.17-15.82 38.17-39zm142.42-32.77V414h-25.8v-11.15c-7.15 8.19-17.6 12.55-29.11 12.55-23.53 0-40.09-13.25-40.09-42.18v-53H1192v49c0 15.69 7 22.66 19 22.66 12.55 0 21.62-8 21.62-25.28v-46.37zm85.76 89.24c-5.58 4-13.77 5.93-22.14 5.93-22.13 0-35-11.33-35-33.64v-38.52H1274v-20.92h14.47v-22.83h27.19v22.83H1339v20.92h-23.36v38.17c0 8 4.36 12.38 11.68 12.38a18.29 18.29 0 0011-3.49z"/></g></svg>