<svg width="135" height="74" viewBox="0 0 135 74" fill="none" xmlns="http://www.w3.org/2000/svg"><path d="M61.8 72.916v-30.9H30.9v-30.9H0V.816h41.2v30.9h30.9v41.2H61.8zM0 31.716v41.2h41.2v-10.3H10.3v-30.9H0zm82.4 9.73h3.09v-5.45c0-.58.14-1.06.41-1.42.27-.37.65-.55 1.13-.55.48 0 .81.14 1.03.43.22.28.33.69.33 1.22v5.77h3.1v-5.45c0-.58.13-1.06.4-1.42.27-.37.65-.55 1.14-.55.49 0 .81.14 1.03.43.22.28.33.69.33 1.22v5.77h3.1v-6.32c0-.55-.07-1.05-.21-1.5-.14-.46-.34-.84-.62-1.17-.27-.32-.62-.57-1.03-.75-.42-.18-.9-.27-1.44-.27-.63 0-1.21.14-1.72.41-.51.27-.96.7-1.34 1.3h-.04c-.25-.53-.61-.95-1.07-1.25-.46-.3-1.02-.46-1.66-.46-.71 0-1.3.15-1.78.46-.47.3-.86.71-1.17 1.22h-.06v-1.39h-2.96v9.72h.01zm16.46-11.07h3.09v-2.51h-3.09v2.51zm0 11.07h3.09v-9.72h-3.09v9.72zm9.52.07c.28-.03.5-.07.64-.11v-2.26h-.68c-.33 0-.59-.07-.79-.19-.2-.13-.29-.38-.29-.76v-4.56h1.76v-1.94h-1.76v-3.08h-3.02v3.08h-1.29v1.94h1.29v5.22c0 .52.08.95.23 1.3.15.35.36.62.65.83.28.2.6.35.98.43.37.08.79.12 1.24.12.42 0 .77-.01 1.05-.05l-.01.03zM82.4 56.186h3.09v-5.45c0-.58.14-1.06.41-1.42.27-.37.65-.55 1.13-.55.48 0 .81.14 1.03.43.22.28.33.69.33 1.22v5.77h3.1v-5.45c0-.58.13-1.06.4-1.42.27-.37.65-.55 1.14-.55.49 0 .81.14 1.03.43.22.28.33.69.33 1.22v5.77h3.1v-6.32c0-.54-.07-1.04-.21-1.5-.14-.46-.34-.84-.62-1.17-.27-.32-.62-.57-1.03-.75-.42-.18-.9-.27-1.44-.27-.63 0-1.21.14-1.72.41-.51.27-.96.71-1.34 1.3h-.04c-.25-.53-.61-.95-1.07-1.25-.46-.3-1.02-.46-1.66-.46-.71 0-1.3.15-1.78.46-.47.31-.86.71-1.17 1.22h-.06v-1.39h-2.96v9.72h.01zm22.82.06c.5-.15.95-.37 1.36-.66.43-.29.78-.64 1.06-1.03.28-.4.47-.82.57-1.26h-3.02c-.14.3-.34.54-.61.71-.27.17-.6.25-1.01.25-.65 0-1.14-.19-1.5-.57-.35-.38-.58-.9-.68-1.56h6.99c.01-.99-.12-1.89-.41-2.7-.28-.82-.72-1.49-1.3-2.02-.42-.38-.9-.68-1.45-.89-.55-.22-1.17-.33-1.87-.33-.75 0-1.42.13-2.03.39-.61.26-1.13.62-1.58 1.08-.45.46-.78 1.01-1.03 1.63-.24.63-.36 1.3-.36 2.02s.12 1.42.36 2.05c.24.64.58 1.18 1.03 1.65.44.46.99.82 1.63 1.08.65.26 1.37.39 2.16.39.62 0 1.18-.08 1.68-.23h.01zm-3.81-5.96c.1-.58.31-1.04.63-1.39.32-.34.77-.51 1.37-.51.51 0 .92.17 1.25.51.33.34.52.8.59 1.39h-3.84zm13.7 5.78c.49-.28.88-.68 1.17-1.19h.04v1.31h2.96v-13.58h-3.09v4.95h-.06c-.29-.4-.65-.74-1.06-.99-.42-.26-.97-.39-1.65-.39-.64 0-1.21.13-1.73.38s-.96.61-1.34 1.06c-.38.45-.67.99-.88 1.62-.21.63-.31 1.33-.31 2.09 0 .81.11 1.54.31 2.18.21.64.51 1.18.89 1.62.38.44.83.78 1.35 1.02.52.23 1.09.35 1.71.35.64 0 1.21-.14 1.7-.43h-.01zm-2.32-2.76c-.33-.49-.5-1.17-.5-2.01 0-.84.17-1.49.51-2 .34-.51.82-.77 1.44-.77.34 0 .64.07.88.21.25.14.46.33.63.58.17.25.3.54.38.89.08.35.12.72.12 1.13 0 .8-.18 1.45-.54 1.96-.36.5-.86.76-1.51.76-.61 0-1.08-.25-1.42-.74l.01-.01zm7.73-8.18h3.09v-2.51h-3.09v2.51zm0 11.07h3.09v-9.72h-3.09v9.72zm9.24-.11c.45-.24.82-.56 1.11-.97h.04c.04.26.08.47.13.66.05.18.12.32.19.43h3v-.13c-.14-.09-.23-.25-.27-.47-.05-.22-.07-.53-.07-.92v-4.9c0-.61-.1-1.14-.31-1.61-.2-.47-.51-.85-.93-1.16-.35-.27-.79-.46-1.29-.6-.51-.13-1.13-.2-1.86-.2-.73 0-1.37.09-1.92.27-.55.18-1 .42-1.36.72-.36.3-.63.66-.83 1.06-.19.4-.29.83-.3 1.29h2.85c.05-.41.2-.72.46-.93.25-.21.63-.32 1.12-.32.49 0 .81.1 1.02.29.21.19.31.44.31.76s-.18.56-.55.7c-.37.14-1.01.27-1.92.38-.51.07-.99.16-1.44.29-.45.13-.85.31-1.19.54-.34.23-.61.53-.81.89-.2.36-.29.81-.29 1.34 0 .48.08.91.25 1.27.17.37.39.68.69.93.29.25.64.44 1.05.57.41.13.86.19 1.34.19.73 0 1.33-.12 1.77-.36l.01-.01zm-1.74-1.86c-.26-.16-.38-.44-.38-.84 0-.36.13-.64.4-.82.26-.18.69-.34 1.29-.49.32-.07.61-.15.88-.23.27-.08.51-.17.71-.28v1.16c0 .53-.18.96-.54 1.27-.36.31-.83.48-1.41.48-.38 0-.7-.08-.95-.25zM82.4 72.946h3.13v-13.58H82.4v13.58zm9.29-.11c.45-.24.82-.56 1.11-.97h.04c.04.25.08.47.13.66.05.18.11.33.19.43h3v-.13c-.14-.09-.23-.24-.28-.47-.04-.22-.07-.53-.07-.92v-4.9c0-.61-.1-1.15-.31-1.61-.2-.47-.51-.86-.93-1.16-.35-.26-.78-.46-1.29-.6-.51-.13-1.13-.2-1.86-.2-.73 0-1.37.09-1.92.27-.54.17-1 .42-1.36.72-.36.3-.64.66-.83 1.06-.19.41-.29.84-.3 1.29h2.85c.05-.41.2-.72.45-.93.25-.22.63-.32 1.12-.32.47 0 .81.1 1.01.28.21.19.32.44.32.76s-.19.56-.55.7c-.37.14-1.01.27-1.92.38-.51.06-.98.16-1.43.28-.45.13-.84.31-1.19.54-.34.23-.61.53-.81.89-.2.36-.3.81-.3 1.34 0 .48.08.91.25 1.27.17.37.39.68.68.93.29.25.64.44 1.05.57.41.12.86.19 1.34.19.74 0 1.33-.12 1.78-.36l.03.01zm-1.74-1.86c-.25-.16-.38-.44-.38-.84 0-.37.13-.64.4-.83.27-.18.7-.34 1.29-.48.31-.08.61-.15.88-.24.27-.08.51-.17.71-.27v1.16c0 .53-.18.96-.54 1.27-.36.32-.83.48-1.41.48-.38 0-.7-.08-.95-.25zm14.9 1.93c.51-.23.95-.57 1.31-1.02.36-.44.64-.98.84-1.62.2-.64.29-1.36.29-2.17 0-.73-.1-1.41-.29-2.04-.2-.62-.48-1.17-.84-1.63-.36-.46-.8-.82-1.31-1.08-.51-.26-1.09-.39-1.72-.39-.67 0-1.22.13-1.66.38-.44.25-.81.59-1.11 1.01h-.06v-4.96h-3.09v13.57h2.96v-1.23h.04c.3.51.71.89 1.22 1.15.51.26 1.08.39 1.73.39.65 0 1.19-.12 1.7-.35l-.01-.01zm-4.09-2.85c-.37-.5-.55-1.15-.55-1.97 0-.82.17-1.46.5-1.99.33-.53.84-.8 1.53-.8.63 0 1.11.26 1.43.76.32.51.49 1.18.49 2.01 0 .83-.16 1.52-.49 2-.32.49-.79.73-1.4.73-.65 0-1.15-.25-1.52-.75l.01.01z" fill="#191919"/></svg>