<svg width="24" height="24" viewBox="0 0 24 24" fill="none" xmlns="http://www.w3.org/2000/svg"><path d="M11.622.345c6.327 0 11.456 5.129 11.456 11.456S17.95 23.257 11.622 23.257.166 18.128.166 11.8 5.295.345 11.622.345zm3.952 16.125c.21-.646 1.198-7.09 1.32-8.359.037-.385-.085-.64-.323-.754-.288-.139-.714-.07-1.209.109-.678.245-9.35 3.927-9.852 4.14-.475.202-.924.422-.924.74 0 .225.133.35.5.482.38.136 1.342.427 1.909.584.546.15 1.168.02 1.517-.197.37-.23 4.635-3.084 4.941-3.334.306-.25.55.07.3.321-.25.25-3.178 3.092-3.564 3.485-.469.478-.136.973.178 1.171.36.226 2.942 1.959 3.331 2.237.39.277.784.404 1.145.404.36 0 .551-.476.731-1.029z" fill="#fff"/></svg>