<svg width="24" height="24" viewBox="0 0 24 24" fill="none" xmlns="http://www.w3.org/2000/svg"><path d="M11.71.771C5.383.771.254 5.901.254 12.228c0 2.149.604 4.153 1.633 5.871l-1.53 5.585 5.703-1.498a11.394 11.394 0 005.65 1.498c6.327 0 11.456-5.13 11.456-11.456C23.166 5.9 18.036.77 11.71.77zM7.789 6.884c.186 0 .377-.001.542.007.205.005.427.02.64.49.253.56.804 1.963.874 2.106.071.142.121.31.023.496-.094.19-.142.306-.28.475-.142.164-.298.368-.427.492-.142.143-.289.299-.125.582.164.284.735 1.213 1.578 1.963 1.083.969 1.997 1.266 2.282 1.408.284.143.45.12.613-.07.17-.187.71-.825.901-1.11.186-.285.376-.235.634-.142.261.094 1.657.781 1.941.923.285.143.471.213.543.328.073.12.073.688-.163 1.35-.235.662-1.393 1.302-1.913 1.347-.524.048-1.013.235-3.406-.707-2.887-1.137-4.708-4.094-4.85-4.285C7.054 12.351 6.04 11 6.04 9.606c0-1.399.733-2.084.99-2.368a1.04 1.04 0 01.759-.354z" fill="#fff"/></svg>