<svg width="452" height="195" viewBox="0 0 452 195" fill="none" xmlns="http://www.w3.org/2000/svg"><path d="M1.224 26.795L4.1 17.607l10.344 3.907-.719-10.157h9.344l-.688 10.157 10.344-3.938 2.875 9.219-10.75 2.312 7.438 7.875-7.532 5.5-6.343-8.625-6.313 8.625-7.562-5.5 7.437-7.875-10.75-2.312z" fill="#4285F4"/><path d="M146.359 121.968a9.25 9.25 0 100-18.5 9.25 9.25 0 000 18.5z" fill="#fff"/><path d="M146.359 122.468c-5.38 0-9.75-4.37-9.75-9.75s4.37-9.75 9.75-9.75 9.75 4.37 9.75 9.75-4.37 9.75-9.75 9.75zm0-18.5c-4.83 0-8.75 3.93-8.75 8.75s3.92 8.75 8.75 8.75 8.75-3.93 8.75-8.75-3.93-8.75-8.75-8.75z" fill="#191919"/><path d="M146.359 119.907a7.19 7.19 0 100-14.38 7.19 7.19 0 000 14.38z" fill="#fff"/><path d="M146.359 120.407c-4.24 0-7.69-3.45-7.69-7.69s3.45-7.69 7.69-7.69 7.7 3.45 7.7 7.69-3.45 7.69-7.7 7.69zm0-14.39c-3.69 0-6.69 3-6.69 6.69 0 3.69 3 6.69 6.69 6.69 3.69 0 6.7-3 6.7-6.69 0-3.69-3-6.69-6.7-6.69z" fill="#191919"/><mask id="a" style="mask-type:luminance" maskUnits="userSpaceOnUse" x="136" y="124" width="21" height="5"><path d="M156.219 128.998v-4.75h-20.04v4.75h20.04z" fill="#fff"/></mask><g mask="url(#a)"><mask id="b" style="mask-type:luminance" maskUnits="userSpaceOnUse" x="150" y="119" width="16" height="12"><path d="M165.739 119.688h-15.52v10.7h15.52v-10.7z" fill="#fff"/></mask><g mask="url(#b)" stroke="#191919" stroke-width=".21"><path d="M151.509 119.648v10.77m2.59-10.77v10.77"/></g><mask id="c" style="mask-type:luminance" maskUnits="userSpaceOnUse" x="134" y="119" width="17" height="12"><path d="M150.219 119.688h-15.52v10.7h15.52v-10.7z" fill="#fff"/></mask><g mask="url(#c)" stroke="#191919" stroke-width=".21"><path d="M141.169 119.648v10.77m5.17-10.77v10.77m-7.76-10.77v10.77m5.17-10.77v10.77m5.18-10.77v10.77"/></g></g><path d="M156.219 129.498h-20.04c-.28 0-.5-.22-.5-.5v-4.75c0-.28.22-.5.5-.5h20.04c.28 0 .5.22.5.5v4.75c0 .28-.22.5-.5.5zm-19.54-1h19.04v-3.75h-19.04v3.75z" fill="#191919"/><mask id="d" style="mask-type:luminance" maskUnits="userSpaceOnUse" x="136" y="131" width="21" height="6"><path d="M156.219 136.128v-4.75h-20.04v4.75h20.04z" fill="#fff"/></mask><g mask="url(#d)"><mask id="e" style="mask-type:luminance" maskUnits="userSpaceOnUse" x="150" y="126" width="16" height="12"><path d="M165.739 126.818h-15.52v10.7h15.52v-10.7z" fill="#fff"/></mask><g mask="url(#e)" stroke="#191919" stroke-width=".21"><path d="M151.509 126.778v10.77m2.59-10.77v10.77"/></g><mask id="f" style="mask-type:luminance" maskUnits="userSpaceOnUse" x="134" y="126" width="17" height="12"><path d="M150.219 126.818h-15.52v10.7h15.52v-10.7z" fill="#fff"/></mask><g mask="url(#f)" stroke="#191919" stroke-width=".21"><path d="M141.169 126.778v10.77m5.17-10.77v10.77m-7.76-10.77v10.77m5.17-10.77v10.77m5.18-10.77v10.77"/></g></g><path d="M156.219 136.628h-20.04c-.28 0-.5-.22-.5-.5v-4.75c0-.28.22-.5.5-.5h20.04c.28 0 .5.22.5.5v4.75c0 .28-.22.5-.5.5zm-19.54-1h19.04v-3.75h-19.04v3.75z" fill="#191919"/><mask id="g" style="mask-type:luminance" maskUnits="userSpaceOnUse" x="136" y="138" width="21" height="6"><path d="M156.219 143.258v-4.75h-20.04v4.75h20.04z" fill="#fff"/></mask><g mask="url(#g)"><mask id="h" style="mask-type:luminance" maskUnits="userSpaceOnUse" x="150" y="133" width="16" height="12"><path d="M165.739 133.948h-15.52v10.7h15.52v-10.7z" fill="#fff"/></mask><g mask="url(#h)" stroke="#191919" stroke-width=".21"><path d="M151.509 133.908v10.77m2.59-10.77v10.77"/></g><mask id="i" style="mask-type:luminance" maskUnits="userSpaceOnUse" x="134" y="133" width="17" height="12"><path d="M150.219 133.948h-15.52v10.7h15.52v-10.7z" fill="#fff"/></mask><g mask="url(#i)" stroke="#191919" stroke-width=".21"><path d="M141.169 133.908v10.77m5.17-10.77v10.77m-7.76-10.77v10.77m5.17-10.77v10.77m5.18-10.77v10.77"/></g></g><path d="M156.219 143.768h-20.04c-.28 0-.5-.22-.5-.5v-4.75c0-.28.22-.5.5-.5h20.04c.28 0 .5.22.5.5v4.75c0 .28-.22.5-.5.5zm-19.54-1h19.04v-3.75h-19.04v3.75zm10.16-34.51v8.91h-.92v-8.09h-2.1v-.81h3.02v-.01z" fill="#191919"/><mask id="j" style="mask-type:luminance" maskUnits="userSpaceOnUse" x="32" y="128" width="21" height="5"><path d="M52.189 132.997v-4.75h-20.04v4.75h20.04z" fill="#fff"/></mask><g mask="url(#j)"><mask id="k" style="mask-type:luminance" maskUnits="userSpaceOnUse" x="46" y="123" width="16" height="12"><path d="M61.709 123.688h-15.52v10.699h15.52v-10.699z" fill="#fff"/></mask><g mask="url(#k)" stroke="#191919" stroke-width=".21"><path d="M47.479 123.647v10.77m2.59-10.77v10.77"/></g><mask id="l" style="mask-type:luminance" maskUnits="userSpaceOnUse" x="30" y="123" width="17" height="12"><path d="M46.189 123.688h-15.52v10.699h15.52v-10.699z" fill="#fff"/></mask><g mask="url(#l)" stroke="#191919" stroke-width=".21"><path d="M37.139 123.647v10.77m5.17-10.77v10.77m-7.76-10.77v10.77m5.179-10.77v10.77m5.171-10.77v10.77"/></g></g><path d="M52.189 133.497h-20.04c-.28 0-.5-.22-.5-.5v-4.75c0-.28.22-.5.5-.5h20.04c.28 0 .5.22.5.5v4.75c0 .28-.22.5-.5.5zm-19.54-1h19.04v-3.75h-19.04v3.75z" fill="#191919"/><mask id="m" style="mask-type:luminance" maskUnits="userSpaceOnUse" x="32" y="135" width="21" height="6"><path d="M52.189 140.127v-4.75h-20.04v4.75h20.04z" fill="#fff"/></mask><g mask="url(#m)"><mask id="n" style="mask-type:luminance" maskUnits="userSpaceOnUse" x="46" y="130" width="16" height="12"><path d="M61.709 130.817h-15.52v10.7h15.52v-10.7z" fill="#fff"/></mask><g mask="url(#n)" stroke="#191919" stroke-width=".21"><path d="M47.479 130.777v10.77m2.59-10.77v10.77"/></g><mask id="o" style="mask-type:luminance" maskUnits="userSpaceOnUse" x="30" y="130" width="17" height="12"><path d="M46.189 130.817h-15.52v10.7h15.52v-10.7z" fill="#fff"/></mask><g mask="url(#o)" stroke="#191919" stroke-width=".21"><path d="M37.139 130.777v10.77m5.17-10.77v10.77m-7.76-10.77v10.77m5.179-10.77v10.77m5.171-10.77v10.77"/></g></g><path d="M52.189 140.627h-20.04c-.28 0-.5-.22-.5-.5v-4.75c0-.28.22-.5.5-.5h20.04c.28 0 .5.22.5.5v4.75c0 .28-.22.5-.5.5zm-19.54-1h19.04v-3.75h-19.04v3.75z" fill="#191919"/><mask id="p" style="mask-type:luminance" maskUnits="userSpaceOnUse" x="32" y="142" width="21" height="6"><path d="M52.189 147.257v-4.75h-20.04v4.75h20.04z" fill="#fff"/></mask><g mask="url(#p)"><mask id="q" style="mask-type:luminance" maskUnits="userSpaceOnUse" x="46" y="137" width="16" height="12"><path d="M61.709 137.947h-15.52v10.7h15.52v-10.7z" fill="#fff"/></mask><g mask="url(#q)" stroke="#191919" stroke-width=".21"><path d="M47.479 137.907v10.77m2.59-10.77v10.77"/></g><mask id="r" style="mask-type:luminance" maskUnits="userSpaceOnUse" x="30" y="137" width="17" height="12"><path d="M46.189 137.947h-15.52v10.7h15.52v-10.7z" fill="#fff"/></mask><g mask="url(#r)" stroke="#191919" stroke-width=".21"><path d="M37.139 137.907v10.77m5.17-10.77v10.77m-7.76-10.77v10.77m5.179-10.77v10.77m5.171-10.77v10.77"/></g></g><path d="M52.189 147.767h-20.04c-.28 0-.5-.22-.5-.5v-4.75c0-.28.22-.5.5-.5h20.04c.28 0 .5.22.5.5v4.75c0 .28-.22.5-.5.5zm-19.54-1h19.04v-3.75h-19.04v3.75z" fill="#191919"/><mask id="s" style="mask-type:luminance" maskUnits="userSpaceOnUse" x="32" y="106" width="21" height="6"><path d="M52.199 111.487v-4.75h-20.04v4.75h20.04z" fill="#fff"/></mask><g mask="url(#s)"><mask id="t" style="mask-type:luminance" maskUnits="userSpaceOnUse" x="46" y="102" width="16" height="11"><path d="M61.709 102.178h-15.52v10.7h15.52v-10.7z" fill="#fff"/></mask><g mask="url(#t)" stroke="#191919" stroke-width=".21"><path d="M47.478 102.138v10.77m2.59-10.77v10.77"/></g><mask id="u" style="mask-type:luminance" maskUnits="userSpaceOnUse" x="30" y="102" width="17" height="11"><path d="M46.188 102.178h-15.52v10.7h15.52v-10.7z" fill="#fff"/></mask><g mask="url(#u)" stroke="#191919" stroke-width=".21"><path d="M37.138 102.138v10.77m5.17-10.77v10.77m-7.76-10.77v10.77m5.18-10.77v10.77m5.17-10.77v10.77"/></g></g><path d="M52.189 111.987h-20.04c-.28 0-.5-.22-.5-.5v-4.75c0-.28.22-.5.5-.5h20.04c.28 0 .5.22.5.5v4.75c0 .28-.22.5-.5.5zm-19.54-1h19.04v-3.75h-19.04v3.75z" fill="#191919"/><mask id="v" style="mask-type:luminance" maskUnits="userSpaceOnUse" x="32" y="113" width="21" height="6"><path d="M52.189 118.617v-4.75h-20.04v4.75h20.04z" fill="#fff"/></mask><g mask="url(#v)"><mask id="w" style="mask-type:luminance" maskUnits="userSpaceOnUse" x="46" y="109" width="16" height="12"><path d="M61.709 109.308h-15.52v10.7h15.52v-10.7z" fill="#fff"/></mask><g mask="url(#w)" stroke="#191919" stroke-width=".21"><path d="M47.479 109.268v10.77m2.59-10.77v10.77"/></g><mask id="x" style="mask-type:luminance" maskUnits="userSpaceOnUse" x="30" y="109" width="17" height="12"><path d="M46.189 109.308h-15.52v10.7h15.52v-10.7z" fill="#fff"/></mask><g mask="url(#x)" stroke="#191919" stroke-width=".21"><path d="M37.139 109.268v10.77m5.17-10.77v10.77m-7.76-10.77v10.77m5.179-10.77v10.77m5.171-10.77v10.77"/></g></g><path d="M52.189 119.117h-20.04c-.28 0-.5-.22-.5-.5v-4.75c0-.28.22-.5.5-.5h20.04c.28 0 .5.22.5.5v4.75c0 .28-.22.5-.5.5zm-19.54-1h19.04v-3.75h-19.04v3.75z" fill="#191919"/><mask id="y" style="mask-type:luminance" maskUnits="userSpaceOnUse" x="32" y="120" width="21" height="6"><path d="M52.189 125.747v-4.75h-20.04v4.75h20.04z" fill="#fff"/></mask><g mask="url(#y)"><mask id="z" style="mask-type:luminance" maskUnits="userSpaceOnUse" x="46" y="116" width="16" height="12"><path d="M61.709 116.438h-15.52v10.699h15.52v-10.699z" fill="#fff"/></mask><g mask="url(#z)" stroke="#191919" stroke-width=".21"><path d="M47.479 116.397v10.77m2.59-10.77v10.77"/></g><mask id="A" style="mask-type:luminance" maskUnits="userSpaceOnUse" x="30" y="116" width="17" height="12"><path d="M46.189 116.438h-15.52v10.699h15.52v-10.699z" fill="#fff"/></mask><g mask="url(#A)" stroke="#191919" stroke-width=".21"><path d="M37.139 116.397v10.77m5.17-10.77v10.77m-7.76-10.77v10.77m5.179-10.77v10.77m5.171-10.77v10.77"/></g></g><path d="M52.189 126.247h-20.04c-.28 0-.5-.22-.5-.5v-4.75c0-.28.22-.5.5-.5h20.04c.28 0 .5.22.5.5v4.75c0 .28-.22.5-.5.5zm-19.54-1h19.04v-3.75h-19.04v3.75z" fill="#191919"/><path d="M54.369 85.188l.58-1.07.58 1.07c.26.47.64.86 1.11 1.11l1.07.58-.97.53c-.53.29-.95.74-1.2 1.29l-.59 1.29-.59-1.29c-.25-.55-.67-1-1.2-1.29l-.97-.53 1.07-.58c.47-.26.86-.64 1.11-1.11z" fill="#fff"/><path d="M54.959 90.488c-.2 0-.37-.11-.45-.29l-.59-1.29c-.21-.45-.56-.82-.99-1.06l-.97-.53a.509.509 0 01-.26-.44c0-.18.1-.35.26-.44l1.07-.58c.39-.21.7-.53.92-.91l.58-1.07c.18-.32.7-.32.88 0l.58 1.07c.21.39.53.7.92.92l1.07.58c.16.09.26.26.26.44s-.1.35-.26.44l-.97.53c-.43.24-.78.61-.99 1.06l-.59 1.29c-.08.18-.26.29-.45.29l-.02-.01zm-1.72-3.61l.17.09c.62.34 1.12.88 1.42 1.52l.13.29.14-.29c.29-.64.8-1.18 1.42-1.52l.17-.09-.26-.14c-.55-.3-1.01-.76-1.31-1.31l-.14-.26-.14.26c-.3.55-.76 1.01-1.31 1.31l-.26.14h-.03z" fill="#191919"/><path d="M140.879 88.028l.58-1.07.58 1.07c.26.47.64.86 1.11 1.11l1.07.58-.97.53c-.53.29-.95.74-1.2 1.29l-.59 1.29-.59-1.29c-.25-.55-.67-1-1.2-1.29l-.97-.53 1.07-.58c.47-.26.86-.64 1.11-1.11z" fill="#fff"/><path d="M141.469 93.328c-.2 0-.37-.11-.45-.29l-.59-1.29a2.31 2.31 0 00-.99-1.06l-.97-.53a.509.509 0 01-.26-.44c0-.18.1-.35.26-.44l1.07-.58c.39-.21.7-.53.91-.91l.58-1.07c.18-.32.7-.32.88 0l.58 1.07c.21.39.53.7.92.92l1.07.58c.16.09.26.26.26.44s-.1.35-.26.44l-.97.53c-.43.24-.78.61-.99 1.06l-.59 1.29c-.08.18-.26.29-.45.29l-.01-.01zm-1.72-3.61l.17.09c.62.34 1.12.88 1.42 1.52l.13.29.14-.29c.29-.64.8-1.18 1.42-1.52l.17-.09-.26-.14c-.55-.3-1.01-.76-1.31-1.31l-.14-.26-.14.26c-.3.56-.76 1.01-1.31 1.31l-.26.14h-.03z" fill="#191919"/><path d="M137.289 162.368l.58-1.07.58 1.07c.26.47.64.86 1.11 1.11l1.07.58-.97.53c-.53.29-.95.74-1.2 1.29l-.59 1.29-.59-1.29c-.25-.55-.67-1-1.2-1.29l-.97-.53 1.07-.58c.47-.26.86-.64 1.11-1.11z" fill="#fff"/><path d="M137.869 167.678c-.2 0-.37-.11-.45-.29l-.59-1.29c-.21-.45-.56-.82-.99-1.06l-.97-.53a.509.509 0 01-.26-.44c0-.18.1-.35.26-.44l1.07-.58c.39-.21.7-.53.92-.91l.58-1.07c.09-.16.26-.26.44-.26s.35.1.44.26l.58 1.07c.21.39.53.7.92.91l1.07.58c.16.09.26.26.26.44s-.1.35-.26.44l-.97.53c-.43.24-.78.61-.99 1.06l-.59 1.29c-.08.18-.26.29-.46.29h-.01zm-1.72-3.61l.17.09c.62.34 1.12.88 1.42 1.52l.13.29.13-.29c.29-.64.8-1.18 1.42-1.52l.17-.09-.26-.14c-.55-.3-1.01-.76-1.31-1.31l-.14-.26-.14.26c-.3.55-.76 1.01-1.31 1.31l-.26.14h-.02z" fill="#191919"/><path d="M128.149 135.708h-67.73v22.71h67.73v-22.71z" fill="#fff"/><path d="M128.149 158.918h-67.73c-.28 0-.5-.22-.5-.5v-22.71c0-.28.22-.5.5-.5h67.73c.28 0 .5.22.5.5v22.71c0 .28-.22.5-.5.5zm-67.23-1h66.73v-21.71h-66.73v21.71z" fill="#191919"/><path d="M127.339 132.468h-66.11v3.24h66.11v-3.24z" fill="#fff"/><path d="M127.339 136.208h-66.11c-.28 0-.5-.22-.5-.5v-3.24c0-.28.22-.5.5-.5h66.11c.28 0 .5.22.5.5v3.24c0 .28-.22.5-.5.5zm-65.61-1h65.11v-2.24h-65.11v2.24z" fill="#191919"/><path d="M128.219 133.278h-67.87l6.76-12.98h54.36l6.75 12.98z" fill="#fff"/><path d="M128.219 133.778h-67.87a.503.503 0 01-.45-.73l6.75-12.98c.09-.17.26-.27.44-.27h54.36c.19 0 .36.1.44.27l6.75 12.98c.08.16.08.34-.02.49-.1.15-.25.24-.43.24h.03zm-67.04-1h66.22l-6.23-11.98h-53.75l-6.23 11.98h-.01z" fill="#191919"/><path d="M117.609 112.188h-46.64v46.239h46.64v-46.239z" fill="#fff"/><path d="M117.609 158.918h-46.64c-.28 0-.5-.22-.5-.5v-46.24c0-.28.22-.5.5-.5h46.64c.28 0 .5.22.5.5v46.24c0 .28-.22.5-.5.5zm-46.14-1h45.64v-45.24h-45.64v45.24z" fill="#191919"/><path d="M98.949 145.438h-9.33v12.979h9.33v-12.979z" fill="#fff"/><path d="M98.949 158.917h-9.33c-.28 0-.5-.22-.5-.5v-12.979c0-.281.22-.5.5-.5h9.33c.28 0 .5.219.5.5v12.979c0 .28-.22.5-.5.5zm-8.83-1h8.33v-11.979h-8.33v11.979z" fill="#191919"/><path d="M98.949 131.218h-9.33v9.73h9.33v-9.73z" fill="#fff"/><path d="M98.949 141.448h-9.33c-.28 0-.5-.22-.5-.5v-9.73c0-.28.22-.5.5-.5h9.33c.28 0 .5.22.5.5v9.73c0 .28-.22.5-.5.5zm-8.83-1h8.33v-8.73h-8.33v8.73z" fill="#191919"/><path d="M86.819 155.178h-7.3v3.24h7.3v-3.24z" fill="#fff"/><path d="M86.819 158.918h-7.3c-.28 0-.5-.22-.5-.5v-3.24c0-.28.22-.5.5-.5h7.3c.28 0 .5.22.5.5v3.24c0 .28-.22.5-.5.5zm-6.8-1h6.3v-2.24h-6.3v2.24z" fill="#191919"/><path d="M84.389 131.648h-2.43v23.52h2.43v-23.52z" fill="#fff"/><path d="M84.389 155.678h-2.43c-.28 0-.5-.22-.5-.5v-23.52c0-.28.22-.5.5-.5h2.43c.28 0 .5.22.5.5v23.52c0 .28-.22.5-.5.5zm-1.93-1h1.43v-22.52h-1.43v22.52z" fill="#191919"/><path d="M109.539 155.178h-7.3v3.24h7.3v-3.24z" fill="#fff"/><path d="M109.539 158.918h-7.3c-.28 0-.5-.22-.5-.5v-3.24c0-.28.22-.5.5-.5h7.3c.28 0 .5.22.5.5v3.24c0 .28-.22.5-.5.5zm-6.8-1h6.3v-2.24h-6.3v2.24z" fill="#191919"/><path d="M125.919 141.388h-5.68v10.55h5.68v-10.55z" fill="#fff"/><path d="M125.919 152.428h-5.68c-.28 0-.5-.22-.5-.5v-10.54c0-.28.22-.5.5-.5h5.68c.28 0 .5.22.5.5v10.54c0 .28-.22.5-.5.5zm-5.18-1h4.68v-9.54h-4.68v9.54z" fill="#191919"/><path d="M68.329 141.388h-5.68v10.55h5.68v-10.55z" fill="#fff"/><path d="M68.329 152.428h-5.68c-.28 0-.5-.22-.5-.5v-10.54c0-.28.22-.5.5-.5h5.68c.28 0 .5.22.5.5v10.54c0 .28-.22.5-.5.5zm-5.18-1h4.68v-9.54h-4.68v9.54z" fill="#191919"/><path d="M114.969 138.138h-5.68v10.55h5.68v-10.55z" fill="#fff"/><path d="M114.969 149.187h-5.68c-.28 0-.5-.22-.5-.5v-10.54c0-.28.22-.5.5-.5h5.68c.28 0 .5.22.5.5v10.54c0 .28-.22.5-.5.5zm-5.18-1h4.68v-9.54h-4.68v9.54z" fill="#191919"/><path d="M79.279 138.138h-5.68v10.55h5.68v-10.55z" fill="#fff"/><path d="M79.279 149.187h-5.68c-.28 0-.5-.22-.5-.5v-10.54c0-.28.22-.5.5-.5h5.68c.28 0 .5.22.5.5v10.54c0 .28-.22.5-.5.5zm-5.18-1h4.68v-9.54h-4.68v9.54z" fill="#191919"/><path d="M114.969 117.858h-5.68v10.55h5.68v-10.55z" fill="#fff"/><path d="M114.969 128.908h-5.68c-.28 0-.5-.22-.5-.5v-10.54c0-.28.22-.5.5-.5h5.68c.28 0 .5.22.5.5v10.54c0 .28-.22.5-.5.5zm-5.18-1h4.68v-9.54h-4.68v9.54z" fill="#191919"/><path d="M79.279 117.858h-5.68v10.55h5.68v-10.55z" fill="#fff"/><path d="M79.279 128.908h-5.68c-.28 0-.5-.22-.5-.5v-10.54c0-.28.22-.5.5-.5h5.68c.28 0 .5.22.5.5v10.54c0 .28-.22.5-.5.5zm-5.18-1h4.68v-9.54h-4.68v9.54z" fill="#191919"/><path d="M107.099 131.648h-2.43v23.52h2.43v-23.52z" fill="#fff"/><path d="M107.099 155.678h-2.43c-.28 0-.5-.22-.5-.5v-23.52c0-.28.22-.5.5-.5h2.43c.28 0 .5.22.5.5v23.52c0 .28-.22.5-.5.5zm-1.93-1h1.43v-22.52h-1.43v22.52z" fill="#191919"/><path d="M130.589 158.018h-72.6v6.89h72.6v-6.89z" fill="#fff"/><path d="M130.589 165.408h-72.6c-.28 0-.5-.22-.5-.5v-6.89c0-.28.22-.5.5-.5h72.6c.28 0 .5.22.5.5v6.89c0 .28-.22.5-.5.5zm-72.1-1h71.6v-5.89h-71.6v5.89z" fill="#191919"/><path d="M105.239 158.418h-21.9v6.08h21.9v-6.08z" fill="#fff"/><path d="M105.239 165.008h-21.9c-.28 0-.5-.22-.5-.5v-6.08c0-.28.22-.5.5-.5h21.9c.28 0 .5.22.5.5v6.08c0 .28-.22.5-.5.5zm-21.4-1h20.9v-5.08h-20.9v5.08z" fill="#191919"/><path d="M120.449 112.587h-52.32l8.11-12.98h36.1l8.11 12.98z" fill="#fff"/><path d="M120.449 113.087h-52.32c-.18 0-.35-.1-.44-.26a.516.516 0 01.01-.51l8.11-12.98c.09-.15.25-.23.42-.23h36.1c.17 0 .33.09.42.23l8.11 12.98a.509.509 0 01-.43.77h.02zm-51.42-1h50.51l-7.49-11.98h-35.54l-7.49 11.98h.01z" fill="#191919"/><path d="M120.449 112.188h-52.32v2.839h52.32v-2.839z" fill="#fff"/><path d="M120.449 115.527h-52.32c-.28 0-.5-.22-.5-.5v-2.839c0-.281.22-.5.5-.5h52.32c.28 0 .5.219.5.5v2.839c0 .28-.22.5-.5.5zm-51.82-1h51.32v-1.839h-51.32v1.839z" fill="#191919"/><path d="M96.349 105.288h-4.13v6.49h4.13v-6.49z" fill="#fff"/><path d="M96.349 112.278h-4.13c-.28 0-.5-.22-.5-.5v-6.49c0-.28.22-.5.5-.5h4.13c.28 0 .5.22.5.5v6.49c0 .28-.22.5-.5.5zm-3.63-1h3.13v-5.49h-3.13v5.49z" fill="#191919"/><path d="M84.149 105.288h-4.13v6.49h4.13v-6.49z" fill="#fff"/><path d="M84.149 112.278h-4.13c-.28 0-.5-.22-.5-.5v-6.49c0-.28.22-.5.5-.5h4.13c.28 0 .5.22.5.5v6.49c0 .28-.22.5-.5.5zm-3.63-1h3.13v-5.49h-3.13v5.49z" fill="#191919"/><path d="M108.559 105.288h-4.13v6.49h4.13v-6.49z" fill="#fff"/><path d="M108.559 112.278h-4.13c-.28 0-.5-.22-.5-.5v-6.49c0-.28.22-.5.5-.5h4.13c.28 0 .5.22.5.5v6.49c0 .28-.22.5-.5.5zm-3.63-1h3.13v-5.49h-3.13v5.49zm-28.65-11.57c-.28 0-.5-.22-.5-.5v-3.24c0-.28.22-.5.5-.5s.5.22.5.5v3.24c0 .28-.22.5-.5.5zm35.69 0c-.28 0-.5-.22-.5-.5v-3.24c0-.28.22-.5.5-.5s.5.22.5.5v3.24c0 .28-.22.5-.5.5zm9.73 21.09c-.28 0-.5-.22-.5-.5v-3.24c0-.28.22-.5.5-.5s.5.22.5.5v3.24c0 .28-.22.5-.5.5zm-54.34 0c-.28 0-.5-.22-.5-.5v-3.24c0-.28.22-.5.5-.5s.5.22.5.5v3.24c0 .28-.22.5-.5.5z" fill="#191919"/><path d="M80.499 132.547v-5.55l13.79-6.89 13.79 6.89v5.55h-4.25v-3.84l-9.54-4.77-9.55 4.77v3.84h-4.24z" fill="#fff"/><path d="M108.079 133.048h-4.24c-.28 0-.5-.22-.5-.5v-3.53l-9.05-4.52-9.05 4.52v3.53c0 .28-.22.5-.5.5h-4.24c-.28 0-.5-.22-.5-.5v-5.54c0-.19.11-.36.28-.45l13.79-6.89c.14-.07.31-.07.45 0l13.79 6.89a.5.5 0 01.28.45v5.54c0 .28-.22.5-.5.5h-.01zm-3.74-1h3.24v-4.73l-13.29-6.64-13.29 6.64v4.73h3.24v-3.34c0-.19.11-.36.28-.45l9.55-4.77c.14-.07.31-.07.45 0l9.55 4.77a.5.5 0 01.28.45v3.34h-.01z" fill="#191919"/><path d="M86.819 132.468h-7.3v3.24h7.3v-3.24z" fill="#fff"/><path d="M86.819 136.208h-7.3c-.28 0-.5-.22-.5-.5v-3.24c0-.28.22-.5.5-.5h7.3c.28 0 .5.22.5.5v3.24c0 .28-.22.5-.5.5zm-6.8-1h6.3v-2.24h-6.3v2.24z" fill="#191919"/><path d="M109.539 132.468h-7.3v3.24h7.3v-3.24z" fill="#fff"/><path d="M109.539 136.208h-7.3c-.28 0-.5-.22-.5-.5v-3.24c0-.28.22-.5.5-.5h7.3c.28 0 .5.22.5.5v3.24c0 .28-.22.5-.5.5zm-6.8-1h6.3v-2.24h-6.3v2.24zm-8.45 23.71c-.28 0-.5-.22-.5-.5v-11.36c0-.28.22-.5.5-.5s.5.22.5.5v11.36c0 .28-.22.5-.5.5z" fill="#191919"/><path d="M93.139 87.648l13.33-18.1-5.09-6.55h-16.47l-5.09 6.55 13.32 18.1z" fill="#fff"/><path d="M93.139 88.148c-.16 0-.31-.08-.4-.2l-13.32-18.1a.51.51 0 010-.6l5.09-6.54c.09-.12.24-.19.39-.19h16.47c.15 0 .3.07.39.19l5.09 6.54c.14.18.14.42 0 .6l-13.32 18.1a.48.48 0 01-.4.2h.01zm-12.7-18.6l12.7 17.25 12.7-17.25-4.71-6.05h-15.98l-4.71 6.05z" fill="#191919"/><path d="M106.169 70.047h-26.06c-.28 0-.5-.22-.5-.5s.22-.5.5-.5h26.06c.28 0 .5.22.5.5s-.22.5-.5.5z" fill="#191919"/><path d="M98.499 69.547l-5.36-6.55-5.28 6.55 5.28 18.1 5.36-18.1z" fill="#fff"/><path d="M93.139 88.147c-.22 0-.42-.15-.48-.36l-5.29-18.1a.482.482 0 01.09-.45l5.29-6.54c.1-.12.26-.18.39-.19.15 0 .29.07.39.18l5.36 6.54c.11.13.14.3.09.46l-5.36 18.1c-.06.21-.26.36-.48.36zm-4.74-18.49l4.74 16.22 4.8-16.22-4.8-5.86-4.74 5.86z" fill="#191919"/><path d="M87.859 70.047a.5.5 0 01-.46-.3l-2.8-6.54c-.11-.25 0-.55.26-.66.26-.11.55 0 .66.26l2.8 6.54a.498.498 0 01-.46.7zm10.64 0a.503.503 0 01-.46-.7l2.8-6.54c.11-.26.4-.37.66-.26.25.11.37.4.26.66l-2.8 6.54a.5.5 0 01-.46.3z" fill="#191919"/><path d="M103.809 58.047l.52-.94.52.94c.23.42.57.76.98.98l.94.52-.86.47c-.47.26-.84.66-1.06 1.14l-.52 1.14-.52-1.14c-.22-.49-.6-.89-1.06-1.14l-.86-.47.94-.52c.42-.23.76-.57.98-.98z" fill="#fff"/><path d="M104.329 62.797c-.2 0-.37-.11-.45-.29l-.52-1.14c-.18-.38-.48-.71-.85-.91l-.86-.47a.509.509 0 01-.26-.44c0-.18.1-.35.26-.44l.94-.52c.33-.18.6-.45.79-.79l.52-.94c.18-.32.7-.32.88 0l.52.94c.18.33.45.6.79.79l.94.52c.16.09.26.26.26.44s-.1.35-.26.44l-.86.47c-.37.2-.67.53-.85.91l-.52 1.14c-.08.18-.26.29-.45.29h-.02zm-1.4-3.25l.06.03c.56.31 1.01.79 1.28 1.37l.07.15.07-.15c.26-.58.72-1.07 1.28-1.37l.06-.03-.14-.08c-.5-.27-.91-.68-1.18-1.18l-.08-.14-.08.14c-.27.5-.68.91-1.18 1.18l-.14.08h-.02z" fill="#191919"/><path d="M82.339 86.957l.21-.39.21.39c.09.17.23.31.41.41l.39.21-.35.19c-.19.11-.35.27-.44.47l-.21.47-.21-.47c-.09-.2-.25-.36-.44-.47l-.35-.19.39-.21c.17-.09.31-.23.41-.41h-.02z" fill="#fff"/><path d="M82.549 89.207c-.2 0-.37-.11-.45-.29l-.21-.47a.513.513 0 00-.22-.24l-.35-.19a.509.509 0 01-.26-.44c0-.18.1-.35.26-.44l.39-.21a.53.53 0 00.21-.21l.21-.39c.09-.16.26-.26.44-.26s.35.1.44.26l.21.39c.05.09.12.16.21.21l.39.21c.16.09.26.26.26.44s-.1.35-.26.44l-.35.19c-.1.05-.18.14-.22.24l-.21.47c-.08.18-.26.29-.46.29h-.03zm-.07-1.62s.05.05.07.08c.02-.03.05-.05.07-.08-.03-.02-.05-.05-.07-.07l-.07.07z" fill="#191919"/><path d="M102.589 81.318l.21-.39.21.39c.09.17.23.31.41.41l.39.21-.35.19c-.19.11-.35.27-.44.47l-.21.47-.21-.47c-.09-.2-.25-.36-.44-.47l-.35-.19.39-.21c.17-.09.31-.23.41-.41h-.02z" fill="#fff"/><path d="M102.799 83.567c-.2 0-.37-.11-.45-.29l-.21-.47a.57.57 0 00-.22-.24l-.35-.19a.509.509 0 01-.26-.44c0-.18.1-.35.26-.44l.39-.21a.53.53 0 00.21-.21l.21-.39c.17-.32.7-.32.88 0l.21.39c.05.09.12.16.21.21l.39.21c.16.09.26.26.26.44s-.1.35-.26.44l-.35.19c-.1.05-.18.14-.22.24l-.21.47c-.08.18-.26.29-.45.29h-.04zm-.07-1.62s.05.05.07.08c.02-.03.05-.05.07-.08-.03-.02-.05-.05-.07-.07l-.07.07z" fill="#191919"/><path d="M94.239 194.607c-40.25 0-73-32.75-73-73s32.75-73 73-73 73 32.75 73 73-32.75 73-73 73zm0-145c-39.7 0-72 32.3-72 72s32.3 72 72 72 72-32.3 72-72-32.3-72-72-72z" fill="#191919"/><path d="M43.249 173.097c-.13 0-.26-.05-.36-.15a.513.513 0 010-.71l103-101.99c.2-.19.51-.19.71 0 .19.2.19.51 0 .71l-103 101.99c-.1.1-.22.14-.35.14v.01zm202.711-56.528l-5.396 10.078h15.407v7.113h-19.175l-4.326 8.161h-7.314l4.326-8.161h-6.243v-7.113h10.078l5.329-10.078h-15.407v-7.113h19.242l4.326-8.161h7.247l-4.326 8.161h6.243v7.113H245.96z" fill="#191919"/><path d="M407.451 94.442h-69.18v3.861h69.18v-3.86z" fill="#fff"/><path d="M407.451 98.964h-69.18a.655.655 0 01-.661-.66v-3.862c0-.37.291-.66.661-.66h69.18c.37 0 .661.29.661.66v3.861c0 .37-.291.661-.661.661zm-68.518-1.322h67.857v-2.538h-67.857v2.538z" fill="#191919"/><path d="M381.217 97.746h-41.478v48.672h41.478V97.746z" fill="#fff"/><path d="M381.217 147.079h-41.478a.655.655 0 01-.661-.661V97.746c0-.37.291-.661.661-.661h41.478c.371 0 .661.29.661.661v48.672c0 .37-.29.661-.661.661zm-40.817-1.322h40.156v-47.35H340.4v47.35z" fill="#191919"/><path d="M367.995 116.259h-49.412v31.482h49.412v-31.482z" fill="#fff"/><path d="M367.995 148.402h-49.412a.655.655 0 01-.661-.661v-31.482c0-.37.291-.661.661-.661h49.412c.37 0 .661.291.661.661v31.482c0 .37-.291.661-.661.661zm-48.751-1.322h48.09v-30.16h-48.09v30.16z" fill="#191919"/><path d="M359.572 126.836h-31.734v21.156h31.734v-21.156z" fill="#fff"/><path d="M359.572 148.653h-31.734a.655.655 0 01-.661-.661v-21.156c0-.37.291-.661.661-.661h31.734c.37 0 .661.291.661.661v21.156c0 .37-.291.661-.661.661zm-31.073-1.322h30.412v-19.834h-30.412v19.834z" fill="#191919"/><path d="M367.783 113.06h-55.15v6.505h55.15v-6.505z" fill="#fff"/><path d="M367.783 120.226h-55.15a.655.655 0 01-.661-.661v-6.505c0-.371.291-.662.661-.662h55.15c.371 0 .661.291.661.662v6.505c0 .37-.29.661-.661.661zm-54.489-1.322h53.828v-5.183h-53.828v5.183z" fill="#191919"/><path d="M428.818 87.17h-61.67v60.572h61.67V87.17z" fill="#fff"/><path d="M428.818 148.403h-61.669a.655.655 0 01-.661-.661V87.17c0-.37.291-.661.661-.661h61.669c.37 0 .661.29.661.66v60.573c0 .37-.291.661-.661.661zm-61.008-1.322h60.347v-59.25H367.81v59.25z" fill="#191919"/><path d="M386.017 130.578h-13.222v17.163h13.222v-17.163z" fill="#fff"/><path d="M386.017 148.402h-13.222a.655.655 0 01-.661-.661v-17.163c0-.37.291-.661.661-.661h13.222c.371 0 .661.291.661.661v17.163c0 .37-.29.661-.661.661zm-12.561-1.322h11.9v-15.841h-11.9v15.841z" fill="#191919"/><path d="M428.329 95.103h-60.823v21.816h60.823V95.103z" fill="#fff"/><path d="M428.328 117.581h-60.823a.655.655 0 01-.661-.662V95.103c0-.37.291-.662.661-.662h60.823c.371 0 .661.291.661.662v21.816c0 .371-.29.662-.661.662zm-60.162-1.323h59.501V95.764h-59.501v20.494z" fill="#191919"/><path d="M428.329 125.515h-38.345v22.478h38.345v-22.478z" fill="#fff"/><path d="M428.329 148.654h-38.345a.655.655 0 01-.661-.661v-22.478c0-.371.291-.661.661-.661h38.345c.37 0 .661.29.661.661v22.478c0 .37-.291.661-.661.661zm-37.684-1.322h37.023v-21.156h-37.023v21.156z" fill="#191919"/><path d="M432.574 83.97h-69.18v6.4h69.18v-6.4z" fill="#fff"/><path d="M432.574 91.03h-69.18a.655.655 0 01-.661-.66v-6.4c0-.37.291-.661.661-.661h69.18c.37 0 .661.29.661.66v6.4c0 .37-.291.662-.661.662zm-68.519-1.322h67.857v-5.077h-67.857v5.077zm12.706 27.873a.655.655 0 01-.661-.662V95.103c0-.37.291-.662.661-.662.37 0 .661.291.661.662v21.816a.655.655 0 01-.661.662zm13.223 0a.655.655 0 01-.661-.662V95.103c0-.37.291-.662.661-.662.37 0 .661.291.661.662v21.816a.655.655 0 01-.661.662zm13.222 0a.655.655 0 01-.661-.662V95.103c0-.37.291-.662.661-.662.37 0 .661.291.661.662v21.816a.655.655 0 01-.661.662zm13.223 0a.654.654 0 01-.661-.662V95.103c0-.37.29-.662.661-.662.37 0 .661.291.661.662v21.816a.655.655 0 01-.661.662zm-13.223 29.751a.655.655 0 01-.661-.662v-20.494c0-.37.291-.661.661-.661.37 0 .661.291.661.661v20.494a.655.655 0 01-.661.662zm13.223 0a.654.654 0 01-.661-.662v-20.494c0-.37.29-.661.661-.661.37 0 .661.291.661.661v20.494a.655.655 0 01-.661.662zm-56.856-17.189h-31.734a.655.655 0 01-.661-.662c0-.37.291-.661.661-.661h31.734c.37 0 .661.291.661.661a.655.655 0 01-.661.662zm0 3.966h-31.734a.655.655 0 01-.661-.661c0-.37.291-.661.661-.661h31.734c.37 0 .661.291.661.661 0 .37-.291.661-.661.661zm0 3.966h-31.734a.655.655 0 01-.661-.661c0-.37.291-.661.661-.661h31.734c.37 0 .661.291.661.661 0 .37-.291.661-.661.661zm0 3.967h-31.734a.655.655 0 01-.661-.661c0-.37.291-.661.661-.661h31.734c.37 0 .661.291.661.661 0 .37-.291.661-.661.661zm0 3.967h-31.734a.655.655 0 01-.661-.661c0-.371.291-.661.661-.661h31.734c.37 0 .661.29.661.661 0 .37-.291.661-.661.661zm-7.934-35.701h-7.933a.655.655 0 01-.662-.661v-9.255c0-.371.291-.661.662-.661h7.933c.37 0 .661.29.661.661v9.255c0 .37-.291.661-.661.661zm-7.272-1.322h6.611v-7.933h-6.611v7.933zm19.172 1.322h-7.934a.655.655 0 01-.661-.661v-9.255c0-.371.291-.661.661-.661h7.934c.37 0 .661.29.661.661v9.255c0 .37-.291.661-.661.661zm-7.272-1.322h6.611v-7.933h-6.611v7.933z" fill="#191919"/><path d="M415.53 139.121c-.608 0-1.097.489-1.097 1.098v16.104c0 .609.489 1.098 1.097 1.098h6.611v-18.3h-6.611zm35.938 6.055a3.826 3.826 0 00-1.864-3.279 3.833 3.833 0 00.674-2.169 3.832 3.832 0 00-3.821-3.821h-8.066c.252-1.124.582-2.803.82-4.562.608-4.574.198-7.126-1.322-7.999-.939-.542-1.957-.661-2.856-.317-.701.264-1.64.925-2.182 2.525l-2.115 5.553c-1.071 2.658-4.364 5.448-6.413 6.982v19.82a35.548 35.548 0 0011.768 1.997h8.793a3.832 3.832 0 003.821-3.821c0-.741-.212-1.428-.569-2.01a3.84 3.84 0 002.156-3.438c0-.807-.252-1.56-.675-2.169a3.842 3.842 0 001.865-3.279l-.014-.013z" fill="#191919"/></svg>