<svg width="25" height="25" viewBox="0 0 25 25" fill="none" xmlns="http://www.w3.org/2000/svg">
<g clip-path="url(#clip0_4693_2435)">
<path d="M22.0273 15.6393C22.0437 15.5847 22.0929 15.5464 22.153 15.541L24.694 15.3333L25 13.1475L22.6175 12.2459C22.5628 12.224 22.5301 12.1749 22.5246 12.1202C22.5027 11.5574 22.4372 10.9945 22.3224 10.459C22.3115 10.4044 22.3333 10.3443 22.3825 10.3115L24.4754 8.86339L23.6503 6.81421L21.1366 7.22404C21.082 7.23497 21.0219 7.20765 20.9945 7.15847C20.6995 6.68853 20.3607 6.24044 19.9891 5.81967C19.9508 5.77596 19.9399 5.71585 19.9672 5.6612L21.0546 3.35519L19.3169 1.99454L17.3443 3.60656C17.3005 3.64481 17.2404 3.65027 17.1858 3.62295C16.6995 3.36612 16.1803 3.14754 15.6448 2.97268C15.5902 2.95628 15.5519 2.9071 15.5464 2.84699L15.3388 0.306011L13.153 0L12.2514 2.38251C12.2295 2.43716 12.1803 2.46995 12.1257 2.47541C11.5628 2.49727 11 2.56284 10.4645 2.6776C10.4098 2.68852 10.3497 2.66667 10.3169 2.61749L8.86885 0.52459L6.81967 1.34973L7.22951 3.86339C7.24044 3.91803 7.21311 3.97814 7.16393 4.00546C6.69399 4.30055 6.2459 4.63934 5.82514 5.01093C5.78142 5.04918 5.72131 5.06011 5.66667 5.03279L3.36066 3.94536L2 5.68306L3.61202 7.65574C3.65027 7.69945 3.65574 7.75956 3.62842 7.81421C3.37158 8.30055 3.15301 8.81967 2.97814 9.35519C2.96175 9.40984 2.91257 9.44809 2.85246 9.45355L0.311475 9.6612L0 11.847L2.38251 12.7486C2.43716 12.7705 2.46995 12.8197 2.47541 12.8743C2.49727 13.4372 2.56284 14 2.6776 14.5355C2.68852 14.5902 2.66667 14.6503 2.61749 14.6831L0.52459 16.1311L1.34973 18.1803L3.86339 17.7705C3.91803 17.7596 3.97814 17.7869 4.00546 17.8361C4.30055 18.306 4.63934 18.7596 5.01093 19.1749C5.04918 19.2186 5.06011 19.2787 5.03279 19.3333L3.94536 21.6393L5.68306 23L7.65574 21.388C7.69945 21.3497 7.75956 21.3443 7.81421 21.3716C8.30055 21.6284 8.81967 21.847 9.35519 22.0219C9.40984 22.0383 9.44809 22.0874 9.45355 22.1475L9.6612 24.6885L11.847 24.9945L12.7486 22.612C12.7705 22.5574 12.8197 22.5246 12.8743 22.5191C13.4372 22.4973 14 22.4317 14.5355 22.3169C14.5902 22.306 14.6503 22.3279 14.6831 22.3771L16.1311 24.4699L18.1803 23.6448L17.7705 21.1311C17.7596 21.0765 17.7869 21.0164 17.8361 20.9891C18.306 20.694 18.7596 20.3552 19.1749 19.9836C19.2186 19.9454 19.2787 19.9344 19.3333 19.9617L21.6393 21.0492L23 19.3115L21.388 17.3388C21.3497 17.2951 21.3443 17.235 21.3716 17.1803C21.6284 16.694 21.847 16.1749 22.0219 15.6393H22.0273ZM20.6557 13.6503C20.3497 15.8306 19.2131 17.7596 17.4536 19.082C16.0109 20.1694 14.2896 20.7377 12.5191 20.7377C12.1311 20.7377 11.7432 20.7104 11.3497 20.6557C9.1694 20.3497 7.24044 19.2131 5.91803 17.4536C4.59563 15.694 4.03279 13.5246 4.34426 11.3497C4.65027 9.1694 5.78689 7.24044 7.54645 5.91803C9.30601 4.59563 11.4754 4.03279 13.6503 4.34426C15.8306 4.65027 17.7596 5.78689 19.082 7.54645C20.4044 9.30601 20.9672 11.4754 20.6557 13.6503Z" fill="#1D1D1B"/>
<path d="M8.40985 13.6933H11.6776V18.3873H13.317V13.6933H16.5847L12.4973 6.61133L8.40985 13.6933Z" fill="#1D1D1B"/>
</g>
<defs>
<clipPath id="clip0_4693_2435">
<rect width="25" height="25" fill="white"/>
</clipPath>
</defs>
</svg>
